M48
; DRILL file KiCad 10.0.1 date 2026-05-05T12:30:33
; FORMAT={-:-/ absolute / metric / decimal}
; #@! TF.CreationDate,2026-05-05T12:30:33-06:00
; #@! TF.GenerationSoftware,Kicad,Pcbnew,10.0.1
; #@! TF.FileFunction,Plated,1,2,PTH
FMAT,2
METRIC
; #@! TA.AperFunction,Plated,PTH,ViaDrill
T1C0.300
; #@! TA.AperFunction,Plated,PTH,ComponentDrill
T2C0.600
; #@! TA.AperFunction,Plated,PTH,ComponentDrill
T3C0.950
; #@! TA.AperFunction,Plated,PTH,ComponentDrill
T4C1.000
%
G90
G05
T1
X103.721Y-76.817
X104.721Y-86.567
X104.971Y-101.317
X108.971Y-93.317
X109.221Y-104.067
X111.988Y-90.299
X112.721Y-86.067
X112.721Y-94.067
X114.721Y-82.317
X115.971Y-63.567
X115.971Y-74.567
X119.971Y-79.067
X119.971Y-81.067
X119.971Y-93.817
X120.221Y-75.067
X120.221Y-77.317
X121.971Y-97.817
X122.721Y-60.317
X123.221Y-95.067
X123.471Y-62.067
X123.471Y-99.817
X123.971Y-72.817
X124.221Y-60.067
X125.221Y-91.067
X126.221Y-83.567
X127.721Y-83.567
X127.971Y-77.317
X132.221Y-99.317
X132.721Y-83.567
X132.721Y-92.317
X133.471Y-79.817
X133.471Y-97.317
X133.721Y-86.067
X134.721Y-81.317
X136.221Y-75.317
X136.721Y-96.067
X136.721Y-104.067
X136.721Y-105.567
X137.471Y-58.817
X137.721Y-65.317
X137.721Y-94.567
X137.721Y-96.567
X137.736Y-78.68
X137.971Y-81.144
X138.221Y-79.317
X138.267Y-81.884
X138.471Y-79.817
X138.721Y-85.817
X138.721Y-88.067
X138.971Y-66.317
X138.971Y-75.067
X138.971Y-84.317
X139.471Y-78.317
X139.721Y-83.067
X140.221Y-85.067
X140.721Y-78.317
X141.221Y-64.317
X141.221Y-66.317
X141.471Y-75.067
X141.471Y-91.317
X142.172Y-77.366
X142.721Y-57.488
X142.721Y-104.067
X142.971Y-75.067
X143.221Y-82.967
X143.721Y-84.167
X144.036Y-76.252
X144.221Y-82.817
X144.971Y-87.317
X144.971Y-100.317
X145.221Y-85.067
X145.471Y-73.317
X145.971Y-62.067
X146.971Y-78.817
X147.721Y-71.817
X147.721Y-99.317
X148.971Y-65.567
X149.471Y-86.067
X150.721Y-76.817
X150.721Y-77.567
X150.721Y-80.567
X150.721Y-81.317
X150.971Y-64.817
X153.221Y-73.067
X153.721Y-86.317
X154.971Y-88.317
X155.721Y-73.067
X156.221Y-66.067
X159.721Y-71.817
X159.721Y-73.317
X163.721Y-67.317
T3
X109.254Y-102.413
X111.754Y-102.413
X113.337Y-65.425
X114.254Y-102.413
X115.837Y-65.425
X116.754Y-102.413
X118.337Y-65.425
X120.837Y-65.425
X123.337Y-65.425
T4
X103.397Y-98.781
X103.397Y-101.321
X103.397Y-103.861
X103.397Y-106.401
X105.404Y-69.215
X105.404Y-71.755
X105.404Y-74.295
X105.404Y-76.835
X107.944Y-69.215
X107.944Y-71.755
X107.944Y-74.295
X107.944Y-76.835
X134.512Y-107.366
X137.052Y-107.366
X139.592Y-107.366
X142.132Y-107.366
X144.672Y-107.366
X147.212Y-107.366
X147.999Y-61.443
X149.752Y-107.366
X150.499Y-61.443
X152.292Y-107.366
X158.794Y-60.731
X159.471Y-77.817
X159.471Y-80.317
X161.294Y-60.731
T2
G00X102.996Y-85.664
M15
G01X102.396Y-85.664
M16
G05
G00X102.996Y-94.304
M15
G01X102.396Y-94.304
M16
G05
G00X107.426Y-85.664
M15
G01X106.326Y-85.664
M16
G05
G00X107.426Y-94.304
M15
G01X106.326Y-94.304
M16
G05
M30
