%TF.GenerationSoftware,KiCad,Pcbnew,10.0.1*%
%TF.CreationDate,2026-05-05T12:30:37-06:00*%
%TF.ProjectId,2026_12_2Wheel_Balance_Robot_v1,32303236-5f31-4325-9f32-576865656c5f,rev?*%
%TF.SameCoordinates,Original*%
%TF.FileFunction,Copper,L2,Bot*%
%TF.FilePolarity,Positive*%
%FSLAX46Y46*%
G04 Gerber Fmt 4.6, Leading zero omitted, Abs format (unit mm)*
G04 Created by KiCad (PCBNEW 10.0.1) date 2026-05-05 12:30:37*
%MOMM*%
%LPD*%
G01*
G04 APERTURE LIST*
G04 Aperture macros list*
%AMRoundRect*
0 Rectangle with rounded corners*
0 $1 Rounding radius*
0 $2 $3 $4 $5 $6 $7 $8 $9 X,Y pos of 4 corners*
0 Add a 4 corners polygon primitive as box body*
4,1,4,$2,$3,$4,$5,$6,$7,$8,$9,$2,$3,0*
0 Add four circle primitives for the rounded corners*
1,1,$1+$1,$2,$3*
1,1,$1+$1,$4,$5*
1,1,$1+$1,$6,$7*
1,1,$1+$1,$8,$9*
0 Add four rect primitives between the rounded corners*
20,1,$1+$1,$2,$3,$4,$5,0*
20,1,$1+$1,$4,$5,$6,$7,0*
20,1,$1+$1,$6,$7,$8,$9,0*
20,1,$1+$1,$8,$9,$2,$3,0*%
G04 Aperture macros list end*
%TA.AperFunction,ComponentPad*%
%ADD10R,1.700000X1.700000*%
%TD*%
%TA.AperFunction,ComponentPad*%
%ADD11C,1.700000*%
%TD*%
%TA.AperFunction,ComponentPad*%
%ADD12RoundRect,0.250000X-0.600000X-0.750000X0.600000X-0.750000X0.600000X0.750000X-0.600000X0.750000X0*%
%TD*%
%TA.AperFunction,ComponentPad*%
%ADD13O,1.700000X2.000000*%
%TD*%
%TA.AperFunction,ComponentPad*%
%ADD14RoundRect,0.250000X0.600000X0.750000X-0.600000X0.750000X-0.600000X-0.750000X0.600000X-0.750000X0*%
%TD*%
%TA.AperFunction,ComponentPad*%
%ADD15RoundRect,0.250000X0.750000X-0.600000X0.750000X0.600000X-0.750000X0.600000X-0.750000X-0.600000X0*%
%TD*%
%TA.AperFunction,ComponentPad*%
%ADD16O,2.000000X1.700000*%
%TD*%
%TA.AperFunction,ComponentPad*%
%ADD17RoundRect,0.250000X-0.600000X-0.725000X0.600000X-0.725000X0.600000X0.725000X-0.600000X0.725000X0*%
%TD*%
%TA.AperFunction,ComponentPad*%
%ADD18O,1.700000X1.950000*%
%TD*%
%TA.AperFunction,ComponentPad*%
%ADD19O,2.100000X1.000000*%
%TD*%
%TA.AperFunction,ComponentPad*%
%ADD20O,1.600000X1.000000*%
%TD*%
%TA.AperFunction,ComponentPad*%
%ADD21RoundRect,0.250000X0.600000X0.725000X-0.600000X0.725000X-0.600000X-0.725000X0.600000X-0.725000X0*%
%TD*%
%TA.AperFunction,ViaPad*%
%ADD22C,0.600000*%
%TD*%
%TA.AperFunction,Conductor*%
%ADD23C,0.381000*%
%TD*%
%TA.AperFunction,Conductor*%
%ADD24C,0.508000*%
%TD*%
%TA.AperFunction,Conductor*%
%ADD25C,0.203200*%
%TD*%
%TA.AperFunction,Conductor*%
%ADD26C,0.254000*%
%TD*%
%TA.AperFunction,Conductor*%
%ADD27C,0.200000*%
%TD*%
G04 APERTURE END LIST*
D10*
%TO.P,J4,1,Pin_1_1*%
%TO.N,GND*%
X105403700Y-76835000D03*
D11*
%TO.P,J4,2,Pin_2_2*%
%TO.N,/ESP_TX*%
X107943700Y-76835000D03*
%TO.P,J4,3,Pin_3_3*%
%TO.N,unconnected-(J4-Pin_3-Pad3)*%
X105403700Y-74295000D03*
%TO.P,J4,4,Pin_4_4*%
%TO.N,+3.3V*%
X107943700Y-74295000D03*
%TO.P,J4,5,Pin_5_5*%
%TO.N,Net-(J4-Pin_5)*%
X105403700Y-71755000D03*
%TO.P,J4,6,Pin_6_6*%
%TO.N,+3.3V*%
X107943700Y-71755000D03*
%TO.P,J4,7,Pin_7_7*%
%TO.N,/ESP_RX*%
X105403700Y-69215000D03*
%TO.P,J4,8,Pin_8_8*%
%TO.N,+3.3V*%
X107943700Y-69215000D03*
%TD*%
D12*
%TO.P,J7,1,Pin_1_1*%
%TO.N,/MD_BO1*%
X158794500Y-60731400D03*
D13*
%TO.P,J7,2,Pin_2_2*%
%TO.N,/MD_BO2*%
X161294500Y-60731400D03*
%TD*%
D10*
%TO.P,J1,1,Pin_1_1*%
%TO.N,+3.3V*%
X103397100Y-106400600D03*
D11*
%TO.P,J1,2,Pin_2_2*%
%TO.N,/SWCLK*%
X103397100Y-103860600D03*
%TO.P,J1,3,Pin_3_3*%
%TO.N,GND*%
X103397100Y-101320600D03*
%TO.P,J1,4,Pin_4_4*%
%TO.N,/SWDIO*%
X103397100Y-98780600D03*
%TD*%
D14*
%TO.P,J5,1,Pin_1_1*%
%TO.N,VM*%
X150499500Y-61442600D03*
D13*
%TO.P,J5,2,Pin_2_2*%
%TO.N,GND*%
X147999500Y-61442600D03*
%TD*%
D15*
%TO.P,J6,1,Pin_1_1*%
%TO.N,/MD_AO1*%
X159470900Y-80316800D03*
D16*
%TO.P,J6,2,Pin_2_2*%
%TO.N,/MD_AO2*%
X159470900Y-77816800D03*
%TD*%
D17*
%TO.P,J9,1,Pin_1_1*%
%TO.N,+3.3V*%
X113337043Y-65425082D03*
D18*
%TO.P,J9,2,Pin_2_2*%
%TO.N,GND*%
X115837043Y-65425082D03*
%TO.P,J9,3,Pin_3_3*%
%TO.N,/MT_PWM*%
X118337043Y-65425082D03*
%TO.P,J9,4,Pin_4_4*%
%TO.N,/MT_SCL*%
X120837043Y-65425082D03*
%TO.P,J9,5,Pin_5_5*%
%TO.N,/MT_SDA*%
X123337043Y-65425082D03*
%TD*%
D19*
%TO.P,J3,SH,SHIELD_SH*%
%TO.N,GND*%
X106875900Y-85664400D03*
D20*
X102695900Y-85664400D03*
D19*
X106875900Y-94304400D03*
D20*
X102695900Y-94304400D03*
%TD*%
D10*
%TO.P,J2,1,Pin_1_1*%
%TO.N,+5V*%
X134512100Y-107365800D03*
D11*
%TO.P,J2,2,Pin_2_2*%
%TO.N,GND*%
X137052100Y-107365800D03*
%TO.P,J2,3,Pin_3_3*%
%TO.N,/IMU_SCL*%
X139592100Y-107365800D03*
%TO.P,J2,4,Pin_4_4*%
%TO.N,/IMU_SDA*%
X142132100Y-107365800D03*
%TO.P,J2,5,Pin_5_5*%
%TO.N,unconnected-(J2-Pin_5-Pad5)*%
X144672100Y-107365800D03*
%TO.P,J2,6,Pin_6_6*%
%TO.N,unconnected-(J2-Pin_6-Pad6)*%
X147212100Y-107365800D03*
%TO.P,J2,7,Pin_7_7*%
%TO.N,unconnected-(J2-Pin_7-Pad7)*%
X149752100Y-107365800D03*
%TO.P,J2,8,Pin_8_8*%
%TO.N,/IMU_INT*%
X152292100Y-107365800D03*
%TD*%
D21*
%TO.P,J8,1,Pin_1_1*%
%TO.N,+3.3V*%
X116753700Y-102412800D03*
D18*
%TO.P,J8,2,Pin_2_2*%
%TO.N,/ENC_A*%
X114253700Y-102412800D03*
%TO.P,J8,3,Pin_3_3*%
%TO.N,/ENC_B*%
X111753700Y-102412800D03*
%TO.P,J8,4,Pin_4_4*%
%TO.N,GND*%
X109253700Y-102412800D03*
%TD*%
D22*
%TO.N,Net-(D5-A)*%
X122720900Y-60316800D03*
X123470900Y-62066800D03*
%TO.N,VM*%
X145470900Y-73316800D03*
X147720900Y-71816800D03*
X148970900Y-65566800D03*
X150970900Y-64816800D03*
X145220900Y-85066800D03*
X144220900Y-82816800D03*
%TO.N,GND*%
X136220900Y-75316800D03*
X137736042Y-78680469D03*
X124220900Y-60066800D03*
X111987801Y-90299167D03*
X112720900Y-86066800D03*
%TO.N,+3.3V*%
X138970900Y-84316800D03*
X138266968Y-81884020D03*
X139720900Y-83066800D03*
X140720900Y-78316800D03*
X138220900Y-79316800D03*
X139470900Y-78316800D03*
X138470900Y-79816800D03*
X137970900Y-81143800D03*
X142970900Y-75066800D03*
X138720900Y-85816800D03*
X133470900Y-79816800D03*
X134720900Y-81316800D03*
X136720900Y-104066800D03*
X142720900Y-104066800D03*
X133470900Y-97316800D03*
X132220900Y-99316800D03*
X123220900Y-95066800D03*
X121970900Y-97816800D03*
%TO.N,GND*%
X153720900Y-86316800D03*
X149470900Y-86066800D03*
%TO.N,+3.3V*%
X143220900Y-82966800D03*
X143720900Y-84166800D03*
%TO.N,+5V*%
X159720900Y-71816800D03*
X159720900Y-73316800D03*
X153220900Y-73066800D03*
X155720900Y-73066800D03*
%TO.N,GND*%
X142720900Y-57488327D03*
X137470900Y-58816800D03*
%TO.N,+3.3V*%
X115970900Y-74566800D03*
X120220900Y-77316800D03*
%TO.N,GND*%
X108970900Y-93316800D03*
X123470900Y-99816800D03*
X141470900Y-75066800D03*
X132720900Y-83566800D03*
X154970900Y-88316800D03*
X104720900Y-86566800D03*
X120220900Y-75066800D03*
X127720900Y-83566800D03*
X112720900Y-94066800D03*
X119970900Y-79066800D03*
X109220900Y-104066800D03*
X156220900Y-66066800D03*
X125220900Y-91066800D03*
X104970900Y-101316800D03*
X144970900Y-100316800D03*
X136720900Y-96066800D03*
X147720900Y-99316800D03*
X150720900Y-81316800D03*
X114720900Y-82316800D03*
X163720900Y-67316800D03*
X150720900Y-77566800D03*
X146970900Y-78816800D03*
X123970900Y-72816800D03*
X138970900Y-66316800D03*
X137720900Y-65316800D03*
X119970900Y-81066800D03*
X150720900Y-80566800D03*
X141220900Y-66316800D03*
X136720900Y-105566800D03*
X144970900Y-87316800D03*
X138970900Y-75066800D03*
X145970900Y-62066800D03*
X115970900Y-63566800D03*
X140220900Y-85066800D03*
X103720900Y-76816800D03*
X138720900Y-88066800D03*
X119970900Y-93816800D03*
X126220900Y-83566800D03*
X133720900Y-86066800D03*
X141470900Y-91316800D03*
X132720900Y-92316800D03*
X141220900Y-64316800D03*
X150720900Y-76816800D03*
X127970900Y-77316800D03*
%TO.N,/MD_PWMB*%
X144035937Y-76251763D03*
X142171635Y-77366065D03*
%TO.N,/IMU_INT*%
X137720900Y-96566800D03*
X137720900Y-94566800D03*
%TD*%
%TO.N,Net-(D5-A)*%
D23*
X123470900Y-61066800D02*
X122720900Y-60316800D01*
X123470900Y-62066800D02*
X123470900Y-61066800D01*
%TO.N,VM*%
D24*
X147720900Y-71816800D02*
X146970900Y-71816800D01*
X146970900Y-71816800D02*
X145470900Y-73316800D01*
X150970900Y-64816800D02*
X149720900Y-64816800D01*
X149720900Y-64816800D02*
X148970900Y-65566800D01*
X145220900Y-83816800D02*
X144220900Y-82816800D01*
X145220900Y-85066800D02*
X145220900Y-83816800D01*
%TO.N,+3.3V*%
D25*
X138538120Y-81884020D02*
X139720900Y-83066800D01*
X138266968Y-81884020D02*
X138538120Y-81884020D01*
D24*
X140720900Y-78316800D02*
X140720900Y-77316800D01*
X140720900Y-77316800D02*
X142970900Y-75066800D01*
D25*
X138220900Y-79316800D02*
X139220900Y-78316800D01*
X139220900Y-78316800D02*
X139470900Y-78316800D01*
X137970900Y-80316800D02*
X138470900Y-79816800D01*
X137970900Y-81143800D02*
X137970900Y-80316800D01*
D26*
X138970900Y-85566800D02*
X138970900Y-84316800D01*
X138720900Y-85816800D02*
X138970900Y-85566800D01*
D25*
X133470900Y-80066800D02*
X134720900Y-81316800D01*
X133470900Y-79816800D02*
X133470900Y-80066800D01*
D23*
X142720900Y-104066800D02*
X136720900Y-104066800D01*
D26*
X133470900Y-98066800D02*
X132220900Y-99316800D01*
X133470900Y-97316800D02*
X133470900Y-98066800D01*
D24*
X123220900Y-96566800D02*
X121970900Y-97816800D01*
X123220900Y-95066800D02*
X123220900Y-96566800D01*
D25*
X143220900Y-82966800D02*
X143720900Y-83466800D01*
X143720900Y-83466800D02*
X143720900Y-84166800D01*
%TO.N,+5V*%
D24*
X159720900Y-73316800D02*
X159720900Y-71816800D01*
X153220900Y-73066800D02*
X155720900Y-73066800D01*
%TO.N,+3.3V*%
X117470900Y-74566800D02*
X120220900Y-77316800D01*
X115970900Y-74566800D02*
X117470900Y-74566800D01*
%TO.N,/MD_PWMB*%
D27*
X142421635Y-77366065D02*
X143470900Y-76316800D01*
X143470900Y-76316800D02*
X143970900Y-76316800D01*
X142171635Y-77366065D02*
X142421635Y-77366065D01*
X143970900Y-76316800D02*
X144035937Y-76251763D01*
%TO.N,/IMU_INT*%
D26*
X137720900Y-94566800D02*
X137720900Y-96566800D01*
%TD*%
%TA.AperFunction,Conductor*%
%TO.N,GND*%
G36*
X115268320Y-57208512D02*
G01*
X115314075Y-57261316D01*
X115324019Y-57330474D01*
X115294994Y-57394030D01*
X115263281Y-57420214D01*
X115078380Y-57526965D01*
X114861233Y-57693588D01*
X114861226Y-57693594D01*
X114667694Y-57887126D01*
X114667688Y-57887133D01*
X114501065Y-58104280D01*
X114364213Y-58341316D01*
X114364209Y-58341326D01*
X114259468Y-58594193D01*
X114188625Y-58858580D01*
X114152901Y-59129934D01*
X114152900Y-59129951D01*
X114152900Y-59403648D01*
X114152901Y-59403665D01*
X114186919Y-59662063D01*
X114188626Y-59675023D01*
X114229778Y-59828603D01*
X114259468Y-59939406D01*
X114364209Y-60192273D01*
X114364213Y-60192283D01*
X114501065Y-60429319D01*
X114667688Y-60646466D01*
X114667694Y-60646473D01*
X114861226Y-60840005D01*
X114861233Y-60840011D01*
X115078380Y-61006634D01*
X115315416Y-61143486D01*
X115315417Y-61143486D01*
X115315420Y-61143488D01*
X115568294Y-61248232D01*
X115832677Y-61319074D01*
X116104045Y-61354800D01*
X116104052Y-61354800D01*
X116377748Y-61354800D01*
X116377755Y-61354800D01*
X116649123Y-61319074D01*
X116913506Y-61248232D01*
X117166380Y-61143488D01*
X117403420Y-61006634D01*
X117620568Y-60840010D01*
X117814110Y-60646468D01*
X117980734Y-60429320D01*
X118091219Y-60237953D01*
X121920400Y-60237953D01*
X121920400Y-60395646D01*
X121951161Y-60550289D01*
X121951164Y-60550301D01*
X122011502Y-60695972D01*
X122011509Y-60695985D01*
X122099110Y-60827088D01*
X122099113Y-60827092D01*
X122210607Y-60938586D01*
X122210611Y-60938589D01*
X122341714Y-61026190D01*
X122341723Y-61026195D01*
X122487403Y-61086537D01*
X122493225Y-61088303D01*
X122492512Y-61090651D01*
X122544864Y-61118014D01*
X122546471Y-61119593D01*
X122743581Y-61316703D01*
X122758284Y-61343630D01*
X122774877Y-61369449D01*
X122775768Y-61375649D01*
X122777066Y-61378026D01*
X122779900Y-61404384D01*
X122779900Y-61622477D01*
X122762624Y-61681309D01*
X122764379Y-61682247D01*
X122761502Y-61687628D01*
X122701164Y-61833298D01*
X122701161Y-61833310D01*
X122670400Y-61987953D01*
X122670400Y-62145646D01*
X122701161Y-62300289D01*
X122701164Y-62300301D01*
X122761502Y-62445972D01*
X122761509Y-62445985D01*
X122849110Y-62577088D01*
X122849113Y-62577092D01*
X122960607Y-62688586D01*
X122960611Y-62688589D01*
X123091714Y-62776190D01*
X123091727Y-62776197D01*
X123237398Y-62836535D01*
X123237403Y-62836537D01*
X123392053Y-62867299D01*
X123392056Y-62867300D01*
X123392058Y-62867300D01*
X123549744Y-62867300D01*
X123549745Y-62867299D01*
X123704397Y-62836537D01*
X123850079Y-62776194D01*
X123981189Y-62688589D01*
X124092689Y-62577089D01*
X124180294Y-62445979D01*
X124240637Y-62300297D01*
X124271400Y-62145642D01*
X124271400Y-61987958D01*
X124271400Y-61987955D01*
X124271399Y-61987953D01*
X124263861Y-61950056D01*
X124240637Y-61833303D01*
X124180294Y-61687621D01*
X124180290Y-61687615D01*
X124177421Y-61682247D01*
X124179576Y-61681094D01*
X124161919Y-61624669D01*
X124161900Y-61622477D01*
X124161900Y-60998739D01*
X124135346Y-60865248D01*
X124135345Y-60865247D01*
X124135345Y-60865243D01*
X124083256Y-60739489D01*
X124083253Y-60739484D01*
X124077897Y-60731468D01*
X124077896Y-60731467D01*
X124062433Y-60708325D01*
X124062432Y-60708323D01*
X124018506Y-60642583D01*
X149149000Y-60642583D01*
X149149000Y-62242601D01*
X149149001Y-62242618D01*
X149159500Y-62345396D01*
X149159501Y-62345399D01*
X149214685Y-62511931D01*
X149214686Y-62511934D01*
X149306788Y-62661256D01*
X149430844Y-62785312D01*
X149580166Y-62877414D01*
X149746703Y-62932599D01*
X149849491Y-62943100D01*
X151149508Y-62943099D01*
X151252297Y-62932599D01*
X151418834Y-62877414D01*
X151568156Y-62785312D01*
X151692212Y-62661256D01*
X151784314Y-62511934D01*
X151839499Y-62345397D01*
X151850000Y-62242609D01*
X151849999Y-60642592D01*
X151848335Y-60626307D01*
X151839499Y-60539803D01*
X151839498Y-60539800D01*
X151802888Y-60429319D01*
X151784314Y-60373266D01*
X151692212Y-60223944D01*
X151568156Y-60099888D01*
X151418834Y-60007786D01*
X151252297Y-59952601D01*
X151252295Y-59952600D01*
X151149510Y-59942100D01*
X149849498Y-59942100D01*
X149849481Y-59942101D01*
X149746703Y-59952600D01*
X149746700Y-59952601D01*
X149580168Y-60007785D01*
X149580163Y-60007787D01*
X149430842Y-60099889D01*
X149306789Y-60223942D01*
X149214687Y-60373263D01*
X149214685Y-60373268D01*
X149186849Y-60457270D01*
X149159501Y-60539803D01*
X149159501Y-60539804D01*
X149159500Y-60539804D01*
X149149000Y-60642583D01*
X124018506Y-60642583D01*
X124007636Y-60626314D01*
X124007630Y-60626307D01*
X123523693Y-60142371D01*
X123494303Y-60088548D01*
X123492403Y-60089125D01*
X123490637Y-60083303D01*
X123430295Y-59937623D01*
X123430290Y-59937614D01*
X123426127Y-59931383D01*
X157444000Y-59931383D01*
X157444000Y-61531401D01*
X157444001Y-61531418D01*
X157454500Y-61634196D01*
X157454501Y-61634199D01*
X157509685Y-61800731D01*
X157509687Y-61800736D01*
X157529775Y-61833303D01*
X157601788Y-61950056D01*
X157725844Y-62074112D01*
X157875166Y-62166214D01*
X158041703Y-62221399D01*
X158144491Y-62231900D01*
X159444508Y-62231899D01*
X159547297Y-62221399D01*
X159713834Y-62166214D01*
X159863156Y-62074112D01*
X159987212Y-61950056D01*
X160079314Y-61800734D01*
X160079314Y-61800731D01*
X160082678Y-61795279D01*
X160134626Y-61748554D01*
X160203588Y-61737331D01*
X160267670Y-61765174D01*
X160275898Y-61772694D01*
X160414713Y-61911509D01*
X160586679Y-62036448D01*
X160586681Y-62036449D01*
X160586684Y-62036451D01*
X160776088Y-62132957D01*
X160978257Y-62198646D01*
X161188213Y-62231900D01*
X161188214Y-62231900D01*
X161400786Y-62231900D01*
X161400787Y-62231900D01*
X161610743Y-62198646D01*
X161812912Y-62132957D01*
X162002316Y-62036451D01*
X162024289Y-62020486D01*
X162174286Y-61911509D01*
X162174288Y-61911506D01*
X162174292Y-61911504D01*
X162324604Y-61761192D01*
X162324606Y-61761188D01*
X162324609Y-61761186D01*
X162449548Y-61589220D01*
X162449547Y-61589220D01*
X162449551Y-61589216D01*
X162546057Y-61399812D01*
X162611746Y-61197643D01*
X162645000Y-60987687D01*
X162645000Y-60475113D01*
X162611746Y-60265157D01*
X162546057Y-60062988D01*
X162449551Y-59873584D01*
X162449549Y-59873581D01*
X162449548Y-59873579D01*
X162324609Y-59701613D01*
X162174286Y-59551290D01*
X162002320Y-59426351D01*
X161812914Y-59329844D01*
X161812913Y-59329843D01*
X161812912Y-59329843D01*
X161610743Y-59264154D01*
X161610741Y-59264153D01*
X161610740Y-59264153D01*
X161449457Y-59238608D01*
X161400787Y-59230900D01*
X161188213Y-59230900D01*
X161139542Y-59238608D01*
X160978260Y-59264153D01*
X160776085Y-59329844D01*
X160586679Y-59426351D01*
X160414715Y-59551289D01*
X160275898Y-59690106D01*
X160214575Y-59723590D01*
X160144883Y-59718606D01*
X160088950Y-59676734D01*
X160082678Y-59667520D01*
X159987212Y-59512744D01*
X159863157Y-59388689D01*
X159863156Y-59388688D01*
X159713834Y-59296586D01*
X159547297Y-59241401D01*
X159547295Y-59241400D01*
X159444510Y-59230900D01*
X158144498Y-59230900D01*
X158144481Y-59230901D01*
X158041703Y-59241400D01*
X158041700Y-59241401D01*
X157875168Y-59296585D01*
X157875163Y-59296587D01*
X157725842Y-59388689D01*
X157601789Y-59512742D01*
X157509687Y-59662063D01*
X157509685Y-59662068D01*
X157505394Y-59675019D01*
X157454501Y-59828603D01*
X157454501Y-59828604D01*
X157454500Y-59828604D01*
X157444000Y-59931383D01*
X123426127Y-59931383D01*
X123342689Y-59806511D01*
X123342686Y-59806507D01*
X123231192Y-59695013D01*
X123231188Y-59695010D01*
X123100085Y-59607409D01*
X123100072Y-59607402D01*
X122954401Y-59547064D01*
X122954389Y-59547061D01*
X122799745Y-59516300D01*
X122799742Y-59516300D01*
X122642058Y-59516300D01*
X122642055Y-59516300D01*
X122487410Y-59547061D01*
X122487398Y-59547064D01*
X122341727Y-59607402D01*
X122341714Y-59607409D01*
X122210611Y-59695010D01*
X122210607Y-59695013D01*
X122099113Y-59806507D01*
X122099110Y-59806511D01*
X122011509Y-59937614D01*
X122011502Y-59937627D01*
X121951164Y-60083298D01*
X121951161Y-60083310D01*
X121920400Y-60237953D01*
X118091219Y-60237953D01*
X118117588Y-60192280D01*
X118222332Y-59939406D01*
X118293174Y-59675023D01*
X118328900Y-59403655D01*
X118328900Y-59129945D01*
X118293174Y-58858577D01*
X118222332Y-58594194D01*
X118117588Y-58341320D01*
X118116814Y-58339980D01*
X117980734Y-58104280D01*
X117814111Y-57887133D01*
X117814105Y-57887126D01*
X117620573Y-57693594D01*
X117620566Y-57693588D01*
X117403419Y-57526965D01*
X117218519Y-57420214D01*
X117170304Y-57369648D01*
X117157080Y-57301041D01*
X117183048Y-57236176D01*
X117239962Y-57195647D01*
X117280519Y-57188827D01*
X165217432Y-57188827D01*
X165284471Y-57208512D01*
X165305113Y-57225146D01*
X166504081Y-58424114D01*
X166537566Y-58485437D01*
X166540400Y-58511795D01*
X166540400Y-69677788D01*
X166539648Y-69740706D01*
X166540400Y-69743652D01*
X166540400Y-69746692D01*
X166553241Y-69794617D01*
X166556475Y-69806687D01*
X166556850Y-69808120D01*
X166572231Y-69868397D01*
X166573580Y-69871768D01*
X166573603Y-69871824D01*
X166574379Y-69873763D01*
X166605574Y-69927794D01*
X166606308Y-69929082D01*
X166636754Y-69983303D01*
X166639002Y-69986306D01*
X166640224Y-69987938D01*
X166684320Y-70032034D01*
X166685362Y-70033088D01*
X168985123Y-72388489D01*
X169017873Y-72450207D01*
X169020400Y-72475115D01*
X169020400Y-73296619D01*
X169000715Y-73363658D01*
X168947911Y-73409413D01*
X168878753Y-73419357D01*
X168815197Y-73390332D01*
X168789013Y-73358619D01*
X168780734Y-73344280D01*
X168614111Y-73127133D01*
X168614105Y-73127126D01*
X168420573Y-72933594D01*
X168420566Y-72933588D01*
X168203419Y-72766965D01*
X167966383Y-72630113D01*
X167966373Y-72630109D01*
X167713506Y-72525368D01*
X167449119Y-72454525D01*
X167177765Y-72418801D01*
X167177760Y-72418800D01*
X167177755Y-72418800D01*
X166904045Y-72418800D01*
X166904039Y-72418800D01*
X166904034Y-72418801D01*
X166632680Y-72454525D01*
X166368293Y-72525368D01*
X166115426Y-72630109D01*
X166115416Y-72630113D01*
X165878380Y-72766965D01*
X165661233Y-72933588D01*
X165661226Y-72933594D01*
X165467694Y-73127126D01*
X165467688Y-73127133D01*
X165301065Y-73344280D01*
X165164213Y-73581316D01*
X165164209Y-73581326D01*
X165059468Y-73834193D01*
X164988625Y-74098580D01*
X164952901Y-74369934D01*
X164952900Y-74369951D01*
X164952900Y-74643648D01*
X164952901Y-74643665D01*
X164988625Y-74915019D01*
X165059468Y-75179406D01*
X165164209Y-75432273D01*
X165164213Y-75432283D01*
X165301065Y-75669319D01*
X165467688Y-75886466D01*
X165467694Y-75886473D01*
X165661226Y-76080005D01*
X165661233Y-76080011D01*
X165878380Y-76246634D01*
X166115416Y-76383486D01*
X166115417Y-76383486D01*
X166115420Y-76383488D01*
X166368294Y-76488232D01*
X166632677Y-76559074D01*
X166904045Y-76594800D01*
X166904052Y-76594800D01*
X167177748Y-76594800D01*
X167177755Y-76594800D01*
X167449123Y-76559074D01*
X167713506Y-76488232D01*
X167966380Y-76383488D01*
X168203420Y-76246634D01*
X168420568Y-76080010D01*
X168614110Y-75886468D01*
X168780734Y-75669320D01*
X168789011Y-75654982D01*
X168839577Y-75606766D01*
X168908184Y-75593541D01*
X168973049Y-75619508D01*
X169013579Y-75676421D01*
X169020400Y-75716980D01*
X169020400Y-101236619D01*
X169000715Y-101303658D01*
X168947911Y-101349413D01*
X168878753Y-101359357D01*
X168815197Y-101330332D01*
X168789013Y-101298619D01*
X168780734Y-101284280D01*
X168614111Y-101067133D01*
X168614105Y-101067126D01*
X168420573Y-100873594D01*
X168420566Y-100873588D01*
X168203419Y-100706965D01*
X167966383Y-100570113D01*
X167966373Y-100570109D01*
X167713506Y-100465368D01*
X167449119Y-100394525D01*
X167177765Y-100358801D01*
X167177760Y-100358800D01*
X167177755Y-100358800D01*
X166904045Y-100358800D01*
X166904039Y-100358800D01*
X166904034Y-100358801D01*
X166632680Y-100394525D01*
X166368293Y-100465368D01*
X166115426Y-100570109D01*
X166115416Y-100570113D01*
X165878380Y-100706965D01*
X165661233Y-100873588D01*
X165661226Y-100873594D01*
X165467694Y-101067126D01*
X165467688Y-101067133D01*
X165301065Y-101284280D01*
X165164213Y-101521316D01*
X165164209Y-101521326D01*
X165059468Y-101774193D01*
X164988625Y-102038580D01*
X164952901Y-102309934D01*
X164952900Y-102309951D01*
X164952900Y-102583648D01*
X164952901Y-102583665D01*
X164988625Y-102855019D01*
X165059468Y-103119406D01*
X165164209Y-103372273D01*
X165164213Y-103372283D01*
X165301065Y-103609319D01*
X165467688Y-103826466D01*
X165467694Y-103826473D01*
X165661226Y-104020005D01*
X165661233Y-104020011D01*
X165878380Y-104186634D01*
X166115416Y-104323486D01*
X166115417Y-104323486D01*
X166115420Y-104323488D01*
X166368294Y-104428232D01*
X166632677Y-104499074D01*
X166904045Y-104534800D01*
X166904052Y-104534800D01*
X167177748Y-104534800D01*
X167177755Y-104534800D01*
X167449123Y-104499074D01*
X167713506Y-104428232D01*
X167966380Y-104323488D01*
X168203420Y-104186634D01*
X168420568Y-104020010D01*
X168614110Y-103826468D01*
X168780734Y-103609320D01*
X168789011Y-103594982D01*
X168839577Y-103546766D01*
X168908184Y-103533541D01*
X168973049Y-103559508D01*
X169013579Y-103616421D01*
X169020400Y-103656980D01*
X169020400Y-104732483D01*
X169000715Y-104799522D01*
X168985123Y-104819110D01*
X166685362Y-107174510D01*
X166685361Y-107174509D01*
X166684741Y-107175143D01*
X166640400Y-107219486D01*
X166638882Y-107222114D01*
X166636756Y-107224292D01*
X166606303Y-107278521D01*
X166606304Y-107278522D01*
X166605923Y-107279199D01*
X166574508Y-107333614D01*
X166573721Y-107336549D01*
X166572230Y-107339205D01*
X166556838Y-107399521D01*
X166556641Y-107400291D01*
X166540400Y-107460908D01*
X166540400Y-107463941D01*
X166539648Y-107466889D01*
X166540391Y-107529057D01*
X166540400Y-107530539D01*
X166540400Y-109442300D01*
X166520715Y-109509339D01*
X166467911Y-109555094D01*
X166416400Y-109566300D01*
X116047157Y-109566300D01*
X115980118Y-109546615D01*
X115934363Y-109493811D01*
X115924419Y-109424653D01*
X115953444Y-109361097D01*
X115985157Y-109334913D01*
X116031935Y-109307905D01*
X116103420Y-109266634D01*
X116320568Y-109100010D01*
X116514110Y-108906468D01*
X116680734Y-108689320D01*
X116817588Y-108452280D01*
X116922332Y-108199406D01*
X116993174Y-107935023D01*
X117028900Y-107663655D01*
X117028900Y-107389945D01*
X116993174Y-107118577D01*
X116922332Y-106854194D01*
X116817588Y-106601320D01*
X116816814Y-106599980D01*
X116774452Y-106526606D01*
X116740579Y-106467935D01*
X133161600Y-106467935D01*
X133161600Y-108263670D01*
X133161601Y-108263676D01*
X133168008Y-108323283D01*
X133218302Y-108458128D01*
X133218306Y-108458135D01*
X133304552Y-108573344D01*
X133304555Y-108573347D01*
X133419764Y-108659593D01*
X133419771Y-108659597D01*
X133554617Y-108709891D01*
X133554616Y-108709891D01*
X133561544Y-108710635D01*
X133614227Y-108716300D01*
X135409972Y-108716299D01*
X135469583Y-108709891D01*
X135604431Y-108659596D01*
X135719646Y-108573346D01*
X135805896Y-108458131D01*
X135856191Y-108323283D01*
X135862600Y-108263673D01*
X135862599Y-107259513D01*
X138241600Y-107259513D01*
X138241600Y-107472086D01*
X138271941Y-107663655D01*
X138274854Y-107682043D01*
X138297291Y-107751098D01*
X138340544Y-107884214D01*
X138437051Y-108073620D01*
X138561990Y-108245586D01*
X138712313Y-108395909D01*
X138884279Y-108520848D01*
X138884281Y-108520849D01*
X138884284Y-108520851D01*
X139073688Y-108617357D01*
X139275857Y-108683046D01*
X139485813Y-108716300D01*
X139485814Y-108716300D01*
X139698386Y-108716300D01*
X139698387Y-108716300D01*
X139908343Y-108683046D01*
X140110512Y-108617357D01*
X140299916Y-108520851D01*
X140386238Y-108458135D01*
X140471886Y-108395909D01*
X140471888Y-108395906D01*
X140471892Y-108395904D01*
X140622204Y-108245592D01*
X140622206Y-108245588D01*
X140622209Y-108245586D01*
X140747148Y-108073620D01*
X140747147Y-108073620D01*
X140747151Y-108073616D01*
X140751614Y-108064854D01*
X140799588Y-108014059D01*
X140867408Y-107997263D01*
X140933544Y-108019799D01*
X140972586Y-108064856D01*
X140977051Y-108073620D01*
X141101990Y-108245586D01*
X141252313Y-108395909D01*
X141424279Y-108520848D01*
X141424281Y-108520849D01*
X141424284Y-108520851D01*
X141613688Y-108617357D01*
X141815857Y-108683046D01*
X142025813Y-108716300D01*
X142025814Y-108716300D01*
X142238386Y-108716300D01*
X142238387Y-108716300D01*
X142448343Y-108683046D01*
X142650512Y-108617357D01*
X142839916Y-108520851D01*
X142926238Y-108458135D01*
X143011886Y-108395909D01*
X143011888Y-108395906D01*
X143011892Y-108395904D01*
X143162204Y-108245592D01*
X143162206Y-108245588D01*
X143162209Y-108245586D01*
X143287148Y-108073620D01*
X143287147Y-108073620D01*
X143287151Y-108073616D01*
X143291614Y-108064854D01*
X143339588Y-108014059D01*
X143407408Y-107997263D01*
X143473544Y-108019799D01*
X143512586Y-108064856D01*
X143517051Y-108073620D01*
X143641990Y-108245586D01*
X143792313Y-108395909D01*
X143964279Y-108520848D01*
X143964281Y-108520849D01*
X143964284Y-108520851D01*
X144153688Y-108617357D01*
X144355857Y-108683046D01*
X144565813Y-108716300D01*
X144565814Y-108716300D01*
X144778386Y-108716300D01*
X144778387Y-108716300D01*
X144988343Y-108683046D01*
X145190512Y-108617357D01*
X145379916Y-108520851D01*
X145466238Y-108458135D01*
X145551886Y-108395909D01*
X145551888Y-108395906D01*
X145551892Y-108395904D01*
X145702204Y-108245592D01*
X145702206Y-108245588D01*
X145702209Y-108245586D01*
X145827148Y-108073620D01*
X145827147Y-108073620D01*
X145827151Y-108073616D01*
X145831614Y-108064854D01*
X145879588Y-108014059D01*
X145947408Y-107997263D01*
X146013544Y-108019799D01*
X146052586Y-108064856D01*
X146057051Y-108073620D01*
X146181990Y-108245586D01*
X146332313Y-108395909D01*
X146504279Y-108520848D01*
X146504281Y-108520849D01*
X146504284Y-108520851D01*
X146693688Y-108617357D01*
X146895857Y-108683046D01*
X147105813Y-108716300D01*
X147105814Y-108716300D01*
X147318386Y-108716300D01*
X147318387Y-108716300D01*
X147528343Y-108683046D01*
X147730512Y-108617357D01*
X147919916Y-108520851D01*
X148006238Y-108458135D01*
X148091886Y-108395909D01*
X148091888Y-108395906D01*
X148091892Y-108395904D01*
X148242204Y-108245592D01*
X148242206Y-108245588D01*
X148242209Y-108245586D01*
X148367148Y-108073620D01*
X148367147Y-108073620D01*
X148367151Y-108073616D01*
X148371614Y-108064854D01*
X148419588Y-108014059D01*
X148487408Y-107997263D01*
X148553544Y-108019799D01*
X148592586Y-108064856D01*
X148597051Y-108073620D01*
X148721990Y-108245586D01*
X148872313Y-108395909D01*
X149044279Y-108520848D01*
X149044281Y-108520849D01*
X149044284Y-108520851D01*
X149233688Y-108617357D01*
X149435857Y-108683046D01*
X149645813Y-108716300D01*
X149645814Y-108716300D01*
X149858386Y-108716300D01*
X149858387Y-108716300D01*
X150068343Y-108683046D01*
X150270512Y-108617357D01*
X150459916Y-108520851D01*
X150546238Y-108458135D01*
X150631886Y-108395909D01*
X150631888Y-108395906D01*
X150631892Y-108395904D01*
X150782204Y-108245592D01*
X150782206Y-108245588D01*
X150782209Y-108245586D01*
X150907148Y-108073620D01*
X150907147Y-108073620D01*
X150907151Y-108073616D01*
X150911614Y-108064854D01*
X150959588Y-108014059D01*
X151027408Y-107997263D01*
X151093544Y-108019799D01*
X151132586Y-108064856D01*
X151137051Y-108073620D01*
X151261990Y-108245586D01*
X151412313Y-108395909D01*
X151584279Y-108520848D01*
X151584281Y-108520849D01*
X151584284Y-108520851D01*
X151773688Y-108617357D01*
X151975857Y-108683046D01*
X152185813Y-108716300D01*
X152185814Y-108716300D01*
X152398386Y-108716300D01*
X152398387Y-108716300D01*
X152608343Y-108683046D01*
X152810512Y-108617357D01*
X152999916Y-108520851D01*
X153086238Y-108458135D01*
X153171886Y-108395909D01*
X153171888Y-108395906D01*
X153171892Y-108395904D01*
X153322204Y-108245592D01*
X153322206Y-108245588D01*
X153322209Y-108245586D01*
X153447148Y-108073620D01*
X153447147Y-108073620D01*
X153447151Y-108073616D01*
X153543657Y-107884212D01*
X153609346Y-107682043D01*
X153642600Y-107472087D01*
X153642600Y-107259513D01*
X153609346Y-107049557D01*
X153543657Y-106847388D01*
X153447151Y-106657984D01*
X153447149Y-106657981D01*
X153447148Y-106657979D01*
X153322209Y-106486013D01*
X153171886Y-106335690D01*
X152999920Y-106210751D01*
X152810514Y-106114244D01*
X152810513Y-106114243D01*
X152810512Y-106114243D01*
X152608343Y-106048554D01*
X152608341Y-106048553D01*
X152608340Y-106048553D01*
X152447057Y-106023008D01*
X152398387Y-106015300D01*
X152185813Y-106015300D01*
X152137142Y-106023008D01*
X151975860Y-106048553D01*
X151773685Y-106114244D01*
X151584279Y-106210751D01*
X151412313Y-106335690D01*
X151261990Y-106486013D01*
X151137049Y-106657982D01*
X151132584Y-106666746D01*
X151084609Y-106717542D01*
X151016788Y-106734336D01*
X150950653Y-106711798D01*
X150911616Y-106666746D01*
X150907150Y-106657982D01*
X150782209Y-106486013D01*
X150631886Y-106335690D01*
X150459920Y-106210751D01*
X150270514Y-106114244D01*
X150270513Y-106114243D01*
X150270512Y-106114243D01*
X150068343Y-106048554D01*
X150068341Y-106048553D01*
X150068340Y-106048553D01*
X149907057Y-106023008D01*
X149858387Y-106015300D01*
X149645813Y-106015300D01*
X149597142Y-106023008D01*
X149435860Y-106048553D01*
X149233685Y-106114244D01*
X149044279Y-106210751D01*
X148872313Y-106335690D01*
X148721990Y-106486013D01*
X148597049Y-106657982D01*
X148592584Y-106666746D01*
X148544609Y-106717542D01*
X148476788Y-106734336D01*
X148410653Y-106711798D01*
X148371616Y-106666746D01*
X148367150Y-106657982D01*
X148242209Y-106486013D01*
X148091886Y-106335690D01*
X147919920Y-106210751D01*
X147730514Y-106114244D01*
X147730513Y-106114243D01*
X147730512Y-106114243D01*
X147528343Y-106048554D01*
X147528341Y-106048553D01*
X147528340Y-106048553D01*
X147367057Y-106023008D01*
X147318387Y-106015300D01*
X147105813Y-106015300D01*
X147057142Y-106023008D01*
X146895860Y-106048553D01*
X146693685Y-106114244D01*
X146504279Y-106210751D01*
X146332313Y-106335690D01*
X146181990Y-106486013D01*
X146057049Y-106657982D01*
X146052584Y-106666746D01*
X146004609Y-106717542D01*
X145936788Y-106734336D01*
X145870653Y-106711798D01*
X145831616Y-106666746D01*
X145827150Y-106657982D01*
X145702209Y-106486013D01*
X145551886Y-106335690D01*
X145379920Y-106210751D01*
X145190514Y-106114244D01*
X145190513Y-106114243D01*
X145190512Y-106114243D01*
X144988343Y-106048554D01*
X144988341Y-106048553D01*
X144988340Y-106048553D01*
X144827057Y-106023008D01*
X144778387Y-106015300D01*
X144565813Y-106015300D01*
X144517142Y-106023008D01*
X144355860Y-106048553D01*
X144153685Y-106114244D01*
X143964279Y-106210751D01*
X143792313Y-106335690D01*
X143641990Y-106486013D01*
X143517049Y-106657982D01*
X143512584Y-106666746D01*
X143464609Y-106717542D01*
X143396788Y-106734336D01*
X143330653Y-106711798D01*
X143291616Y-106666746D01*
X143287150Y-106657982D01*
X143162209Y-106486013D01*
X143011886Y-106335690D01*
X142839920Y-106210751D01*
X142650514Y-106114244D01*
X142650513Y-106114243D01*
X142650512Y-106114243D01*
X142448343Y-106048554D01*
X142448341Y-106048553D01*
X142448340Y-106048553D01*
X142287057Y-106023008D01*
X142238387Y-106015300D01*
X142025813Y-106015300D01*
X141977142Y-106023008D01*
X141815860Y-106048553D01*
X141613685Y-106114244D01*
X141424279Y-106210751D01*
X141252313Y-106335690D01*
X141101990Y-106486013D01*
X140977049Y-106657982D01*
X140972584Y-106666746D01*
X140924609Y-106717542D01*
X140856788Y-106734336D01*
X140790653Y-106711798D01*
X140751616Y-106666746D01*
X140747150Y-106657982D01*
X140622209Y-106486013D01*
X140471886Y-106335690D01*
X140299920Y-106210751D01*
X140110514Y-106114244D01*
X140110513Y-106114243D01*
X140110512Y-106114243D01*
X139908343Y-106048554D01*
X139908341Y-106048553D01*
X139908340Y-106048553D01*
X139747057Y-106023008D01*
X139698387Y-106015300D01*
X139485813Y-106015300D01*
X139437142Y-106023008D01*
X139275860Y-106048553D01*
X139073685Y-106114244D01*
X138884279Y-106210751D01*
X138712313Y-106335690D01*
X138561990Y-106486013D01*
X138437051Y-106657979D01*
X138340544Y-106847385D01*
X138274853Y-107049560D01*
X138241600Y-107259513D01*
X135862599Y-107259513D01*
X135862599Y-106467928D01*
X135856191Y-106408317D01*
X135839766Y-106364280D01*
X135805897Y-106273471D01*
X135805893Y-106273464D01*
X135719647Y-106158255D01*
X135719644Y-106158252D01*
X135604435Y-106072006D01*
X135604428Y-106072002D01*
X135469582Y-106021708D01*
X135469583Y-106021708D01*
X135409983Y-106015301D01*
X135409981Y-106015300D01*
X135409973Y-106015300D01*
X135409964Y-106015300D01*
X133614229Y-106015300D01*
X133614223Y-106015301D01*
X133554616Y-106021708D01*
X133419771Y-106072002D01*
X133419764Y-106072006D01*
X133304555Y-106158252D01*
X133304552Y-106158255D01*
X133218306Y-106273464D01*
X133218302Y-106273471D01*
X133168008Y-106408317D01*
X133161601Y-106467916D01*
X133161601Y-106467923D01*
X133161600Y-106467935D01*
X116740579Y-106467935D01*
X116680734Y-106364280D01*
X116680733Y-106364278D01*
X116514111Y-106147133D01*
X116514105Y-106147126D01*
X116320573Y-105953594D01*
X116320566Y-105953588D01*
X116103419Y-105786965D01*
X115866383Y-105650113D01*
X115866373Y-105650109D01*
X115613506Y-105545368D01*
X115349119Y-105474525D01*
X115077765Y-105438801D01*
X115077760Y-105438800D01*
X115077755Y-105438800D01*
X114804045Y-105438800D01*
X114804039Y-105438800D01*
X114804034Y-105438801D01*
X114532680Y-105474525D01*
X114268293Y-105545368D01*
X114015426Y-105650109D01*
X114015416Y-105650113D01*
X113778380Y-105786965D01*
X113561233Y-105953588D01*
X113561226Y-105953594D01*
X113367694Y-106147126D01*
X113367688Y-106147133D01*
X113201065Y-106364280D01*
X113064213Y-106601316D01*
X113064209Y-106601326D01*
X112959468Y-106854193D01*
X112888625Y-107118580D01*
X112852901Y-107389934D01*
X112852900Y-107389951D01*
X112852900Y-107663648D01*
X112852901Y-107663665D01*
X112888625Y-107935019D01*
X112959468Y-108199406D01*
X113064209Y-108452273D01*
X113064213Y-108452283D01*
X113201065Y-108689319D01*
X113367688Y-108906466D01*
X113367694Y-108906473D01*
X113561226Y-109100005D01*
X113561233Y-109100011D01*
X113778380Y-109266634D01*
X113896643Y-109334913D01*
X113944858Y-109385480D01*
X113958082Y-109454087D01*
X113932114Y-109518951D01*
X113875200Y-109559480D01*
X113834643Y-109566300D01*
X101595400Y-109566300D01*
X101528361Y-109546615D01*
X101482606Y-109493811D01*
X101471400Y-109442300D01*
X101471400Y-103754313D01*
X102046600Y-103754313D01*
X102046600Y-103966886D01*
X102074912Y-104145644D01*
X102079854Y-104176843D01*
X102127501Y-104323486D01*
X102145544Y-104379014D01*
X102242051Y-104568420D01*
X102366990Y-104740386D01*
X102480530Y-104853926D01*
X102514015Y-104915249D01*
X102509031Y-104984941D01*
X102467159Y-105040874D01*
X102436183Y-105057789D01*
X102304769Y-105106803D01*
X102304764Y-105106806D01*
X102189555Y-105193052D01*
X102189552Y-105193055D01*
X102103306Y-105308264D01*
X102103302Y-105308271D01*
X102053008Y-105443117D01*
X102046601Y-105502716D01*
X102046601Y-105502723D01*
X102046600Y-105502735D01*
X102046600Y-107298470D01*
X102046601Y-107298476D01*
X102053008Y-107358083D01*
X102103302Y-107492928D01*
X102103306Y-107492935D01*
X102189552Y-107608144D01*
X102189555Y-107608147D01*
X102304764Y-107694393D01*
X102304771Y-107694397D01*
X102439617Y-107744691D01*
X102439616Y-107744691D01*
X102446544Y-107745435D01*
X102499227Y-107751100D01*
X104294972Y-107751099D01*
X104354583Y-107744691D01*
X104489431Y-107694396D01*
X104604646Y-107608146D01*
X104690896Y-107492931D01*
X104741191Y-107358083D01*
X104747600Y-107298473D01*
X104747599Y-105502728D01*
X104741191Y-105443117D01*
X104739581Y-105438801D01*
X104690897Y-105308271D01*
X104690893Y-105308264D01*
X104604647Y-105193055D01*
X104604644Y-105193052D01*
X104489435Y-105106806D01*
X104489428Y-105106802D01*
X104358017Y-105057789D01*
X104302083Y-105015918D01*
X104277666Y-104950453D01*
X104292518Y-104882180D01*
X104313663Y-104853932D01*
X104427204Y-104740392D01*
X104552151Y-104568416D01*
X104648657Y-104379012D01*
X104714346Y-104176843D01*
X104744263Y-103987953D01*
X135920400Y-103987953D01*
X135920400Y-104145646D01*
X135951161Y-104300289D01*
X135951164Y-104300301D01*
X136011502Y-104445972D01*
X136011509Y-104445985D01*
X136099110Y-104577088D01*
X136099113Y-104577092D01*
X136210607Y-104688586D01*
X136210611Y-104688589D01*
X136341714Y-104776190D01*
X136341727Y-104776197D01*
X136445330Y-104819110D01*
X136487403Y-104836537D01*
X136642053Y-104867299D01*
X136642056Y-104867300D01*
X136642058Y-104867300D01*
X136799744Y-104867300D01*
X136799745Y-104867299D01*
X136954397Y-104836537D01*
X137100079Y-104776194D01*
X137100088Y-104776187D01*
X137105453Y-104773321D01*
X137106605Y-104775476D01*
X137163031Y-104757819D01*
X137165223Y-104757800D01*
X142276577Y-104757800D01*
X142335409Y-104775075D01*
X142336347Y-104773321D01*
X142341715Y-104776190D01*
X142341721Y-104776194D01*
X142487403Y-104836537D01*
X142642053Y-104867299D01*
X142642056Y-104867300D01*
X142642058Y-104867300D01*
X142799744Y-104867300D01*
X142799745Y-104867299D01*
X142954397Y-104836537D01*
X143100079Y-104776194D01*
X143231189Y-104688589D01*
X143342689Y-104577089D01*
X143430294Y-104445979D01*
X143490637Y-104300297D01*
X143521400Y-104145642D01*
X143521400Y-103987958D01*
X143521400Y-103987955D01*
X143521399Y-103987953D01*
X143517208Y-103966886D01*
X143490637Y-103833303D01*
X143448059Y-103730510D01*
X143430297Y-103687627D01*
X143430290Y-103687614D01*
X143342689Y-103556511D01*
X143342686Y-103556507D01*
X143231192Y-103445013D01*
X143231188Y-103445010D01*
X143100085Y-103357409D01*
X143100072Y-103357402D01*
X142954401Y-103297064D01*
X142954389Y-103297061D01*
X142799745Y-103266300D01*
X142799742Y-103266300D01*
X142642058Y-103266300D01*
X142642055Y-103266300D01*
X142487410Y-103297061D01*
X142487398Y-103297064D01*
X142341728Y-103357402D01*
X142336347Y-103360279D01*
X142335194Y-103358123D01*
X142278769Y-103375781D01*
X142276577Y-103375800D01*
X137165223Y-103375800D01*
X137106390Y-103358524D01*
X137105453Y-103360279D01*
X137100081Y-103357407D01*
X137100079Y-103357406D01*
X137100076Y-103357405D01*
X137100071Y-103357402D01*
X136954401Y-103297064D01*
X136954389Y-103297061D01*
X136799745Y-103266300D01*
X136799742Y-103266300D01*
X136642058Y-103266300D01*
X136642055Y-103266300D01*
X136487410Y-103297061D01*
X136487398Y-103297064D01*
X136341727Y-103357402D01*
X136341714Y-103357409D01*
X136210611Y-103445010D01*
X136210607Y-103445013D01*
X136099113Y-103556507D01*
X136099110Y-103556511D01*
X136011509Y-103687614D01*
X136011502Y-103687627D01*
X135951164Y-103833298D01*
X135951161Y-103833310D01*
X135920400Y-103987953D01*
X104744263Y-103987953D01*
X104747600Y-103966887D01*
X104747600Y-103754313D01*
X104714346Y-103544357D01*
X104648657Y-103342188D01*
X104552151Y-103152784D01*
X104552149Y-103152781D01*
X104552148Y-103152779D01*
X104427209Y-102980813D01*
X104276886Y-102830490D01*
X104104920Y-102705551D01*
X103915514Y-102609044D01*
X103915513Y-102609043D01*
X103915512Y-102609043D01*
X103713343Y-102543354D01*
X103713341Y-102543353D01*
X103713340Y-102543353D01*
X103552057Y-102517808D01*
X103503387Y-102510100D01*
X103290813Y-102510100D01*
X103242142Y-102517808D01*
X103080860Y-102543353D01*
X102878685Y-102609044D01*
X102689279Y-102705551D01*
X102517313Y-102830490D01*
X102366990Y-102980813D01*
X102242051Y-103152779D01*
X102145544Y-103342185D01*
X102145543Y-103342187D01*
X102145543Y-103342188D01*
X102135330Y-103373620D01*
X102079853Y-103544360D01*
X102046600Y-103754313D01*
X101471400Y-103754313D01*
X101471400Y-102181513D01*
X110403200Y-102181513D01*
X110403200Y-102644086D01*
X110432723Y-102830490D01*
X110436454Y-102854043D01*
X110477644Y-102980813D01*
X110502144Y-103056214D01*
X110598651Y-103245620D01*
X110723590Y-103417586D01*
X110873913Y-103567909D01*
X111045879Y-103692848D01*
X111045881Y-103692849D01*
X111045884Y-103692851D01*
X111235288Y-103789357D01*
X111437457Y-103855046D01*
X111647413Y-103888300D01*
X111647414Y-103888300D01*
X111859986Y-103888300D01*
X111859987Y-103888300D01*
X112069943Y-103855046D01*
X112272112Y-103789357D01*
X112461516Y-103692851D01*
X112510889Y-103656980D01*
X112633486Y-103567909D01*
X112633488Y-103567906D01*
X112633492Y-103567904D01*
X112783804Y-103417592D01*
X112903383Y-103253004D01*
X112958711Y-103210340D01*
X113028324Y-103204361D01*
X113090120Y-103236966D01*
X113104013Y-103252999D01*
X113191649Y-103373620D01*
X113223596Y-103417592D01*
X113373913Y-103567909D01*
X113545879Y-103692848D01*
X113545881Y-103692849D01*
X113545884Y-103692851D01*
X113735288Y-103789357D01*
X113937457Y-103855046D01*
X114147413Y-103888300D01*
X114147414Y-103888300D01*
X114359986Y-103888300D01*
X114359987Y-103888300D01*
X114569943Y-103855046D01*
X114772112Y-103789357D01*
X114961516Y-103692851D01*
X115133492Y-103567904D01*
X115272304Y-103429091D01*
X115333623Y-103395609D01*
X115403315Y-103400593D01*
X115459249Y-103442464D01*
X115465521Y-103451678D01*
X115468885Y-103457133D01*
X115468886Y-103457134D01*
X115560988Y-103606456D01*
X115685044Y-103730512D01*
X115834366Y-103822614D01*
X116000903Y-103877799D01*
X116103691Y-103888300D01*
X117403708Y-103888299D01*
X117506497Y-103877799D01*
X117673034Y-103822614D01*
X117822356Y-103730512D01*
X117946412Y-103606456D01*
X118038514Y-103457134D01*
X118093699Y-103290597D01*
X118104200Y-103187809D01*
X118104200Y-103085795D01*
X123470399Y-103085795D01*
X123497318Y-103221122D01*
X123497321Y-103221132D01*
X123550121Y-103348604D01*
X123550128Y-103348617D01*
X123626785Y-103463341D01*
X123626788Y-103463345D01*
X123724354Y-103560911D01*
X123724358Y-103560914D01*
X123839082Y-103637571D01*
X123839095Y-103637578D01*
X123966567Y-103690378D01*
X123966572Y-103690380D01*
X123966576Y-103690380D01*
X123966577Y-103690381D01*
X124101904Y-103717300D01*
X124101907Y-103717300D01*
X124239895Y-103717300D01*
X124330941Y-103699189D01*
X124375228Y-103690380D01*
X124502711Y-103637575D01*
X124617442Y-103560914D01*
X124715014Y-103463342D01*
X124791675Y-103348611D01*
X124794336Y-103342188D01*
X124834577Y-103245035D01*
X124844480Y-103221128D01*
X124871400Y-103085795D01*
X126470399Y-103085795D01*
X126497318Y-103221122D01*
X126497321Y-103221132D01*
X126550121Y-103348604D01*
X126550128Y-103348617D01*
X126626785Y-103463341D01*
X126626788Y-103463345D01*
X126724354Y-103560911D01*
X126724358Y-103560914D01*
X126839082Y-103637571D01*
X126839095Y-103637578D01*
X126966567Y-103690378D01*
X126966572Y-103690380D01*
X126966576Y-103690380D01*
X126966577Y-103690381D01*
X127101904Y-103717300D01*
X127101907Y-103717300D01*
X127239895Y-103717300D01*
X127330941Y-103699189D01*
X127375228Y-103690380D01*
X127502711Y-103637575D01*
X127617442Y-103560914D01*
X127715014Y-103463342D01*
X127791675Y-103348611D01*
X127794336Y-103342188D01*
X127834577Y-103245035D01*
X127844480Y-103221128D01*
X127871400Y-103085793D01*
X127871400Y-102947807D01*
X127871400Y-102947804D01*
X127844481Y-102812477D01*
X127844480Y-102812476D01*
X127844480Y-102812472D01*
X127800192Y-102705551D01*
X127791678Y-102684995D01*
X127791671Y-102684982D01*
X127715014Y-102570258D01*
X127715011Y-102570254D01*
X127617445Y-102472688D01*
X127617441Y-102472685D01*
X127502717Y-102396028D01*
X127502704Y-102396021D01*
X127375232Y-102343221D01*
X127375222Y-102343218D01*
X127239895Y-102316300D01*
X127239893Y-102316300D01*
X127101907Y-102316300D01*
X127101905Y-102316300D01*
X126966577Y-102343218D01*
X126966567Y-102343221D01*
X126839095Y-102396021D01*
X126839082Y-102396028D01*
X126724358Y-102472685D01*
X126724354Y-102472688D01*
X126626788Y-102570254D01*
X126626785Y-102570258D01*
X126550128Y-102684982D01*
X126550121Y-102684995D01*
X126497321Y-102812467D01*
X126497318Y-102812477D01*
X126470400Y-102947804D01*
X126470400Y-102947807D01*
X126470400Y-103085793D01*
X126470400Y-103085795D01*
X126470399Y-103085795D01*
X124871400Y-103085795D01*
X124871400Y-103085793D01*
X124871400Y-102947807D01*
X124871400Y-102947804D01*
X124844481Y-102812477D01*
X124844480Y-102812476D01*
X124844480Y-102812472D01*
X124800192Y-102705551D01*
X124791678Y-102684995D01*
X124791671Y-102684982D01*
X124715014Y-102570258D01*
X124715011Y-102570254D01*
X124617445Y-102472688D01*
X124617441Y-102472685D01*
X124502717Y-102396028D01*
X124502704Y-102396021D01*
X124375232Y-102343221D01*
X124375222Y-102343218D01*
X124239895Y-102316300D01*
X124239893Y-102316300D01*
X124101907Y-102316300D01*
X124101905Y-102316300D01*
X123966577Y-102343218D01*
X123966567Y-102343221D01*
X123839095Y-102396021D01*
X123839082Y-102396028D01*
X123724358Y-102472685D01*
X123724354Y-102472688D01*
X123626788Y-102570254D01*
X123626785Y-102570258D01*
X123550128Y-102684982D01*
X123550121Y-102684995D01*
X123497321Y-102812467D01*
X123497318Y-102812477D01*
X123470400Y-102947804D01*
X123470400Y-102947807D01*
X123470400Y-103085793D01*
X123470400Y-103085795D01*
X123470399Y-103085795D01*
X118104200Y-103085795D01*
X118104199Y-102396028D01*
X118104199Y-101637798D01*
X118104198Y-101637781D01*
X118093699Y-101535003D01*
X118093698Y-101535000D01*
X118088721Y-101519980D01*
X118038514Y-101368466D01*
X117946412Y-101219144D01*
X117822356Y-101095088D01*
X117673034Y-101002986D01*
X117506497Y-100947801D01*
X117506495Y-100947800D01*
X117403710Y-100937300D01*
X116103698Y-100937300D01*
X116103681Y-100937301D01*
X116000903Y-100947800D01*
X116000900Y-100947801D01*
X115834368Y-101002985D01*
X115834363Y-101002987D01*
X115685042Y-101095089D01*
X115560989Y-101219142D01*
X115465521Y-101373921D01*
X115413573Y-101420645D01*
X115344610Y-101431868D01*
X115280528Y-101404024D01*
X115272301Y-101396505D01*
X115133486Y-101257690D01*
X114961520Y-101132751D01*
X114772114Y-101036244D01*
X114772113Y-101036243D01*
X114772112Y-101036243D01*
X114569943Y-100970554D01*
X114569941Y-100970553D01*
X114569940Y-100970553D01*
X114408657Y-100945008D01*
X114359987Y-100937300D01*
X114147413Y-100937300D01*
X114098742Y-100945008D01*
X113937460Y-100970553D01*
X113735285Y-101036244D01*
X113545879Y-101132751D01*
X113373913Y-101257690D01*
X113223594Y-101408009D01*
X113223590Y-101408014D01*
X113104018Y-101572593D01*
X113048689Y-101615259D01*
X112979075Y-101621238D01*
X112917280Y-101588633D01*
X112903382Y-101572593D01*
X112783809Y-101408014D01*
X112783805Y-101408009D01*
X112633486Y-101257690D01*
X112461520Y-101132751D01*
X112272114Y-101036244D01*
X112272113Y-101036243D01*
X112272112Y-101036243D01*
X112069943Y-100970554D01*
X112069941Y-100970553D01*
X112069940Y-100970553D01*
X111908657Y-100945008D01*
X111859987Y-100937300D01*
X111647413Y-100937300D01*
X111598742Y-100945008D01*
X111437460Y-100970553D01*
X111235285Y-101036244D01*
X111045879Y-101132751D01*
X110873913Y-101257690D01*
X110723590Y-101408013D01*
X110598651Y-101579979D01*
X110502144Y-101769385D01*
X110436453Y-101971560D01*
X110403200Y-102181513D01*
X101471400Y-102181513D01*
X101471400Y-98674313D01*
X102046600Y-98674313D01*
X102046600Y-98886887D01*
X102056634Y-98950244D01*
X102077710Y-99083310D01*
X102079854Y-99096843D01*
X102125705Y-99237958D01*
X102145544Y-99299014D01*
X102242051Y-99488420D01*
X102366990Y-99660386D01*
X102517313Y-99810709D01*
X102689279Y-99935648D01*
X102689281Y-99935649D01*
X102689284Y-99935651D01*
X102878688Y-100032157D01*
X103080857Y-100097846D01*
X103290813Y-100131100D01*
X103290814Y-100131100D01*
X103503386Y-100131100D01*
X103503387Y-100131100D01*
X103713343Y-100097846D01*
X103915512Y-100032157D01*
X104104916Y-99935651D01*
X104254336Y-99827092D01*
X104276886Y-99810709D01*
X104276888Y-99810706D01*
X104276892Y-99810704D01*
X104427204Y-99660392D01*
X104427206Y-99660388D01*
X104427209Y-99660386D01*
X104552148Y-99488420D01*
X104552147Y-99488420D01*
X104552151Y-99488416D01*
X104648657Y-99299012D01*
X104668496Y-99237953D01*
X131420400Y-99237953D01*
X131420400Y-99395646D01*
X131451161Y-99550289D01*
X131451164Y-99550301D01*
X131511502Y-99695972D01*
X131511509Y-99695985D01*
X131599110Y-99827088D01*
X131599113Y-99827092D01*
X131710607Y-99938586D01*
X131710611Y-99938589D01*
X131841714Y-100026190D01*
X131841727Y-100026197D01*
X131987398Y-100086535D01*
X131987403Y-100086537D01*
X132142053Y-100117299D01*
X132142056Y-100117300D01*
X132142058Y-100117300D01*
X132299744Y-100117300D01*
X132299745Y-100117299D01*
X132454397Y-100086537D01*
X132600079Y-100026194D01*
X132731189Y-99938589D01*
X132842689Y-99827089D01*
X132930294Y-99695979D01*
X132990637Y-99550297D01*
X133012056Y-99442612D01*
X133044439Y-99380706D01*
X133045934Y-99379184D01*
X133958311Y-98466808D01*
X134001040Y-98402859D01*
X134026983Y-98364033D01*
X134050737Y-98306686D01*
X134074286Y-98249835D01*
X134098400Y-98128603D01*
X134098400Y-98004997D01*
X134098400Y-97856156D01*
X134118085Y-97789117D01*
X134119298Y-97787265D01*
X134180294Y-97695979D01*
X134240637Y-97550297D01*
X134271400Y-97395642D01*
X134271400Y-97237958D01*
X134271400Y-97237955D01*
X134271399Y-97237953D01*
X134261579Y-97188586D01*
X134240637Y-97083303D01*
X134237085Y-97074728D01*
X134180297Y-96937627D01*
X134180290Y-96937614D01*
X134092689Y-96806511D01*
X134092686Y-96806507D01*
X133981192Y-96695013D01*
X133981188Y-96695010D01*
X133850085Y-96607409D01*
X133850072Y-96607402D01*
X133704401Y-96547064D01*
X133704389Y-96547061D01*
X133549745Y-96516300D01*
X133549742Y-96516300D01*
X133392058Y-96516300D01*
X133392055Y-96516300D01*
X133237410Y-96547061D01*
X133237398Y-96547064D01*
X133091727Y-96607402D01*
X133091714Y-96607409D01*
X132960611Y-96695010D01*
X132960607Y-96695013D01*
X132849113Y-96806507D01*
X132849110Y-96806511D01*
X132761509Y-96937614D01*
X132761502Y-96937627D01*
X132701164Y-97083298D01*
X132701161Y-97083310D01*
X132670400Y-97237953D01*
X132670400Y-97395646D01*
X132701161Y-97550289D01*
X132701164Y-97550301D01*
X132761502Y-97695972D01*
X132761509Y-97695985D01*
X132782191Y-97726937D01*
X132803069Y-97793614D01*
X132784585Y-97860994D01*
X132766770Y-97883509D01*
X132158572Y-98491707D01*
X132097249Y-98525192D01*
X132095083Y-98525643D01*
X131987408Y-98547061D01*
X131987398Y-98547064D01*
X131841727Y-98607402D01*
X131841714Y-98607409D01*
X131710611Y-98695010D01*
X131710607Y-98695013D01*
X131599113Y-98806507D01*
X131599110Y-98806511D01*
X131511509Y-98937614D01*
X131511502Y-98937627D01*
X131451164Y-99083298D01*
X131451161Y-99083310D01*
X131420400Y-99237953D01*
X104668496Y-99237953D01*
X104714346Y-99096843D01*
X104747600Y-98886887D01*
X104747600Y-98674313D01*
X104714346Y-98464357D01*
X104648657Y-98262188D01*
X104552151Y-98072784D01*
X104552149Y-98072781D01*
X104552148Y-98072779D01*
X104427209Y-97900813D01*
X104276886Y-97750490D01*
X104259630Y-97737953D01*
X121170400Y-97737953D01*
X121170400Y-97895646D01*
X121201161Y-98050289D01*
X121201164Y-98050301D01*
X121261502Y-98195972D01*
X121261509Y-98195985D01*
X121349110Y-98327088D01*
X121349113Y-98327092D01*
X121460607Y-98438586D01*
X121460611Y-98438589D01*
X121591714Y-98526190D01*
X121591727Y-98526197D01*
X121737398Y-98586535D01*
X121737403Y-98586537D01*
X121892053Y-98617299D01*
X121892056Y-98617300D01*
X121892058Y-98617300D01*
X122049744Y-98617300D01*
X122049745Y-98617299D01*
X122204397Y-98586537D01*
X122350079Y-98526194D01*
X122481189Y-98438589D01*
X122592689Y-98327089D01*
X122680294Y-98195979D01*
X122686091Y-98181982D01*
X122712969Y-98141754D01*
X123806959Y-97047766D01*
X123889530Y-96924189D01*
X123936197Y-96811524D01*
X123946405Y-96786880D01*
X123953774Y-96749835D01*
X123964679Y-96695013D01*
X123975401Y-96641114D01*
X123975401Y-96487378D01*
X123975400Y-96487352D01*
X123975400Y-95361747D01*
X123984839Y-95314294D01*
X123990637Y-95300297D01*
X124021400Y-95145642D01*
X124021400Y-94987958D01*
X124021400Y-94987955D01*
X124021399Y-94987953D01*
X123990638Y-94833310D01*
X123990637Y-94833303D01*
X123976962Y-94800289D01*
X123930297Y-94687627D01*
X123930290Y-94687614D01*
X123842690Y-94556512D01*
X123842684Y-94556505D01*
X123774132Y-94487953D01*
X136920400Y-94487953D01*
X136920400Y-94645646D01*
X136951161Y-94800289D01*
X136951164Y-94800301D01*
X137011503Y-94945974D01*
X137011504Y-94945975D01*
X137011506Y-94945979D01*
X137039554Y-94987955D01*
X137072502Y-95037265D01*
X137093380Y-95103942D01*
X137093400Y-95106156D01*
X137093400Y-96027442D01*
X137073715Y-96094481D01*
X137072502Y-96096333D01*
X137011509Y-96187614D01*
X137011502Y-96187627D01*
X136951164Y-96333298D01*
X136951161Y-96333310D01*
X136920400Y-96487953D01*
X136920400Y-96645646D01*
X136951161Y-96800289D01*
X136951164Y-96800301D01*
X137011502Y-96945972D01*
X137011509Y-96945985D01*
X137099110Y-97077088D01*
X137099113Y-97077092D01*
X137210607Y-97188586D01*
X137210611Y-97188589D01*
X137341714Y-97276190D01*
X137341727Y-97276197D01*
X137414913Y-97306511D01*
X137487403Y-97336537D01*
X137642053Y-97367299D01*
X137642056Y-97367300D01*
X137642058Y-97367300D01*
X137799744Y-97367300D01*
X137799745Y-97367299D01*
X137954397Y-97336537D01*
X138100079Y-97276194D01*
X138231189Y-97188589D01*
X138342689Y-97077089D01*
X138430294Y-96945979D01*
X138433754Y-96937627D01*
X138443967Y-96912966D01*
X138490637Y-96800297D01*
X138521400Y-96645642D01*
X138521400Y-96487958D01*
X138521400Y-96487955D01*
X138521399Y-96487953D01*
X138490638Y-96333310D01*
X138490637Y-96333303D01*
X138436628Y-96202912D01*
X138430297Y-96187627D01*
X138430290Y-96187614D01*
X138369298Y-96096333D01*
X138348420Y-96029655D01*
X138348400Y-96027442D01*
X138348400Y-95106156D01*
X138368085Y-95039117D01*
X138369298Y-95037265D01*
X138430294Y-94945979D01*
X138490637Y-94800297D01*
X138521400Y-94645642D01*
X138521400Y-94487958D01*
X138521400Y-94487955D01*
X138521399Y-94487953D01*
X138495431Y-94357406D01*
X138490637Y-94333303D01*
X138490635Y-94333298D01*
X138430297Y-94187627D01*
X138430290Y-94187614D01*
X138342689Y-94056511D01*
X138342686Y-94056507D01*
X138231192Y-93945013D01*
X138231188Y-93945010D01*
X138100085Y-93857409D01*
X138100072Y-93857402D01*
X137954401Y-93797064D01*
X137954389Y-93797061D01*
X137799745Y-93766300D01*
X137799742Y-93766300D01*
X137642058Y-93766300D01*
X137642055Y-93766300D01*
X137487410Y-93797061D01*
X137487398Y-93797064D01*
X137341727Y-93857402D01*
X137341714Y-93857409D01*
X137210611Y-93945010D01*
X137210607Y-93945013D01*
X137099113Y-94056507D01*
X137099110Y-94056511D01*
X137011509Y-94187614D01*
X137011502Y-94187627D01*
X136951164Y-94333298D01*
X136951161Y-94333310D01*
X136920400Y-94487953D01*
X123774132Y-94487953D01*
X123731192Y-94445013D01*
X123731188Y-94445010D01*
X123600085Y-94357409D01*
X123600072Y-94357402D01*
X123454401Y-94297064D01*
X123454389Y-94297061D01*
X123299745Y-94266300D01*
X123299742Y-94266300D01*
X123142058Y-94266300D01*
X123142055Y-94266300D01*
X122987410Y-94297061D01*
X122987398Y-94297064D01*
X122841727Y-94357402D01*
X122841714Y-94357409D01*
X122710611Y-94445010D01*
X122710607Y-94445013D01*
X122599113Y-94556507D01*
X122599110Y-94556511D01*
X122511509Y-94687614D01*
X122511502Y-94687627D01*
X122451164Y-94833298D01*
X122451161Y-94833310D01*
X122420400Y-94987953D01*
X122420400Y-95145646D01*
X122451161Y-95300289D01*
X122451163Y-95300297D01*
X122456961Y-95314294D01*
X122466400Y-95361747D01*
X122466400Y-96202912D01*
X122446715Y-96269951D01*
X122430081Y-96290593D01*
X121645945Y-97074728D01*
X121605722Y-97101606D01*
X121591719Y-97107406D01*
X121591718Y-97107407D01*
X121460615Y-97195007D01*
X121460607Y-97195013D01*
X121349113Y-97306507D01*
X121349110Y-97306511D01*
X121261509Y-97437614D01*
X121261502Y-97437627D01*
X121201164Y-97583298D01*
X121201161Y-97583310D01*
X121170400Y-97737953D01*
X104259630Y-97737953D01*
X104104920Y-97625551D01*
X103915514Y-97529044D01*
X103915513Y-97529043D01*
X103915512Y-97529043D01*
X103713343Y-97463354D01*
X103713341Y-97463353D01*
X103713340Y-97463353D01*
X103550828Y-97437614D01*
X103503387Y-97430100D01*
X103290813Y-97430100D01*
X103243372Y-97437614D01*
X103080860Y-97463353D01*
X102878685Y-97529044D01*
X102689279Y-97625551D01*
X102517313Y-97750490D01*
X102366990Y-97900813D01*
X102242051Y-98072779D01*
X102145544Y-98262185D01*
X102079853Y-98464360D01*
X102055630Y-98617299D01*
X102046600Y-98674313D01*
X101471400Y-98674313D01*
X101471400Y-92798634D01*
X105800400Y-92798634D01*
X105800400Y-92950165D01*
X105839619Y-93096536D01*
X105877502Y-93162150D01*
X105915385Y-93227765D01*
X106022535Y-93334915D01*
X106153765Y-93410681D01*
X106300134Y-93449900D01*
X106300136Y-93449900D01*
X106451664Y-93449900D01*
X106451666Y-93449900D01*
X106598035Y-93410681D01*
X106729265Y-93334915D01*
X106836415Y-93227765D01*
X106912181Y-93096535D01*
X106951400Y-92950166D01*
X106951400Y-92798634D01*
X106912181Y-92652265D01*
X106836415Y-92521035D01*
X106729265Y-92413885D01*
X106663650Y-92376002D01*
X106598036Y-92338119D01*
X106524850Y-92318509D01*
X106451666Y-92298900D01*
X106300134Y-92298900D01*
X106153763Y-92338119D01*
X106022535Y-92413885D01*
X106022532Y-92413887D01*
X105915387Y-92521032D01*
X105915385Y-92521035D01*
X105839619Y-92652263D01*
X105800400Y-92798634D01*
X101471400Y-92798634D01*
X101471400Y-87018634D01*
X105800400Y-87018634D01*
X105800400Y-87170165D01*
X105839619Y-87316536D01*
X105877502Y-87382150D01*
X105915385Y-87447765D01*
X106022535Y-87554915D01*
X106153765Y-87630681D01*
X106300134Y-87669900D01*
X106300136Y-87669900D01*
X106451664Y-87669900D01*
X106451666Y-87669900D01*
X106598035Y-87630681D01*
X106729265Y-87554915D01*
X106836415Y-87447765D01*
X106912181Y-87316535D01*
X106951400Y-87170166D01*
X106951400Y-87018634D01*
X106912181Y-86872265D01*
X106836415Y-86741035D01*
X106729265Y-86633885D01*
X106647253Y-86586535D01*
X106598036Y-86558119D01*
X106524850Y-86538509D01*
X106451666Y-86518900D01*
X106300134Y-86518900D01*
X106153763Y-86558119D01*
X106022535Y-86633885D01*
X106022532Y-86633887D01*
X105915387Y-86741032D01*
X105915385Y-86741035D01*
X105839619Y-86872263D01*
X105800400Y-87018634D01*
X101471400Y-87018634D01*
X101471400Y-79737953D01*
X132670400Y-79737953D01*
X132670400Y-79895646D01*
X132701161Y-80050289D01*
X132701164Y-80050301D01*
X132761502Y-80195972D01*
X132761509Y-80195985D01*
X132849110Y-80327088D01*
X132849113Y-80327092D01*
X132960607Y-80438586D01*
X132960615Y-80438592D01*
X133042615Y-80493383D01*
X133061406Y-80508804D01*
X133886887Y-81334285D01*
X133920372Y-81395608D01*
X133920823Y-81397774D01*
X133951161Y-81550291D01*
X133951164Y-81550301D01*
X134011502Y-81695972D01*
X134011509Y-81695985D01*
X134099110Y-81827088D01*
X134099113Y-81827092D01*
X134210607Y-81938586D01*
X134210611Y-81938589D01*
X134341714Y-82026190D01*
X134341727Y-82026197D01*
X134487398Y-82086535D01*
X134487403Y-82086537D01*
X134642053Y-82117299D01*
X134642056Y-82117300D01*
X134642058Y-82117300D01*
X134799744Y-82117300D01*
X134799745Y-82117299D01*
X134954397Y-82086537D01*
X135100079Y-82026194D01*
X135231189Y-81938589D01*
X135342689Y-81827089D01*
X135430294Y-81695979D01*
X135490637Y-81550297D01*
X135521400Y-81395642D01*
X135521400Y-81237958D01*
X135521400Y-81237955D01*
X135521399Y-81237953D01*
X135490640Y-81083314D01*
X135490635Y-81083298D01*
X135483036Y-81064953D01*
X137170400Y-81064953D01*
X137170400Y-81222646D01*
X137201161Y-81377289D01*
X137201164Y-81377301D01*
X137261502Y-81522972D01*
X137261509Y-81522985D01*
X137349109Y-81654087D01*
X137349110Y-81654088D01*
X137349111Y-81654089D01*
X137430150Y-81735128D01*
X137463634Y-81796449D01*
X137466468Y-81822808D01*
X137466468Y-81962866D01*
X137497229Y-82117509D01*
X137497232Y-82117521D01*
X137557570Y-82263192D01*
X137557577Y-82263205D01*
X137645178Y-82394308D01*
X137645181Y-82394312D01*
X137756675Y-82505806D01*
X137756679Y-82505809D01*
X137887782Y-82593410D01*
X137887795Y-82593417D01*
X138033466Y-82653755D01*
X138033471Y-82653757D01*
X138166564Y-82680231D01*
X138188121Y-82684519D01*
X138188124Y-82684520D01*
X138188126Y-82684520D01*
X138345811Y-82684520D01*
X138369497Y-82679808D01*
X138398669Y-82674005D01*
X138468261Y-82680231D01*
X138510543Y-82707941D01*
X138886887Y-83084285D01*
X138895054Y-83098605D01*
X138905759Y-83108543D01*
X138916132Y-83135558D01*
X138919311Y-83141131D01*
X138920400Y-83145372D01*
X138920400Y-83145642D01*
X138951163Y-83300297D01*
X138974863Y-83357516D01*
X138977047Y-83366020D01*
X138976137Y-83392512D01*
X138978972Y-83418872D01*
X138974958Y-83426890D01*
X138974651Y-83435849D01*
X138959564Y-83457643D01*
X138947697Y-83481351D01*
X138939986Y-83485925D01*
X138934884Y-83493297D01*
X138910405Y-83503476D01*
X138887608Y-83517003D01*
X138881134Y-83518472D01*
X138737408Y-83547061D01*
X138737398Y-83547064D01*
X138591727Y-83607402D01*
X138591714Y-83607409D01*
X138460611Y-83695010D01*
X138460607Y-83695013D01*
X138349113Y-83806507D01*
X138349110Y-83806511D01*
X138261509Y-83937614D01*
X138261502Y-83937627D01*
X138201164Y-84083298D01*
X138201161Y-84083310D01*
X138170400Y-84237953D01*
X138170400Y-84395646D01*
X138201161Y-84550289D01*
X138201164Y-84550301D01*
X138261503Y-84695974D01*
X138261504Y-84695975D01*
X138261506Y-84695979D01*
X138312204Y-84771853D01*
X138322502Y-84787265D01*
X138328152Y-84805311D01*
X138338377Y-84821221D01*
X138342828Y-84852180D01*
X138343380Y-84853942D01*
X138343400Y-84856156D01*
X138343400Y-85040004D01*
X138323715Y-85107043D01*
X138288291Y-85143106D01*
X138210611Y-85195010D01*
X138210607Y-85195013D01*
X138099113Y-85306507D01*
X138099110Y-85306511D01*
X138011509Y-85437614D01*
X138011502Y-85437627D01*
X137951164Y-85583298D01*
X137951161Y-85583310D01*
X137920400Y-85737953D01*
X137920400Y-85895646D01*
X137951161Y-86050289D01*
X137951164Y-86050301D01*
X138011502Y-86195972D01*
X138011509Y-86195985D01*
X138099110Y-86327088D01*
X138099113Y-86327092D01*
X138210607Y-86438586D01*
X138210611Y-86438589D01*
X138341714Y-86526190D01*
X138341727Y-86526197D01*
X138418795Y-86558119D01*
X138487403Y-86586537D01*
X138642053Y-86617299D01*
X138642056Y-86617300D01*
X138642058Y-86617300D01*
X138799744Y-86617300D01*
X138799745Y-86617299D01*
X138954397Y-86586537D01*
X139100079Y-86526194D01*
X139231189Y-86438589D01*
X139342689Y-86327089D01*
X139430294Y-86195979D01*
X139490637Y-86050297D01*
X139521400Y-85895642D01*
X139521400Y-85895631D01*
X139521938Y-85890171D01*
X139530779Y-85854866D01*
X139574285Y-85749835D01*
X139598400Y-85628604D01*
X139598400Y-85504997D01*
X139598400Y-84856156D01*
X139618085Y-84789117D01*
X139619298Y-84787265D01*
X139629596Y-84771853D01*
X139680294Y-84695979D01*
X139740637Y-84550297D01*
X139771400Y-84395642D01*
X139771400Y-84237958D01*
X139771400Y-84237955D01*
X139771399Y-84237953D01*
X139740638Y-84083310D01*
X139740637Y-84083303D01*
X139720295Y-84034194D01*
X139712827Y-83964728D01*
X139744102Y-83902249D01*
X139804190Y-83866596D01*
X139810666Y-83865127D01*
X139954397Y-83836537D01*
X140100079Y-83776194D01*
X140231189Y-83688589D01*
X140342689Y-83577089D01*
X140430294Y-83445979D01*
X140490637Y-83300297D01*
X140521400Y-83145642D01*
X140521400Y-82987958D01*
X140521400Y-82987955D01*
X140505109Y-82906058D01*
X140505109Y-82906057D01*
X140501508Y-82887953D01*
X142420400Y-82887953D01*
X142420400Y-83045646D01*
X142451161Y-83200289D01*
X142451164Y-83200301D01*
X142511502Y-83345972D01*
X142511509Y-83345985D01*
X142599110Y-83477088D01*
X142599113Y-83477092D01*
X142710607Y-83588586D01*
X142710611Y-83588589D01*
X142841714Y-83676190D01*
X142841727Y-83676197D01*
X142911475Y-83705087D01*
X142965879Y-83748927D01*
X142987944Y-83815221D01*
X142978585Y-83867099D01*
X142951163Y-83933303D01*
X142951161Y-83933310D01*
X142920400Y-84087953D01*
X142920400Y-84245646D01*
X142951161Y-84400289D01*
X142951164Y-84400301D01*
X143011502Y-84545972D01*
X143011509Y-84545985D01*
X143099110Y-84677088D01*
X143099113Y-84677092D01*
X143210607Y-84788586D01*
X143210611Y-84788589D01*
X143341714Y-84876190D01*
X143341727Y-84876197D01*
X143487398Y-84936535D01*
X143487403Y-84936537D01*
X143642053Y-84967299D01*
X143642056Y-84967300D01*
X143642058Y-84967300D01*
X143799744Y-84967300D01*
X143799745Y-84967299D01*
X143954397Y-84936537D01*
X144100079Y-84876194D01*
X144231189Y-84788589D01*
X144231193Y-84788584D01*
X144235899Y-84784724D01*
X144237501Y-84786677D01*
X144289099Y-84758468D01*
X144358793Y-84763416D01*
X144414748Y-84805258D01*
X144439199Y-84870709D01*
X144437137Y-84903811D01*
X144420400Y-84987953D01*
X144420400Y-85145646D01*
X144451161Y-85300289D01*
X144451164Y-85300301D01*
X144511502Y-85445972D01*
X144511509Y-85445985D01*
X144599110Y-85577088D01*
X144599113Y-85577092D01*
X144710607Y-85688586D01*
X144710611Y-85688589D01*
X144841714Y-85776190D01*
X144841727Y-85776197D01*
X144987398Y-85836535D01*
X144987403Y-85836537D01*
X145125634Y-85864033D01*
X145142053Y-85867299D01*
X145142056Y-85867300D01*
X145142058Y-85867300D01*
X145299744Y-85867300D01*
X145299745Y-85867299D01*
X145454397Y-85836537D01*
X145600079Y-85776194D01*
X145731189Y-85688589D01*
X145842689Y-85577089D01*
X145930294Y-85445979D01*
X145933754Y-85437627D01*
X145988063Y-85306511D01*
X145990637Y-85300297D01*
X146021400Y-85145642D01*
X146021400Y-84987958D01*
X146021400Y-84987955D01*
X146021399Y-84987953D01*
X145990639Y-84833311D01*
X145990638Y-84833308D01*
X145990637Y-84833303D01*
X145984837Y-84819301D01*
X145975400Y-84771853D01*
X145975400Y-83897246D01*
X145975401Y-83897225D01*
X145975401Y-83742485D01*
X145950499Y-83617299D01*
X145946406Y-83596725D01*
X145946404Y-83596717D01*
X145913094Y-83516300D01*
X145898618Y-83481351D01*
X145889530Y-83459411D01*
X145837451Y-83381469D01*
X145806959Y-83335834D01*
X145806957Y-83335831D01*
X145697547Y-83226421D01*
X145697524Y-83226400D01*
X144962972Y-82491847D01*
X144936092Y-82451619D01*
X144936067Y-82451559D01*
X144930294Y-82437621D01*
X144876696Y-82357406D01*
X144842689Y-82306510D01*
X144731192Y-82195013D01*
X144731188Y-82195010D01*
X144600085Y-82107409D01*
X144600072Y-82107402D01*
X144454401Y-82047064D01*
X144454389Y-82047061D01*
X144299745Y-82016300D01*
X144299742Y-82016300D01*
X144142058Y-82016300D01*
X144142055Y-82016300D01*
X143987410Y-82047061D01*
X143987398Y-82047064D01*
X143841727Y-82107402D01*
X143841714Y-82107409D01*
X143710614Y-82195008D01*
X143710608Y-82195012D01*
X143692701Y-82212920D01*
X143631377Y-82246404D01*
X143561686Y-82241418D01*
X143557570Y-82239798D01*
X143454401Y-82197064D01*
X143454389Y-82197061D01*
X143299745Y-82166300D01*
X143299742Y-82166300D01*
X143142058Y-82166300D01*
X143142055Y-82166300D01*
X142987410Y-82197061D01*
X142987398Y-82197064D01*
X142841727Y-82257402D01*
X142841714Y-82257409D01*
X142710611Y-82345010D01*
X142710607Y-82345013D01*
X142599113Y-82456507D01*
X142599110Y-82456511D01*
X142511509Y-82587614D01*
X142511502Y-82587627D01*
X142451164Y-82733298D01*
X142451161Y-82733310D01*
X142420400Y-82887953D01*
X140501508Y-82887953D01*
X140490638Y-82833310D01*
X140490637Y-82833303D01*
X140438711Y-82707941D01*
X140430297Y-82687627D01*
X140430290Y-82687614D01*
X140342689Y-82556511D01*
X140342686Y-82556507D01*
X140231192Y-82445013D01*
X140231188Y-82445010D01*
X140100085Y-82357409D01*
X140100072Y-82357402D01*
X139954401Y-82297064D01*
X139954391Y-82297061D01*
X139801874Y-82266723D01*
X139739963Y-82234338D01*
X139738385Y-82232787D01*
X138916377Y-81410779D01*
X138912809Y-81407061D01*
X138906300Y-81399987D01*
X138888757Y-81373731D01*
X138805891Y-81290865D01*
X138804151Y-81288974D01*
X138789784Y-81259848D01*
X138774234Y-81231368D01*
X138773815Y-81227471D01*
X138773243Y-81226312D01*
X138773472Y-81224287D01*
X138771400Y-81205011D01*
X138771400Y-81064955D01*
X138771399Y-81064953D01*
X138740637Y-80910303D01*
X138740635Y-80910298D01*
X138680297Y-80764627D01*
X138680291Y-80764616D01*
X138676264Y-80758589D01*
X138655387Y-80691911D01*
X138673872Y-80624531D01*
X138725851Y-80577842D01*
X138731873Y-80575155D01*
X138850079Y-80526194D01*
X138981189Y-80438589D01*
X139092689Y-80327089D01*
X139180294Y-80195979D01*
X139240637Y-80050297D01*
X139271400Y-79895642D01*
X139271400Y-79737958D01*
X139271400Y-79737955D01*
X139271399Y-79737953D01*
X139240637Y-79583303D01*
X139232643Y-79564003D01*
X139180297Y-79437627D01*
X139180290Y-79437614D01*
X139145220Y-79385128D01*
X139135735Y-79354836D01*
X139124638Y-79325084D01*
X139125368Y-79321727D01*
X139124342Y-79318450D01*
X139132739Y-79287841D01*
X139139489Y-79256811D01*
X139142271Y-79253093D01*
X139142827Y-79251070D01*
X139160633Y-79228563D01*
X139244969Y-79144227D01*
X139306288Y-79110745D01*
X139356836Y-79110294D01*
X139392058Y-79117300D01*
X139549744Y-79117300D01*
X139549745Y-79117299D01*
X139704397Y-79086537D01*
X139850079Y-79026194D01*
X139981189Y-78938589D01*
X139982164Y-78937614D01*
X140008219Y-78911560D01*
X140069542Y-78878075D01*
X140139234Y-78883059D01*
X140183581Y-78911560D01*
X140210607Y-78938586D01*
X140210611Y-78938589D01*
X140341714Y-79026190D01*
X140341727Y-79026197D01*
X140479583Y-79083298D01*
X140487403Y-79086537D01*
X140606837Y-79110294D01*
X140642053Y-79117299D01*
X140642056Y-79117300D01*
X140642058Y-79117300D01*
X140799744Y-79117300D01*
X140799745Y-79117299D01*
X140954397Y-79086537D01*
X141100079Y-79026194D01*
X141231189Y-78938589D01*
X141342689Y-78827089D01*
X141430294Y-78695979D01*
X141490637Y-78550297D01*
X141521400Y-78395642D01*
X141521400Y-78237958D01*
X141521400Y-78237955D01*
X141501080Y-78135803D01*
X141500977Y-78135285D01*
X141507204Y-78065696D01*
X141550066Y-78010518D01*
X141615956Y-77987273D01*
X141683953Y-78003340D01*
X141691485Y-78007993D01*
X141792449Y-78075455D01*
X141792462Y-78075462D01*
X141938133Y-78135800D01*
X141938138Y-78135802D01*
X142092788Y-78166564D01*
X142092791Y-78166565D01*
X142092793Y-78166565D01*
X142250479Y-78166565D01*
X142250480Y-78166564D01*
X142405132Y-78135802D01*
X142550814Y-78075459D01*
X142681924Y-77987854D01*
X142793424Y-77876354D01*
X142814312Y-77845092D01*
X142852773Y-77787532D01*
X142868192Y-77768743D01*
X142871998Y-77764937D01*
X142902155Y-77734781D01*
X142902156Y-77734778D01*
X142926421Y-77710513D01*
X157970400Y-77710513D01*
X157970400Y-77923086D01*
X158001160Y-78117300D01*
X158003654Y-78133043D01*
X158020698Y-78185500D01*
X158069344Y-78335214D01*
X158165851Y-78524620D01*
X158290790Y-78696586D01*
X158429605Y-78835401D01*
X158463090Y-78896724D01*
X158458106Y-78966416D01*
X158416234Y-79022349D01*
X158407021Y-79028621D01*
X158252242Y-79124089D01*
X158128189Y-79248142D01*
X158036087Y-79397463D01*
X158036086Y-79397466D01*
X157980901Y-79564003D01*
X157980901Y-79564004D01*
X157980900Y-79564004D01*
X157970400Y-79666783D01*
X157970400Y-80966801D01*
X157970401Y-80966818D01*
X157980900Y-81069596D01*
X157980901Y-81069599D01*
X158032160Y-81224287D01*
X158036086Y-81236134D01*
X158128188Y-81385456D01*
X158252244Y-81509512D01*
X158401566Y-81601614D01*
X158568103Y-81656799D01*
X158670891Y-81667300D01*
X160270908Y-81667299D01*
X160373697Y-81656799D01*
X160540234Y-81601614D01*
X160689556Y-81509512D01*
X160813612Y-81385456D01*
X160905714Y-81236134D01*
X160960899Y-81069597D01*
X160971400Y-80966809D01*
X160971399Y-79666792D01*
X160960899Y-79564003D01*
X160905714Y-79397466D01*
X160813612Y-79248144D01*
X160689556Y-79124088D01*
X160540234Y-79031986D01*
X160540233Y-79031985D01*
X160534778Y-79028621D01*
X160488054Y-78976673D01*
X160476831Y-78907710D01*
X160504675Y-78843628D01*
X160512172Y-78835423D01*
X160651004Y-78696592D01*
X160651450Y-78695979D01*
X160775948Y-78524620D01*
X160775947Y-78524620D01*
X160775951Y-78524616D01*
X160872457Y-78335212D01*
X160938146Y-78133043D01*
X160971400Y-77923087D01*
X160971400Y-77710513D01*
X160938146Y-77500557D01*
X160872457Y-77298388D01*
X160775951Y-77108984D01*
X160775949Y-77108981D01*
X160775948Y-77108979D01*
X160651009Y-76937013D01*
X160500686Y-76786690D01*
X160328720Y-76661751D01*
X160139314Y-76565244D01*
X160139313Y-76565243D01*
X160139312Y-76565243D01*
X159937143Y-76499554D01*
X159937141Y-76499553D01*
X159937140Y-76499553D01*
X159775857Y-76474008D01*
X159727187Y-76466300D01*
X159214613Y-76466300D01*
X159165942Y-76474008D01*
X159004660Y-76499553D01*
X158802485Y-76565244D01*
X158613079Y-76661751D01*
X158441113Y-76786690D01*
X158290790Y-76937013D01*
X158165851Y-77108979D01*
X158069344Y-77298385D01*
X158003653Y-77500560D01*
X157970400Y-77710513D01*
X142926421Y-77710513D01*
X143611622Y-77025312D01*
X143672943Y-76991829D01*
X143742635Y-76996813D01*
X143746753Y-76998434D01*
X143802440Y-77021500D01*
X143802443Y-77021500D01*
X143802448Y-77021502D01*
X143957090Y-77052262D01*
X143957093Y-77052263D01*
X143957095Y-77052263D01*
X144114781Y-77052263D01*
X144114782Y-77052262D01*
X144269434Y-77021500D01*
X144415116Y-76961157D01*
X144546226Y-76873552D01*
X144657726Y-76762052D01*
X144745331Y-76630942D01*
X144805674Y-76485260D01*
X144836437Y-76330605D01*
X144836437Y-76172921D01*
X144836437Y-76172918D01*
X144836436Y-76172916D01*
X144817956Y-76080011D01*
X144805674Y-76018266D01*
X144751082Y-75886468D01*
X144745334Y-75872590D01*
X144745327Y-75872577D01*
X144657726Y-75741474D01*
X144657723Y-75741470D01*
X144546229Y-75629976D01*
X144546225Y-75629973D01*
X144415122Y-75542372D01*
X144415109Y-75542365D01*
X144269438Y-75482027D01*
X144269426Y-75482024D01*
X144114782Y-75451263D01*
X144114779Y-75451263D01*
X143957095Y-75451263D01*
X143957090Y-75451263D01*
X143880584Y-75466481D01*
X143810992Y-75460254D01*
X143755815Y-75417390D01*
X143732571Y-75351501D01*
X143740268Y-75306548D01*
X143738869Y-75306124D01*
X143740631Y-75300309D01*
X143740637Y-75300297D01*
X143771400Y-75145642D01*
X143771400Y-74987958D01*
X143771400Y-74987955D01*
X143771399Y-74987953D01*
X143740637Y-74833303D01*
X143702755Y-74741847D01*
X143680297Y-74687627D01*
X143680290Y-74687614D01*
X143592689Y-74556511D01*
X143592686Y-74556507D01*
X143481192Y-74445013D01*
X143481188Y-74445010D01*
X143350085Y-74357409D01*
X143350072Y-74357402D01*
X143204401Y-74297064D01*
X143204389Y-74297061D01*
X143049745Y-74266300D01*
X143049742Y-74266300D01*
X142892058Y-74266300D01*
X142892055Y-74266300D01*
X142737410Y-74297061D01*
X142737398Y-74297064D01*
X142591727Y-74357402D01*
X142591714Y-74357409D01*
X142460611Y-74445010D01*
X142460607Y-74445013D01*
X142349113Y-74556507D01*
X142349107Y-74556515D01*
X142261507Y-74687617D01*
X142255705Y-74701625D01*
X142228827Y-74741847D01*
X140134843Y-76835830D01*
X140134842Y-76835831D01*
X140052272Y-76959407D01*
X140052266Y-76959418D01*
X139995396Y-77096716D01*
X139995393Y-77096726D01*
X139966399Y-77242485D01*
X139966399Y-77397225D01*
X139966400Y-77397246D01*
X139966400Y-77470008D01*
X139946715Y-77537047D01*
X139893911Y-77582802D01*
X139824753Y-77592746D01*
X139794949Y-77584570D01*
X139742105Y-77562682D01*
X139704397Y-77547063D01*
X139704393Y-77547062D01*
X139704389Y-77547061D01*
X139549745Y-77516300D01*
X139549742Y-77516300D01*
X139392058Y-77516300D01*
X139392055Y-77516300D01*
X139237410Y-77547061D01*
X139237398Y-77547064D01*
X139091727Y-77607402D01*
X139091714Y-77607409D01*
X138960611Y-77695010D01*
X138960607Y-77695013D01*
X138849117Y-77806504D01*
X138849114Y-77806506D01*
X138794315Y-77888517D01*
X138778895Y-77907305D01*
X138203414Y-78482787D01*
X138142091Y-78516272D01*
X138139925Y-78516723D01*
X137987408Y-78547061D01*
X137987398Y-78547064D01*
X137841727Y-78607402D01*
X137841714Y-78607409D01*
X137710611Y-78695010D01*
X137710607Y-78695013D01*
X137599113Y-78806507D01*
X137599110Y-78806511D01*
X137511509Y-78937614D01*
X137511502Y-78937627D01*
X137451164Y-79083298D01*
X137451161Y-79083310D01*
X137420400Y-79237953D01*
X137420400Y-79395646D01*
X137451161Y-79550289D01*
X137451164Y-79550301D01*
X137511502Y-79695972D01*
X137511508Y-79695983D01*
X137546580Y-79748472D01*
X137567457Y-79815149D01*
X137548972Y-79882529D01*
X137531159Y-79905042D01*
X137489101Y-79947100D01*
X137489099Y-79947103D01*
X137409833Y-80084397D01*
X137368800Y-80237533D01*
X137368800Y-80566428D01*
X137349115Y-80633467D01*
X137347902Y-80635319D01*
X137261509Y-80764614D01*
X137261502Y-80764627D01*
X137201164Y-80910298D01*
X137201161Y-80910310D01*
X137170400Y-81064953D01*
X135483036Y-81064953D01*
X135430297Y-80937627D01*
X135430290Y-80937614D01*
X135342689Y-80806511D01*
X135342686Y-80806507D01*
X135231192Y-80695013D01*
X135231188Y-80695010D01*
X135100085Y-80607409D01*
X135100072Y-80607402D01*
X134954401Y-80547064D01*
X134954391Y-80547061D01*
X134801874Y-80516723D01*
X134739963Y-80484338D01*
X134738385Y-80482787D01*
X134298330Y-80042732D01*
X134264845Y-79981409D01*
X134264394Y-79930862D01*
X134271400Y-79895642D01*
X134271400Y-79737958D01*
X134271400Y-79737955D01*
X134271399Y-79737953D01*
X134240637Y-79583303D01*
X134232643Y-79564003D01*
X134180297Y-79437627D01*
X134180290Y-79437614D01*
X134092689Y-79306511D01*
X134092686Y-79306507D01*
X133981192Y-79195013D01*
X133981188Y-79195010D01*
X133850085Y-79107409D01*
X133850072Y-79107402D01*
X133704401Y-79047064D01*
X133704389Y-79047061D01*
X133549745Y-79016300D01*
X133549742Y-79016300D01*
X133392058Y-79016300D01*
X133392055Y-79016300D01*
X133237410Y-79047061D01*
X133237398Y-79047064D01*
X133091727Y-79107402D01*
X133091714Y-79107409D01*
X132960611Y-79195010D01*
X132960607Y-79195013D01*
X132849113Y-79306507D01*
X132849110Y-79306511D01*
X132761509Y-79437614D01*
X132761502Y-79437627D01*
X132701164Y-79583298D01*
X132701161Y-79583310D01*
X132670400Y-79737953D01*
X101471400Y-79737953D01*
X101471400Y-69108713D01*
X104053200Y-69108713D01*
X104053200Y-69321286D01*
X104086453Y-69531239D01*
X104152144Y-69733414D01*
X104248651Y-69922820D01*
X104373590Y-70094786D01*
X104523913Y-70245109D01*
X104695882Y-70370050D01*
X104704646Y-70374516D01*
X104755442Y-70422491D01*
X104772236Y-70490312D01*
X104749698Y-70556447D01*
X104704646Y-70595484D01*
X104695882Y-70599949D01*
X104523913Y-70724890D01*
X104373590Y-70875213D01*
X104248651Y-71047179D01*
X104152144Y-71236585D01*
X104086453Y-71438760D01*
X104053200Y-71648713D01*
X104053200Y-71861286D01*
X104080008Y-72030549D01*
X104086454Y-72071243D01*
X104149832Y-72266300D01*
X104152144Y-72273414D01*
X104248651Y-72462820D01*
X104373590Y-72634786D01*
X104523913Y-72785109D01*
X104695882Y-72910050D01*
X104704646Y-72914516D01*
X104755442Y-72962491D01*
X104772236Y-73030312D01*
X104749698Y-73096447D01*
X104704646Y-73135484D01*
X104695882Y-73139949D01*
X104523913Y-73264890D01*
X104373590Y-73415213D01*
X104248651Y-73587179D01*
X104152144Y-73776585D01*
X104086453Y-73978760D01*
X104053200Y-74188713D01*
X104053200Y-74401286D01*
X104083419Y-74592085D01*
X104086454Y-74611243D01*
X104123223Y-74724407D01*
X104152144Y-74813414D01*
X104248651Y-75002820D01*
X104373590Y-75174786D01*
X104523913Y-75325109D01*
X104695879Y-75450048D01*
X104695881Y-75450049D01*
X104695884Y-75450051D01*
X104885288Y-75546557D01*
X105087457Y-75612246D01*
X105297413Y-75645500D01*
X105297414Y-75645500D01*
X105509986Y-75645500D01*
X105509987Y-75645500D01*
X105719943Y-75612246D01*
X105922112Y-75546557D01*
X106111516Y-75450051D01*
X106135976Y-75432280D01*
X106283486Y-75325109D01*
X106283488Y-75325106D01*
X106283492Y-75325104D01*
X106433804Y-75174792D01*
X106433806Y-75174788D01*
X106433809Y-75174786D01*
X106558748Y-75002820D01*
X106558747Y-75002820D01*
X106558751Y-75002816D01*
X106563214Y-74994054D01*
X106611188Y-74943259D01*
X106679008Y-74926463D01*
X106745144Y-74948999D01*
X106784186Y-74994056D01*
X106788651Y-75002820D01*
X106913590Y-75174786D01*
X107063913Y-75325109D01*
X107235882Y-75450050D01*
X107244646Y-75454516D01*
X107295442Y-75502491D01*
X107312236Y-75570312D01*
X107289698Y-75636447D01*
X107244646Y-75675484D01*
X107235882Y-75679949D01*
X107063913Y-75804890D01*
X106913590Y-75955213D01*
X106788651Y-76127179D01*
X106692144Y-76316585D01*
X106626453Y-76518760D01*
X106598538Y-76695011D01*
X106593200Y-76728713D01*
X106593200Y-76941287D01*
X106601205Y-76991829D01*
X106617818Y-77096721D01*
X106626454Y-77151243D01*
X106656101Y-77242488D01*
X106692144Y-77353414D01*
X106788651Y-77542820D01*
X106913590Y-77714786D01*
X107063913Y-77865109D01*
X107235879Y-77990048D01*
X107235881Y-77990049D01*
X107235884Y-77990051D01*
X107425288Y-78086557D01*
X107627457Y-78152246D01*
X107837413Y-78185500D01*
X107837414Y-78185500D01*
X108049986Y-78185500D01*
X108049987Y-78185500D01*
X108259943Y-78152246D01*
X108462112Y-78086557D01*
X108651516Y-77990051D01*
X108765407Y-77907305D01*
X108823486Y-77865109D01*
X108823488Y-77865106D01*
X108823492Y-77865104D01*
X108973804Y-77714792D01*
X108973806Y-77714788D01*
X108973809Y-77714786D01*
X109098748Y-77542820D01*
X109098747Y-77542820D01*
X109098751Y-77542816D01*
X109195257Y-77353412D01*
X109260946Y-77151243D01*
X109294200Y-76941287D01*
X109294200Y-76728713D01*
X109260946Y-76518757D01*
X109195257Y-76316588D01*
X109098751Y-76127184D01*
X109098749Y-76127181D01*
X109098748Y-76127179D01*
X108973809Y-75955213D01*
X108823486Y-75804890D01*
X108651520Y-75679951D01*
X108650815Y-75679591D01*
X108642754Y-75675485D01*
X108591959Y-75627512D01*
X108575163Y-75559692D01*
X108597699Y-75493556D01*
X108642754Y-75454515D01*
X108651516Y-75450051D01*
X108675976Y-75432280D01*
X108823486Y-75325109D01*
X108823488Y-75325106D01*
X108823492Y-75325104D01*
X108973804Y-75174792D01*
X108973806Y-75174788D01*
X108973809Y-75174786D01*
X109098748Y-75002820D01*
X109098747Y-75002820D01*
X109098751Y-75002816D01*
X109195257Y-74813412D01*
X109260946Y-74611243D01*
X109280473Y-74487953D01*
X115170400Y-74487953D01*
X115170400Y-74645646D01*
X115201161Y-74800289D01*
X115201164Y-74800301D01*
X115261502Y-74945972D01*
X115261509Y-74945985D01*
X115349110Y-75077088D01*
X115349113Y-75077092D01*
X115460607Y-75188586D01*
X115460611Y-75188589D01*
X115591714Y-75276190D01*
X115591727Y-75276197D01*
X115700617Y-75321300D01*
X115737403Y-75336537D01*
X115843389Y-75357619D01*
X115892053Y-75367299D01*
X115892056Y-75367300D01*
X115892058Y-75367300D01*
X116049744Y-75367300D01*
X116049745Y-75367299D01*
X116182036Y-75340985D01*
X116204388Y-75336539D01*
X116204389Y-75336538D01*
X116204397Y-75336537D01*
X116218398Y-75330737D01*
X116265847Y-75321300D01*
X117107013Y-75321300D01*
X117174052Y-75340985D01*
X117194694Y-75357619D01*
X119478826Y-77641750D01*
X119505705Y-77681976D01*
X119511504Y-77695975D01*
X119511507Y-77695981D01*
X119599107Y-77827084D01*
X119599113Y-77827092D01*
X119710607Y-77938586D01*
X119710611Y-77938589D01*
X119841714Y-78026190D01*
X119841727Y-78026197D01*
X119960648Y-78075455D01*
X119987403Y-78086537D01*
X120142053Y-78117299D01*
X120142056Y-78117300D01*
X120142058Y-78117300D01*
X120299744Y-78117300D01*
X120299745Y-78117299D01*
X120454397Y-78086537D01*
X120600079Y-78026194D01*
X120731189Y-77938589D01*
X120842689Y-77827089D01*
X120930294Y-77695979D01*
X120990637Y-77550297D01*
X121021400Y-77395642D01*
X121021400Y-77237958D01*
X121021400Y-77237955D01*
X121021399Y-77237953D01*
X120990638Y-77083310D01*
X120990637Y-77083303D01*
X120977780Y-77052263D01*
X120930297Y-76937627D01*
X120930290Y-76937614D01*
X120842689Y-76806511D01*
X120842686Y-76806507D01*
X120731192Y-76695013D01*
X120731184Y-76695007D01*
X120600081Y-76607407D01*
X120600075Y-76607404D01*
X120586076Y-76601605D01*
X120545850Y-76574726D01*
X117951869Y-73980743D01*
X117951868Y-73980742D01*
X117828292Y-73898172D01*
X117828291Y-73898171D01*
X117828289Y-73898170D01*
X117828286Y-73898168D01*
X117828281Y-73898166D01*
X117735188Y-73859606D01*
X117735181Y-73859603D01*
X117729875Y-73857406D01*
X117690980Y-73841295D01*
X117655281Y-73834194D01*
X117648980Y-73832940D01*
X117648975Y-73832939D01*
X117545213Y-73812299D01*
X117545212Y-73812299D01*
X117396588Y-73812299D01*
X117390474Y-73812299D01*
X117390454Y-73812300D01*
X116265847Y-73812300D01*
X116218398Y-73802862D01*
X116204397Y-73797063D01*
X116204393Y-73797062D01*
X116204388Y-73797060D01*
X116049745Y-73766300D01*
X116049742Y-73766300D01*
X115892058Y-73766300D01*
X115892055Y-73766300D01*
X115737410Y-73797061D01*
X115737398Y-73797064D01*
X115591727Y-73857402D01*
X115591714Y-73857409D01*
X115460611Y-73945010D01*
X115460607Y-73945013D01*
X115349113Y-74056507D01*
X115349110Y-74056511D01*
X115261509Y-74187614D01*
X115261502Y-74187627D01*
X115201164Y-74333298D01*
X115201161Y-74333310D01*
X115170400Y-74487953D01*
X109280473Y-74487953D01*
X109294200Y-74401287D01*
X109294200Y-74188713D01*
X109260946Y-73978757D01*
X109195257Y-73776588D01*
X109098751Y-73587184D01*
X109098749Y-73587181D01*
X109098748Y-73587179D01*
X108973809Y-73415213D01*
X108823486Y-73264890D01*
X108786410Y-73237953D01*
X144670400Y-73237953D01*
X144670400Y-73395646D01*
X144701161Y-73550289D01*
X144701164Y-73550301D01*
X144761502Y-73695972D01*
X144761509Y-73695985D01*
X144849110Y-73827088D01*
X144849113Y-73827092D01*
X144960607Y-73938586D01*
X144960611Y-73938589D01*
X145091714Y-74026190D01*
X145091727Y-74026197D01*
X145164913Y-74056511D01*
X145237403Y-74086537D01*
X145392053Y-74117299D01*
X145392056Y-74117300D01*
X145392058Y-74117300D01*
X145549744Y-74117300D01*
X145549745Y-74117299D01*
X145704397Y-74086537D01*
X145850079Y-74026194D01*
X145981189Y-73938589D01*
X146092689Y-73827089D01*
X146180294Y-73695979D01*
X146186091Y-73681982D01*
X146212969Y-73641754D01*
X146866771Y-72987953D01*
X152420400Y-72987953D01*
X152420400Y-73145646D01*
X152451161Y-73300289D01*
X152451164Y-73300301D01*
X152511502Y-73445972D01*
X152511509Y-73445985D01*
X152599110Y-73577088D01*
X152599113Y-73577092D01*
X152710607Y-73688586D01*
X152710611Y-73688589D01*
X152841714Y-73776190D01*
X152841727Y-73776197D01*
X152979706Y-73833349D01*
X152987403Y-73836537D01*
X153103378Y-73859606D01*
X153142053Y-73867299D01*
X153142056Y-73867300D01*
X153142058Y-73867300D01*
X153299744Y-73867300D01*
X153299745Y-73867299D01*
X153376052Y-73852120D01*
X153454388Y-73836539D01*
X153454389Y-73836538D01*
X153454397Y-73836537D01*
X153468398Y-73830737D01*
X153515847Y-73821300D01*
X155425953Y-73821300D01*
X155473401Y-73830737D01*
X155487403Y-73836537D01*
X155487408Y-73836538D01*
X155487411Y-73836539D01*
X155642053Y-73867299D01*
X155642056Y-73867300D01*
X155642058Y-73867300D01*
X155799744Y-73867300D01*
X155799745Y-73867299D01*
X155954397Y-73836537D01*
X156100079Y-73776194D01*
X156231189Y-73688589D01*
X156342689Y-73577089D01*
X156430294Y-73445979D01*
X156490637Y-73300297D01*
X156521400Y-73145642D01*
X156521400Y-72987958D01*
X156521400Y-72987955D01*
X156521399Y-72987953D01*
X156505903Y-72910050D01*
X156490637Y-72833303D01*
X156490635Y-72833298D01*
X156430297Y-72687627D01*
X156430290Y-72687614D01*
X156342689Y-72556511D01*
X156342686Y-72556507D01*
X156231192Y-72445013D01*
X156231188Y-72445010D01*
X156100085Y-72357409D01*
X156100072Y-72357402D01*
X155954401Y-72297064D01*
X155954389Y-72297061D01*
X155799745Y-72266300D01*
X155799742Y-72266300D01*
X155642058Y-72266300D01*
X155642055Y-72266300D01*
X155487411Y-72297060D01*
X155487406Y-72297062D01*
X155487404Y-72297062D01*
X155487403Y-72297063D01*
X155473401Y-72302862D01*
X155425953Y-72312300D01*
X153515847Y-72312300D01*
X153468398Y-72302862D01*
X153454397Y-72297063D01*
X153454393Y-72297062D01*
X153454388Y-72297060D01*
X153299745Y-72266300D01*
X153299742Y-72266300D01*
X153142058Y-72266300D01*
X153142055Y-72266300D01*
X152987410Y-72297061D01*
X152987398Y-72297064D01*
X152841727Y-72357402D01*
X152841714Y-72357409D01*
X152710611Y-72445010D01*
X152710607Y-72445013D01*
X152599113Y-72556507D01*
X152599110Y-72556511D01*
X152511509Y-72687614D01*
X152511502Y-72687627D01*
X152451164Y-72833298D01*
X152451161Y-72833310D01*
X152420400Y-72987953D01*
X146866771Y-72987953D01*
X147247105Y-72607619D01*
X147274032Y-72592915D01*
X147299851Y-72576323D01*
X147306051Y-72575431D01*
X147308428Y-72574134D01*
X147334786Y-72571300D01*
X147425953Y-72571300D01*
X147473401Y-72580737D01*
X147487403Y-72586537D01*
X147487408Y-72586538D01*
X147487411Y-72586539D01*
X147642053Y-72617299D01*
X147642056Y-72617300D01*
X147642058Y-72617300D01*
X147799744Y-72617300D01*
X147799745Y-72617299D01*
X147954397Y-72586537D01*
X148100079Y-72526194D01*
X148231189Y-72438589D01*
X148342689Y-72327089D01*
X148430294Y-72195979D01*
X148490637Y-72050297D01*
X148521400Y-71895642D01*
X148521400Y-71737958D01*
X148521400Y-71737955D01*
X148521399Y-71737953D01*
X158920400Y-71737953D01*
X158920400Y-71895646D01*
X158951161Y-72050289D01*
X158951163Y-72050297D01*
X158956961Y-72064294D01*
X158966400Y-72111747D01*
X158966400Y-73021853D01*
X158956962Y-73069301D01*
X158951165Y-73083298D01*
X158951162Y-73083306D01*
X158951160Y-73083311D01*
X158920400Y-73237953D01*
X158920400Y-73395646D01*
X158951161Y-73550289D01*
X158951164Y-73550301D01*
X159011502Y-73695972D01*
X159011509Y-73695985D01*
X159099110Y-73827088D01*
X159099113Y-73827092D01*
X159210607Y-73938586D01*
X159210611Y-73938589D01*
X159341714Y-74026190D01*
X159341727Y-74026197D01*
X159414913Y-74056511D01*
X159487403Y-74086537D01*
X159642053Y-74117299D01*
X159642056Y-74117300D01*
X159642058Y-74117300D01*
X159799744Y-74117300D01*
X159799745Y-74117299D01*
X159954397Y-74086537D01*
X160100079Y-74026194D01*
X160231189Y-73938589D01*
X160342689Y-73827089D01*
X160430294Y-73695979D01*
X160490637Y-73550297D01*
X160521400Y-73395642D01*
X160521400Y-73237958D01*
X160521400Y-73237955D01*
X160521399Y-73237953D01*
X160490639Y-73083311D01*
X160490638Y-73083308D01*
X160490637Y-73083303D01*
X160484837Y-73069301D01*
X160475400Y-73021853D01*
X160475400Y-72111747D01*
X160484839Y-72064294D01*
X160490637Y-72050297D01*
X160521400Y-71895642D01*
X160521400Y-71737958D01*
X160521400Y-71737955D01*
X160521399Y-71737953D01*
X160490638Y-71583310D01*
X160490637Y-71583303D01*
X160430765Y-71438757D01*
X160430297Y-71437627D01*
X160430290Y-71437614D01*
X160342689Y-71306511D01*
X160342686Y-71306507D01*
X160231192Y-71195013D01*
X160231188Y-71195010D01*
X160100085Y-71107409D01*
X160100072Y-71107402D01*
X159954401Y-71047064D01*
X159954389Y-71047061D01*
X159799745Y-71016300D01*
X159799742Y-71016300D01*
X159642058Y-71016300D01*
X159642055Y-71016300D01*
X159487410Y-71047061D01*
X159487398Y-71047064D01*
X159341727Y-71107402D01*
X159341714Y-71107409D01*
X159210611Y-71195010D01*
X159210607Y-71195013D01*
X159099113Y-71306507D01*
X159099110Y-71306511D01*
X159011509Y-71437614D01*
X159011502Y-71437627D01*
X158951164Y-71583298D01*
X158951161Y-71583310D01*
X158920400Y-71737953D01*
X148521399Y-71737953D01*
X148490638Y-71583310D01*
X148490637Y-71583303D01*
X148430765Y-71438757D01*
X148430297Y-71437627D01*
X148430290Y-71437614D01*
X148342689Y-71306511D01*
X148342686Y-71306507D01*
X148231192Y-71195013D01*
X148231188Y-71195010D01*
X148100085Y-71107409D01*
X148100072Y-71107402D01*
X147954401Y-71047064D01*
X147954389Y-71047061D01*
X147799745Y-71016300D01*
X147799742Y-71016300D01*
X147642058Y-71016300D01*
X147642055Y-71016300D01*
X147487411Y-71047060D01*
X147487406Y-71047062D01*
X147487404Y-71047062D01*
X147487403Y-71047063D01*
X147473401Y-71052862D01*
X147425953Y-71062300D01*
X146896583Y-71062300D01*
X146750827Y-71091293D01*
X146750819Y-71091295D01*
X146613508Y-71148171D01*
X146489935Y-71230739D01*
X146489934Y-71230740D01*
X146437388Y-71283287D01*
X146384841Y-71335834D01*
X146384839Y-71335836D01*
X145145945Y-72574728D01*
X145105722Y-72601606D01*
X145091719Y-72607406D01*
X145091718Y-72607407D01*
X144960615Y-72695007D01*
X144960607Y-72695013D01*
X144849113Y-72806507D01*
X144849110Y-72806511D01*
X144761509Y-72937614D01*
X144761502Y-72937627D01*
X144701164Y-73083298D01*
X144701161Y-73083310D01*
X144670400Y-73237953D01*
X108786410Y-73237953D01*
X108651520Y-73139951D01*
X108650815Y-73139591D01*
X108642754Y-73135485D01*
X108591959Y-73087512D01*
X108575163Y-73019692D01*
X108597699Y-72953556D01*
X108642754Y-72914515D01*
X108651516Y-72910051D01*
X108757142Y-72833310D01*
X108823486Y-72785109D01*
X108823488Y-72785106D01*
X108823492Y-72785104D01*
X108973804Y-72634792D01*
X108973806Y-72634788D01*
X108973809Y-72634786D01*
X109098748Y-72462820D01*
X109098747Y-72462820D01*
X109098751Y-72462816D01*
X109195257Y-72273412D01*
X109260946Y-72071243D01*
X109294200Y-71861287D01*
X109294200Y-71648713D01*
X109260946Y-71438757D01*
X109195257Y-71236588D01*
X109098751Y-71047184D01*
X109098749Y-71047181D01*
X109098748Y-71047179D01*
X108973809Y-70875213D01*
X108823486Y-70724890D01*
X108651520Y-70599951D01*
X108650815Y-70599591D01*
X108642754Y-70595485D01*
X108591959Y-70547512D01*
X108575163Y-70479692D01*
X108597699Y-70413556D01*
X108642754Y-70374515D01*
X108651516Y-70370051D01*
X108673489Y-70354086D01*
X108823486Y-70245109D01*
X108823488Y-70245106D01*
X108823492Y-70245104D01*
X108973804Y-70094792D01*
X108973806Y-70094788D01*
X108973809Y-70094786D01*
X109082786Y-69944789D01*
X109098751Y-69922816D01*
X109195257Y-69733412D01*
X109260946Y-69531243D01*
X109294200Y-69321287D01*
X109294200Y-69108713D01*
X109260946Y-68898757D01*
X109256734Y-68885795D01*
X147185533Y-68885795D01*
X147212452Y-69021122D01*
X147212455Y-69021132D01*
X147265255Y-69148604D01*
X147265262Y-69148617D01*
X147341919Y-69263341D01*
X147341922Y-69263345D01*
X147439488Y-69360911D01*
X147439492Y-69360914D01*
X147554216Y-69437571D01*
X147554229Y-69437578D01*
X147681701Y-69490378D01*
X147681706Y-69490380D01*
X147681710Y-69490380D01*
X147681711Y-69490381D01*
X147817038Y-69517300D01*
X147817041Y-69517300D01*
X147955029Y-69517300D01*
X148046075Y-69499189D01*
X148090362Y-69490380D01*
X148217845Y-69437575D01*
X148332576Y-69360914D01*
X148430148Y-69263342D01*
X148506809Y-69148611D01*
X148559614Y-69021128D01*
X148583955Y-68898759D01*
X148586534Y-68885795D01*
X150185533Y-68885795D01*
X150212452Y-69021122D01*
X150212455Y-69021132D01*
X150265255Y-69148604D01*
X150265262Y-69148617D01*
X150341919Y-69263341D01*
X150341922Y-69263345D01*
X150439488Y-69360911D01*
X150439492Y-69360914D01*
X150554216Y-69437571D01*
X150554229Y-69437578D01*
X150681701Y-69490378D01*
X150681706Y-69490380D01*
X150681710Y-69490380D01*
X150681711Y-69490381D01*
X150817038Y-69517300D01*
X150817041Y-69517300D01*
X150955029Y-69517300D01*
X151046075Y-69499189D01*
X151090362Y-69490380D01*
X151217845Y-69437575D01*
X151332576Y-69360914D01*
X151430148Y-69263342D01*
X151506809Y-69148611D01*
X151559614Y-69021128D01*
X151583955Y-68898759D01*
X151586534Y-68885795D01*
X151586534Y-68747804D01*
X151559615Y-68612477D01*
X151559614Y-68612476D01*
X151559614Y-68612472D01*
X151559612Y-68612467D01*
X151506812Y-68484995D01*
X151506805Y-68484982D01*
X151430148Y-68370258D01*
X151430145Y-68370254D01*
X151332579Y-68272688D01*
X151332575Y-68272685D01*
X151217851Y-68196028D01*
X151217838Y-68196021D01*
X151090366Y-68143221D01*
X151090356Y-68143218D01*
X150955029Y-68116300D01*
X150955027Y-68116300D01*
X150817041Y-68116300D01*
X150817039Y-68116300D01*
X150681711Y-68143218D01*
X150681701Y-68143221D01*
X150554229Y-68196021D01*
X150554216Y-68196028D01*
X150439492Y-68272685D01*
X150439488Y-68272688D01*
X150341922Y-68370254D01*
X150341919Y-68370258D01*
X150265262Y-68484982D01*
X150265255Y-68484995D01*
X150212455Y-68612467D01*
X150212452Y-68612477D01*
X150185534Y-68747804D01*
X150185534Y-68747807D01*
X150185534Y-68885793D01*
X150185534Y-68885795D01*
X150185533Y-68885795D01*
X148586534Y-68885795D01*
X148586534Y-68747804D01*
X148559615Y-68612477D01*
X148559614Y-68612476D01*
X148559614Y-68612472D01*
X148559612Y-68612467D01*
X148506812Y-68484995D01*
X148506805Y-68484982D01*
X148430148Y-68370258D01*
X148430145Y-68370254D01*
X148332579Y-68272688D01*
X148332575Y-68272685D01*
X148217851Y-68196028D01*
X148217838Y-68196021D01*
X148090366Y-68143221D01*
X148090356Y-68143218D01*
X147955029Y-68116300D01*
X147955027Y-68116300D01*
X147817041Y-68116300D01*
X147817039Y-68116300D01*
X147681711Y-68143218D01*
X147681701Y-68143221D01*
X147554229Y-68196021D01*
X147554216Y-68196028D01*
X147439492Y-68272685D01*
X147439488Y-68272688D01*
X147341922Y-68370254D01*
X147341919Y-68370258D01*
X147265262Y-68484982D01*
X147265255Y-68484995D01*
X147212455Y-68612467D01*
X147212452Y-68612477D01*
X147185534Y-68747804D01*
X147185534Y-68747807D01*
X147185534Y-68885793D01*
X147185534Y-68885795D01*
X147185533Y-68885795D01*
X109256734Y-68885795D01*
X109195257Y-68696588D01*
X109195255Y-68696585D01*
X109195255Y-68696583D01*
X109129097Y-68566742D01*
X109098751Y-68507184D01*
X109098749Y-68507181D01*
X109098748Y-68507179D01*
X108973809Y-68335213D01*
X108823486Y-68184890D01*
X108651520Y-68059951D01*
X108462114Y-67963444D01*
X108462113Y-67963443D01*
X108462112Y-67963443D01*
X108259943Y-67897754D01*
X108259941Y-67897753D01*
X108259940Y-67897753D01*
X108098657Y-67872208D01*
X108049987Y-67864500D01*
X107837413Y-67864500D01*
X107788742Y-67872208D01*
X107627460Y-67897753D01*
X107425285Y-67963444D01*
X107235879Y-68059951D01*
X107063913Y-68184890D01*
X106913590Y-68335213D01*
X106788649Y-68507182D01*
X106784184Y-68515946D01*
X106736209Y-68566742D01*
X106668388Y-68583536D01*
X106602253Y-68560998D01*
X106563216Y-68515946D01*
X106558750Y-68507182D01*
X106433809Y-68335213D01*
X106283486Y-68184890D01*
X106111520Y-68059951D01*
X105922114Y-67963444D01*
X105922113Y-67963443D01*
X105922112Y-67963443D01*
X105719943Y-67897754D01*
X105719941Y-67897753D01*
X105719940Y-67897753D01*
X105558657Y-67872208D01*
X105509987Y-67864500D01*
X105297413Y-67864500D01*
X105248742Y-67872208D01*
X105087460Y-67897753D01*
X104885285Y-67963444D01*
X104695879Y-68059951D01*
X104523913Y-68184890D01*
X104373590Y-68335213D01*
X104248651Y-68507179D01*
X104152144Y-68696585D01*
X104086453Y-68898760D01*
X104053200Y-69108713D01*
X101471400Y-69108713D01*
X101471400Y-64650065D01*
X111986543Y-64650065D01*
X111986543Y-66200083D01*
X111986544Y-66200100D01*
X111997043Y-66302878D01*
X111997044Y-66302881D01*
X112018391Y-66367300D01*
X112052229Y-66469416D01*
X112144331Y-66618738D01*
X112268387Y-66742794D01*
X112417709Y-66834896D01*
X112584246Y-66890081D01*
X112687034Y-66900582D01*
X113987051Y-66900581D01*
X114089840Y-66890081D01*
X114256377Y-66834896D01*
X114405699Y-66742794D01*
X114529755Y-66618738D01*
X114621857Y-66469416D01*
X114677042Y-66302879D01*
X114687543Y-66200091D01*
X114687542Y-65193795D01*
X116986543Y-65193795D01*
X116986543Y-65656369D01*
X117019797Y-65866325D01*
X117045680Y-65945985D01*
X117085487Y-66068496D01*
X117181994Y-66257902D01*
X117306933Y-66429868D01*
X117457256Y-66580191D01*
X117629222Y-66705130D01*
X117629224Y-66705131D01*
X117629227Y-66705133D01*
X117818631Y-66801639D01*
X118020800Y-66867328D01*
X118230756Y-66900582D01*
X118230757Y-66900582D01*
X118443329Y-66900582D01*
X118443330Y-66900582D01*
X118653286Y-66867328D01*
X118855455Y-66801639D01*
X119044859Y-66705133D01*
X119066832Y-66689168D01*
X119216829Y-66580191D01*
X119216831Y-66580188D01*
X119216835Y-66580186D01*
X119367147Y-66429874D01*
X119486726Y-66265286D01*
X119542054Y-66222622D01*
X119611667Y-66216643D01*
X119673463Y-66249248D01*
X119687356Y-66265281D01*
X119739127Y-66336538D01*
X119806939Y-66429874D01*
X119957256Y-66580191D01*
X120129222Y-66705130D01*
X120129224Y-66705131D01*
X120129227Y-66705133D01*
X120318631Y-66801639D01*
X120520800Y-66867328D01*
X120730756Y-66900582D01*
X120730757Y-66900582D01*
X120943329Y-66900582D01*
X120943330Y-66900582D01*
X121153286Y-66867328D01*
X121355455Y-66801639D01*
X121544859Y-66705133D01*
X121566832Y-66689168D01*
X121716829Y-66580191D01*
X121716831Y-66580188D01*
X121716835Y-66580186D01*
X121867147Y-66429874D01*
X121986726Y-66265286D01*
X122042054Y-66222622D01*
X122111667Y-66216643D01*
X122173463Y-66249248D01*
X122187356Y-66265281D01*
X122239127Y-66336538D01*
X122306939Y-66429874D01*
X122457256Y-66580191D01*
X122629222Y-66705130D01*
X122629224Y-66705131D01*
X122629227Y-66705133D01*
X122818631Y-66801639D01*
X123020800Y-66867328D01*
X123230756Y-66900582D01*
X123230757Y-66900582D01*
X123443329Y-66900582D01*
X123443330Y-66900582D01*
X123653286Y-66867328D01*
X123855455Y-66801639D01*
X124044859Y-66705133D01*
X124066832Y-66689168D01*
X124216829Y-66580191D01*
X124216831Y-66580188D01*
X124216835Y-66580186D01*
X124367147Y-66429874D01*
X124367149Y-66429870D01*
X124367152Y-66429868D01*
X124492091Y-66257902D01*
X124492090Y-66257902D01*
X124492094Y-66257898D01*
X124588600Y-66068494D01*
X124654289Y-65866325D01*
X124687543Y-65656369D01*
X124687543Y-65487953D01*
X148170400Y-65487953D01*
X148170400Y-65645646D01*
X148201161Y-65800289D01*
X148201164Y-65800301D01*
X148261502Y-65945972D01*
X148261509Y-65945985D01*
X148349110Y-66077088D01*
X148349113Y-66077092D01*
X148460607Y-66188586D01*
X148460611Y-66188589D01*
X148591714Y-66276190D01*
X148591727Y-66276197D01*
X148737398Y-66336535D01*
X148737403Y-66336537D01*
X148892053Y-66367299D01*
X148892056Y-66367300D01*
X148892058Y-66367300D01*
X149049744Y-66367300D01*
X149049745Y-66367299D01*
X149204397Y-66336537D01*
X149350079Y-66276194D01*
X149481189Y-66188589D01*
X149592689Y-66077089D01*
X149680294Y-65945979D01*
X149686091Y-65931980D01*
X149712967Y-65891755D01*
X149997106Y-65607616D01*
X150058428Y-65574134D01*
X150084786Y-65571300D01*
X150675953Y-65571300D01*
X150723401Y-65580737D01*
X150737403Y-65586537D01*
X150737408Y-65586538D01*
X150737411Y-65586539D01*
X150892053Y-65617299D01*
X150892056Y-65617300D01*
X150892058Y-65617300D01*
X151049744Y-65617300D01*
X151049745Y-65617299D01*
X151204397Y-65586537D01*
X151350079Y-65526194D01*
X151481189Y-65438589D01*
X151592689Y-65327089D01*
X151680294Y-65195979D01*
X151683754Y-65187627D01*
X151738063Y-65056511D01*
X151740637Y-65050297D01*
X151771400Y-64895642D01*
X151771400Y-64737958D01*
X151771400Y-64737955D01*
X151771399Y-64737953D01*
X151753920Y-64650080D01*
X151740637Y-64583303D01*
X151740635Y-64583298D01*
X151680297Y-64437627D01*
X151680290Y-64437614D01*
X151592689Y-64306511D01*
X151592686Y-64306507D01*
X151481192Y-64195013D01*
X151481188Y-64195010D01*
X151350085Y-64107409D01*
X151350072Y-64107402D01*
X151204401Y-64047064D01*
X151204389Y-64047061D01*
X151049745Y-64016300D01*
X151049742Y-64016300D01*
X150892058Y-64016300D01*
X150892055Y-64016300D01*
X150737411Y-64047060D01*
X150737406Y-64047062D01*
X150737404Y-64047062D01*
X150737403Y-64047063D01*
X150723401Y-64052862D01*
X150675953Y-64062300D01*
X149646583Y-64062300D01*
X149500827Y-64091293D01*
X149500819Y-64091295D01*
X149363508Y-64148171D01*
X149239935Y-64230739D01*
X149239934Y-64230740D01*
X149200703Y-64269972D01*
X149134841Y-64335834D01*
X149134839Y-64335836D01*
X148645947Y-64824727D01*
X148605722Y-64851606D01*
X148591723Y-64857404D01*
X148591714Y-64857409D01*
X148460611Y-64945010D01*
X148460607Y-64945013D01*
X148349113Y-65056507D01*
X148349110Y-65056511D01*
X148261509Y-65187614D01*
X148261502Y-65187627D01*
X148201164Y-65333298D01*
X148201161Y-65333310D01*
X148170400Y-65487953D01*
X124687543Y-65487953D01*
X124687543Y-65193795D01*
X124654289Y-64983839D01*
X124588600Y-64781670D01*
X124492094Y-64592266D01*
X124492092Y-64592263D01*
X124492091Y-64592261D01*
X124367152Y-64420295D01*
X124216829Y-64269972D01*
X124044863Y-64145033D01*
X123855457Y-64048526D01*
X123855456Y-64048525D01*
X123855455Y-64048525D01*
X123653286Y-63982836D01*
X123653284Y-63982835D01*
X123653283Y-63982835D01*
X123492000Y-63957290D01*
X123443330Y-63949582D01*
X123230756Y-63949582D01*
X123182085Y-63957290D01*
X123020803Y-63982835D01*
X123020800Y-63982836D01*
X122823128Y-64047064D01*
X122818628Y-64048526D01*
X122629222Y-64145033D01*
X122457256Y-64269972D01*
X122306937Y-64420291D01*
X122306933Y-64420296D01*
X122187361Y-64584875D01*
X122132032Y-64627541D01*
X122062418Y-64633520D01*
X122000623Y-64600915D01*
X121986725Y-64584875D01*
X121867152Y-64420296D01*
X121867148Y-64420291D01*
X121716829Y-64269972D01*
X121544863Y-64145033D01*
X121355457Y-64048526D01*
X121355456Y-64048525D01*
X121355455Y-64048525D01*
X121153286Y-63982836D01*
X121153284Y-63982835D01*
X121153283Y-63982835D01*
X120992000Y-63957290D01*
X120943330Y-63949582D01*
X120730756Y-63949582D01*
X120682085Y-63957290D01*
X120520803Y-63982835D01*
X120520800Y-63982836D01*
X120323128Y-64047064D01*
X120318628Y-64048526D01*
X120129222Y-64145033D01*
X119957256Y-64269972D01*
X119806937Y-64420291D01*
X119806933Y-64420296D01*
X119687361Y-64584875D01*
X119632032Y-64627541D01*
X119562418Y-64633520D01*
X119500623Y-64600915D01*
X119486725Y-64584875D01*
X119367152Y-64420296D01*
X119367148Y-64420291D01*
X119216829Y-64269972D01*
X119044863Y-64145033D01*
X118855457Y-64048526D01*
X118855456Y-64048525D01*
X118855455Y-64048525D01*
X118653286Y-63982836D01*
X118653284Y-63982835D01*
X118653283Y-63982835D01*
X118492000Y-63957290D01*
X118443330Y-63949582D01*
X118230756Y-63949582D01*
X118182085Y-63957290D01*
X118020803Y-63982835D01*
X118020800Y-63982836D01*
X117823128Y-64047064D01*
X117818628Y-64048526D01*
X117629222Y-64145033D01*
X117457256Y-64269972D01*
X117306933Y-64420295D01*
X117181994Y-64592261D01*
X117085487Y-64781667D01*
X117019796Y-64983842D01*
X116987522Y-65187614D01*
X116986543Y-65193795D01*
X114687542Y-65193795D01*
X114687542Y-64650074D01*
X114677042Y-64547285D01*
X114621857Y-64380748D01*
X114529755Y-64231426D01*
X114405699Y-64107370D01*
X114307920Y-64047060D01*
X114256379Y-64015269D01*
X114256374Y-64015267D01*
X114254905Y-64014780D01*
X114089840Y-63960083D01*
X114089838Y-63960082D01*
X113987053Y-63949582D01*
X112687041Y-63949582D01*
X112687024Y-63949583D01*
X112584246Y-63960082D01*
X112584243Y-63960083D01*
X112417711Y-64015267D01*
X112417706Y-64015269D01*
X112268385Y-64107371D01*
X112144332Y-64231424D01*
X112052230Y-64380745D01*
X112052229Y-64380748D01*
X111997044Y-64547285D01*
X111997044Y-64547286D01*
X111997043Y-64547286D01*
X111986543Y-64650065D01*
X101471400Y-64650065D01*
X101471400Y-57312827D01*
X101491085Y-57245788D01*
X101543889Y-57200033D01*
X101595400Y-57188827D01*
X115201281Y-57188827D01*
X115268320Y-57208512D01*
G37*
%TD.AperFunction*%
%TD*%
M02*
