%TF.GenerationSoftware,KiCad,Pcbnew,10.0.1*%
%TF.CreationDate,2026-05-05T12:30:37-06:00*%
%TF.ProjectId,2026_12_2Wheel_Balance_Robot_v1,32303236-5f31-4325-9f32-576865656c5f,rev?*%
%TF.SameCoordinates,Original*%
%TF.FileFunction,Copper,L1,Top*%
%TF.FilePolarity,Positive*%
%FSLAX46Y46*%
G04 Gerber Fmt 4.6, Leading zero omitted, Abs format (unit mm)*
G04 Created by KiCad (PCBNEW 10.0.1) date 2026-05-05 12:30:37*
%MOMM*%
%LPD*%
G01*
G04 APERTURE LIST*
G04 Aperture macros list*
%AMRoundRect*
0 Rectangle with rounded corners*
0 $1 Rounding radius*
0 $2 $3 $4 $5 $6 $7 $8 $9 X,Y pos of 4 corners*
0 Add a 4 corners polygon primitive as box body*
4,1,4,$2,$3,$4,$5,$6,$7,$8,$9,$2,$3,0*
0 Add four circle primitives for the rounded corners*
1,1,$1+$1,$2,$3*
1,1,$1+$1,$4,$5*
1,1,$1+$1,$6,$7*
1,1,$1+$1,$8,$9*
0 Add four rect primitives between the rounded corners*
20,1,$1+$1,$2,$3,$4,$5,0*
20,1,$1+$1,$4,$5,$6,$7,0*
20,1,$1+$1,$6,$7,$8,$9,0*
20,1,$1+$1,$8,$9,$2,$3,0*%
G04 Aperture macros list end*
%TA.AperFunction,SMDPad,CuDef*%
%ADD10RoundRect,0.250000X0.475000X-0.337500X0.475000X0.337500X-0.475000X0.337500X-0.475000X-0.337500X0*%
%TD*%
%TA.AperFunction,SMDPad,CuDef*%
%ADD11RoundRect,0.250000X-0.337500X-0.475000X0.337500X-0.475000X0.337500X0.475000X-0.337500X0.475000X0*%
%TD*%
%TA.AperFunction,SMDPad,CuDef*%
%ADD12RoundRect,0.250000X0.337500X0.475000X-0.337500X0.475000X-0.337500X-0.475000X0.337500X-0.475000X0*%
%TD*%
%TA.AperFunction,SMDPad,CuDef*%
%ADD13RoundRect,0.250000X-0.312500X-1.450000X0.312500X-1.450000X0.312500X1.450000X-0.312500X1.450000X0*%
%TD*%
%TA.AperFunction,SMDPad,CuDef*%
%ADD14RoundRect,0.250000X-0.450000X0.350000X-0.450000X-0.350000X0.450000X-0.350000X0.450000X0.350000X0*%
%TD*%
%TA.AperFunction,SMDPad,CuDef*%
%ADD15RoundRect,0.150000X-0.512500X-0.150000X0.512500X-0.150000X0.512500X0.150000X-0.512500X0.150000X0*%
%TD*%
%TA.AperFunction,SMDPad,CuDef*%
%ADD16RoundRect,0.375000X0.625000X0.375000X-0.625000X0.375000X-0.625000X-0.375000X0.625000X-0.375000X0*%
%TD*%
%TA.AperFunction,SMDPad,CuDef*%
%ADD17RoundRect,0.500000X0.500000X1.400000X-0.500000X1.400000X-0.500000X-1.400000X0.500000X-1.400000X0*%
%TD*%
%TA.AperFunction,SMDPad,CuDef*%
%ADD18R,0.900000X1.250000*%
%TD*%
%TA.AperFunction,SMDPad,CuDef*%
%ADD19R,0.800000X0.900000*%
%TD*%
%TA.AperFunction,SMDPad,CuDef*%
%ADD20RoundRect,0.250000X-0.350000X-0.450000X0.350000X-0.450000X0.350000X0.450000X-0.350000X0.450000X0*%
%TD*%
%TA.AperFunction,ComponentPad*%
%ADD21R,1.700000X1.700000*%
%TD*%
%TA.AperFunction,ComponentPad*%
%ADD22C,1.700000*%
%TD*%
%TA.AperFunction,SMDPad,CuDef*%
%ADD23RoundRect,0.237500X-0.250000X-0.237500X0.250000X-0.237500X0.250000X0.237500X-0.250000X0.237500X0*%
%TD*%
%TA.AperFunction,SMDPad,CuDef*%
%ADD24RoundRect,0.100000X0.850000X0.100000X-0.850000X0.100000X-0.850000X-0.100000X0.850000X-0.100000X0*%
%TD*%
%TA.AperFunction,SMDPad,CuDef*%
%ADD25RoundRect,0.090000X0.660000X0.360000X-0.660000X0.360000X-0.660000X-0.360000X0.660000X-0.360000X0*%
%TD*%
%TA.AperFunction,SMDPad,CuDef*%
%ADD26R,2.300000X1.500000*%
%TD*%
%TA.AperFunction,SMDPad,CuDef*%
%ADD27RoundRect,0.075000X0.700000X0.075000X-0.700000X0.075000X-0.700000X-0.075000X0.700000X-0.075000X0*%
%TD*%
%TA.AperFunction,SMDPad,CuDef*%
%ADD28RoundRect,0.075000X0.075000X0.700000X-0.075000X0.700000X-0.075000X-0.700000X0.075000X-0.700000X0*%
%TD*%
%TA.AperFunction,SMDPad,CuDef*%
%ADD29RoundRect,0.250000X0.450000X-0.325000X0.450000X0.325000X-0.450000X0.325000X-0.450000X-0.325000X0*%
%TD*%
%TA.AperFunction,SMDPad,CuDef*%
%ADD30RoundRect,0.250000X0.350000X-0.450000X0.350000X0.450000X-0.350000X0.450000X-0.350000X-0.450000X0*%
%TD*%
%TA.AperFunction,SMDPad,CuDef*%
%ADD31RoundRect,0.250000X-0.475000X0.337500X-0.475000X-0.337500X0.475000X-0.337500X0.475000X0.337500X0*%
%TD*%
%TA.AperFunction,ComponentPad*%
%ADD32RoundRect,0.250000X-0.600000X-0.750000X0.600000X-0.750000X0.600000X0.750000X-0.600000X0.750000X0*%
%TD*%
%TA.AperFunction,ComponentPad*%
%ADD33O,1.700000X2.000000*%
%TD*%
%TA.AperFunction,SMDPad,CuDef*%
%ADD34RoundRect,0.250000X-0.325000X-0.450000X0.325000X-0.450000X0.325000X0.450000X-0.325000X0.450000X0*%
%TD*%
%TA.AperFunction,ComponentPad*%
%ADD35RoundRect,0.250000X0.600000X0.750000X-0.600000X0.750000X-0.600000X-0.750000X0.600000X-0.750000X0*%
%TD*%
%TA.AperFunction,ComponentPad*%
%ADD36RoundRect,0.250000X0.750000X-0.600000X0.750000X0.600000X-0.750000X0.600000X-0.750000X-0.600000X0*%
%TD*%
%TA.AperFunction,ComponentPad*%
%ADD37O,2.000000X1.700000*%
%TD*%
%TA.AperFunction,ComponentPad*%
%ADD38RoundRect,0.250000X-0.600000X-0.725000X0.600000X-0.725000X0.600000X0.725000X-0.600000X0.725000X0*%
%TD*%
%TA.AperFunction,ComponentPad*%
%ADD39O,1.700000X1.950000*%
%TD*%
%TA.AperFunction,SMDPad,CuDef*%
%ADD40RoundRect,0.150000X-0.500000X0.150000X-0.500000X-0.150000X0.500000X-0.150000X0.500000X0.150000X0*%
%TD*%
%TA.AperFunction,SMDPad,CuDef*%
%ADD41RoundRect,0.075000X-0.575000X0.075000X-0.575000X-0.075000X0.575000X-0.075000X0.575000X0.075000X0*%
%TD*%
%TA.AperFunction,ComponentPad*%
%ADD42O,2.100000X1.000000*%
%TD*%
%TA.AperFunction,ComponentPad*%
%ADD43O,1.600000X1.000000*%
%TD*%
%TA.AperFunction,SMDPad,CuDef*%
%ADD44RoundRect,0.250001X-0.872499X-0.944999X0.872499X-0.944999X0.872499X0.944999X-0.872499X0.944999X0*%
%TD*%
%TA.AperFunction,SMDPad,CuDef*%
%ADD45RoundRect,0.237500X0.250000X0.237500X-0.250000X0.237500X-0.250000X-0.237500X0.250000X-0.237500X0*%
%TD*%
%TA.AperFunction,ComponentPad*%
%ADD46RoundRect,0.250000X0.600000X0.725000X-0.600000X0.725000X-0.600000X-0.725000X0.600000X-0.725000X0*%
%TD*%
%TA.AperFunction,SMDPad,CuDef*%
%ADD47RoundRect,0.250000X0.350000X0.450000X-0.350000X0.450000X-0.350000X-0.450000X0.350000X-0.450000X0*%
%TD*%
%TA.AperFunction,ViaPad*%
%ADD48C,0.600000*%
%TD*%
%TA.AperFunction,Conductor*%
%ADD49C,0.381000*%
%TD*%
%TA.AperFunction,Conductor*%
%ADD50C,0.203200*%
%TD*%
%TA.AperFunction,Conductor*%
%ADD51C,0.508000*%
%TD*%
%TA.AperFunction,Conductor*%
%ADD52C,0.254000*%
%TD*%
%TA.AperFunction,Conductor*%
%ADD53C,0.200000*%
%TD*%
%TA.AperFunction,Conductor*%
%ADD54C,0.304800*%
%TD*%
G04 APERTURE END LIST*
D10*
%TO.P,C7,1,~_1*%
%TO.N,Net-(U1-VCAP1)*%
X126720900Y-79802900D03*
%TO.P,C7,2,~_2*%
%TO.N,GND*%
X126720900Y-77727900D03*
%TD*%
D11*
%TO.P,C8,1,~_1*%
%TO.N,+3.3V*%
X151567100Y-85067500D03*
%TO.P,C8,2,~_2*%
%TO.N,GND*%
X153642100Y-85067500D03*
%TD*%
D12*
%TO.P,C2,1,~_1*%
%TO.N,+3.3V*%
X123789400Y-78917800D03*
%TO.P,C2,2,~_2*%
%TO.N,GND*%
X121714400Y-78917800D03*
%TD*%
D13*
%TO.P,F1,1,~_1*%
%TO.N,Net-(F1-~-Pad1)*%
X104714000Y-82169000D03*
%TO.P,F1,2,~_2*%
%TO.N,Vusb*%
X108989000Y-82169000D03*
%TD*%
D14*
%TO.P,R1,1,~_1*%
%TO.N,Net-(D2-A)*%
X111118700Y-80153000D03*
%TO.P,R1,2,~_2*%
%TO.N,Vusb*%
X111118700Y-82153000D03*
%TD*%
D15*
%TO.P,U5,1,I/O1_1*%
%TO.N,/USB_D-*%
X111048000Y-89042200D03*
%TO.P,U5,2,GND_2*%
%TO.N,GND*%
X111048000Y-89992200D03*
%TO.P,U5,3,I/O2_3*%
%TO.N,/USB_D+*%
X111048000Y-90942200D03*
%TO.P,U5,4,I/O2_4*%
%TO.N,/CONN_D+*%
X113323000Y-90942200D03*
%TO.P,U5,5,VBUS_5*%
%TO.N,Vusb*%
X113323000Y-89992200D03*
%TO.P,U5,6,I/O1_6*%
%TO.N,/CONN_D-*%
X113323000Y-89042200D03*
%TD*%
D16*
%TO.P,U3,1,GND_1*%
%TO.N,GND*%
X136163500Y-65215800D03*
%TO.P,U3,2,VO_2*%
%TO.N,5V_REG*%
X136163500Y-62915800D03*
D17*
X129863500Y-62915800D03*
D16*
%TO.P,U3,3,VI_3*%
%TO.N,VM*%
X136163500Y-60615800D03*
%TD*%
D18*
%TO.P,S4,1*%
%TO.N,GND*%
X123420900Y-100941800D03*
%TO.P,S4,2*%
%TO.N,Net-(R2-~-Pad1)*%
X126420900Y-100941800D03*
%TO.P,S4,3*%
%TO.N,+3.3V*%
X127920900Y-100941800D03*
D19*
%TO.P,S4,SH1*%
%TO.N,N/C*%
X121870900Y-101966800D03*
%TO.P,S4,SH2*%
X129470900Y-101966800D03*
%TO.P,S4,SH3*%
X121870900Y-104066800D03*
%TO.P,S4,SH4*%
X129470900Y-104066800D03*
%TD*%
D16*
%TO.P,U6,1,GND_1*%
%TO.N,GND*%
X136188900Y-74055000D03*
%TO.P,U6,2,VO_2*%
%TO.N,+3.3V*%
X136188900Y-71755000D03*
D17*
X129888900Y-71755000D03*
D16*
%TO.P,U6,3,VI_3*%
%TO.N,+5V*%
X136188900Y-69455000D03*
%TD*%
D20*
%TO.P,R9,1,~_1*%
%TO.N,Net-(D4-A)*%
X125409500Y-75209400D03*
%TO.P,R9,2,~_2*%
%TO.N,/USER_LED*%
X127409500Y-75209400D03*
%TD*%
D21*
%TO.P,J4,1,Pin_1_1*%
%TO.N,GND*%
X105403700Y-76835000D03*
D22*
%TO.P,J4,2,Pin_2_2*%
%TO.N,/ESP_TX*%
X107943700Y-76835000D03*
%TO.P,J4,3,Pin_3_3*%
%TO.N,unconnected-(J4-Pin_3-Pad3)*%
X105403700Y-74295000D03*
%TO.P,J4,4,Pin_4_4*%
%TO.N,+3.3V*%
X107943700Y-74295000D03*
%TO.P,J4,5,Pin_5_5*%
%TO.N,Net-(J4-Pin_5)*%
X105403700Y-71755000D03*
%TO.P,J4,6,Pin_6_6*%
%TO.N,+3.3V*%
X107943700Y-71755000D03*
%TO.P,J4,7,Pin_7_7*%
%TO.N,/ESP_RX*%
X105403700Y-69215000D03*
%TO.P,J4,8,Pin_8_8*%
%TO.N,+3.3V*%
X107943700Y-69215000D03*
%TD*%
D23*
%TO.P,R8,1,~_1*%
%TO.N,Net-(J3-CC2)*%
X110866600Y-93014800D03*
%TO.P,R8,2,~_2*%
%TO.N,GND*%
X112691600Y-93014800D03*
%TD*%
D24*
%TO.P,U2,1,AO1_1*%
%TO.N,/MD_AO1*%
X152470900Y-82466800D03*
%TO.P,U2,2,AO1_2*%
X152470900Y-81816800D03*
%TO.P,U2,3,PGND1_3*%
%TO.N,GND*%
X152470900Y-81166800D03*
%TO.P,U2,4,PGND1_4*%
X152470900Y-80516800D03*
%TO.P,U2,5,AO2_5*%
%TO.N,/MD_AO2*%
X152470900Y-79866800D03*
%TO.P,U2,6,AO2_6*%
X152470900Y-79216800D03*
%TO.P,U2,7,BO2_7*%
%TO.N,/MD_BO2*%
X152470900Y-78566800D03*
%TO.P,U2,8,BO2_8*%
X152470900Y-77916800D03*
%TO.P,U2,9,PGND2_9*%
%TO.N,GND*%
X152470900Y-77266800D03*
%TO.P,U2,10,PGND2_10*%
X152470900Y-76616800D03*
%TO.P,U2,11,BO1_11*%
%TO.N,/MD_BO1*%
X152470900Y-75966800D03*
%TO.P,U2,12,BO1_12*%
X152470900Y-75316800D03*
%TO.P,U2,13,VM2_13*%
%TO.N,VM*%
X145470900Y-75316800D03*
%TO.P,U2,14,VM3_14*%
X145470900Y-75966800D03*
%TO.P,U2,15,PWMB_15*%
%TO.N,/MD_PWMB*%
X145470900Y-76616800D03*
%TO.P,U2,16,BIN2_16*%
%TO.N,/MD_BIN2*%
X145470900Y-77266800D03*
%TO.P,U2,17,BIN1_17*%
%TO.N,/MD_BIN1*%
X145470900Y-77916800D03*
%TO.P,U2,18,GND_18*%
%TO.N,GND*%
X145470900Y-78566800D03*
%TO.P,U2,19,STBY_19*%
%TO.N,/MD_STBY*%
X145470900Y-79216800D03*
%TO.P,U2,20,VCC_20*%
%TO.N,+3.3V*%
X145470900Y-79866800D03*
%TO.P,U2,21,AIN1_21*%
%TO.N,/MD_AIN1*%
X145470900Y-80516800D03*
%TO.P,U2,22,AIN2_22*%
%TO.N,/MD_AIN2*%
X145470900Y-81166800D03*
%TO.P,U2,23,PWMA_23*%
%TO.N,/MD_PWMA*%
X145470900Y-81816800D03*
%TO.P,U2,24,VM1_24*%
%TO.N,VM*%
X145470900Y-82466800D03*
%TD*%
D25*
%TO.P,D1,1,VDD_1*%
%TO.N,+5V*%
X160970900Y-70816800D03*
%TO.P,D1,2,DOUT_2*%
%TO.N,unconnected-(D1-DOUT-Pad2)*%
X160970900Y-67516800D03*
%TO.P,D1,3,VSS_3*%
%TO.N,GND*%
X156070900Y-67516800D03*
%TO.P,D1,4,DIN_4*%
%TO.N,/WS_DIN*%
X156070900Y-70816800D03*
%TD*%
D10*
%TO.P,C13,1,~_1*%
%TO.N,+5V*%
X138855500Y-69515900D03*
%TO.P,C13,2,~_2*%
%TO.N,GND*%
X138855500Y-67440900D03*
%TD*%
D26*
%TO.P,SW2,1,A_1*%
%TO.N,GND*%
X148470900Y-97066800D03*
%TO.P,SW2,2,B_2*%
%TO.N,/RESET*%
X141770900Y-97066800D03*
%TD*%
D27*
%TO.P,U1,1,VBAT_1*%
%TO.N,unconnected-(U1-VBAT-Pad1)*%
X135096300Y-91584400D03*
%TO.P,U1,2,PC13_2*%
%TO.N,/IMU_INT*%
X135096300Y-91084400D03*
%TO.P,U1,3,PC14_3*%
%TO.N,unconnected-(U1-PC14-Pad3)*%
X135096300Y-90584400D03*
%TO.P,U1,4,PC15_4*%
%TO.N,unconnected-(U1-PC15-Pad4)*%
X135096300Y-90084400D03*
%TO.P,U1,5,RCC_OSC_IN_5*%
%TO.N,/OSCIN*%
X135096300Y-89584400D03*
%TO.P,U1,6,RCC_OSC_OUT_6*%
%TO.N,/OSCOUT*%
X135096300Y-89084400D03*
%TO.P,U1,7,NRST_7*%
%TO.N,/RESET*%
X135096300Y-88584400D03*
%TO.P,U1,8,PC0_8*%
%TO.N,unconnected-(U1-PC0-Pad8)*%
X135096300Y-88084400D03*
%TO.P,U1,9,PC1_9*%
%TO.N,unconnected-(U1-PC1-Pad9)*%
X135096300Y-87584400D03*
%TO.P,U1,10,PC2_10*%
%TO.N,unconnected-(U1-PC2-Pad10)*%
X135096300Y-87084400D03*
%TO.P,U1,11,PC3_11*%
%TO.N,unconnected-(U1-PC3-Pad11)*%
X135096300Y-86584400D03*
%TO.P,U1,12,VSSA_12*%
%TO.N,GND*%
X135096300Y-86084400D03*
%TO.P,U1,13,VREF+_13*%
%TO.N,+3.3V*%
X135096300Y-85584400D03*
%TO.P,U1,14,TIM5_CH1_14*%
%TO.N,/WS_DIN*%
X135096300Y-85084400D03*
%TO.P,U1,15,TIM2_CH2_15*%
%TO.N,/MD_PWMA*%
X135096300Y-84584400D03*
%TO.P,U1,16,PA2_16*%
%TO.N,/MD_AIN2*%
X135096300Y-84084400D03*
D28*
%TO.P,U1,17,PA3_17*%
%TO.N,/MD_AIN1*%
X133171300Y-82159400D03*
%TO.P,U1,18,VSS_18*%
%TO.N,GND*%
X132671300Y-82159400D03*
%TO.P,U1,19,VDD_19*%
%TO.N,+3.3V*%
X132171300Y-82159400D03*
%TO.P,U1,20,PA4_20*%
%TO.N,/MD_STBY*%
X131671300Y-82159400D03*
%TO.P,U1,21,TIM2_CH1_21*%
%TO.N,/MD_PWMB*%
X131171300Y-82159400D03*
%TO.P,U1,22,PA6_22*%
%TO.N,/MD_BIN1*%
X130671300Y-82159400D03*
%TO.P,U1,23,PA7_23*%
%TO.N,/MD_BIN2*%
X130171300Y-82159400D03*
%TO.P,U1,24,PC4_24*%
%TO.N,unconnected-(U1-PC4-Pad24)*%
X129671300Y-82159400D03*
%TO.P,U1,25,PC5_25*%
%TO.N,unconnected-(U1-PC5-Pad25)*%
X129171300Y-82159400D03*
%TO.P,U1,26,PB0_26*%
%TO.N,unconnected-(U1-PB0-Pad26)*%
X128671300Y-82159400D03*
%TO.P,U1,27,PB1_27*%
%TO.N,/USER_LED*%
X128171300Y-82159400D03*
%TO.P,U1,28,PB2_28*%
%TO.N,GND*%
X127671300Y-82159400D03*
%TO.P,U1,29,PB10_29*%
%TO.N,unconnected-(U1-PB10-Pad29)*%
X127171300Y-82159400D03*
%TO.P,U1,30,VCAP1_30*%
%TO.N,Net-(U1-VCAP1)*%
X126671300Y-82159400D03*
%TO.P,U1,31,VSS_31*%
%TO.N,GND*%
X126171300Y-82159400D03*
%TO.P,U1,32,VDD_32*%
%TO.N,+3.3V*%
X125671300Y-82159400D03*
D27*
%TO.P,U1,33,PB12_33*%
%TO.N,unconnected-(U1-PB12-Pad33)*%
X123746300Y-84084400D03*
%TO.P,U1,34,PB13_34*%
%TO.N,unconnected-(U1-PB13-Pad34)*%
X123746300Y-84584400D03*
%TO.P,U1,35,PB14_35*%
%TO.N,unconnected-(U1-PB14-Pad35)*%
X123746300Y-85084400D03*
%TO.P,U1,36,PB15_36*%
%TO.N,unconnected-(U1-PB15-Pad36)*%
X123746300Y-85584400D03*
%TO.P,U1,37,PC6_37*%
%TO.N,/MT_PWM*%
X123746300Y-86084400D03*
%TO.P,U1,38,PC7_38*%
%TO.N,unconnected-(U1-PC7-Pad38)*%
X123746300Y-86584400D03*
%TO.P,U1,39,PC8_39*%
%TO.N,unconnected-(U1-PC8-Pad39)*%
X123746300Y-87084400D03*
%TO.P,U1,40,I2C3_SDA_40*%
%TO.N,/MT_SDA*%
X123746300Y-87584400D03*
%TO.P,U1,41,I2C3_SCL_41*%
%TO.N,/MT_SCL*%
X123746300Y-88084400D03*
%TO.P,U1,42,USART1_TX_42*%
%TO.N,/ESP_RX*%
X123746300Y-88584400D03*
%TO.P,U1,43,USART1_RX_43*%
%TO.N,/ESP_TX*%
X123746300Y-89084400D03*
%TO.P,U1,44,USB_OTG_FS_DM_44*%
%TO.N,/ESD_D-*%
X123746300Y-89584400D03*
%TO.P,U1,45,USB_OTG_FS_DP_45*%
%TO.N,/ESD_D+*%
X123746300Y-90084400D03*
%TO.P,U1,46,SYS_JTMS-SWDIO_46*%
%TO.N,/SWDIO*%
X123746300Y-90584400D03*
%TO.P,U1,47,VSS_47*%
%TO.N,GND*%
X123746300Y-91084400D03*
%TO.P,U1,48,VDD_48*%
%TO.N,+3.3V*%
X123746300Y-91584400D03*
D28*
%TO.P,U1,49,SYS_JTCK-SWCLK_49*%
%TO.N,/SWCLK*%
X125671300Y-93509400D03*
%TO.P,U1,50,PA15_50*%
%TO.N,unconnected-(U1-PA15-Pad50)*%
X126171300Y-93509400D03*
%TO.P,U1,51,PC10_51*%
%TO.N,unconnected-(U1-PC10-Pad51)*%
X126671300Y-93509400D03*
%TO.P,U1,52,PC11_52*%
%TO.N,unconnected-(U1-PC11-Pad52)*%
X127171300Y-93509400D03*
%TO.P,U1,53,PC12_53*%
%TO.N,unconnected-(U1-PC12-Pad53)*%
X127671300Y-93509400D03*
%TO.P,U1,54,PD2_54*%
%TO.N,unconnected-(U1-PD2-Pad54)*%
X128171300Y-93509400D03*
%TO.P,U1,55,PB3_55*%
%TO.N,unconnected-(U1-PB3-Pad55)*%
X128671300Y-93509400D03*
%TO.P,U1,56,PB4_56*%
%TO.N,unconnected-(U1-PB4-Pad56)*%
X129171300Y-93509400D03*
%TO.P,U1,57,PB5_57*%
%TO.N,unconnected-(U1-PB5-Pad57)*%
X129671300Y-93509400D03*
%TO.P,U1,58,PB6_58*%
%TO.N,/ENC_B*%
X130171300Y-93509400D03*
%TO.P,U1,59,PB7_59*%
%TO.N,/ENC_A*%
X130671300Y-93509400D03*
%TO.P,U1,60,BOOT0_60*%
%TO.N,/BOOT0*%
X131171300Y-93509400D03*
%TO.P,U1,61,I2C1_SCL_61*%
%TO.N,/IMU_SCL*%
X131671300Y-93509400D03*
%TO.P,U1,62,I2C1_SDA_62*%
%TO.N,/IMU_SDA*%
X132171300Y-93509400D03*
%TO.P,U1,63,VSS_63*%
%TO.N,GND*%
X132671300Y-93509400D03*
%TO.P,U1,64,VDD_64*%
%TO.N,+3.3V*%
X133171300Y-93509400D03*
%TD*%
D11*
%TO.P,C3,1,~_1*%
%TO.N,+3.3V*%
X134720900Y-79066800D03*
%TO.P,C3,2,~_2*%
%TO.N,GND*%
X136795900Y-79066800D03*
%TD*%
D29*
%TO.P,D3,1,K_1*%
%TO.N,GND*%
X125114100Y-72678400D03*
%TO.P,D3,2,A_2*%
%TO.N,Net-(D3-A)*%
X125114100Y-70628400D03*
%TD*%
D30*
%TO.P,Y3,1,1_1*%
%TO.N,/OSCIN*%
X144493400Y-90839500D03*
%TO.P,Y3,2,2_2*%
%TO.N,GND*%
X144493400Y-88639500D03*
%TO.P,Y3,3,3_3*%
%TO.N,/OSCOUT*%
X142793400Y-88639500D03*
%TO.P,Y3,4,4_4*%
%TO.N,GND*%
X142793400Y-90839500D03*
%TD*%
D31*
%TO.P,C22,1,~_1*%
%TO.N,5V_REG*%
X141217700Y-63203000D03*
%TO.P,C22,2,~_2*%
%TO.N,GND*%
X141217700Y-65278000D03*
%TD*%
D32*
%TO.P,J7,1,Pin_1_1*%
%TO.N,/MD_BO1*%
X158794500Y-60731400D03*
D33*
%TO.P,J7,2,Pin_2_2*%
%TO.N,/MD_BO2*%
X161294500Y-60731400D03*
%TD*%
D34*
%TO.P,D5,1,K_1*%
%TO.N,GND*%
X125536900Y-59969400D03*
%TO.P,D5,2,A_2*%
%TO.N,Net-(D5-A)*%
X127586900Y-59969400D03*
%TD*%
D20*
%TO.P,R2,1,~_1*%
%TO.N,Net-(R2-~-Pad1)*%
X126220900Y-98566800D03*
%TO.P,R2,2,~_2*%
%TO.N,/BOOT0*%
X128220900Y-98566800D03*
%TD*%
D21*
%TO.P,J1,1,Pin_1_1*%
%TO.N,+3.3V*%
X103397100Y-106400600D03*
D22*
%TO.P,J1,2,Pin_2_2*%
%TO.N,/SWCLK*%
X103397100Y-103860600D03*
%TO.P,J1,3,Pin_3_3*%
%TO.N,GND*%
X103397100Y-101320600D03*
%TO.P,J1,4,Pin_4_4*%
%TO.N,/SWDIO*%
X103397100Y-98780600D03*
%TD*%
D14*
%TO.P,R10,1,~_1*%
%TO.N,Net-(D5-A)*%
X127450900Y-62195200D03*
%TO.P,R10,2,~_2*%
%TO.N,5V_REG*%
X127450900Y-64195200D03*
%TD*%
%TO.P,R6,1,~_1*%
%TO.N,Net-(D3-A)*%
X127374700Y-70628000D03*
%TO.P,R6,2,~_2*%
%TO.N,+3.3V*%
X127374700Y-72628000D03*
%TD*%
D34*
%TO.P,D4,1,K_1*%
%TO.N,GND*%
X121396700Y-75184000D03*
%TO.P,D4,2,A_2*%
%TO.N,Net-(D4-A)*%
X123446700Y-75184000D03*
%TD*%
D18*
%TO.P,S3,1*%
%TO.N,5V_REG*%
X147136034Y-66741800D03*
%TO.P,S3,2*%
%TO.N,+5V*%
X150136034Y-66741800D03*
%TO.P,S3,3*%
%TO.N,Vusb*%
X151636034Y-66741800D03*
D19*
%TO.P,S3,SH1*%
%TO.N,N/C*%
X145586034Y-67766800D03*
%TO.P,S3,SH2*%
X153186034Y-67766800D03*
%TO.P,S3,SH3*%
X145586034Y-69866800D03*
%TO.P,S3,SH4*%
X153186034Y-69866800D03*
%TD*%
D29*
%TO.P,D2,1,K_1*%
%TO.N,GND*%
X113328500Y-82178000D03*
%TO.P,D2,2,A_2*%
%TO.N,Net-(D2-A)*%
X113328500Y-80128000D03*
%TD*%
D31*
%TO.P,C14,1,~_1*%
%TO.N,+3.3V*%
X138906300Y-71885900D03*
%TO.P,C14,2,~_2*%
%TO.N,GND*%
X138906300Y-73960900D03*
%TD*%
D20*
%TO.P,R3,1,~_1*%
%TO.N,/CONN_D-*%
X118018100Y-88976200D03*
%TO.P,R3,2,~_2*%
%TO.N,/ESD_D-*%
X120018100Y-88976200D03*
%TD*%
D12*
%TO.P,C25,1,~_1*%
%TO.N,+3.3V*%
X123789400Y-81127600D03*
%TO.P,C25,2,~_2*%
%TO.N,GND*%
X121714400Y-81127600D03*
%TD*%
D10*
%TO.P,C17,1,~_1*%
%TO.N,VM*%
X141243100Y-60067100D03*
%TO.P,C17,2,~_2*%
%TO.N,GND*%
X141243100Y-57992100D03*
%TD*%
D31*
%TO.P,C26,1,~_1*%
%TO.N,GND*%
X163220900Y-68529300D03*
%TO.P,C26,2,~_2*%
%TO.N,+5V*%
X163220900Y-70604300D03*
%TD*%
D35*
%TO.P,J5,1,Pin_1_1*%
%TO.N,VM*%
X150499500Y-61442600D03*
D33*
%TO.P,J5,2,Pin_2_2*%
%TO.N,GND*%
X147999500Y-61442600D03*
%TD*%
D10*
%TO.P,C18,1,~_1*%
%TO.N,VM*%
X138804700Y-60041700D03*
%TO.P,C18,2,~_2*%
%TO.N,GND*%
X138804700Y-57966700D03*
%TD*%
D31*
%TO.P,C20,1,~_1*%
%TO.N,GND*%
X140372700Y-86392600D03*
%TO.P,C20,2,~_2*%
%TO.N,/OSCOUT*%
X140372700Y-88467600D03*
%TD*%
D11*
%TO.P,C6,1,~_1*%
%TO.N,VM*%
X147329200Y-85053100D03*
%TO.P,C6,2,~_2*%
%TO.N,GND*%
X149404200Y-85053100D03*
%TD*%
D36*
%TO.P,J6,1,Pin_1_1*%
%TO.N,/MD_AO1*%
X159470900Y-80316800D03*
D37*
%TO.P,J6,2,Pin_2_2*%
%TO.N,/MD_AO2*%
X159470900Y-77816800D03*
%TD*%
D31*
%TO.P,C23,1,~_1*%
%TO.N,5V_REG*%
X138855500Y-63275300D03*
%TO.P,C23,2,~_2*%
%TO.N,GND*%
X138855500Y-65350300D03*
%TD*%
D38*
%TO.P,J9,1,Pin_1_1*%
%TO.N,+3.3V*%
X113337043Y-65425082D03*
D39*
%TO.P,J9,2,Pin_2_2*%
%TO.N,GND*%
X115837043Y-65425082D03*
%TO.P,J9,3,Pin_3_3*%
%TO.N,/MT_PWM*%
X118337043Y-65425082D03*
%TO.P,J9,4,Pin_4_4*%
%TO.N,/MT_SCL*%
X120837043Y-65425082D03*
%TO.P,J9,5,Pin_5_5*%
%TO.N,/MT_SDA*%
X123337043Y-65425082D03*
%TD*%
D40*
%TO.P,J3,A1,GND_A1*%
%TO.N,GND*%
X107515900Y-86784400D03*
%TO.P,J3,A4,VBUS_A4*%
%TO.N,Net-(F1-~-Pad1)*%
X107515900Y-87584400D03*
D41*
%TO.P,J3,A5,CC1_A5*%
%TO.N,Net-(J3-CC1)*%
X107515900Y-88734400D03*
%TO.P,J3,A6,D+_A6*%
%TO.N,/USB_D+*%
X107515900Y-89734400D03*
%TO.P,J3,A7,D-_A7*%
%TO.N,/USB_D-*%
X107515900Y-90234400D03*
%TO.P,J3,A8*%
%TO.N,N/C*%
X107515900Y-91234400D03*
D40*
%TO.P,J3,A9,VBUS_A9*%
%TO.N,Net-(F1-~-Pad1)*%
X107515900Y-92384400D03*
%TO.P,J3,A12,GND_A12*%
%TO.N,GND*%
X107515900Y-93184400D03*
%TO.P,J3,B1,GND_B1*%
X107515900Y-93184400D03*
%TO.P,J3,B4,VBUS_B4*%
%TO.N,Net-(F1-~-Pad1)*%
X107515900Y-92384400D03*
D41*
%TO.P,J3,B5,CC2_B5*%
%TO.N,Net-(J3-CC2)*%
X107515900Y-91734400D03*
%TO.P,J3,B6,D+_B6*%
%TO.N,/USB_D+*%
X107515900Y-90734400D03*
%TO.P,J3,B7,D-_B7*%
%TO.N,/USB_D-*%
X107515900Y-89234400D03*
%TO.P,J3,B8*%
%TO.N,N/C*%
X107515900Y-88234400D03*
D40*
%TO.P,J3,B9,VBUS_B9*%
%TO.N,Net-(F1-~-Pad1)*%
X107515900Y-87584400D03*
%TO.P,J3,B12,GND_B12*%
%TO.N,GND*%
X107515900Y-86784400D03*
D42*
%TO.P,J3,SH,SHIELD_SH*%
X106875900Y-85664400D03*
D43*
X102695900Y-85664400D03*
D42*
X106875900Y-94304400D03*
D43*
X102695900Y-94304400D03*
%TD*%
D10*
%TO.P,C19,1,~_1*%
%TO.N,GND*%
X140372700Y-92404600D03*
%TO.P,C19,2,~_2*%
%TO.N,/OSCIN*%
X140372700Y-90329600D03*
%TD*%
D21*
%TO.P,J2,1,Pin_1_1*%
%TO.N,+5V*%
X134512100Y-107365800D03*
D22*
%TO.P,J2,2,Pin_2_2*%
%TO.N,GND*%
X137052100Y-107365800D03*
%TO.P,J2,3,Pin_3_3*%
%TO.N,/IMU_SCL*%
X139592100Y-107365800D03*
%TO.P,J2,4,Pin_4_4*%
%TO.N,/IMU_SDA*%
X142132100Y-107365800D03*
%TO.P,J2,5,Pin_5_5*%
%TO.N,unconnected-(J2-Pin_5-Pad5)*%
X144672100Y-107365800D03*
%TO.P,J2,6,Pin_6_6*%
%TO.N,unconnected-(J2-Pin_6-Pad6)*%
X147212100Y-107365800D03*
%TO.P,J2,7,Pin_7_7*%
%TO.N,unconnected-(J2-Pin_7-Pad7)*%
X149752100Y-107365800D03*
%TO.P,J2,8,Pin_8_8*%
%TO.N,/IMU_INT*%
X152292100Y-107365800D03*
%TD*%
D11*
%TO.P,C4,1,~_1*%
%TO.N,+3.3V*%
X133398400Y-95885000D03*
%TO.P,C4,2,~_2*%
%TO.N,GND*%
X135473400Y-95885000D03*
%TD*%
D12*
%TO.P,C1,1,~_1*%
%TO.N,+3.3V*%
X123220900Y-93816800D03*
%TO.P,C1,2,~_2*%
%TO.N,GND*%
X121145900Y-93816800D03*
%TD*%
D44*
%TO.P,C9,1*%
%TO.N,VM*%
X147861400Y-88414000D03*
%TO.P,C9,2*%
%TO.N,GND*%
X152976400Y-88414000D03*
%TD*%
D20*
%TO.P,R4,1,~_1*%
%TO.N,/CONN_D+*%
X118018100Y-91033600D03*
%TO.P,R4,2,~_2*%
%TO.N,/ESD_D+*%
X120018100Y-91033600D03*
%TD*%
D31*
%TO.P,C24,1,~_1*%
%TO.N,+3.3V*%
X137483900Y-85932100D03*
%TO.P,C24,2,~_2*%
%TO.N,GND*%
X137483900Y-88007100D03*
%TD*%
D45*
%TO.P,R7,1,~_1*%
%TO.N,GND*%
X112691600Y-87045800D03*
%TO.P,R7,2,~_2*%
%TO.N,Net-(J3-CC1)*%
X110866600Y-87045800D03*
%TD*%
D10*
%TO.P,C15,1,~_1*%
%TO.N,+5V*%
X141116100Y-69490500D03*
%TO.P,C15,2,~_2*%
%TO.N,GND*%
X141116100Y-67415500D03*
%TD*%
D46*
%TO.P,J8,1,Pin_1_1*%
%TO.N,+3.3V*%
X116753700Y-102412800D03*
D39*
%TO.P,J8,2,Pin_2_2*%
%TO.N,/ENC_A*%
X114253700Y-102412800D03*
%TO.P,J8,3,Pin_3_3*%
%TO.N,/ENC_B*%
X111753700Y-102412800D03*
%TO.P,J8,4,Pin_4_4*%
%TO.N,GND*%
X109253700Y-102412800D03*
%TD*%
D31*
%TO.P,C16,1,~_1*%
%TO.N,+3.3V*%
X141217700Y-71864400D03*
%TO.P,C16,2,~_2*%
%TO.N,GND*%
X141217700Y-73939400D03*
%TD*%
D47*
%TO.P,R17,1,~_1*%
%TO.N,+3.3V*%
X106505300Y-65659000D03*
%TO.P,R17,2,~_2*%
%TO.N,Net-(J4-Pin_5)*%
X104505300Y-65659000D03*
%TD*%
D11*
%TO.P,C21,1,~_1*%
%TO.N,/RESET*%
X141720900Y-101566800D03*
%TO.P,C21,2,~_2*%
%TO.N,GND*%
X143795900Y-101566800D03*
%TD*%
D48*
%TO.N,Net-(D5-A)*%
X122720900Y-60316800D03*
X123470900Y-62066800D03*
%TO.N,VM*%
X145470900Y-73316800D03*
X147720900Y-71816800D03*
X148970900Y-65566800D03*
X150970900Y-64816800D03*
X145220900Y-85066800D03*
X144220900Y-82816800D03*
%TO.N,GND*%
X136220900Y-75316800D03*
X137736042Y-78680469D03*
X124220900Y-60066800D03*
X111987801Y-90299167D03*
X112720900Y-86066800D03*
%TO.N,+3.3V*%
X138970900Y-84316800D03*
X138266968Y-81884020D03*
X139720900Y-83066800D03*
X140720900Y-78316800D03*
X138220900Y-79316800D03*
X139470900Y-78316800D03*
X138470900Y-79816800D03*
X137970900Y-81143800D03*
X142970900Y-75066800D03*
X138720900Y-85816800D03*
X133470900Y-79816800D03*
X134720900Y-81316800D03*
X136720900Y-104066800D03*
X142720900Y-104066800D03*
X133470900Y-97316800D03*
X132220900Y-99316800D03*
X123220900Y-95066800D03*
X121970900Y-97816800D03*
%TO.N,GND*%
X153720900Y-86316800D03*
X149470900Y-86066800D03*
%TO.N,+3.3V*%
X143220900Y-82966800D03*
X143720900Y-84166800D03*
%TO.N,+5V*%
X159720900Y-71816800D03*
X159720900Y-73316800D03*
X153220900Y-73066800D03*
X155720900Y-73066800D03*
%TO.N,GND*%
X142720900Y-57488327D03*
X137470900Y-58816800D03*
%TO.N,+3.3V*%
X115970900Y-74566800D03*
X120220900Y-77316800D03*
%TO.N,GND*%
X108970900Y-93316800D03*
X123470900Y-99816800D03*
X141470900Y-75066800D03*
X132720900Y-83566800D03*
X154970900Y-88316800D03*
X104720900Y-86566800D03*
X120220900Y-75066800D03*
X127720900Y-83566800D03*
X112720900Y-94066800D03*
X119970900Y-79066800D03*
X109220900Y-104066800D03*
X156220900Y-66066800D03*
X125220900Y-91066800D03*
X104970900Y-101316800D03*
X144970900Y-100316800D03*
X136720900Y-96066800D03*
X147720900Y-99316800D03*
X150720900Y-81316800D03*
X114720900Y-82316800D03*
X163720900Y-67316800D03*
X150720900Y-77566800D03*
X146970900Y-78816800D03*
X123970900Y-72816800D03*
X138970900Y-66316800D03*
X137720900Y-65316800D03*
X119970900Y-81066800D03*
X150720900Y-80566800D03*
X141220900Y-66316800D03*
X136720900Y-105566800D03*
X144970900Y-87316800D03*
X138970900Y-75066800D03*
X145970900Y-62066800D03*
X115970900Y-63566800D03*
X140220900Y-85066800D03*
X103720900Y-76816800D03*
X138720900Y-88066800D03*
X119970900Y-93816800D03*
X126220900Y-83566800D03*
X133720900Y-86066800D03*
X141470900Y-91316800D03*
X132720900Y-92316800D03*
X141220900Y-64316800D03*
X150720900Y-76816800D03*
X127970900Y-77316800D03*
%TO.N,/MD_PWMB*%
X144035937Y-76251763D03*
X142171635Y-77366065D03*
%TO.N,/IMU_INT*%
X137720900Y-96566800D03*
X137720900Y-94566800D03*
%TD*%
%TO.N,5V_REG*%
D49*
X128970900Y-65715200D02*
X128970900Y-66066800D01*
X127450900Y-64195200D02*
X128970900Y-65715200D01*
X128970900Y-66066800D02*
X132121900Y-62915800D01*
X132121900Y-62915800D02*
X136163500Y-62915800D01*
%TO.N,Net-(D5-A)*%
X122720900Y-60316800D02*
X124158800Y-58878900D01*
X124158800Y-58878900D02*
X126496400Y-58878900D01*
X126496400Y-58878900D02*
X127586900Y-59969400D01*
X123599300Y-62195200D02*
X123470900Y-62066800D01*
X127450900Y-62195200D02*
X123599300Y-62195200D01*
%TO.N,Net-(D3-A)*%
X125114100Y-70628400D02*
X127374300Y-70628400D01*
X127374300Y-70628400D02*
X127374700Y-70628000D01*
%TO.N,VM*%
X141243100Y-60067100D02*
X142493400Y-58816800D01*
X142493400Y-58816800D02*
X147873700Y-58816800D01*
X147873700Y-58816800D02*
X150499500Y-61442600D01*
X141243100Y-60067100D02*
X138830100Y-60067100D01*
X138830100Y-60067100D02*
X138804700Y-60041700D01*
X136163500Y-60615800D02*
X138230600Y-60615800D01*
X138230600Y-60615800D02*
X138804700Y-60041700D01*
D50*
X145470900Y-75966800D02*
X146341618Y-75966800D01*
X147572500Y-77197682D02*
X147572500Y-81315199D01*
X146341618Y-75966800D02*
X147572500Y-77197682D01*
X146420899Y-82466800D02*
X145470900Y-82466800D01*
X147572500Y-81315199D02*
X146420899Y-82466800D01*
D51*
X145470900Y-75316800D02*
X145470900Y-75962800D01*
X148970900Y-65566800D02*
X148970900Y-70566800D01*
X148970900Y-70566800D02*
X147720900Y-71816800D01*
X145470900Y-73316800D02*
X145470900Y-75316800D01*
X150499500Y-61442600D02*
X150499500Y-64345400D01*
X150499500Y-64345400D02*
X150970900Y-64816800D01*
X144220900Y-82816800D02*
X144566900Y-82470800D01*
X144566900Y-82470800D02*
X145470900Y-82470800D01*
X147329200Y-85053100D02*
X145234600Y-85053100D01*
X145234600Y-85053100D02*
X145220900Y-85066800D01*
X147861400Y-88414000D02*
X147861400Y-85585300D01*
X147861400Y-85585300D02*
X147329200Y-85053100D01*
%TO.N,+5V*%
X138855500Y-69515900D02*
X141090700Y-69515900D01*
X141090700Y-69515900D02*
X141116100Y-69490500D01*
X136188900Y-69455000D02*
X138794600Y-69455000D01*
X138794600Y-69455000D02*
X138855500Y-69515900D01*
%TO.N,GND*%
X137720900Y-65316800D02*
X136264500Y-65316800D01*
X136264500Y-65316800D02*
X136163500Y-65215800D01*
X141220900Y-64316800D02*
X141220900Y-65274800D01*
X141220900Y-65274800D02*
X141217700Y-65278000D01*
X141220900Y-66316800D02*
X141220900Y-67310700D01*
X141220900Y-67310700D02*
X141116100Y-67415500D01*
X138970900Y-66316800D02*
X138970900Y-67325500D01*
X138970900Y-67325500D02*
X138855500Y-67440900D01*
X137720900Y-65316800D02*
X138822000Y-65316800D01*
X138822000Y-65316800D02*
X138855500Y-65350300D01*
%TO.N,5V_REG*%
X138855500Y-63275300D02*
X136523000Y-63275300D01*
X136523000Y-63275300D02*
X136163500Y-62915800D01*
X141217700Y-63203000D02*
X138927800Y-63203000D01*
X138927800Y-63203000D02*
X138855500Y-63275300D01*
X147136034Y-66741800D02*
X144756500Y-66741800D01*
X144756500Y-66741800D02*
X141217700Y-63203000D01*
%TO.N,GND*%
X136188900Y-75284800D02*
X136220900Y-75316800D01*
X136188900Y-74055000D02*
X136188900Y-75284800D01*
D52*
X137349711Y-79066800D02*
X137736042Y-78680469D01*
X136795900Y-79066800D02*
X137349711Y-79066800D01*
D51*
X124318300Y-59969400D02*
X124220900Y-60066800D01*
X125536900Y-59969400D02*
X124318300Y-59969400D01*
X111646300Y-89992200D02*
X111970900Y-90316800D01*
X111048000Y-89992200D02*
X111646300Y-89992200D01*
X111970900Y-90316800D02*
X111987801Y-90299899D01*
X111987801Y-90299899D02*
X111987801Y-90299167D01*
X112691600Y-86096100D02*
X112720900Y-86066800D01*
X112691600Y-87045800D02*
X112691600Y-86096100D01*
%TO.N,+3.3V*%
D50*
X134720900Y-81316800D02*
X137220900Y-81316800D01*
X137220900Y-81316800D02*
X137393900Y-81143800D01*
X137393900Y-81143800D02*
X137970900Y-81143800D01*
X138266968Y-81884020D02*
X138266968Y-81439868D01*
X138266968Y-81439868D02*
X137970900Y-81143800D01*
D52*
X138970900Y-84316800D02*
X138970900Y-83816800D01*
X138970900Y-83816800D02*
X139720900Y-83066800D01*
D50*
X139720900Y-83066800D02*
X140220900Y-82566800D01*
X142820900Y-82566800D02*
X143220900Y-82966800D01*
X140220900Y-82566800D02*
X142820900Y-82566800D01*
D51*
X139470900Y-78316800D02*
X140720900Y-78316800D01*
D50*
X138470900Y-79816800D02*
X138470900Y-79566800D01*
X138470900Y-79566800D02*
X138220900Y-79316800D01*
D53*
X143520900Y-79866800D02*
X143470900Y-79816800D01*
X145470900Y-79866800D02*
X143520900Y-79866800D01*
X143470900Y-79816800D02*
X142470900Y-79816800D01*
D50*
X138470900Y-79816800D02*
X142470900Y-79816800D01*
%TO.N,/RESET*%
D51*
X141720900Y-101566800D02*
X141720900Y-97116800D01*
X141720900Y-97116800D02*
X141770900Y-97066800D01*
%TO.N,+5V*%
X163220900Y-70604300D02*
X163220900Y-72566800D01*
X163220900Y-72566800D02*
X164470900Y-73816800D01*
X164470900Y-73816800D02*
X164470900Y-100316800D01*
X164470900Y-100316800D02*
X156117900Y-108669800D01*
X156117900Y-108669800D02*
X135816100Y-108669800D01*
X135816100Y-108669800D02*
X134512100Y-107365800D01*
%TO.N,/WS_DIN*%
D53*
X156070900Y-70816800D02*
X157720900Y-72466800D01*
X157720900Y-72466800D02*
X161870900Y-72466800D01*
X161870900Y-72466800D02*
X163720900Y-74316800D01*
X163720900Y-74316800D02*
X163720900Y-83316800D01*
X163720900Y-83316800D02*
X163470900Y-83566800D01*
X163470900Y-83566800D02*
X140872371Y-83566800D01*
X140872371Y-83566800D02*
X139394571Y-85044600D01*
X139394571Y-85044600D02*
X135136100Y-85044600D01*
X135136100Y-85044600D02*
X135096300Y-85084400D01*
%TO.N,+5V*%
D51*
X152470900Y-72316800D02*
X150470900Y-72316800D01*
X150470900Y-72316800D02*
X149720900Y-73066800D01*
X152470900Y-72316800D02*
X153220900Y-73066800D01*
X149720900Y-73066800D02*
X147232034Y-73066800D01*
X147232034Y-73066800D02*
X143655734Y-69490500D01*
X143655734Y-69490500D02*
X141116100Y-69490500D01*
%TO.N,+3.3V*%
X142970900Y-73617600D02*
X142970900Y-75066800D01*
X141217700Y-71864400D02*
X142970900Y-73617600D01*
D52*
X137483900Y-85932100D02*
X138605600Y-85932100D01*
X138605600Y-85932100D02*
X138720900Y-85816800D01*
D50*
X134220900Y-79066800D02*
X133470900Y-79816800D01*
X134720900Y-79066800D02*
X134220900Y-79066800D01*
X132171300Y-79616400D02*
X132720900Y-79066800D01*
X132171300Y-82159400D02*
X132171300Y-79616400D01*
X132720900Y-79066800D02*
X134720900Y-79066800D01*
D49*
X136720900Y-104066800D02*
X132220900Y-99566800D01*
X132220900Y-99566800D02*
X132220900Y-99316800D01*
X148470900Y-104066800D02*
X142720900Y-104066800D01*
X150720900Y-101816800D02*
X148470900Y-104066800D01*
X150720900Y-85913700D02*
X150720900Y-101816800D01*
X151567100Y-85067500D02*
X150720900Y-85913700D01*
D52*
X126220900Y-102797245D02*
X126220900Y-102816800D01*
X126220900Y-102816800D02*
X124197900Y-100793800D01*
X127920900Y-100941800D02*
X127920900Y-101097245D01*
X127920900Y-101097245D02*
X126220900Y-102797245D01*
X124197900Y-100793800D02*
X124197900Y-99657088D01*
X124197900Y-99657088D02*
X122357612Y-97816800D01*
X122357612Y-97816800D02*
X121970900Y-97816800D01*
X132220900Y-99316800D02*
X130595900Y-100941800D01*
X130595900Y-100941800D02*
X127920900Y-100941800D01*
X133398400Y-95885000D02*
X133398400Y-97244300D01*
X133398400Y-97244300D02*
X133470900Y-97316800D01*
D51*
X121970900Y-97816800D02*
X117374900Y-102412800D01*
X117374900Y-102412800D02*
X116753700Y-102412800D01*
X123220900Y-93816800D02*
X123220900Y-95066800D01*
%TO.N,/SWCLK*%
D50*
X103397100Y-103860600D02*
X104927100Y-103860600D01*
X104927100Y-103860600D02*
X111470900Y-97316800D01*
X111470900Y-97316800D02*
X114720900Y-97316800D01*
X114720900Y-97316800D02*
X116220900Y-95816800D01*
X116220900Y-95816800D02*
X124220900Y-95816800D01*
X125671300Y-94366400D02*
X125671300Y-93509400D01*
X124220900Y-95816800D02*
X125671300Y-94366400D01*
%TO.N,GND*%
X153642100Y-86238000D02*
X153720900Y-86316800D01*
X153642100Y-85067500D02*
X153642100Y-86238000D01*
X149404200Y-86000100D02*
X149470900Y-86066800D01*
X149404200Y-85053100D02*
X149404200Y-86000100D01*
%TO.N,+3.3V*%
X143720900Y-84166800D02*
X143861200Y-84026500D01*
X143861200Y-84026500D02*
X150526100Y-84026500D01*
X150526100Y-84026500D02*
X151567100Y-85067500D01*
%TO.N,+5V*%
D51*
X159720900Y-71816800D02*
X159970900Y-71816800D01*
X156970900Y-73816800D02*
X159220900Y-73816800D01*
X155720900Y-73066800D02*
X156220900Y-73066800D01*
X156220900Y-73066800D02*
X156970900Y-73816800D01*
X159970900Y-71816800D02*
X160970900Y-70816800D01*
X159220900Y-73816800D02*
X159720900Y-73316800D01*
X149932034Y-69777934D02*
X152470900Y-72316800D01*
X149932034Y-66945800D02*
X149932034Y-69777934D01*
X150136034Y-66741800D02*
X149932034Y-66945800D01*
%TO.N,GND*%
D49*
X142217127Y-57992100D02*
X142720900Y-57488327D01*
X141243100Y-57992100D02*
X142217127Y-57992100D01*
X138321000Y-57966700D02*
X137470900Y-58816800D01*
X138804700Y-57966700D02*
X138321000Y-57966700D01*
%TO.N,+3.3V*%
X127374700Y-72628000D02*
X125909200Y-74093500D01*
X125909200Y-74093500D02*
X122730468Y-74093500D01*
X122362200Y-77143000D02*
X122188400Y-77316800D01*
X122730468Y-74093500D02*
X122362200Y-74461768D01*
X122362200Y-74461768D02*
X122362200Y-77143000D01*
X127374700Y-72628000D02*
X129015900Y-72628000D01*
X129015900Y-72628000D02*
X129888900Y-71755000D01*
D51*
X120220900Y-77316800D02*
X122188400Y-77316800D01*
X122188400Y-77316800D02*
X123789400Y-78917800D01*
X107943700Y-71755000D02*
X110755500Y-74566800D01*
X110755500Y-74566800D02*
X115970900Y-74566800D01*
%TO.N,Vusb*%
D53*
X151636034Y-66741800D02*
X149461034Y-64566800D01*
X103120900Y-77065329D02*
X108224571Y-82169000D01*
X149461034Y-64566800D02*
X144720900Y-64566800D01*
X144720900Y-64566800D02*
X141819900Y-61665800D01*
X141819900Y-61665800D02*
X135258906Y-61665800D01*
X135258906Y-61665800D02*
X134308906Y-60715800D01*
X134308906Y-60715800D02*
X129024858Y-60715800D01*
X129024858Y-60715800D02*
X128563500Y-61177158D01*
X128563500Y-61177158D02*
X117360542Y-61177158D01*
X106439756Y-62139800D02*
X103120900Y-65458656D01*
X117360542Y-61177158D02*
X116397900Y-62139800D01*
X116397900Y-62139800D02*
X106439756Y-62139800D01*
X103120900Y-65458656D02*
X103120900Y-77065329D01*
X108224571Y-82169000D02*
X108989000Y-82169000D01*
%TO.N,Net-(U1-VCAP1)*%
D52*
X126720900Y-79802900D02*
X126671300Y-79852500D01*
X126671300Y-79852500D02*
X126671300Y-82159400D01*
%TO.N,GND*%
X141948200Y-90839500D02*
X141470900Y-91316800D01*
D51*
X147999500Y-61442600D02*
X146595100Y-61442600D01*
X137483900Y-88007100D02*
X138661200Y-88007100D01*
X126720900Y-77727900D02*
X127559800Y-77727900D01*
X141470900Y-74192600D02*
X141217700Y-73939400D01*
D52*
X126171300Y-83517200D02*
X126220900Y-83566800D01*
D51*
X120119900Y-78917800D02*
X119970900Y-79066800D01*
X152976400Y-88414000D02*
X154873700Y-88414000D01*
X124109300Y-72678400D02*
X123970900Y-72816800D01*
X103397100Y-101320600D02*
X104967100Y-101320600D01*
X138661200Y-88007100D02*
X138720900Y-88066800D01*
X163220900Y-67816800D02*
X163720900Y-67316800D01*
X156070900Y-67516800D02*
X156070900Y-66216800D01*
X127559800Y-77727900D02*
X127970900Y-77316800D01*
X135473400Y-95885000D02*
X136539100Y-95885000D01*
X123420900Y-100941800D02*
X123420900Y-99866800D01*
X121396700Y-75184000D02*
X120338100Y-75184000D01*
X143795900Y-101566800D02*
X143795900Y-101491800D01*
D52*
X141470900Y-91316800D02*
X141470900Y-92066800D01*
D54*
X107515900Y-86784400D02*
X107098500Y-86367000D01*
D51*
X137052100Y-107365800D02*
X137052100Y-105898000D01*
X105403700Y-76835000D02*
X103739100Y-76835000D01*
D52*
X152470900Y-81166800D02*
X150870900Y-81166800D01*
X142793400Y-90839500D02*
X141948200Y-90839500D01*
X146720900Y-78566800D02*
X146970900Y-78816800D01*
D54*
X113467300Y-82316800D02*
X113328500Y-82178000D01*
D51*
X115837043Y-63700657D02*
X115970900Y-63566800D01*
X138970900Y-74025500D02*
X138906300Y-73960900D01*
X109253700Y-102412800D02*
X109253700Y-104034000D01*
X104967100Y-101320600D02*
X104970900Y-101316800D01*
X120338100Y-75184000D02*
X120220900Y-75066800D01*
X154873700Y-88414000D02*
X154970900Y-88316800D01*
X120031700Y-81127600D02*
X119970900Y-81066800D01*
X123420900Y-99866800D02*
X123470900Y-99816800D01*
X125114100Y-72678400D02*
X124109300Y-72678400D01*
D52*
X145470900Y-78566800D02*
X146720900Y-78566800D01*
D51*
X115837043Y-65425082D02*
X115837043Y-63700657D01*
X109253700Y-104034000D02*
X109220900Y-104066800D01*
D52*
X150920900Y-76616800D02*
X150720900Y-76816800D01*
X141470900Y-92066800D02*
X141133100Y-92404600D01*
D54*
X107515900Y-93184400D02*
X108838500Y-93184400D01*
D51*
X140372700Y-86392600D02*
X140372700Y-85218600D01*
D52*
X152470900Y-80516800D02*
X150770900Y-80516800D01*
X123746300Y-91084400D02*
X125203300Y-91084400D01*
X141133100Y-92404600D02*
X140372700Y-92404600D01*
D50*
X132671300Y-93509400D02*
X132671300Y-92366400D01*
D52*
X150870900Y-81166800D02*
X150720900Y-81316800D01*
D51*
X163220900Y-68529300D02*
X163220900Y-67816800D01*
X148470900Y-97066800D02*
X148470900Y-98566800D01*
D52*
X152470900Y-76616800D02*
X150920900Y-76616800D01*
D51*
X148470900Y-98566800D02*
X147720900Y-99316800D01*
D50*
X133738500Y-86084400D02*
X133720900Y-86066800D01*
D54*
X104920700Y-86367000D02*
X104720900Y-86566800D01*
D50*
X135096300Y-86084400D02*
X133738500Y-86084400D01*
D51*
X143795900Y-101491800D02*
X144970900Y-100316800D01*
D54*
X114720900Y-82316800D02*
X113467300Y-82316800D01*
D52*
X132671300Y-83517200D02*
X132720900Y-83566800D01*
D51*
X136539100Y-95885000D02*
X136720900Y-96066800D01*
D54*
X112691600Y-94037500D02*
X112720900Y-94066800D01*
X114582100Y-82178000D02*
X114720900Y-82316800D01*
D51*
X140372700Y-85218600D02*
X140220900Y-85066800D01*
X156070900Y-66216800D02*
X156220900Y-66066800D01*
X103739100Y-76835000D02*
X103720900Y-76816800D01*
D52*
X150770900Y-80516800D02*
X150720900Y-80566800D01*
X127671300Y-82159400D02*
X127671300Y-83517200D01*
D51*
X121714400Y-78917800D02*
X120119900Y-78917800D01*
X121145900Y-93816800D02*
X119970900Y-93816800D01*
D54*
X112691600Y-93014800D02*
X112691600Y-94037500D01*
X107098500Y-86367000D02*
X104920700Y-86367000D01*
D51*
X138970900Y-75066800D02*
X138970900Y-74025500D01*
X144493400Y-88639500D02*
X144493400Y-87794300D01*
D52*
X127671300Y-83517200D02*
X127720900Y-83566800D01*
X125203300Y-91084400D02*
X125220900Y-91066800D01*
D51*
X137052100Y-105898000D02*
X136720900Y-105566800D01*
D52*
X126171300Y-82159400D02*
X126171300Y-83517200D01*
D51*
X146595100Y-61442600D02*
X145970900Y-62066800D01*
D52*
X152470900Y-77266800D02*
X151020900Y-77266800D01*
X151020900Y-77266800D02*
X150720900Y-77566800D01*
D51*
X144493400Y-87794300D02*
X144970900Y-87316800D01*
X121714400Y-81127600D02*
X120031700Y-81127600D01*
D54*
X108838500Y-93184400D02*
X108970900Y-93316800D01*
D50*
X132671300Y-92366400D02*
X132720900Y-92316800D01*
D52*
X132671300Y-82159400D02*
X132671300Y-83517200D01*
D51*
X141470900Y-75066800D02*
X141470900Y-74192600D01*
%TO.N,+3.3V*%
D52*
X133171300Y-95657900D02*
X133398400Y-95885000D01*
D51*
X107943700Y-69215000D02*
X107943700Y-67097400D01*
X138906300Y-71885900D02*
X136319800Y-71885900D01*
X123220900Y-93816800D02*
X123220900Y-92213800D01*
X107943700Y-74295000D02*
X107943700Y-71755000D01*
X138906300Y-71885900D02*
X141196200Y-71885900D01*
D52*
X133171300Y-93509400D02*
X133171300Y-95657900D01*
D51*
X104612400Y-105185300D02*
X113981200Y-105185300D01*
D52*
X137136200Y-85584400D02*
X135096300Y-85584400D01*
D51*
X107943700Y-67097400D02*
X106505300Y-65659000D01*
X141196200Y-71885900D02*
X141217700Y-71864400D01*
X109616018Y-65425082D02*
X107943700Y-67097400D01*
X123220900Y-92213800D02*
X123746300Y-91688400D01*
X113981200Y-105185300D02*
X116753700Y-102412800D01*
X103397100Y-106400600D02*
X104612400Y-105185300D01*
X129888900Y-71755000D02*
X136188900Y-71755000D01*
X136319800Y-71885900D02*
X136188900Y-71755000D01*
D52*
X137483900Y-85932100D02*
X137136200Y-85584400D01*
D51*
X107943700Y-69215000D02*
X107943700Y-71755000D01*
X113337043Y-65425082D02*
X109616018Y-65425082D01*
D54*
X124637100Y-81127600D02*
X125668900Y-82159400D01*
X123789400Y-81127600D02*
X124637100Y-81127600D01*
D51*
X123789400Y-78917800D02*
X123789400Y-81127600D01*
%TO.N,Net-(F1-~-Pad1)*%
X105823100Y-82169000D02*
X104714000Y-82169000D01*
D50*
X105220900Y-89229401D02*
X106865901Y-87584400D01*
X105220900Y-90624072D02*
X105220900Y-89229401D01*
X107515900Y-92384400D02*
X106981228Y-92384400D01*
D51*
X108970900Y-85316800D02*
X105823100Y-82169000D01*
D50*
X106981228Y-92384400D02*
X105220900Y-90624072D01*
D51*
X107515900Y-87584400D02*
X108453300Y-87584400D01*
X108453300Y-87584400D02*
X108970900Y-87066800D01*
X108970900Y-87066800D02*
X108970900Y-85316800D01*
D50*
X106865901Y-87584400D02*
X107515900Y-87584400D01*
%TO.N,Vusb*%
D54*
X112206500Y-89446542D02*
X112752158Y-89992200D01*
X111118700Y-82153000D02*
X114089842Y-85124142D01*
X114089842Y-87947858D02*
X113749500Y-88288200D01*
D51*
X111118700Y-82153000D02*
X109005000Y-82153000D01*
D54*
X112752158Y-89992200D02*
X113323000Y-89992200D01*
X113749500Y-88288200D02*
X112556158Y-88288200D01*
X112556158Y-88288200D02*
X112206500Y-88637858D01*
D51*
X109005000Y-82153000D02*
X108989000Y-82169000D01*
D54*
X112206500Y-88637858D02*
X112206500Y-89446542D01*
X114089842Y-85124142D02*
X114089842Y-87947858D01*
%TO.N,Net-(D2-A)*%
D51*
X113328500Y-80128000D02*
X111143700Y-80128000D01*
X111143700Y-80128000D02*
X111118700Y-80153000D01*
%TO.N,/USB_D-*%
D50*
X110855800Y-89234400D02*
X111048000Y-89042200D01*
D52*
X106795308Y-90234400D02*
X106538900Y-89977992D01*
X106538900Y-89490808D02*
X106795308Y-89234400D01*
D53*
X111048000Y-89042200D02*
X110054249Y-89042200D01*
X110054249Y-89042200D02*
X109329249Y-89767200D01*
X108572768Y-89234400D02*
X107515900Y-89234400D01*
D52*
X106538900Y-89977992D02*
X106538900Y-89490808D01*
D53*
X109329249Y-89767200D02*
X109105568Y-89767200D01*
D52*
X107515900Y-90234400D02*
X106795308Y-90234400D01*
X106795308Y-89234400D02*
X107515900Y-89234400D01*
D53*
X109105568Y-89767200D02*
X108572768Y-89234400D01*
%TO.N,/USB_D+*%
D52*
X108492900Y-89990808D02*
X108492900Y-90316800D01*
X108236492Y-89734400D02*
X108492900Y-89990808D01*
X108492900Y-90544800D02*
X108303300Y-90734400D01*
X107515900Y-89734400D02*
X108236492Y-89734400D01*
D53*
X110054249Y-90942200D02*
X109329249Y-90217200D01*
D52*
X108492900Y-90316800D02*
X108492900Y-90544800D01*
X108303300Y-90734400D02*
X107515900Y-90734400D01*
D53*
X109329249Y-90217200D02*
X108592500Y-90217200D01*
X108592500Y-90217200D02*
X108492900Y-90316800D01*
X111048000Y-90942200D02*
X110054249Y-90942200D01*
%TO.N,/CONN_D+*%
X117214401Y-90229901D02*
X118018100Y-91033600D01*
X115041751Y-90217200D02*
X116970900Y-90217200D01*
X113323000Y-90942200D02*
X114316751Y-90942200D01*
X114316751Y-90942200D02*
X115041751Y-90217200D01*
X116970900Y-90217200D02*
X116983601Y-90229901D01*
X116983601Y-90229901D02*
X117214401Y-90229901D01*
%TO.N,/CONN_D-*%
X117143106Y-89767200D02*
X117155805Y-89779899D01*
X117214401Y-89779899D02*
X118018100Y-88976200D01*
X117155805Y-89779899D02*
X117214401Y-89779899D01*
X115041751Y-89767200D02*
X117143106Y-89767200D01*
X114316751Y-89042200D02*
X115041751Y-89767200D01*
X113323000Y-89042200D02*
X114316751Y-89042200D01*
%TO.N,Net-(R2-~-Pad1)*%
D51*
X126420900Y-100941800D02*
X126420900Y-98766800D01*
X126420900Y-98766800D02*
X126220900Y-98566800D01*
%TO.N,+5V*%
X163220900Y-70604300D02*
X161183400Y-70604300D01*
X161183400Y-70604300D02*
X160970900Y-70816800D01*
%TO.N,Net-(D4-A)*%
X125384100Y-75184000D02*
X125409500Y-75209400D01*
X123446700Y-75184000D02*
X125384100Y-75184000D01*
%TO.N,/USER_LED*%
D54*
X128720900Y-80066800D02*
X128220900Y-80566800D01*
X128720900Y-76316800D02*
X128720900Y-80066800D01*
D52*
X128171300Y-80616400D02*
X128220900Y-80566800D01*
D54*
X127409500Y-75209400D02*
X127613500Y-75209400D01*
X127613500Y-75209400D02*
X128720900Y-76316800D01*
D52*
X128171300Y-82159400D02*
X128171300Y-80616400D01*
%TO.N,/ESP_TX*%
X120603300Y-87949200D02*
X115720900Y-83066800D01*
X123746300Y-89084400D02*
X121738500Y-89084400D01*
X115720900Y-83066800D02*
X115720900Y-79566800D01*
D54*
X112989100Y-76835000D02*
X113720900Y-77566800D01*
D52*
X120614028Y-87949200D02*
X120603300Y-87949200D01*
X121738500Y-89084400D02*
X120945100Y-88291000D01*
X120945100Y-88280272D02*
X120614028Y-87949200D01*
X120945100Y-88291000D02*
X120945100Y-88280272D01*
X115720900Y-79566800D02*
X113720900Y-77566800D01*
D54*
X107943700Y-76835000D02*
X112989100Y-76835000D01*
%TO.N,Net-(J4-Pin_5)*%
D51*
X104099700Y-70451000D02*
X105403700Y-71755000D01*
X104505300Y-65659000D02*
X104099700Y-66064600D01*
X104099700Y-66064600D02*
X104099700Y-70451000D01*
%TO.N,/ESP_RX*%
D54*
X116470900Y-78566800D02*
X116470900Y-83066800D01*
X105403700Y-69215000D02*
X106644200Y-70455500D01*
D52*
X123746300Y-88584400D02*
X121988500Y-88584400D01*
D54*
X107515049Y-75566800D02*
X113470900Y-75566800D01*
X116470900Y-83066800D02*
X121988500Y-88584400D01*
X113470900Y-75566800D02*
X116470900Y-78566800D01*
X106644200Y-74695951D02*
X107515049Y-75566800D01*
X106644200Y-70455500D02*
X106644200Y-74695951D01*
%TO.N,Net-(J3-CC2)*%
D52*
X109586200Y-91734400D02*
X110866600Y-93014800D01*
X107515900Y-91734400D02*
X109586200Y-91734400D01*
%TO.N,/MD_AO1*%
X157970900Y-81816800D02*
X159470900Y-80316800D01*
X157320900Y-82466800D02*
X152470900Y-82466800D01*
X152470900Y-81816800D02*
X157970900Y-81816800D01*
X159470900Y-80316800D02*
X157320900Y-82466800D01*
%TO.N,/MD_AO2*%
X152470900Y-79866800D02*
X157420900Y-79866800D01*
X157420900Y-79866800D02*
X159470900Y-77816800D01*
X159470900Y-77816800D02*
X158070900Y-79216800D01*
X158070900Y-79216800D02*
X152470900Y-79216800D01*
%TO.N,/MD_BO2*%
D53*
X153970900Y-78566800D02*
X154720900Y-77816800D01*
X154720900Y-65816800D02*
X155470900Y-65066800D01*
X154720900Y-77816800D02*
X154720900Y-77066800D01*
X155470900Y-65066800D02*
X156959100Y-65066800D01*
X156959100Y-65066800D02*
X161294500Y-60731400D01*
X152470900Y-78566800D02*
X153970900Y-78566800D01*
X154720900Y-77066800D02*
X154720900Y-65816800D01*
X153870900Y-77916800D02*
X152470900Y-77916800D01*
X154720900Y-77066800D02*
X153870900Y-77916800D01*
%TO.N,/MD_BO1*%
X152470900Y-75316800D02*
X154220900Y-75316800D01*
X154220900Y-74816800D02*
X154220900Y-65305000D01*
X152470900Y-75966800D02*
X153820900Y-75966800D01*
X154220900Y-75316800D02*
X154220900Y-74816800D01*
X154220900Y-75566800D02*
X154220900Y-75316800D01*
X153820900Y-75966800D02*
X154220900Y-75566800D01*
X154220900Y-65305000D02*
X158794500Y-60731400D01*
%TO.N,/MD_PWMB*%
X142003743Y-77349643D02*
X142020165Y-77366065D01*
X144035937Y-76251763D02*
X144400974Y-76616800D01*
X131171300Y-82159400D02*
X131171300Y-77932086D01*
X142020165Y-77366065D02*
X142171635Y-77366065D01*
X131753743Y-77349643D02*
X142003743Y-77349643D01*
X131171300Y-77932086D02*
X131753743Y-77349643D01*
X144400974Y-76616800D02*
X145470900Y-76616800D01*
%TO.N,/MD_BIN2*%
X131470900Y-76066800D02*
X135720900Y-76066800D01*
X144202444Y-77266800D02*
X145470900Y-77266800D01*
X130171300Y-82159400D02*
X130171300Y-77366400D01*
X130171300Y-77366400D02*
X131470900Y-76066800D01*
X143102444Y-76166800D02*
X144202444Y-77266800D01*
X135820900Y-76166800D02*
X143102444Y-76166800D01*
X135720900Y-76066800D02*
X135820900Y-76166800D01*
%TO.N,/MD_BIN1*%
X142220900Y-76566800D02*
X143570900Y-77916800D01*
X130671300Y-82159400D02*
X130671300Y-77866400D01*
X130671300Y-77866400D02*
X131970900Y-76566800D01*
X143570900Y-77916800D02*
X145470900Y-77916800D01*
X131970900Y-76566800D02*
X142220900Y-76566800D01*
%TO.N,/MD_STBY*%
X131671300Y-78116400D02*
X131671300Y-82159400D01*
X131970900Y-77816800D02*
X131671300Y-78116400D01*
X137720900Y-77816800D02*
X131970900Y-77816800D01*
X145470900Y-79216800D02*
X139120900Y-79216800D01*
X139120900Y-79216800D02*
X137720900Y-77816800D01*
%TO.N,/MD_AIN1*%
D52*
X133171300Y-80866400D02*
X133520900Y-80516800D01*
X133171300Y-82159400D02*
X133171300Y-80866400D01*
X133520900Y-80516800D02*
X145470900Y-80516800D01*
%TO.N,/MD_AIN2*%
X139870900Y-81166800D02*
X136953300Y-84084400D01*
X145470900Y-81166800D02*
X139870900Y-81166800D01*
X136953300Y-84084400D02*
X135096300Y-84084400D01*
%TO.N,/MD_PWMA*%
X137203300Y-84584400D02*
X135096300Y-84584400D01*
X139970900Y-81816800D02*
X137203300Y-84584400D01*
X145470900Y-81816800D02*
X139970900Y-81816800D01*
%TO.N,/RESET*%
X139233108Y-97066800D02*
X141770900Y-97066800D01*
X134203300Y-88584400D02*
X133720900Y-89066800D01*
X135096300Y-88584400D02*
X134203300Y-88584400D01*
X133720900Y-89066800D02*
X133720900Y-91554592D01*
X133720900Y-91554592D02*
X139233108Y-97066800D01*
%TO.N,/IMU_INT*%
X137720900Y-96566800D02*
X137720900Y-100566800D01*
X137720900Y-100566800D02*
X142470900Y-105316800D01*
X135941892Y-91084400D02*
X137720900Y-92863408D01*
X137720900Y-92863408D02*
X137720900Y-94566800D01*
X135096300Y-91084400D02*
X135941892Y-91084400D01*
X150243100Y-105316800D02*
X152292100Y-107365800D01*
X142470900Y-105316800D02*
X150243100Y-105316800D01*
%TO.N,/OSCIN*%
X140372700Y-90329600D02*
X140889800Y-89812500D01*
X140889800Y-89812500D02*
X143466400Y-89812500D01*
X135096300Y-89584400D02*
X139627500Y-89584400D01*
X139627500Y-89584400D02*
X140372700Y-90329600D01*
X143466400Y-89812500D02*
X144493400Y-90839500D01*
%TO.N,/OSCOUT*%
X142621500Y-88467600D02*
X142793400Y-88639500D01*
X139755900Y-89084400D02*
X135096300Y-89084400D01*
X140372700Y-88467600D02*
X142621500Y-88467600D01*
X140372700Y-88467600D02*
X139755900Y-89084400D01*
%TO.N,/MT_PWM*%
X123746300Y-86084400D02*
X122738500Y-86084400D01*
X122738500Y-86084400D02*
X118970900Y-82316800D01*
X118970900Y-68066800D02*
X118337043Y-67432943D01*
X118337043Y-67432943D02*
X118337043Y-65425082D01*
X118970900Y-82316800D02*
X118970900Y-68066800D01*
%TO.N,/MT_SDA*%
X123337043Y-65425082D02*
X121195325Y-67566800D01*
X122488500Y-87584400D02*
X117970900Y-83066800D01*
X123746300Y-87584400D02*
X122488500Y-87584400D01*
X117160043Y-69755943D02*
X117970900Y-70566800D01*
X121195325Y-67566800D02*
X120220900Y-67566800D01*
X120220900Y-67566800D02*
X119514043Y-66859943D01*
X117160043Y-64377657D02*
X117160043Y-69755943D01*
X119514043Y-64609943D02*
X118470900Y-63566800D01*
X117970900Y-70566800D02*
X117970900Y-83066800D01*
X119514043Y-66859943D02*
X119514043Y-64609943D01*
X118470900Y-63566800D02*
X117970900Y-63566800D01*
X117970900Y-63566800D02*
X117160043Y-64377657D01*
%TO.N,/MT_SCL*%
X123746300Y-88084400D02*
X122166474Y-88084400D01*
X120837043Y-64432943D02*
X120837043Y-65425082D01*
X114660043Y-62877657D02*
X114970900Y-62566800D01*
X117059887Y-71155787D02*
X114660043Y-68755943D01*
X114660043Y-68755943D02*
X114660043Y-62877657D01*
X114970900Y-62566800D02*
X118970900Y-62566800D01*
X122166474Y-88084400D02*
X117059887Y-82977813D01*
X117059887Y-82977813D02*
X117059887Y-71155787D01*
X118970900Y-62566800D02*
X120837043Y-64432943D01*
%TO.N,/ESD_D-*%
D53*
X123746300Y-89584400D02*
X122583799Y-89584400D01*
X120651300Y-89609400D02*
X120018100Y-88976200D01*
X122558799Y-89609400D02*
X120651300Y-89609400D01*
X122583799Y-89584400D02*
X122558799Y-89609400D01*
%TO.N,/ESD_D+*%
X123746300Y-90084400D02*
X122583799Y-90084400D01*
X120728300Y-90059400D02*
X120018100Y-90769600D01*
X122583799Y-90084400D02*
X122558799Y-90059400D01*
X122558799Y-90059400D02*
X120728300Y-90059400D01*
X120018100Y-90769600D02*
X120018100Y-91033600D01*
%TO.N,/SWDIO*%
X117245900Y-92791800D02*
X120731490Y-92791800D01*
X120731490Y-92791800D02*
X122938890Y-90584400D01*
X122938890Y-90584400D02*
X123746300Y-90584400D01*
X103397100Y-98780600D02*
X106110900Y-96066800D01*
X106110900Y-96066800D02*
X113970900Y-96066800D01*
X113970900Y-96066800D02*
X117245900Y-92791800D01*
%TO.N,/ENC_B*%
D50*
X117849700Y-96316800D02*
X111753700Y-102412800D01*
X128173572Y-96316800D02*
X117849700Y-96316800D01*
X130171300Y-94319072D02*
X128173572Y-96316800D01*
X130171300Y-93509400D02*
X130171300Y-94319072D01*
%TO.N,/ENC_A*%
X114253700Y-102412800D02*
X119599700Y-97066800D01*
X119599700Y-97066800D02*
X128720900Y-97066800D01*
X128720900Y-97066800D02*
X130671300Y-95116400D01*
X130671300Y-95116400D02*
X130671300Y-93509400D01*
%TO.N,/BOOT0*%
D53*
X131220900Y-93559000D02*
X131171300Y-93509400D01*
X131220900Y-95566800D02*
X131220900Y-93559000D01*
X131220900Y-95566800D02*
X128220900Y-98566800D01*
%TO.N,/IMU_SCL*%
D50*
X139470900Y-105316800D02*
X139470900Y-107244600D01*
X131671300Y-97517200D02*
X139470900Y-105316800D01*
X131671300Y-93509400D02*
X131671300Y-97517200D01*
X139470900Y-107244600D02*
X139592100Y-107365800D01*
%TO.N,/IMU_SDA*%
X132171300Y-93509400D02*
X132171300Y-97405000D01*
X132171300Y-97405000D02*
X142132100Y-107365800D01*
%TO.N,Net-(J3-CC1)*%
D52*
X109178000Y-88734400D02*
X110866600Y-87045800D01*
X107515900Y-88734400D02*
X109178000Y-88734400D01*
%TD*%
%TA.AperFunction,Conductor*%
%TO.N,VM*%
G36*
X152717739Y-58407485D02*
G01*
X152763494Y-58460289D01*
X152774700Y-58511800D01*
X152774700Y-62766400D01*
X152755015Y-62833439D01*
X152702211Y-62879194D01*
X152650700Y-62890400D01*
X149595535Y-62890400D01*
X149528496Y-62870715D01*
X149482741Y-62817911D01*
X149471541Y-62767570D01*
X149460239Y-61569600D01*
X149447300Y-60198000D01*
X149142500Y-59969400D01*
X149142501Y-59969400D01*
X148207032Y-59956842D01*
X148189300Y-59955326D01*
X148105792Y-59942100D01*
X148105787Y-59942100D01*
X147893213Y-59942100D01*
X147879332Y-59944298D01*
X147842385Y-59950150D01*
X147821324Y-59951665D01*
X145357900Y-59918599D01*
X142570463Y-61441148D01*
X142544633Y-61446770D01*
X142519867Y-61456008D01*
X142511028Y-61454085D01*
X142502192Y-61456009D01*
X142477424Y-61446775D01*
X142451594Y-61441156D01*
X142440919Y-61433165D01*
X142436724Y-61431601D01*
X142423340Y-61420005D01*
X142307490Y-61304155D01*
X142307488Y-61304152D01*
X142188617Y-61185281D01*
X142188616Y-61185280D01*
X142101804Y-61135160D01*
X142101804Y-61135159D01*
X142101800Y-61135158D01*
X142051685Y-61106223D01*
X141898957Y-61065299D01*
X141740843Y-61065299D01*
X141733247Y-61065299D01*
X141733231Y-61065300D01*
X135559003Y-61065300D01*
X135491964Y-61045615D01*
X135471322Y-61028981D01*
X135044453Y-60602112D01*
X135010968Y-60540789D01*
X135008142Y-60515879D01*
X134997694Y-59617299D01*
X134996159Y-59485242D01*
X135015063Y-59417978D01*
X135067332Y-59371612D01*
X135120151Y-59359800D01*
X136830460Y-59359800D01*
X136897499Y-59379485D01*
X136918142Y-59396120D01*
X136960607Y-59438586D01*
X136960611Y-59438589D01*
X137091714Y-59526190D01*
X137091727Y-59526197D01*
X137237398Y-59586535D01*
X137237403Y-59586537D01*
X137392053Y-59617299D01*
X137392056Y-59617300D01*
X137392058Y-59617300D01*
X137549744Y-59617300D01*
X137549745Y-59617299D01*
X137704397Y-59586537D01*
X137850079Y-59526194D01*
X137981189Y-59438589D01*
X138023658Y-59396120D01*
X138084981Y-59362634D01*
X138111340Y-59359800D01*
X142462300Y-59359800D01*
X144187663Y-58403349D01*
X144247783Y-58387800D01*
X152650700Y-58387800D01*
X152717739Y-58407485D01*
G37*
%TD.AperFunction*%
%TD*%
%TA.AperFunction,Conductor*%
%TO.N,GND*%
G36*
X141406556Y-73124408D02*
G01*
X141427530Y-73141255D01*
X142180081Y-73893805D01*
X142213566Y-73955128D01*
X142216400Y-73981486D01*
X142216400Y-74771853D01*
X142214046Y-74795899D01*
X142211663Y-74807952D01*
X142201163Y-74833303D01*
X142170400Y-74987958D01*
X142170400Y-75016702D01*
X142168046Y-75028611D01*
X142157275Y-75049260D01*
X142150715Y-75071604D01*
X142141422Y-75079656D01*
X142135735Y-75090560D01*
X142115510Y-75102108D01*
X142097911Y-75117359D01*
X142083401Y-75120444D01*
X142075061Y-75125207D01*
X142063782Y-75124616D01*
X142045234Y-75128560D01*
X134558734Y-75058155D01*
X134491883Y-75037840D01*
X134446626Y-74984608D01*
X134435900Y-74934160D01*
X134435900Y-73279562D01*
X134455585Y-73212523D01*
X134472212Y-73191887D01*
X134501346Y-73162753D01*
X134562665Y-73129270D01*
X134588628Y-73126437D01*
X141339456Y-73104937D01*
X141406556Y-73124408D01*
G37*
%TD.AperFunction*%
%TD*%
%TA.AperFunction,Conductor*%
%TO.N,5V_REG*%
G36*
X132553701Y-61318963D02*
G01*
X132578439Y-61324174D01*
X132602901Y-61332048D01*
X133775498Y-61849000D01*
X133782529Y-61849042D01*
X133782543Y-61849047D01*
X133782544Y-61849043D01*
X134529245Y-61853681D01*
X134561218Y-61858080D01*
X134562676Y-61858479D01*
X134576105Y-61862513D01*
X134582459Y-61863895D01*
X134585610Y-61864758D01*
X134612653Y-61881444D01*
X134640539Y-61896668D01*
X134640547Y-61896676D01*
X134772991Y-62029120D01*
X134773012Y-62029142D01*
X134774055Y-62030185D01*
X134778385Y-62034515D01*
X134778386Y-62034516D01*
X134890190Y-62146320D01*
X134977001Y-62196439D01*
X134977003Y-62196441D01*
X135015052Y-62218408D01*
X135015055Y-62218411D01*
X135015056Y-62218411D01*
X135027117Y-62225375D01*
X135027118Y-62225375D01*
X135027121Y-62225377D01*
X135179849Y-62266301D01*
X135179852Y-62266301D01*
X135345559Y-62266301D01*
X135347463Y-62266301D01*
X135347526Y-62266300D01*
X137715993Y-62266300D01*
X137750928Y-62271323D01*
X137765926Y-62275727D01*
X137824659Y-62313451D01*
X137824702Y-62313500D01*
X137824704Y-62313502D01*
X137824704Y-62313503D01*
X137825549Y-62314477D01*
X137853223Y-62370200D01*
X137854976Y-62378532D01*
X137857621Y-62405761D01*
X137841408Y-63589252D01*
X137835908Y-63624115D01*
X137831299Y-63639052D01*
X137792730Y-63697301D01*
X137790839Y-63698895D01*
X137736831Y-63725348D01*
X137730382Y-63726726D01*
X137705266Y-63729460D01*
X133877570Y-63753996D01*
X133877104Y-63753997D01*
X133877099Y-63753999D01*
X132019027Y-65091811D01*
X131987745Y-65108146D01*
X131958146Y-65118565D01*
X131916974Y-65125600D01*
X128735003Y-65125600D01*
X128700062Y-65120575D01*
X128685063Y-65116170D01*
X128626303Y-65078411D01*
X128624989Y-65076895D01*
X128597604Y-65022403D01*
X128596009Y-65015176D01*
X128593097Y-64989186D01*
X128592387Y-64868428D01*
X128580867Y-62910190D01*
X128582391Y-62890074D01*
X128585514Y-62870351D01*
X128590277Y-62850759D01*
X128640899Y-62697997D01*
X128651400Y-62595209D01*
X128651399Y-61888264D01*
X128654785Y-61859486D01*
X128655524Y-61856388D01*
X128656968Y-61851471D01*
X128657009Y-61850161D01*
X128658605Y-61843476D01*
X128673722Y-61817061D01*
X128686810Y-61789571D01*
X128688587Y-61787585D01*
X128692589Y-61784097D01*
X128693311Y-61782836D01*
X128695110Y-61781899D01*
X128711715Y-61767429D01*
X128714997Y-61765218D01*
X128752183Y-61748283D01*
X128795285Y-61736735D01*
X128845404Y-61707797D01*
X128932216Y-61657678D01*
X129044020Y-61545874D01*
X129044021Y-61545872D01*
X129224671Y-61365220D01*
X129252922Y-61344073D01*
X129276016Y-61331463D01*
X129335436Y-61316300D01*
X132528142Y-61316300D01*
X132553701Y-61318963D01*
G37*
%TD.AperFunction*%
%TD*%
%TA.AperFunction,Conductor*%
%TO.N,+3.3V*%
G36*
X130970888Y-69470703D02*
G01*
X130990975Y-69474069D01*
X131010893Y-69479134D01*
X134638314Y-70729970D01*
X134684101Y-70745829D01*
X134696248Y-70754483D01*
X134710556Y-70758685D01*
X134723787Y-70768487D01*
X134760370Y-70799557D01*
X134780331Y-70816510D01*
X134911794Y-70874982D01*
X134979025Y-70894002D01*
X134979026Y-70894002D01*
X134979053Y-70894005D01*
X134986625Y-70895056D01*
X134987201Y-70895095D01*
X134995147Y-70896157D01*
X135121638Y-70913067D01*
X137561875Y-70888905D01*
X137629103Y-70907925D01*
X137675379Y-70960273D01*
X137687100Y-71012899D01*
X137687100Y-72487460D01*
X137667415Y-72554499D01*
X137614611Y-72600254D01*
X137563495Y-72611459D01*
X134587036Y-72620939D01*
X134586986Y-72620941D01*
X134533798Y-72623919D01*
X134533786Y-72623920D01*
X134507863Y-72626749D01*
X134507847Y-72626751D01*
X134507840Y-72626752D01*
X134507832Y-72626753D01*
X134477514Y-72631690D01*
X134455209Y-72635323D01*
X134320403Y-72685604D01*
X134320402Y-72685604D01*
X134259081Y-72719088D01*
X134259070Y-72719096D01*
X134143914Y-72805302D01*
X134143893Y-72805320D01*
X134114777Y-72834436D01*
X134078589Y-72874726D01*
X134078574Y-72874743D01*
X134061959Y-72895366D01*
X134061954Y-72895372D01*
X134030332Y-72939226D01*
X133985288Y-73037857D01*
X133939532Y-73090660D01*
X133923379Y-73099422D01*
X132261750Y-73847156D01*
X132237317Y-73855224D01*
X132212581Y-73860625D01*
X132187008Y-73863476D01*
X128787407Y-73887587D01*
X128752435Y-73882811D01*
X128737405Y-73878513D01*
X128678362Y-73841155D01*
X128678335Y-73841125D01*
X128677295Y-73839941D01*
X128649386Y-73784894D01*
X128647628Y-73776948D01*
X128644700Y-73750162D01*
X128644700Y-69610829D01*
X128649723Y-69575893D01*
X128654127Y-69560895D01*
X128691872Y-69502144D01*
X128691900Y-69502119D01*
X128691899Y-69502119D01*
X128693241Y-69500956D01*
X128748120Y-69473477D01*
X128755679Y-69471833D01*
X128782032Y-69469000D01*
X130950407Y-69469000D01*
X130970888Y-69470703D01*
G37*
%TD.AperFunction*%
%TD*%
%TA.AperFunction,Conductor*%
%TO.N,+5V*%
G36*
X142633597Y-68498271D02*
G01*
X142679525Y-68550925D01*
X142690900Y-68602806D01*
X142690900Y-70209821D01*
X142671215Y-70276860D01*
X142618411Y-70322615D01*
X142568128Y-70333815D01*
X135116633Y-70407592D01*
X135049402Y-70388572D01*
X135003126Y-70336224D01*
X134991449Y-70286904D01*
X134947283Y-68630685D01*
X134965174Y-68563147D01*
X135016739Y-68516001D01*
X135070828Y-68503383D01*
X138131690Y-68493348D01*
X138171090Y-68499639D01*
X138227703Y-68518399D01*
X138330491Y-68528900D01*
X139380508Y-68528899D01*
X139380516Y-68528898D01*
X139380519Y-68528898D01*
X139404396Y-68526458D01*
X139483297Y-68518399D01*
X139554365Y-68494849D01*
X139592956Y-68488557D01*
X140446042Y-68485760D01*
X140485449Y-68492053D01*
X140488303Y-68492999D01*
X140591091Y-68503500D01*
X141641108Y-68503499D01*
X141641116Y-68503498D01*
X141641119Y-68503498D01*
X141678885Y-68499640D01*
X141743897Y-68492999D01*
X141760136Y-68487618D01*
X141798731Y-68481325D01*
X142566496Y-68478807D01*
X142633597Y-68498271D01*
G37*
%TD.AperFunction*%
%TD*%
%TA.AperFunction,Conductor*%
%TO.N,GND*%
G36*
X140286649Y-64157705D02*
G01*
X140319135Y-64166747D01*
X140350981Y-64180667D01*
X140423359Y-64225310D01*
X140423360Y-64225310D01*
X140423366Y-64225314D01*
X140589903Y-64280499D01*
X140692691Y-64291000D01*
X141169485Y-64290999D01*
X141171724Y-64291321D01*
X141204419Y-64296022D01*
X141229656Y-64303432D01*
X141282403Y-64334728D01*
X142183954Y-65236279D01*
X142205104Y-65264531D01*
X142217816Y-65287810D01*
X142232979Y-65346028D01*
X142257423Y-67849513D01*
X142238394Y-67916742D01*
X142186039Y-67963010D01*
X142133836Y-67974723D01*
X141797088Y-67975827D01*
X141797062Y-67975828D01*
X141717386Y-67982413D01*
X141717383Y-67982413D01*
X141678782Y-67988707D01*
X141678771Y-67988710D01*
X141667543Y-67991466D01*
X141650595Y-67994397D01*
X141621644Y-67997356D01*
X141609036Y-67997999D01*
X140623166Y-67997999D01*
X140610565Y-67997357D01*
X140596654Y-67995936D01*
X140565901Y-67992794D01*
X140558953Y-67991885D01*
X140525764Y-67986585D01*
X140525753Y-67986584D01*
X140444404Y-67980263D01*
X140444366Y-67980262D01*
X139591315Y-67983059D01*
X139591301Y-67983059D01*
X139591299Y-67983060D01*
X139591287Y-67983061D01*
X139511619Y-67989644D01*
X139511609Y-67989645D01*
X139473024Y-67995936D01*
X139473011Y-67995939D01*
X139395365Y-68015006D01*
X139389723Y-68016875D01*
X139363396Y-68022514D01*
X139361076Y-68022752D01*
X139348422Y-68023399D01*
X138362564Y-68023399D01*
X138349964Y-68022757D01*
X138345147Y-68022265D01*
X138328374Y-68019378D01*
X138250790Y-68000461D01*
X138250782Y-68000459D01*
X138211393Y-67994170D01*
X138130034Y-67987851D01*
X138130013Y-67987850D01*
X135069174Y-67997885D01*
X135069164Y-67997886D01*
X134955996Y-68011099D01*
X134955987Y-68011101D01*
X134907064Y-68022514D01*
X134901894Y-68023720D01*
X134862206Y-68037854D01*
X134821003Y-68045039D01*
X134475707Y-68046144D01*
X134475707Y-68046145D01*
X134475706Y-68046144D01*
X134475704Y-68046145D01*
X134440756Y-68041235D01*
X134425742Y-68036879D01*
X134366850Y-67999303D01*
X134365586Y-67997854D01*
X134337995Y-67943298D01*
X134336356Y-67935939D01*
X134333393Y-67909803D01*
X134333304Y-67896390D01*
X134310022Y-64380759D01*
X134329262Y-64313593D01*
X134381762Y-64267489D01*
X134433220Y-64255943D01*
X137708506Y-64234950D01*
X137759969Y-64231991D01*
X137785085Y-64229257D01*
X137836011Y-64221067D01*
X137842460Y-64219689D01*
X137846053Y-64218445D01*
X137915844Y-64215129D01*
X137951691Y-64230089D01*
X138061166Y-64297614D01*
X138227703Y-64352799D01*
X138330491Y-64363300D01*
X139380508Y-64363299D01*
X139380516Y-64363298D01*
X139380519Y-64363298D01*
X139380527Y-64363297D01*
X139380817Y-64363279D01*
X139381833Y-64363163D01*
X139426959Y-64358553D01*
X139436803Y-64357548D01*
X139436803Y-64357547D01*
X139483297Y-64352799D01*
X139649834Y-64297614D01*
X139799156Y-64205512D01*
X139799161Y-64205506D01*
X139804819Y-64201034D01*
X139804942Y-64201189D01*
X139827369Y-64184399D01*
X139834203Y-64180667D01*
X139850643Y-64171688D01*
X139908862Y-64156523D01*
X140252193Y-64153171D01*
X140286649Y-64157705D01*
G37*
%TD.AperFunction*%
%TD*%
M02*
