%TF.GenerationSoftware,KiCad,Pcbnew,10.0.1*%
%TF.CreationDate,2026-05-05T12:30:37-06:00*%
%TF.ProjectId,2026_12_2Wheel_Balance_Robot_v1,32303236-5f31-4325-9f32-576865656c5f,rev?*%
%TF.SameCoordinates,Original*%
%TF.FileFunction,Legend,Bot*%
%TF.FilePolarity,Positive*%
%FSLAX46Y46*%
G04 Gerber Fmt 4.6, Leading zero omitted, Abs format (unit mm)*
G04 Created by KiCad (PCBNEW 10.0.1) date 2026-05-05 12:30:37*
%MOMM*%
%LPD*%
G01*
G04 APERTURE LIST*
%ADD10C,0.200000*%
G04 APERTURE END LIST*
D10*
X160601226Y-99964131D02*
X160601226Y-98964131D01*
X160601226Y-98964131D02*
X160029798Y-99964131D01*
X160029798Y-99964131D02*
X160029798Y-98964131D01*
X159553607Y-99964131D02*
X159553607Y-99297464D01*
X159553607Y-98964131D02*
X159601226Y-99011750D01*
X159601226Y-99011750D02*
X159553607Y-99059369D01*
X159553607Y-99059369D02*
X159505988Y-99011750D01*
X159505988Y-99011750D02*
X159553607Y-98964131D01*
X159553607Y-98964131D02*
X159553607Y-99059369D01*
X158648846Y-99916512D02*
X158744084Y-99964131D01*
X158744084Y-99964131D02*
X158934560Y-99964131D01*
X158934560Y-99964131D02*
X159029798Y-99916512D01*
X159029798Y-99916512D02*
X159077417Y-99868892D01*
X159077417Y-99868892D02*
X159125036Y-99773654D01*
X159125036Y-99773654D02*
X159125036Y-99487940D01*
X159125036Y-99487940D02*
X159077417Y-99392702D01*
X159077417Y-99392702D02*
X159029798Y-99345083D01*
X159029798Y-99345083D02*
X158934560Y-99297464D01*
X158934560Y-99297464D02*
X158744084Y-99297464D01*
X158744084Y-99297464D02*
X158648846Y-99345083D01*
X158077417Y-99964131D02*
X158172655Y-99916512D01*
X158172655Y-99916512D02*
X158220274Y-99868892D01*
X158220274Y-99868892D02*
X158267893Y-99773654D01*
X158267893Y-99773654D02*
X158267893Y-99487940D01*
X158267893Y-99487940D02*
X158220274Y-99392702D01*
X158220274Y-99392702D02*
X158172655Y-99345083D01*
X158172655Y-99345083D02*
X158077417Y-99297464D01*
X158077417Y-99297464D02*
X157934560Y-99297464D01*
X157934560Y-99297464D02*
X157839322Y-99345083D01*
X157839322Y-99345083D02*
X157791703Y-99392702D01*
X157791703Y-99392702D02*
X157744084Y-99487940D01*
X157744084Y-99487940D02*
X157744084Y-99773654D01*
X157744084Y-99773654D02*
X157791703Y-99868892D01*
X157791703Y-99868892D02*
X157839322Y-99916512D01*
X157839322Y-99916512D02*
X157934560Y-99964131D01*
X157934560Y-99964131D02*
X158077417Y-99964131D01*
X157172655Y-99964131D02*
X157267893Y-99916512D01*
X157267893Y-99916512D02*
X157315512Y-99821273D01*
X157315512Y-99821273D02*
X157315512Y-98964131D01*
X156363131Y-99964131D02*
X156363131Y-99440321D01*
X156363131Y-99440321D02*
X156410750Y-99345083D01*
X156410750Y-99345083D02*
X156505988Y-99297464D01*
X156505988Y-99297464D02*
X156696464Y-99297464D01*
X156696464Y-99297464D02*
X156791702Y-99345083D01*
X156363131Y-99916512D02*
X156458369Y-99964131D01*
X156458369Y-99964131D02*
X156696464Y-99964131D01*
X156696464Y-99964131D02*
X156791702Y-99916512D01*
X156791702Y-99916512D02*
X156839321Y-99821273D01*
X156839321Y-99821273D02*
X156839321Y-99726035D01*
X156839321Y-99726035D02*
X156791702Y-99630797D01*
X156791702Y-99630797D02*
X156696464Y-99583178D01*
X156696464Y-99583178D02*
X156458369Y-99583178D01*
X156458369Y-99583178D02*
X156363131Y-99535559D01*
X155934559Y-99916512D02*
X155839321Y-99964131D01*
X155839321Y-99964131D02*
X155648845Y-99964131D01*
X155648845Y-99964131D02*
X155553607Y-99916512D01*
X155553607Y-99916512D02*
X155505988Y-99821273D01*
X155505988Y-99821273D02*
X155505988Y-99773654D01*
X155505988Y-99773654D02*
X155553607Y-99678416D01*
X155553607Y-99678416D02*
X155648845Y-99630797D01*
X155648845Y-99630797D02*
X155791702Y-99630797D01*
X155791702Y-99630797D02*
X155886940Y-99583178D01*
X155886940Y-99583178D02*
X155934559Y-99487940D01*
X155934559Y-99487940D02*
X155934559Y-99440321D01*
X155934559Y-99440321D02*
X155886940Y-99345083D01*
X155886940Y-99345083D02*
X155791702Y-99297464D01*
X155791702Y-99297464D02*
X155648845Y-99297464D01*
X155648845Y-99297464D02*
X155553607Y-99345083D01*
X153744083Y-99964131D02*
X154077416Y-99487940D01*
X154315511Y-99964131D02*
X154315511Y-98964131D01*
X154315511Y-98964131D02*
X153934559Y-98964131D01*
X153934559Y-98964131D02*
X153839321Y-99011750D01*
X153839321Y-99011750D02*
X153791702Y-99059369D01*
X153791702Y-99059369D02*
X153744083Y-99154607D01*
X153744083Y-99154607D02*
X153744083Y-99297464D01*
X153744083Y-99297464D02*
X153791702Y-99392702D01*
X153791702Y-99392702D02*
X153839321Y-99440321D01*
X153839321Y-99440321D02*
X153934559Y-99487940D01*
X153934559Y-99487940D02*
X154315511Y-99487940D01*
X152886940Y-99297464D02*
X152886940Y-99964131D01*
X153315511Y-99297464D02*
X153315511Y-99821273D01*
X153315511Y-99821273D02*
X153267892Y-99916512D01*
X153267892Y-99916512D02*
X153172654Y-99964131D01*
X153172654Y-99964131D02*
X153029797Y-99964131D01*
X153029797Y-99964131D02*
X152934559Y-99916512D01*
X152934559Y-99916512D02*
X152886940Y-99868892D01*
X152553606Y-99297464D02*
X152172654Y-99297464D01*
X152410749Y-98964131D02*
X152410749Y-99821273D01*
X152410749Y-99821273D02*
X152363130Y-99916512D01*
X152363130Y-99916512D02*
X152267892Y-99964131D01*
X152267892Y-99964131D02*
X152172654Y-99964131D01*
X151839320Y-99964131D02*
X151839320Y-98964131D01*
X151410749Y-99964131D02*
X151410749Y-99440321D01*
X151410749Y-99440321D02*
X151458368Y-99345083D01*
X151458368Y-99345083D02*
X151553606Y-99297464D01*
X151553606Y-99297464D02*
X151696463Y-99297464D01*
X151696463Y-99297464D02*
X151791701Y-99345083D01*
X151791701Y-99345083D02*
X151839320Y-99392702D01*
X160601226Y-101050265D02*
X160267893Y-101050265D01*
X160125036Y-101574075D02*
X160601226Y-101574075D01*
X160601226Y-101574075D02*
X160601226Y-100574075D01*
X160601226Y-100574075D02*
X160125036Y-100574075D01*
X159696464Y-101574075D02*
X159696464Y-100907408D01*
X159696464Y-101002646D02*
X159648845Y-100955027D01*
X159648845Y-100955027D02*
X159553607Y-100907408D01*
X159553607Y-100907408D02*
X159410750Y-100907408D01*
X159410750Y-100907408D02*
X159315512Y-100955027D01*
X159315512Y-100955027D02*
X159267893Y-101050265D01*
X159267893Y-101050265D02*
X159267893Y-101574075D01*
X159267893Y-101050265D02*
X159220274Y-100955027D01*
X159220274Y-100955027D02*
X159125036Y-100907408D01*
X159125036Y-100907408D02*
X158982179Y-100907408D01*
X158982179Y-100907408D02*
X158886940Y-100955027D01*
X158886940Y-100955027D02*
X158839321Y-101050265D01*
X158839321Y-101050265D02*
X158839321Y-101574075D01*
X158363131Y-101574075D02*
X158363131Y-100574075D01*
X158363131Y-100955027D02*
X158267893Y-100907408D01*
X158267893Y-100907408D02*
X158077417Y-100907408D01*
X158077417Y-100907408D02*
X157982179Y-100955027D01*
X157982179Y-100955027D02*
X157934560Y-101002646D01*
X157934560Y-101002646D02*
X157886941Y-101097884D01*
X157886941Y-101097884D02*
X157886941Y-101383598D01*
X157886941Y-101383598D02*
X157934560Y-101478836D01*
X157934560Y-101478836D02*
X157982179Y-101526456D01*
X157982179Y-101526456D02*
X158077417Y-101574075D01*
X158077417Y-101574075D02*
X158267893Y-101574075D01*
X158267893Y-101574075D02*
X158363131Y-101526456D01*
X157077417Y-101526456D02*
X157172655Y-101574075D01*
X157172655Y-101574075D02*
X157363131Y-101574075D01*
X157363131Y-101574075D02*
X157458369Y-101526456D01*
X157458369Y-101526456D02*
X157505988Y-101431217D01*
X157505988Y-101431217D02*
X157505988Y-101050265D01*
X157505988Y-101050265D02*
X157458369Y-100955027D01*
X157458369Y-100955027D02*
X157363131Y-100907408D01*
X157363131Y-100907408D02*
X157172655Y-100907408D01*
X157172655Y-100907408D02*
X157077417Y-100955027D01*
X157077417Y-100955027D02*
X157029798Y-101050265D01*
X157029798Y-101050265D02*
X157029798Y-101145503D01*
X157029798Y-101145503D02*
X157505988Y-101240741D01*
X156172655Y-101574075D02*
X156172655Y-100574075D01*
X156172655Y-101526456D02*
X156267893Y-101574075D01*
X156267893Y-101574075D02*
X156458369Y-101574075D01*
X156458369Y-101574075D02*
X156553607Y-101526456D01*
X156553607Y-101526456D02*
X156601226Y-101478836D01*
X156601226Y-101478836D02*
X156648845Y-101383598D01*
X156648845Y-101383598D02*
X156648845Y-101097884D01*
X156648845Y-101097884D02*
X156601226Y-101002646D01*
X156601226Y-101002646D02*
X156553607Y-100955027D01*
X156553607Y-100955027D02*
X156458369Y-100907408D01*
X156458369Y-100907408D02*
X156267893Y-100907408D01*
X156267893Y-100907408D02*
X156172655Y-100955027D01*
X155267893Y-101574075D02*
X155267893Y-100574075D01*
X155267893Y-101526456D02*
X155363131Y-101574075D01*
X155363131Y-101574075D02*
X155553607Y-101574075D01*
X155553607Y-101574075D02*
X155648845Y-101526456D01*
X155648845Y-101526456D02*
X155696464Y-101478836D01*
X155696464Y-101478836D02*
X155744083Y-101383598D01*
X155744083Y-101383598D02*
X155744083Y-101097884D01*
X155744083Y-101097884D02*
X155696464Y-101002646D01*
X155696464Y-101002646D02*
X155648845Y-100955027D01*
X155648845Y-100955027D02*
X155553607Y-100907408D01*
X155553607Y-100907408D02*
X155363131Y-100907408D01*
X155363131Y-100907408D02*
X155267893Y-100955027D01*
X154410750Y-101526456D02*
X154505988Y-101574075D01*
X154505988Y-101574075D02*
X154696464Y-101574075D01*
X154696464Y-101574075D02*
X154791702Y-101526456D01*
X154791702Y-101526456D02*
X154839321Y-101431217D01*
X154839321Y-101431217D02*
X154839321Y-101050265D01*
X154839321Y-101050265D02*
X154791702Y-100955027D01*
X154791702Y-100955027D02*
X154696464Y-100907408D01*
X154696464Y-100907408D02*
X154505988Y-100907408D01*
X154505988Y-100907408D02*
X154410750Y-100955027D01*
X154410750Y-100955027D02*
X154363131Y-101050265D01*
X154363131Y-101050265D02*
X154363131Y-101145503D01*
X154363131Y-101145503D02*
X154839321Y-101240741D01*
X153505988Y-101574075D02*
X153505988Y-100574075D01*
X153505988Y-101526456D02*
X153601226Y-101574075D01*
X153601226Y-101574075D02*
X153791702Y-101574075D01*
X153791702Y-101574075D02*
X153886940Y-101526456D01*
X153886940Y-101526456D02*
X153934559Y-101478836D01*
X153934559Y-101478836D02*
X153982178Y-101383598D01*
X153982178Y-101383598D02*
X153982178Y-101097884D01*
X153982178Y-101097884D02*
X153934559Y-101002646D01*
X153934559Y-101002646D02*
X153886940Y-100955027D01*
X153886940Y-100955027D02*
X153791702Y-100907408D01*
X153791702Y-100907408D02*
X153601226Y-100907408D01*
X153601226Y-100907408D02*
X153505988Y-100955027D01*
X152315511Y-101526456D02*
X152172654Y-101574075D01*
X152172654Y-101574075D02*
X151934559Y-101574075D01*
X151934559Y-101574075D02*
X151839321Y-101526456D01*
X151839321Y-101526456D02*
X151791702Y-101478836D01*
X151791702Y-101478836D02*
X151744083Y-101383598D01*
X151744083Y-101383598D02*
X151744083Y-101288360D01*
X151744083Y-101288360D02*
X151791702Y-101193122D01*
X151791702Y-101193122D02*
X151839321Y-101145503D01*
X151839321Y-101145503D02*
X151934559Y-101097884D01*
X151934559Y-101097884D02*
X152125035Y-101050265D01*
X152125035Y-101050265D02*
X152220273Y-101002646D01*
X152220273Y-101002646D02*
X152267892Y-100955027D01*
X152267892Y-100955027D02*
X152315511Y-100859789D01*
X152315511Y-100859789D02*
X152315511Y-100764551D01*
X152315511Y-100764551D02*
X152267892Y-100669313D01*
X152267892Y-100669313D02*
X152220273Y-100621694D01*
X152220273Y-100621694D02*
X152125035Y-100574075D01*
X152125035Y-100574075D02*
X151886940Y-100574075D01*
X151886940Y-100574075D02*
X151744083Y-100621694D01*
X151410749Y-100907408D02*
X151172654Y-101574075D01*
X150934559Y-100907408D02*
X151172654Y-101574075D01*
X151172654Y-101574075D02*
X151267892Y-101812170D01*
X151267892Y-101812170D02*
X151315511Y-101859789D01*
X151315511Y-101859789D02*
X151410749Y-101907408D01*
X150601225Y-101526456D02*
X150505987Y-101574075D01*
X150505987Y-101574075D02*
X150315511Y-101574075D01*
X150315511Y-101574075D02*
X150220273Y-101526456D01*
X150220273Y-101526456D02*
X150172654Y-101431217D01*
X150172654Y-101431217D02*
X150172654Y-101383598D01*
X150172654Y-101383598D02*
X150220273Y-101288360D01*
X150220273Y-101288360D02*
X150315511Y-101240741D01*
X150315511Y-101240741D02*
X150458368Y-101240741D01*
X150458368Y-101240741D02*
X150553606Y-101193122D01*
X150553606Y-101193122D02*
X150601225Y-101097884D01*
X150601225Y-101097884D02*
X150601225Y-101050265D01*
X150601225Y-101050265D02*
X150553606Y-100955027D01*
X150553606Y-100955027D02*
X150458368Y-100907408D01*
X150458368Y-100907408D02*
X150315511Y-100907408D01*
X150315511Y-100907408D02*
X150220273Y-100955027D01*
X149886939Y-100907408D02*
X149505987Y-100907408D01*
X149744082Y-100574075D02*
X149744082Y-101431217D01*
X149744082Y-101431217D02*
X149696463Y-101526456D01*
X149696463Y-101526456D02*
X149601225Y-101574075D01*
X149601225Y-101574075D02*
X149505987Y-101574075D01*
X148791701Y-101526456D02*
X148886939Y-101574075D01*
X148886939Y-101574075D02*
X149077415Y-101574075D01*
X149077415Y-101574075D02*
X149172653Y-101526456D01*
X149172653Y-101526456D02*
X149220272Y-101431217D01*
X149220272Y-101431217D02*
X149220272Y-101050265D01*
X149220272Y-101050265D02*
X149172653Y-100955027D01*
X149172653Y-100955027D02*
X149077415Y-100907408D01*
X149077415Y-100907408D02*
X148886939Y-100907408D01*
X148886939Y-100907408D02*
X148791701Y-100955027D01*
X148791701Y-100955027D02*
X148744082Y-101050265D01*
X148744082Y-101050265D02*
X148744082Y-101145503D01*
X148744082Y-101145503D02*
X149220272Y-101240741D01*
X148315510Y-101574075D02*
X148315510Y-100907408D01*
X148315510Y-101002646D02*
X148267891Y-100955027D01*
X148267891Y-100955027D02*
X148172653Y-100907408D01*
X148172653Y-100907408D02*
X148029796Y-100907408D01*
X148029796Y-100907408D02*
X147934558Y-100955027D01*
X147934558Y-100955027D02*
X147886939Y-101050265D01*
X147886939Y-101050265D02*
X147886939Y-101574075D01*
X147886939Y-101050265D02*
X147839320Y-100955027D01*
X147839320Y-100955027D02*
X147744082Y-100907408D01*
X147744082Y-100907408D02*
X147601225Y-100907408D01*
X147601225Y-100907408D02*
X147505986Y-100955027D01*
X147505986Y-100955027D02*
X147458367Y-101050265D01*
X147458367Y-101050265D02*
X147458367Y-101574075D01*
X147029796Y-101526456D02*
X146934558Y-101574075D01*
X146934558Y-101574075D02*
X146744082Y-101574075D01*
X146744082Y-101574075D02*
X146648844Y-101526456D01*
X146648844Y-101526456D02*
X146601225Y-101431217D01*
X146601225Y-101431217D02*
X146601225Y-101383598D01*
X146601225Y-101383598D02*
X146648844Y-101288360D01*
X146648844Y-101288360D02*
X146744082Y-101240741D01*
X146744082Y-101240741D02*
X146886939Y-101240741D01*
X146886939Y-101240741D02*
X146982177Y-101193122D01*
X146982177Y-101193122D02*
X147029796Y-101097884D01*
X147029796Y-101097884D02*
X147029796Y-101050265D01*
X147029796Y-101050265D02*
X146982177Y-100955027D01*
X146982177Y-100955027D02*
X146886939Y-100907408D01*
X146886939Y-100907408D02*
X146744082Y-100907408D01*
X146744082Y-100907408D02*
X146648844Y-100955027D01*
X145410748Y-101574075D02*
X145410748Y-100574075D01*
X145410748Y-100574075D02*
X145029796Y-100574075D01*
X145029796Y-100574075D02*
X144934558Y-100621694D01*
X144934558Y-100621694D02*
X144886939Y-100669313D01*
X144886939Y-100669313D02*
X144839320Y-100764551D01*
X144839320Y-100764551D02*
X144839320Y-100907408D01*
X144839320Y-100907408D02*
X144886939Y-101002646D01*
X144886939Y-101002646D02*
X144934558Y-101050265D01*
X144934558Y-101050265D02*
X145029796Y-101097884D01*
X145029796Y-101097884D02*
X145410748Y-101097884D01*
X144410748Y-101574075D02*
X144410748Y-100907408D01*
X144410748Y-101097884D02*
X144363129Y-101002646D01*
X144363129Y-101002646D02*
X144315510Y-100955027D01*
X144315510Y-100955027D02*
X144220272Y-100907408D01*
X144220272Y-100907408D02*
X144125034Y-100907408D01*
X143648843Y-101574075D02*
X143744081Y-101526456D01*
X143744081Y-101526456D02*
X143791700Y-101478836D01*
X143791700Y-101478836D02*
X143839319Y-101383598D01*
X143839319Y-101383598D02*
X143839319Y-101097884D01*
X143839319Y-101097884D02*
X143791700Y-101002646D01*
X143791700Y-101002646D02*
X143744081Y-100955027D01*
X143744081Y-100955027D02*
X143648843Y-100907408D01*
X143648843Y-100907408D02*
X143505986Y-100907408D01*
X143505986Y-100907408D02*
X143410748Y-100955027D01*
X143410748Y-100955027D02*
X143363129Y-101002646D01*
X143363129Y-101002646D02*
X143315510Y-101097884D01*
X143315510Y-101097884D02*
X143315510Y-101383598D01*
X143315510Y-101383598D02*
X143363129Y-101478836D01*
X143363129Y-101478836D02*
X143410748Y-101526456D01*
X143410748Y-101526456D02*
X143505986Y-101574075D01*
X143505986Y-101574075D02*
X143648843Y-101574075D01*
X142886938Y-100907408D02*
X142886938Y-101764551D01*
X142886938Y-101764551D02*
X142934557Y-101859789D01*
X142934557Y-101859789D02*
X143029795Y-101907408D01*
X143029795Y-101907408D02*
X143077414Y-101907408D01*
X142886938Y-100574075D02*
X142934557Y-100621694D01*
X142934557Y-100621694D02*
X142886938Y-100669313D01*
X142886938Y-100669313D02*
X142839319Y-100621694D01*
X142839319Y-100621694D02*
X142886938Y-100574075D01*
X142886938Y-100574075D02*
X142886938Y-100669313D01*
X142029796Y-101526456D02*
X142125034Y-101574075D01*
X142125034Y-101574075D02*
X142315510Y-101574075D01*
X142315510Y-101574075D02*
X142410748Y-101526456D01*
X142410748Y-101526456D02*
X142458367Y-101431217D01*
X142458367Y-101431217D02*
X142458367Y-101050265D01*
X142458367Y-101050265D02*
X142410748Y-100955027D01*
X142410748Y-100955027D02*
X142315510Y-100907408D01*
X142315510Y-100907408D02*
X142125034Y-100907408D01*
X142125034Y-100907408D02*
X142029796Y-100955027D01*
X142029796Y-100955027D02*
X141982177Y-101050265D01*
X141982177Y-101050265D02*
X141982177Y-101145503D01*
X141982177Y-101145503D02*
X142458367Y-101240741D01*
X141125034Y-101526456D02*
X141220272Y-101574075D01*
X141220272Y-101574075D02*
X141410748Y-101574075D01*
X141410748Y-101574075D02*
X141505986Y-101526456D01*
X141505986Y-101526456D02*
X141553605Y-101478836D01*
X141553605Y-101478836D02*
X141601224Y-101383598D01*
X141601224Y-101383598D02*
X141601224Y-101097884D01*
X141601224Y-101097884D02*
X141553605Y-101002646D01*
X141553605Y-101002646D02*
X141505986Y-100955027D01*
X141505986Y-100955027D02*
X141410748Y-100907408D01*
X141410748Y-100907408D02*
X141220272Y-100907408D01*
X141220272Y-100907408D02*
X141125034Y-100955027D01*
X140839319Y-100907408D02*
X140458367Y-100907408D01*
X140696462Y-100574075D02*
X140696462Y-101431217D01*
X140696462Y-101431217D02*
X140648843Y-101526456D01*
X140648843Y-101526456D02*
X140553605Y-101574075D01*
X140553605Y-101574075D02*
X140458367Y-101574075D01*
X160125036Y-102184019D02*
X160601226Y-102184019D01*
X160601226Y-102184019D02*
X160648845Y-102660209D01*
X160648845Y-102660209D02*
X160601226Y-102612590D01*
X160601226Y-102612590D02*
X160505988Y-102564971D01*
X160505988Y-102564971D02*
X160267893Y-102564971D01*
X160267893Y-102564971D02*
X160172655Y-102612590D01*
X160172655Y-102612590D02*
X160125036Y-102660209D01*
X160125036Y-102660209D02*
X160077417Y-102755447D01*
X160077417Y-102755447D02*
X160077417Y-102993542D01*
X160077417Y-102993542D02*
X160125036Y-103088780D01*
X160125036Y-103088780D02*
X160172655Y-103136400D01*
X160172655Y-103136400D02*
X160267893Y-103184019D01*
X160267893Y-103184019D02*
X160505988Y-103184019D01*
X160505988Y-103184019D02*
X160601226Y-103136400D01*
X160601226Y-103136400D02*
X160648845Y-103088780D01*
X158934560Y-102136400D02*
X159791702Y-103422114D01*
X158125036Y-102184019D02*
X158601226Y-102184019D01*
X158601226Y-102184019D02*
X158648845Y-102660209D01*
X158648845Y-102660209D02*
X158601226Y-102612590D01*
X158601226Y-102612590D02*
X158505988Y-102564971D01*
X158505988Y-102564971D02*
X158267893Y-102564971D01*
X158267893Y-102564971D02*
X158172655Y-102612590D01*
X158172655Y-102612590D02*
X158125036Y-102660209D01*
X158125036Y-102660209D02*
X158077417Y-102755447D01*
X158077417Y-102755447D02*
X158077417Y-102993542D01*
X158077417Y-102993542D02*
X158125036Y-103088780D01*
X158125036Y-103088780D02*
X158172655Y-103136400D01*
X158172655Y-103136400D02*
X158267893Y-103184019D01*
X158267893Y-103184019D02*
X158505988Y-103184019D01*
X158505988Y-103184019D02*
X158601226Y-103136400D01*
X158601226Y-103136400D02*
X158648845Y-103088780D01*
X156934560Y-102136400D02*
X157791702Y-103422114D01*
X156648845Y-102279257D02*
X156601226Y-102231638D01*
X156601226Y-102231638D02*
X156505988Y-102184019D01*
X156505988Y-102184019D02*
X156267893Y-102184019D01*
X156267893Y-102184019D02*
X156172655Y-102231638D01*
X156172655Y-102231638D02*
X156125036Y-102279257D01*
X156125036Y-102279257D02*
X156077417Y-102374495D01*
X156077417Y-102374495D02*
X156077417Y-102469733D01*
X156077417Y-102469733D02*
X156125036Y-102612590D01*
X156125036Y-102612590D02*
X156696464Y-103184019D01*
X156696464Y-103184019D02*
X156077417Y-103184019D01*
X155220274Y-102184019D02*
X155410750Y-102184019D01*
X155410750Y-102184019D02*
X155505988Y-102231638D01*
X155505988Y-102231638D02*
X155553607Y-102279257D01*
X155553607Y-102279257D02*
X155648845Y-102422114D01*
X155648845Y-102422114D02*
X155696464Y-102612590D01*
X155696464Y-102612590D02*
X155696464Y-102993542D01*
X155696464Y-102993542D02*
X155648845Y-103088780D01*
X155648845Y-103088780D02*
X155601226Y-103136400D01*
X155601226Y-103136400D02*
X155505988Y-103184019D01*
X155505988Y-103184019D02*
X155315512Y-103184019D01*
X155315512Y-103184019D02*
X155220274Y-103136400D01*
X155220274Y-103136400D02*
X155172655Y-103088780D01*
X155172655Y-103088780D02*
X155125036Y-102993542D01*
X155125036Y-102993542D02*
X155125036Y-102755447D01*
X155125036Y-102755447D02*
X155172655Y-102660209D01*
X155172655Y-102660209D02*
X155220274Y-102612590D01*
X155220274Y-102612590D02*
X155315512Y-102564971D01*
X155315512Y-102564971D02*
X155505988Y-102564971D01*
X155505988Y-102564971D02*
X155601226Y-102612590D01*
X155601226Y-102612590D02*
X155648845Y-102660209D01*
X155648845Y-102660209D02*
X155696464Y-102755447D01*
M02*
