%TF.GenerationSoftware,KiCad,Pcbnew,10.0.1*%
%TF.CreationDate,2026-05-05T12:30:37-06:00*%
%TF.ProjectId,2026_12_2Wheel_Balance_Robot_v1,32303236-5f31-4325-9f32-576865656c5f,rev?*%
%TF.SameCoordinates,Original*%
%TF.FileFunction,Legend,Top*%
%TF.FilePolarity,Positive*%
%FSLAX46Y46*%
G04 Gerber Fmt 4.6, Leading zero omitted, Abs format (unit mm)*
G04 Created by KiCad (PCBNEW 10.0.1) date 2026-05-05 12:30:37*
%MOMM*%
%LPD*%
G01*
G04 APERTURE LIST*
%ADD10C,0.125000*%
%ADD11C,0.150000*%
%ADD12C,0.254000*%
%ADD13C,0.120000*%
%ADD14C,0.127000*%
%ADD15C,0.200000*%
%ADD16C,0.100000*%
%ADD17C,0.000000*%
G04 APERTURE END LIST*
D10*
X102304521Y-108467995D02*
X102799759Y-108467995D01*
X102799759Y-108467995D02*
X102533093Y-108772757D01*
X102533093Y-108772757D02*
X102647378Y-108772757D01*
X102647378Y-108772757D02*
X102723569Y-108810852D01*
X102723569Y-108810852D02*
X102761664Y-108848947D01*
X102761664Y-108848947D02*
X102799759Y-108925138D01*
X102799759Y-108925138D02*
X102799759Y-109115614D01*
X102799759Y-109115614D02*
X102761664Y-109191804D01*
X102761664Y-109191804D02*
X102723569Y-109229900D01*
X102723569Y-109229900D02*
X102647378Y-109267995D01*
X102647378Y-109267995D02*
X102418807Y-109267995D01*
X102418807Y-109267995D02*
X102342616Y-109229900D01*
X102342616Y-109229900D02*
X102304521Y-109191804D01*
X103028331Y-108467995D02*
X103294998Y-109267995D01*
X103294998Y-109267995D02*
X103561664Y-108467995D01*
X103752140Y-108467995D02*
X104247378Y-108467995D01*
X104247378Y-108467995D02*
X103980712Y-108772757D01*
X103980712Y-108772757D02*
X104094997Y-108772757D01*
X104094997Y-108772757D02*
X104171188Y-108810852D01*
X104171188Y-108810852D02*
X104209283Y-108848947D01*
X104209283Y-108848947D02*
X104247378Y-108925138D01*
X104247378Y-108925138D02*
X104247378Y-109115614D01*
X104247378Y-109115614D02*
X104209283Y-109191804D01*
X104209283Y-109191804D02*
X104171188Y-109229900D01*
X104171188Y-109229900D02*
X104094997Y-109267995D01*
X104094997Y-109267995D02*
X103866426Y-109267995D01*
X103866426Y-109267995D02*
X103790235Y-109229900D01*
X103790235Y-109229900D02*
X103752140Y-109191804D01*
D11*
X125580480Y-77483466D02*
X125628100Y-77531085D01*
X125628100Y-77531085D02*
X125675719Y-77673942D01*
X125675719Y-77673942D02*
X125675719Y-77769180D01*
X125675719Y-77769180D02*
X125628100Y-77912037D01*
X125628100Y-77912037D02*
X125532861Y-78007275D01*
X125532861Y-78007275D02*
X125437623Y-78054894D01*
X125437623Y-78054894D02*
X125247147Y-78102513D01*
X125247147Y-78102513D02*
X125104290Y-78102513D01*
X125104290Y-78102513D02*
X124913814Y-78054894D01*
X124913814Y-78054894D02*
X124818576Y-78007275D01*
X124818576Y-78007275D02*
X124723338Y-77912037D01*
X124723338Y-77912037D02*
X124675719Y-77769180D01*
X124675719Y-77769180D02*
X124675719Y-77673942D01*
X124675719Y-77673942D02*
X124723338Y-77531085D01*
X124723338Y-77531085D02*
X124770957Y-77483466D01*
X124675719Y-77150132D02*
X124675719Y-76483466D01*
X124675719Y-76483466D02*
X125675719Y-76912037D01*
X155485933Y-85463480D02*
X155438314Y-85511100D01*
X155438314Y-85511100D02*
X155295457Y-85558719D01*
X155295457Y-85558719D02*
X155200219Y-85558719D01*
X155200219Y-85558719D02*
X155057362Y-85511100D01*
X155057362Y-85511100D02*
X154962124Y-85415861D01*
X154962124Y-85415861D02*
X154914505Y-85320623D01*
X154914505Y-85320623D02*
X154866886Y-85130147D01*
X154866886Y-85130147D02*
X154866886Y-84987290D01*
X154866886Y-84987290D02*
X154914505Y-84796814D01*
X154914505Y-84796814D02*
X154962124Y-84701576D01*
X154962124Y-84701576D02*
X155057362Y-84606338D01*
X155057362Y-84606338D02*
X155200219Y-84558719D01*
X155200219Y-84558719D02*
X155295457Y-84558719D01*
X155295457Y-84558719D02*
X155438314Y-84606338D01*
X155438314Y-84606338D02*
X155485933Y-84653957D01*
X156057362Y-84987290D02*
X155962124Y-84939671D01*
X155962124Y-84939671D02*
X155914505Y-84892052D01*
X155914505Y-84892052D02*
X155866886Y-84796814D01*
X155866886Y-84796814D02*
X155866886Y-84749195D01*
X155866886Y-84749195D02*
X155914505Y-84653957D01*
X155914505Y-84653957D02*
X155962124Y-84606338D01*
X155962124Y-84606338D02*
X156057362Y-84558719D01*
X156057362Y-84558719D02*
X156247838Y-84558719D01*
X156247838Y-84558719D02*
X156343076Y-84606338D01*
X156343076Y-84606338D02*
X156390695Y-84653957D01*
X156390695Y-84653957D02*
X156438314Y-84749195D01*
X156438314Y-84749195D02*
X156438314Y-84796814D01*
X156438314Y-84796814D02*
X156390695Y-84892052D01*
X156390695Y-84892052D02*
X156343076Y-84939671D01*
X156343076Y-84939671D02*
X156247838Y-84987290D01*
X156247838Y-84987290D02*
X156057362Y-84987290D01*
X156057362Y-84987290D02*
X155962124Y-85034909D01*
X155962124Y-85034909D02*
X155914505Y-85082528D01*
X155914505Y-85082528D02*
X155866886Y-85177766D01*
X155866886Y-85177766D02*
X155866886Y-85368242D01*
X155866886Y-85368242D02*
X155914505Y-85463480D01*
X155914505Y-85463480D02*
X155962124Y-85511100D01*
X155962124Y-85511100D02*
X156057362Y-85558719D01*
X156057362Y-85558719D02*
X156247838Y-85558719D01*
X156247838Y-85558719D02*
X156343076Y-85511100D01*
X156343076Y-85511100D02*
X156390695Y-85463480D01*
X156390695Y-85463480D02*
X156438314Y-85368242D01*
X156438314Y-85368242D02*
X156438314Y-85177766D01*
X156438314Y-85177766D02*
X156390695Y-85082528D01*
X156390695Y-85082528D02*
X156343076Y-85034909D01*
X156343076Y-85034909D02*
X156247838Y-84987290D01*
X123304233Y-77426380D02*
X123256614Y-77474000D01*
X123256614Y-77474000D02*
X123113757Y-77521619D01*
X123113757Y-77521619D02*
X123018519Y-77521619D01*
X123018519Y-77521619D02*
X122875662Y-77474000D01*
X122875662Y-77474000D02*
X122780424Y-77378761D01*
X122780424Y-77378761D02*
X122732805Y-77283523D01*
X122732805Y-77283523D02*
X122685186Y-77093047D01*
X122685186Y-77093047D02*
X122685186Y-76950190D01*
X122685186Y-76950190D02*
X122732805Y-76759714D01*
X122732805Y-76759714D02*
X122780424Y-76664476D01*
X122780424Y-76664476D02*
X122875662Y-76569238D01*
X122875662Y-76569238D02*
X123018519Y-76521619D01*
X123018519Y-76521619D02*
X123113757Y-76521619D01*
X123113757Y-76521619D02*
X123256614Y-76569238D01*
X123256614Y-76569238D02*
X123304233Y-76616857D01*
X123685186Y-76616857D02*
X123732805Y-76569238D01*
X123732805Y-76569238D02*
X123828043Y-76521619D01*
X123828043Y-76521619D02*
X124066138Y-76521619D01*
X124066138Y-76521619D02*
X124161376Y-76569238D01*
X124161376Y-76569238D02*
X124208995Y-76616857D01*
X124208995Y-76616857D02*
X124256614Y-76712095D01*
X124256614Y-76712095D02*
X124256614Y-76807333D01*
X124256614Y-76807333D02*
X124208995Y-76950190D01*
X124208995Y-76950190D02*
X123637567Y-77521619D01*
X123637567Y-77521619D02*
X124256614Y-77521619D01*
X106518166Y-82100009D02*
X106184833Y-82100009D01*
X106184833Y-82623819D02*
X106184833Y-81623819D01*
X106184833Y-81623819D02*
X106661023Y-81623819D01*
X107565785Y-82623819D02*
X106994357Y-82623819D01*
X107280071Y-82623819D02*
X107280071Y-81623819D01*
X107280071Y-81623819D02*
X107184833Y-81766676D01*
X107184833Y-81766676D02*
X107089595Y-81861914D01*
X107089595Y-81861914D02*
X106994357Y-81909533D01*
X110875833Y-84249419D02*
X110542500Y-83773228D01*
X110304405Y-84249419D02*
X110304405Y-83249419D01*
X110304405Y-83249419D02*
X110685357Y-83249419D01*
X110685357Y-83249419D02*
X110780595Y-83297038D01*
X110780595Y-83297038D02*
X110828214Y-83344657D01*
X110828214Y-83344657D02*
X110875833Y-83439895D01*
X110875833Y-83439895D02*
X110875833Y-83582752D01*
X110875833Y-83582752D02*
X110828214Y-83677990D01*
X110828214Y-83677990D02*
X110780595Y-83725609D01*
X110780595Y-83725609D02*
X110685357Y-83773228D01*
X110685357Y-83773228D02*
X110304405Y-83773228D01*
X111828214Y-84249419D02*
X111256786Y-84249419D01*
X111542500Y-84249419D02*
X111542500Y-83249419D01*
X111542500Y-83249419D02*
X111447262Y-83392276D01*
X111447262Y-83392276D02*
X111352024Y-83487514D01*
X111352024Y-83487514D02*
X111256786Y-83535133D01*
X114458995Y-88021619D02*
X114458995Y-88831142D01*
X114458995Y-88831142D02*
X114506614Y-88926380D01*
X114506614Y-88926380D02*
X114554233Y-88974000D01*
X114554233Y-88974000D02*
X114649471Y-89021619D01*
X114649471Y-89021619D02*
X114839947Y-89021619D01*
X114839947Y-89021619D02*
X114935185Y-88974000D01*
X114935185Y-88974000D02*
X114982804Y-88926380D01*
X114982804Y-88926380D02*
X115030423Y-88831142D01*
X115030423Y-88831142D02*
X115030423Y-88021619D01*
X115982804Y-88021619D02*
X115506614Y-88021619D01*
X115506614Y-88021619D02*
X115458995Y-88497809D01*
X115458995Y-88497809D02*
X115506614Y-88450190D01*
X115506614Y-88450190D02*
X115601852Y-88402571D01*
X115601852Y-88402571D02*
X115839947Y-88402571D01*
X115839947Y-88402571D02*
X115935185Y-88450190D01*
X115935185Y-88450190D02*
X115982804Y-88497809D01*
X115982804Y-88497809D02*
X116030423Y-88593047D01*
X116030423Y-88593047D02*
X116030423Y-88831142D01*
X116030423Y-88831142D02*
X115982804Y-88926380D01*
X115982804Y-88926380D02*
X115935185Y-88974000D01*
X115935185Y-88974000D02*
X115839947Y-89021619D01*
X115839947Y-89021619D02*
X115601852Y-89021619D01*
X115601852Y-89021619D02*
X115506614Y-88974000D01*
X115506614Y-88974000D02*
X115458995Y-88926380D01*
X132251595Y-62408119D02*
X132251595Y-63217642D01*
X132251595Y-63217642D02*
X132299214Y-63312880D01*
X132299214Y-63312880D02*
X132346833Y-63360500D01*
X132346833Y-63360500D02*
X132442071Y-63408119D01*
X132442071Y-63408119D02*
X132632547Y-63408119D01*
X132632547Y-63408119D02*
X132727785Y-63360500D01*
X132727785Y-63360500D02*
X132775404Y-63312880D01*
X132775404Y-63312880D02*
X132823023Y-63217642D01*
X132823023Y-63217642D02*
X132823023Y-62408119D01*
X133203976Y-62408119D02*
X133823023Y-62408119D01*
X133823023Y-62408119D02*
X133489690Y-62789071D01*
X133489690Y-62789071D02*
X133632547Y-62789071D01*
X133632547Y-62789071D02*
X133727785Y-62836690D01*
X133727785Y-62836690D02*
X133775404Y-62884309D01*
X133775404Y-62884309D02*
X133823023Y-62979547D01*
X133823023Y-62979547D02*
X133823023Y-63217642D01*
X133823023Y-63217642D02*
X133775404Y-63312880D01*
X133775404Y-63312880D02*
X133727785Y-63360500D01*
X133727785Y-63360500D02*
X133632547Y-63408119D01*
X133632547Y-63408119D02*
X133346833Y-63408119D01*
X133346833Y-63408119D02*
X133251595Y-63360500D01*
X133251595Y-63360500D02*
X133203976Y-63312880D01*
X125049395Y-105717800D02*
X125192252Y-105765419D01*
X125192252Y-105765419D02*
X125430347Y-105765419D01*
X125430347Y-105765419D02*
X125525585Y-105717800D01*
X125525585Y-105717800D02*
X125573204Y-105670180D01*
X125573204Y-105670180D02*
X125620823Y-105574942D01*
X125620823Y-105574942D02*
X125620823Y-105479704D01*
X125620823Y-105479704D02*
X125573204Y-105384466D01*
X125573204Y-105384466D02*
X125525585Y-105336847D01*
X125525585Y-105336847D02*
X125430347Y-105289228D01*
X125430347Y-105289228D02*
X125239871Y-105241609D01*
X125239871Y-105241609D02*
X125144633Y-105193990D01*
X125144633Y-105193990D02*
X125097014Y-105146371D01*
X125097014Y-105146371D02*
X125049395Y-105051133D01*
X125049395Y-105051133D02*
X125049395Y-104955895D01*
X125049395Y-104955895D02*
X125097014Y-104860657D01*
X125097014Y-104860657D02*
X125144633Y-104813038D01*
X125144633Y-104813038D02*
X125239871Y-104765419D01*
X125239871Y-104765419D02*
X125477966Y-104765419D01*
X125477966Y-104765419D02*
X125620823Y-104813038D01*
X126477966Y-105098752D02*
X126477966Y-105765419D01*
X126239871Y-104717800D02*
X126001776Y-105432085D01*
X126001776Y-105432085D02*
X126620823Y-105432085D01*
X132276995Y-71247319D02*
X132276995Y-72056842D01*
X132276995Y-72056842D02*
X132324614Y-72152080D01*
X132324614Y-72152080D02*
X132372233Y-72199700D01*
X132372233Y-72199700D02*
X132467471Y-72247319D01*
X132467471Y-72247319D02*
X132657947Y-72247319D01*
X132657947Y-72247319D02*
X132753185Y-72199700D01*
X132753185Y-72199700D02*
X132800804Y-72152080D01*
X132800804Y-72152080D02*
X132848423Y-72056842D01*
X132848423Y-72056842D02*
X132848423Y-71247319D01*
X133753185Y-71247319D02*
X133562709Y-71247319D01*
X133562709Y-71247319D02*
X133467471Y-71294938D01*
X133467471Y-71294938D02*
X133419852Y-71342557D01*
X133419852Y-71342557D02*
X133324614Y-71485414D01*
X133324614Y-71485414D02*
X133276995Y-71675890D01*
X133276995Y-71675890D02*
X133276995Y-72056842D01*
X133276995Y-72056842D02*
X133324614Y-72152080D01*
X133324614Y-72152080D02*
X133372233Y-72199700D01*
X133372233Y-72199700D02*
X133467471Y-72247319D01*
X133467471Y-72247319D02*
X133657947Y-72247319D01*
X133657947Y-72247319D02*
X133753185Y-72199700D01*
X133753185Y-72199700D02*
X133800804Y-72152080D01*
X133800804Y-72152080D02*
X133848423Y-72056842D01*
X133848423Y-72056842D02*
X133848423Y-71818747D01*
X133848423Y-71818747D02*
X133800804Y-71723509D01*
X133800804Y-71723509D02*
X133753185Y-71675890D01*
X133753185Y-71675890D02*
X133657947Y-71628271D01*
X133657947Y-71628271D02*
X133467471Y-71628271D01*
X133467471Y-71628271D02*
X133372233Y-71675890D01*
X133372233Y-71675890D02*
X133324614Y-71723509D01*
X133324614Y-71723509D02*
X133276995Y-71818747D01*
X129265433Y-76832619D02*
X128932100Y-76356428D01*
X128694005Y-76832619D02*
X128694005Y-75832619D01*
X128694005Y-75832619D02*
X129074957Y-75832619D01*
X129074957Y-75832619D02*
X129170195Y-75880238D01*
X129170195Y-75880238D02*
X129217814Y-75927857D01*
X129217814Y-75927857D02*
X129265433Y-76023095D01*
X129265433Y-76023095D02*
X129265433Y-76165952D01*
X129265433Y-76165952D02*
X129217814Y-76261190D01*
X129217814Y-76261190D02*
X129170195Y-76308809D01*
X129170195Y-76308809D02*
X129074957Y-76356428D01*
X129074957Y-76356428D02*
X128694005Y-76356428D01*
X129741624Y-76832619D02*
X129932100Y-76832619D01*
X129932100Y-76832619D02*
X130027338Y-76785000D01*
X130027338Y-76785000D02*
X130074957Y-76737380D01*
X130074957Y-76737380D02*
X130170195Y-76594523D01*
X130170195Y-76594523D02*
X130217814Y-76404047D01*
X130217814Y-76404047D02*
X130217814Y-76023095D01*
X130217814Y-76023095D02*
X130170195Y-75927857D01*
X130170195Y-75927857D02*
X130122576Y-75880238D01*
X130122576Y-75880238D02*
X130027338Y-75832619D01*
X130027338Y-75832619D02*
X129836862Y-75832619D01*
X129836862Y-75832619D02*
X129741624Y-75880238D01*
X129741624Y-75880238D02*
X129694005Y-75927857D01*
X129694005Y-75927857D02*
X129646386Y-76023095D01*
X129646386Y-76023095D02*
X129646386Y-76261190D01*
X129646386Y-76261190D02*
X129694005Y-76356428D01*
X129694005Y-76356428D02*
X129741624Y-76404047D01*
X129741624Y-76404047D02*
X129836862Y-76451666D01*
X129836862Y-76451666D02*
X130027338Y-76451666D01*
X130027338Y-76451666D02*
X130122576Y-76404047D01*
X130122576Y-76404047D02*
X130170195Y-76356428D01*
X130170195Y-76356428D02*
X130217814Y-76261190D01*
X110137566Y-72021619D02*
X110137566Y-72735904D01*
X110137566Y-72735904D02*
X110089947Y-72878761D01*
X110089947Y-72878761D02*
X109994709Y-72974000D01*
X109994709Y-72974000D02*
X109851852Y-73021619D01*
X109851852Y-73021619D02*
X109756614Y-73021619D01*
X111042328Y-72354952D02*
X111042328Y-73021619D01*
X110804233Y-71974000D02*
X110566138Y-72688285D01*
X110566138Y-72688285D02*
X111185185Y-72688285D01*
X114054233Y-93571219D02*
X113720900Y-93095028D01*
X113482805Y-93571219D02*
X113482805Y-92571219D01*
X113482805Y-92571219D02*
X113863757Y-92571219D01*
X113863757Y-92571219D02*
X113958995Y-92618838D01*
X113958995Y-92618838D02*
X114006614Y-92666457D01*
X114006614Y-92666457D02*
X114054233Y-92761695D01*
X114054233Y-92761695D02*
X114054233Y-92904552D01*
X114054233Y-92904552D02*
X114006614Y-92999790D01*
X114006614Y-92999790D02*
X113958995Y-93047409D01*
X113958995Y-93047409D02*
X113863757Y-93095028D01*
X113863757Y-93095028D02*
X113482805Y-93095028D01*
X114625662Y-92999790D02*
X114530424Y-92952171D01*
X114530424Y-92952171D02*
X114482805Y-92904552D01*
X114482805Y-92904552D02*
X114435186Y-92809314D01*
X114435186Y-92809314D02*
X114435186Y-92761695D01*
X114435186Y-92761695D02*
X114482805Y-92666457D01*
X114482805Y-92666457D02*
X114530424Y-92618838D01*
X114530424Y-92618838D02*
X114625662Y-92571219D01*
X114625662Y-92571219D02*
X114816138Y-92571219D01*
X114816138Y-92571219D02*
X114911376Y-92618838D01*
X114911376Y-92618838D02*
X114958995Y-92666457D01*
X114958995Y-92666457D02*
X115006614Y-92761695D01*
X115006614Y-92761695D02*
X115006614Y-92809314D01*
X115006614Y-92809314D02*
X114958995Y-92904552D01*
X114958995Y-92904552D02*
X114911376Y-92952171D01*
X114911376Y-92952171D02*
X114816138Y-92999790D01*
X114816138Y-92999790D02*
X114625662Y-92999790D01*
X114625662Y-92999790D02*
X114530424Y-93047409D01*
X114530424Y-93047409D02*
X114482805Y-93095028D01*
X114482805Y-93095028D02*
X114435186Y-93190266D01*
X114435186Y-93190266D02*
X114435186Y-93380742D01*
X114435186Y-93380742D02*
X114482805Y-93475980D01*
X114482805Y-93475980D02*
X114530424Y-93523600D01*
X114530424Y-93523600D02*
X114625662Y-93571219D01*
X114625662Y-93571219D02*
X114816138Y-93571219D01*
X114816138Y-93571219D02*
X114911376Y-93523600D01*
X114911376Y-93523600D02*
X114958995Y-93475980D01*
X114958995Y-93475980D02*
X115006614Y-93380742D01*
X115006614Y-93380742D02*
X115006614Y-93190266D01*
X115006614Y-93190266D02*
X114958995Y-93095028D01*
X114958995Y-93095028D02*
X114911376Y-93047409D01*
X114911376Y-93047409D02*
X114816138Y-92999790D01*
X148208995Y-78346619D02*
X148208995Y-79156142D01*
X148208995Y-79156142D02*
X148256614Y-79251380D01*
X148256614Y-79251380D02*
X148304233Y-79299000D01*
X148304233Y-79299000D02*
X148399471Y-79346619D01*
X148399471Y-79346619D02*
X148589947Y-79346619D01*
X148589947Y-79346619D02*
X148685185Y-79299000D01*
X148685185Y-79299000D02*
X148732804Y-79251380D01*
X148732804Y-79251380D02*
X148780423Y-79156142D01*
X148780423Y-79156142D02*
X148780423Y-78346619D01*
X149208995Y-78441857D02*
X149256614Y-78394238D01*
X149256614Y-78394238D02*
X149351852Y-78346619D01*
X149351852Y-78346619D02*
X149589947Y-78346619D01*
X149589947Y-78346619D02*
X149685185Y-78394238D01*
X149685185Y-78394238D02*
X149732804Y-78441857D01*
X149732804Y-78441857D02*
X149780423Y-78537095D01*
X149780423Y-78537095D02*
X149780423Y-78632333D01*
X149780423Y-78632333D02*
X149732804Y-78775190D01*
X149732804Y-78775190D02*
X149161376Y-79346619D01*
X149161376Y-79346619D02*
X149780423Y-79346619D01*
X157757405Y-68148419D02*
X157757405Y-67148419D01*
X157757405Y-67148419D02*
X157995500Y-67148419D01*
X157995500Y-67148419D02*
X158138357Y-67196038D01*
X158138357Y-67196038D02*
X158233595Y-67291276D01*
X158233595Y-67291276D02*
X158281214Y-67386514D01*
X158281214Y-67386514D02*
X158328833Y-67576990D01*
X158328833Y-67576990D02*
X158328833Y-67719847D01*
X158328833Y-67719847D02*
X158281214Y-67910323D01*
X158281214Y-67910323D02*
X158233595Y-68005561D01*
X158233595Y-68005561D02*
X158138357Y-68100800D01*
X158138357Y-68100800D02*
X157995500Y-68148419D01*
X157995500Y-68148419D02*
X157757405Y-68148419D01*
X159281214Y-68148419D02*
X158709786Y-68148419D01*
X158995500Y-68148419D02*
X158995500Y-67148419D01*
X158995500Y-67148419D02*
X158900262Y-67291276D01*
X158900262Y-67291276D02*
X158805024Y-67386514D01*
X158805024Y-67386514D02*
X158709786Y-67434133D01*
X159130528Y-70506304D02*
X159587671Y-70506304D01*
X159359099Y-70506304D02*
X159359099Y-71306304D01*
X159359099Y-71306304D02*
X159435290Y-71192019D01*
X159435290Y-71192019D02*
X159511480Y-71115828D01*
X159511480Y-71115828D02*
X159587671Y-71077733D01*
X135621842Y-67821980D02*
X135574223Y-67869600D01*
X135574223Y-67869600D02*
X135431366Y-67917219D01*
X135431366Y-67917219D02*
X135336128Y-67917219D01*
X135336128Y-67917219D02*
X135193271Y-67869600D01*
X135193271Y-67869600D02*
X135098033Y-67774361D01*
X135098033Y-67774361D02*
X135050414Y-67679123D01*
X135050414Y-67679123D02*
X135002795Y-67488647D01*
X135002795Y-67488647D02*
X135002795Y-67345790D01*
X135002795Y-67345790D02*
X135050414Y-67155314D01*
X135050414Y-67155314D02*
X135098033Y-67060076D01*
X135098033Y-67060076D02*
X135193271Y-66964838D01*
X135193271Y-66964838D02*
X135336128Y-66917219D01*
X135336128Y-66917219D02*
X135431366Y-66917219D01*
X135431366Y-66917219D02*
X135574223Y-66964838D01*
X135574223Y-66964838D02*
X135621842Y-67012457D01*
X136574223Y-67917219D02*
X136002795Y-67917219D01*
X136288509Y-67917219D02*
X136288509Y-66917219D01*
X136288509Y-66917219D02*
X136193271Y-67060076D01*
X136193271Y-67060076D02*
X136098033Y-67155314D01*
X136098033Y-67155314D02*
X136002795Y-67202933D01*
X136907557Y-66917219D02*
X137526604Y-66917219D01*
X137526604Y-66917219D02*
X137193271Y-67298171D01*
X137193271Y-67298171D02*
X137336128Y-67298171D01*
X137336128Y-67298171D02*
X137431366Y-67345790D01*
X137431366Y-67345790D02*
X137478985Y-67393409D01*
X137478985Y-67393409D02*
X137526604Y-67488647D01*
X137526604Y-67488647D02*
X137526604Y-67726742D01*
X137526604Y-67726742D02*
X137478985Y-67821980D01*
X137478985Y-67821980D02*
X137431366Y-67869600D01*
X137431366Y-67869600D02*
X137336128Y-67917219D01*
X137336128Y-67917219D02*
X137050414Y-67917219D01*
X137050414Y-67917219D02*
X136955176Y-67869600D01*
X136955176Y-67869600D02*
X136907557Y-67821980D01*
D12*
X143677566Y-97580642D02*
X143858995Y-97641118D01*
X143858995Y-97641118D02*
X144161376Y-97641118D01*
X144161376Y-97641118D02*
X144282328Y-97580642D01*
X144282328Y-97580642D02*
X144342804Y-97520165D01*
X144342804Y-97520165D02*
X144403281Y-97399213D01*
X144403281Y-97399213D02*
X144403281Y-97278261D01*
X144403281Y-97278261D02*
X144342804Y-97157308D01*
X144342804Y-97157308D02*
X144282328Y-97096832D01*
X144282328Y-97096832D02*
X144161376Y-97036356D01*
X144161376Y-97036356D02*
X143919471Y-96975880D01*
X143919471Y-96975880D02*
X143798519Y-96915403D01*
X143798519Y-96915403D02*
X143738042Y-96854927D01*
X143738042Y-96854927D02*
X143677566Y-96733975D01*
X143677566Y-96733975D02*
X143677566Y-96613022D01*
X143677566Y-96613022D02*
X143738042Y-96492070D01*
X143738042Y-96492070D02*
X143798519Y-96431594D01*
X143798519Y-96431594D02*
X143919471Y-96371118D01*
X143919471Y-96371118D02*
X144221852Y-96371118D01*
X144221852Y-96371118D02*
X144403281Y-96431594D01*
X144826614Y-96371118D02*
X145128995Y-97641118D01*
X145128995Y-97641118D02*
X145370900Y-96733975D01*
X145370900Y-96733975D02*
X145612805Y-97641118D01*
X145612805Y-97641118D02*
X145915186Y-96371118D01*
X146338519Y-96492070D02*
X146398995Y-96431594D01*
X146398995Y-96431594D02*
X146519948Y-96371118D01*
X146519948Y-96371118D02*
X146822329Y-96371118D01*
X146822329Y-96371118D02*
X146943281Y-96431594D01*
X146943281Y-96431594D02*
X147003757Y-96492070D01*
X147003757Y-96492070D02*
X147064234Y-96613022D01*
X147064234Y-96613022D02*
X147064234Y-96733975D01*
X147064234Y-96733975D02*
X147003757Y-96915403D01*
X147003757Y-96915403D02*
X146278043Y-97641118D01*
X146278043Y-97641118D02*
X147064234Y-97641118D01*
D11*
X128659395Y-87289219D02*
X128659395Y-88098742D01*
X128659395Y-88098742D02*
X128707014Y-88193980D01*
X128707014Y-88193980D02*
X128754633Y-88241600D01*
X128754633Y-88241600D02*
X128849871Y-88289219D01*
X128849871Y-88289219D02*
X129040347Y-88289219D01*
X129040347Y-88289219D02*
X129135585Y-88241600D01*
X129135585Y-88241600D02*
X129183204Y-88193980D01*
X129183204Y-88193980D02*
X129230823Y-88098742D01*
X129230823Y-88098742D02*
X129230823Y-87289219D01*
X130230823Y-88289219D02*
X129659395Y-88289219D01*
X129945109Y-88289219D02*
X129945109Y-87289219D01*
X129945109Y-87289219D02*
X129849871Y-87432076D01*
X129849871Y-87432076D02*
X129754633Y-87527314D01*
X129754633Y-87527314D02*
X129659395Y-87574933D01*
X141054233Y-80176380D02*
X141006614Y-80224000D01*
X141006614Y-80224000D02*
X140863757Y-80271619D01*
X140863757Y-80271619D02*
X140768519Y-80271619D01*
X140768519Y-80271619D02*
X140625662Y-80224000D01*
X140625662Y-80224000D02*
X140530424Y-80128761D01*
X140530424Y-80128761D02*
X140482805Y-80033523D01*
X140482805Y-80033523D02*
X140435186Y-79843047D01*
X140435186Y-79843047D02*
X140435186Y-79700190D01*
X140435186Y-79700190D02*
X140482805Y-79509714D01*
X140482805Y-79509714D02*
X140530424Y-79414476D01*
X140530424Y-79414476D02*
X140625662Y-79319238D01*
X140625662Y-79319238D02*
X140768519Y-79271619D01*
X140768519Y-79271619D02*
X140863757Y-79271619D01*
X140863757Y-79271619D02*
X141006614Y-79319238D01*
X141006614Y-79319238D02*
X141054233Y-79366857D01*
X141387567Y-79271619D02*
X142006614Y-79271619D01*
X142006614Y-79271619D02*
X141673281Y-79652571D01*
X141673281Y-79652571D02*
X141816138Y-79652571D01*
X141816138Y-79652571D02*
X141911376Y-79700190D01*
X141911376Y-79700190D02*
X141958995Y-79747809D01*
X141958995Y-79747809D02*
X142006614Y-79843047D01*
X142006614Y-79843047D02*
X142006614Y-80081142D01*
X142006614Y-80081142D02*
X141958995Y-80176380D01*
X141958995Y-80176380D02*
X141911376Y-80224000D01*
X141911376Y-80224000D02*
X141816138Y-80271619D01*
X141816138Y-80271619D02*
X141530424Y-80271619D01*
X141530424Y-80271619D02*
X141435186Y-80224000D01*
X141435186Y-80224000D02*
X141387567Y-80176380D01*
X123740119Y-71858094D02*
X122740119Y-71858094D01*
X122740119Y-71858094D02*
X122740119Y-71619999D01*
X122740119Y-71619999D02*
X122787738Y-71477142D01*
X122787738Y-71477142D02*
X122882976Y-71381904D01*
X122882976Y-71381904D02*
X122978214Y-71334285D01*
X122978214Y-71334285D02*
X123168690Y-71286666D01*
X123168690Y-71286666D02*
X123311547Y-71286666D01*
X123311547Y-71286666D02*
X123502023Y-71334285D01*
X123502023Y-71334285D02*
X123597261Y-71381904D01*
X123597261Y-71381904D02*
X123692500Y-71477142D01*
X123692500Y-71477142D02*
X123740119Y-71619999D01*
X123740119Y-71619999D02*
X123740119Y-71858094D01*
X122740119Y-70953332D02*
X122740119Y-70334285D01*
X122740119Y-70334285D02*
X123121071Y-70667618D01*
X123121071Y-70667618D02*
X123121071Y-70524761D01*
X123121071Y-70524761D02*
X123168690Y-70429523D01*
X123168690Y-70429523D02*
X123216309Y-70381904D01*
X123216309Y-70381904D02*
X123311547Y-70334285D01*
X123311547Y-70334285D02*
X123549642Y-70334285D01*
X123549642Y-70334285D02*
X123644880Y-70381904D01*
X123644880Y-70381904D02*
X123692500Y-70429523D01*
X123692500Y-70429523D02*
X123740119Y-70524761D01*
X123740119Y-70524761D02*
X123740119Y-70810475D01*
X123740119Y-70810475D02*
X123692500Y-70905713D01*
X123692500Y-70905713D02*
X123644880Y-70953332D01*
X146449528Y-92042990D02*
X146925719Y-92042990D01*
X145925719Y-92376323D02*
X146449528Y-92042990D01*
X146449528Y-92042990D02*
X145925719Y-91709657D01*
X145925719Y-91471561D02*
X145925719Y-90852514D01*
X145925719Y-90852514D02*
X146306671Y-91185847D01*
X146306671Y-91185847D02*
X146306671Y-91042990D01*
X146306671Y-91042990D02*
X146354290Y-90947752D01*
X146354290Y-90947752D02*
X146401909Y-90900133D01*
X146401909Y-90900133D02*
X146497147Y-90852514D01*
X146497147Y-90852514D02*
X146735242Y-90852514D01*
X146735242Y-90852514D02*
X146830480Y-90900133D01*
X146830480Y-90900133D02*
X146878100Y-90947752D01*
X146878100Y-90947752D02*
X146925719Y-91042990D01*
X146925719Y-91042990D02*
X146925719Y-91328704D01*
X146925719Y-91328704D02*
X146878100Y-91423942D01*
X146878100Y-91423942D02*
X146830480Y-91471561D01*
X143406080Y-64883357D02*
X143453700Y-64930976D01*
X143453700Y-64930976D02*
X143501319Y-65073833D01*
X143501319Y-65073833D02*
X143501319Y-65169071D01*
X143501319Y-65169071D02*
X143453700Y-65311928D01*
X143453700Y-65311928D02*
X143358461Y-65407166D01*
X143358461Y-65407166D02*
X143263223Y-65454785D01*
X143263223Y-65454785D02*
X143072747Y-65502404D01*
X143072747Y-65502404D02*
X142929890Y-65502404D01*
X142929890Y-65502404D02*
X142739414Y-65454785D01*
X142739414Y-65454785D02*
X142644176Y-65407166D01*
X142644176Y-65407166D02*
X142548938Y-65311928D01*
X142548938Y-65311928D02*
X142501319Y-65169071D01*
X142501319Y-65169071D02*
X142501319Y-65073833D01*
X142501319Y-65073833D02*
X142548938Y-64930976D01*
X142548938Y-64930976D02*
X142596557Y-64883357D01*
X142596557Y-64502404D02*
X142548938Y-64454785D01*
X142548938Y-64454785D02*
X142501319Y-64359547D01*
X142501319Y-64359547D02*
X142501319Y-64121452D01*
X142501319Y-64121452D02*
X142548938Y-64026214D01*
X142548938Y-64026214D02*
X142596557Y-63978595D01*
X142596557Y-63978595D02*
X142691795Y-63930976D01*
X142691795Y-63930976D02*
X142787033Y-63930976D01*
X142787033Y-63930976D02*
X142929890Y-63978595D01*
X142929890Y-63978595D02*
X143501319Y-64550023D01*
X143501319Y-64550023D02*
X143501319Y-63930976D01*
X142596557Y-63550023D02*
X142548938Y-63502404D01*
X142548938Y-63502404D02*
X142501319Y-63407166D01*
X142501319Y-63407166D02*
X142501319Y-63169071D01*
X142501319Y-63169071D02*
X142548938Y-63073833D01*
X142548938Y-63073833D02*
X142596557Y-63026214D01*
X142596557Y-63026214D02*
X142691795Y-62978595D01*
X142691795Y-62978595D02*
X142787033Y-62978595D01*
X142787033Y-62978595D02*
X142929890Y-63026214D01*
X142929890Y-63026214D02*
X143501319Y-63597642D01*
X143501319Y-63597642D02*
X143501319Y-62978595D01*
X160137566Y-62271619D02*
X160137566Y-62985904D01*
X160137566Y-62985904D02*
X160089947Y-63128761D01*
X160089947Y-63128761D02*
X159994709Y-63224000D01*
X159994709Y-63224000D02*
X159851852Y-63271619D01*
X159851852Y-63271619D02*
X159756614Y-63271619D01*
X160518519Y-62271619D02*
X161185185Y-62271619D01*
X161185185Y-62271619D02*
X160756614Y-63271619D01*
X125671405Y-58671619D02*
X125671405Y-57671619D01*
X125671405Y-57671619D02*
X125909500Y-57671619D01*
X125909500Y-57671619D02*
X126052357Y-57719238D01*
X126052357Y-57719238D02*
X126147595Y-57814476D01*
X126147595Y-57814476D02*
X126195214Y-57909714D01*
X126195214Y-57909714D02*
X126242833Y-58100190D01*
X126242833Y-58100190D02*
X126242833Y-58243047D01*
X126242833Y-58243047D02*
X126195214Y-58433523D01*
X126195214Y-58433523D02*
X126147595Y-58528761D01*
X126147595Y-58528761D02*
X126052357Y-58624000D01*
X126052357Y-58624000D02*
X125909500Y-58671619D01*
X125909500Y-58671619D02*
X125671405Y-58671619D01*
X127147595Y-57671619D02*
X126671405Y-57671619D01*
X126671405Y-57671619D02*
X126623786Y-58147809D01*
X126623786Y-58147809D02*
X126671405Y-58100190D01*
X126671405Y-58100190D02*
X126766643Y-58052571D01*
X126766643Y-58052571D02*
X127004738Y-58052571D01*
X127004738Y-58052571D02*
X127099976Y-58100190D01*
X127099976Y-58100190D02*
X127147595Y-58147809D01*
X127147595Y-58147809D02*
X127195214Y-58243047D01*
X127195214Y-58243047D02*
X127195214Y-58481142D01*
X127195214Y-58481142D02*
X127147595Y-58576380D01*
X127147595Y-58576380D02*
X127099976Y-58624000D01*
X127099976Y-58624000D02*
X127004738Y-58671619D01*
X127004738Y-58671619D02*
X126766643Y-58671619D01*
X126766643Y-58671619D02*
X126671405Y-58624000D01*
X126671405Y-58624000D02*
X126623786Y-58576380D01*
X130063633Y-99231419D02*
X129730300Y-98755228D01*
X129492205Y-99231419D02*
X129492205Y-98231419D01*
X129492205Y-98231419D02*
X129873157Y-98231419D01*
X129873157Y-98231419D02*
X129968395Y-98279038D01*
X129968395Y-98279038D02*
X130016014Y-98326657D01*
X130016014Y-98326657D02*
X130063633Y-98421895D01*
X130063633Y-98421895D02*
X130063633Y-98564752D01*
X130063633Y-98564752D02*
X130016014Y-98659990D01*
X130016014Y-98659990D02*
X129968395Y-98707609D01*
X129968395Y-98707609D02*
X129873157Y-98755228D01*
X129873157Y-98755228D02*
X129492205Y-98755228D01*
X130444586Y-98326657D02*
X130492205Y-98279038D01*
X130492205Y-98279038D02*
X130587443Y-98231419D01*
X130587443Y-98231419D02*
X130825538Y-98231419D01*
X130825538Y-98231419D02*
X130920776Y-98279038D01*
X130920776Y-98279038D02*
X130968395Y-98326657D01*
X130968395Y-98326657D02*
X131016014Y-98421895D01*
X131016014Y-98421895D02*
X131016014Y-98517133D01*
X131016014Y-98517133D02*
X130968395Y-98659990D01*
X130968395Y-98659990D02*
X130396967Y-99231419D01*
X130396967Y-99231419D02*
X131016014Y-99231419D01*
X105887566Y-107271619D02*
X105887566Y-107985904D01*
X105887566Y-107985904D02*
X105839947Y-108128761D01*
X105839947Y-108128761D02*
X105744709Y-108224000D01*
X105744709Y-108224000D02*
X105601852Y-108271619D01*
X105601852Y-108271619D02*
X105506614Y-108271619D01*
X106887566Y-108271619D02*
X106316138Y-108271619D01*
X106601852Y-108271619D02*
X106601852Y-107271619D01*
X106601852Y-107271619D02*
X106506614Y-107414476D01*
X106506614Y-107414476D02*
X106411376Y-107509714D01*
X106411376Y-107509714D02*
X106316138Y-107557333D01*
X127931119Y-67216257D02*
X127454928Y-67549590D01*
X127931119Y-67787685D02*
X126931119Y-67787685D01*
X126931119Y-67787685D02*
X126931119Y-67406733D01*
X126931119Y-67406733D02*
X126978738Y-67311495D01*
X126978738Y-67311495D02*
X127026357Y-67263876D01*
X127026357Y-67263876D02*
X127121595Y-67216257D01*
X127121595Y-67216257D02*
X127264452Y-67216257D01*
X127264452Y-67216257D02*
X127359690Y-67263876D01*
X127359690Y-67263876D02*
X127407309Y-67311495D01*
X127407309Y-67311495D02*
X127454928Y-67406733D01*
X127454928Y-67406733D02*
X127454928Y-67787685D01*
X127931119Y-66263876D02*
X127931119Y-66835304D01*
X127931119Y-66549590D02*
X126931119Y-66549590D01*
X126931119Y-66549590D02*
X127073976Y-66644828D01*
X127073976Y-66644828D02*
X127169214Y-66740066D01*
X127169214Y-66740066D02*
X127216833Y-66835304D01*
X126931119Y-65644828D02*
X126931119Y-65549590D01*
X126931119Y-65549590D02*
X126978738Y-65454352D01*
X126978738Y-65454352D02*
X127026357Y-65406733D01*
X127026357Y-65406733D02*
X127121595Y-65359114D01*
X127121595Y-65359114D02*
X127312071Y-65311495D01*
X127312071Y-65311495D02*
X127550166Y-65311495D01*
X127550166Y-65311495D02*
X127740642Y-65359114D01*
X127740642Y-65359114D02*
X127835880Y-65406733D01*
X127835880Y-65406733D02*
X127883500Y-65454352D01*
X127883500Y-65454352D02*
X127931119Y-65549590D01*
X127931119Y-65549590D02*
X127931119Y-65644828D01*
X127931119Y-65644828D02*
X127883500Y-65740066D01*
X127883500Y-65740066D02*
X127835880Y-65787685D01*
X127835880Y-65787685D02*
X127740642Y-65835304D01*
X127740642Y-65835304D02*
X127550166Y-65882923D01*
X127550166Y-65882923D02*
X127312071Y-65882923D01*
X127312071Y-65882923D02*
X127121595Y-65835304D01*
X127121595Y-65835304D02*
X127026357Y-65787685D01*
X127026357Y-65787685D02*
X126978738Y-65740066D01*
X126978738Y-65740066D02*
X126931119Y-65644828D01*
X127011133Y-69492019D02*
X126677800Y-69015828D01*
X126439705Y-69492019D02*
X126439705Y-68492019D01*
X126439705Y-68492019D02*
X126820657Y-68492019D01*
X126820657Y-68492019D02*
X126915895Y-68539638D01*
X126915895Y-68539638D02*
X126963514Y-68587257D01*
X126963514Y-68587257D02*
X127011133Y-68682495D01*
X127011133Y-68682495D02*
X127011133Y-68825352D01*
X127011133Y-68825352D02*
X126963514Y-68920590D01*
X126963514Y-68920590D02*
X126915895Y-68968209D01*
X126915895Y-68968209D02*
X126820657Y-69015828D01*
X126820657Y-69015828D02*
X126439705Y-69015828D01*
X127868276Y-68492019D02*
X127677800Y-68492019D01*
X127677800Y-68492019D02*
X127582562Y-68539638D01*
X127582562Y-68539638D02*
X127534943Y-68587257D01*
X127534943Y-68587257D02*
X127439705Y-68730114D01*
X127439705Y-68730114D02*
X127392086Y-68920590D01*
X127392086Y-68920590D02*
X127392086Y-69301542D01*
X127392086Y-69301542D02*
X127439705Y-69396780D01*
X127439705Y-69396780D02*
X127487324Y-69444400D01*
X127487324Y-69444400D02*
X127582562Y-69492019D01*
X127582562Y-69492019D02*
X127773038Y-69492019D01*
X127773038Y-69492019D02*
X127868276Y-69444400D01*
X127868276Y-69444400D02*
X127915895Y-69396780D01*
X127915895Y-69396780D02*
X127963514Y-69301542D01*
X127963514Y-69301542D02*
X127963514Y-69063447D01*
X127963514Y-69063447D02*
X127915895Y-68968209D01*
X127915895Y-68968209D02*
X127868276Y-68920590D01*
X127868276Y-68920590D02*
X127773038Y-68872971D01*
X127773038Y-68872971D02*
X127582562Y-68872971D01*
X127582562Y-68872971D02*
X127487324Y-68920590D01*
X127487324Y-68920590D02*
X127439705Y-68968209D01*
X127439705Y-68968209D02*
X127392086Y-69063447D01*
X120718405Y-73835419D02*
X120718405Y-72835419D01*
X120718405Y-72835419D02*
X120956500Y-72835419D01*
X120956500Y-72835419D02*
X121099357Y-72883038D01*
X121099357Y-72883038D02*
X121194595Y-72978276D01*
X121194595Y-72978276D02*
X121242214Y-73073514D01*
X121242214Y-73073514D02*
X121289833Y-73263990D01*
X121289833Y-73263990D02*
X121289833Y-73406847D01*
X121289833Y-73406847D02*
X121242214Y-73597323D01*
X121242214Y-73597323D02*
X121194595Y-73692561D01*
X121194595Y-73692561D02*
X121099357Y-73787800D01*
X121099357Y-73787800D02*
X120956500Y-73835419D01*
X120956500Y-73835419D02*
X120718405Y-73835419D01*
X122146976Y-73168752D02*
X122146976Y-73835419D01*
X121908881Y-72787800D02*
X121670786Y-73502085D01*
X121670786Y-73502085D02*
X122289833Y-73502085D01*
X148574729Y-71535400D02*
X148717586Y-71583019D01*
X148717586Y-71583019D02*
X148955681Y-71583019D01*
X148955681Y-71583019D02*
X149050919Y-71535400D01*
X149050919Y-71535400D02*
X149098538Y-71487780D01*
X149098538Y-71487780D02*
X149146157Y-71392542D01*
X149146157Y-71392542D02*
X149146157Y-71297304D01*
X149146157Y-71297304D02*
X149098538Y-71202066D01*
X149098538Y-71202066D02*
X149050919Y-71154447D01*
X149050919Y-71154447D02*
X148955681Y-71106828D01*
X148955681Y-71106828D02*
X148765205Y-71059209D01*
X148765205Y-71059209D02*
X148669967Y-71011590D01*
X148669967Y-71011590D02*
X148622348Y-70963971D01*
X148622348Y-70963971D02*
X148574729Y-70868733D01*
X148574729Y-70868733D02*
X148574729Y-70773495D01*
X148574729Y-70773495D02*
X148622348Y-70678257D01*
X148622348Y-70678257D02*
X148669967Y-70630638D01*
X148669967Y-70630638D02*
X148765205Y-70583019D01*
X148765205Y-70583019D02*
X149003300Y-70583019D01*
X149003300Y-70583019D02*
X149146157Y-70630638D01*
X149479491Y-70583019D02*
X150098538Y-70583019D01*
X150098538Y-70583019D02*
X149765205Y-70963971D01*
X149765205Y-70963971D02*
X149908062Y-70963971D01*
X149908062Y-70963971D02*
X150003300Y-71011590D01*
X150003300Y-71011590D02*
X150050919Y-71059209D01*
X150050919Y-71059209D02*
X150098538Y-71154447D01*
X150098538Y-71154447D02*
X150098538Y-71392542D01*
X150098538Y-71392542D02*
X150050919Y-71487780D01*
X150050919Y-71487780D02*
X150003300Y-71535400D01*
X150003300Y-71535400D02*
X149908062Y-71583019D01*
X149908062Y-71583019D02*
X149622348Y-71583019D01*
X149622348Y-71583019D02*
X149527110Y-71535400D01*
X149527110Y-71535400D02*
X149479491Y-71487780D01*
X112590405Y-84392819D02*
X112590405Y-83392819D01*
X112590405Y-83392819D02*
X112828500Y-83392819D01*
X112828500Y-83392819D02*
X112971357Y-83440438D01*
X112971357Y-83440438D02*
X113066595Y-83535676D01*
X113066595Y-83535676D02*
X113114214Y-83630914D01*
X113114214Y-83630914D02*
X113161833Y-83821390D01*
X113161833Y-83821390D02*
X113161833Y-83964247D01*
X113161833Y-83964247D02*
X113114214Y-84154723D01*
X113114214Y-84154723D02*
X113066595Y-84249961D01*
X113066595Y-84249961D02*
X112971357Y-84345200D01*
X112971357Y-84345200D02*
X112828500Y-84392819D01*
X112828500Y-84392819D02*
X112590405Y-84392819D01*
X113542786Y-83488057D02*
X113590405Y-83440438D01*
X113590405Y-83440438D02*
X113685643Y-83392819D01*
X113685643Y-83392819D02*
X113923738Y-83392819D01*
X113923738Y-83392819D02*
X114018976Y-83440438D01*
X114018976Y-83440438D02*
X114066595Y-83488057D01*
X114066595Y-83488057D02*
X114114214Y-83583295D01*
X114114214Y-83583295D02*
X114114214Y-83678533D01*
X114114214Y-83678533D02*
X114066595Y-83821390D01*
X114066595Y-83821390D02*
X113495167Y-84392819D01*
X113495167Y-84392819D02*
X114114214Y-84392819D01*
X137828042Y-76426380D02*
X137780423Y-76474000D01*
X137780423Y-76474000D02*
X137637566Y-76521619D01*
X137637566Y-76521619D02*
X137542328Y-76521619D01*
X137542328Y-76521619D02*
X137399471Y-76474000D01*
X137399471Y-76474000D02*
X137304233Y-76378761D01*
X137304233Y-76378761D02*
X137256614Y-76283523D01*
X137256614Y-76283523D02*
X137208995Y-76093047D01*
X137208995Y-76093047D02*
X137208995Y-75950190D01*
X137208995Y-75950190D02*
X137256614Y-75759714D01*
X137256614Y-75759714D02*
X137304233Y-75664476D01*
X137304233Y-75664476D02*
X137399471Y-75569238D01*
X137399471Y-75569238D02*
X137542328Y-75521619D01*
X137542328Y-75521619D02*
X137637566Y-75521619D01*
X137637566Y-75521619D02*
X137780423Y-75569238D01*
X137780423Y-75569238D02*
X137828042Y-75616857D01*
X138780423Y-76521619D02*
X138208995Y-76521619D01*
X138494709Y-76521619D02*
X138494709Y-75521619D01*
X138494709Y-75521619D02*
X138399471Y-75664476D01*
X138399471Y-75664476D02*
X138304233Y-75759714D01*
X138304233Y-75759714D02*
X138208995Y-75807333D01*
X139637566Y-75854952D02*
X139637566Y-76521619D01*
X139399471Y-75474000D02*
X139161376Y-76188285D01*
X139161376Y-76188285D02*
X139780423Y-76188285D01*
X118054233Y-87771619D02*
X117720900Y-87295428D01*
X117482805Y-87771619D02*
X117482805Y-86771619D01*
X117482805Y-86771619D02*
X117863757Y-86771619D01*
X117863757Y-86771619D02*
X117958995Y-86819238D01*
X117958995Y-86819238D02*
X118006614Y-86866857D01*
X118006614Y-86866857D02*
X118054233Y-86962095D01*
X118054233Y-86962095D02*
X118054233Y-87104952D01*
X118054233Y-87104952D02*
X118006614Y-87200190D01*
X118006614Y-87200190D02*
X117958995Y-87247809D01*
X117958995Y-87247809D02*
X117863757Y-87295428D01*
X117863757Y-87295428D02*
X117482805Y-87295428D01*
X118387567Y-86771619D02*
X119006614Y-86771619D01*
X119006614Y-86771619D02*
X118673281Y-87152571D01*
X118673281Y-87152571D02*
X118816138Y-87152571D01*
X118816138Y-87152571D02*
X118911376Y-87200190D01*
X118911376Y-87200190D02*
X118958995Y-87247809D01*
X118958995Y-87247809D02*
X119006614Y-87343047D01*
X119006614Y-87343047D02*
X119006614Y-87581142D01*
X119006614Y-87581142D02*
X118958995Y-87676380D01*
X118958995Y-87676380D02*
X118911376Y-87724000D01*
X118911376Y-87724000D02*
X118816138Y-87771619D01*
X118816138Y-87771619D02*
X118530424Y-87771619D01*
X118530424Y-87771619D02*
X118435186Y-87724000D01*
X118435186Y-87724000D02*
X118387567Y-87676380D01*
X121078042Y-83426380D02*
X121030423Y-83474000D01*
X121030423Y-83474000D02*
X120887566Y-83521619D01*
X120887566Y-83521619D02*
X120792328Y-83521619D01*
X120792328Y-83521619D02*
X120649471Y-83474000D01*
X120649471Y-83474000D02*
X120554233Y-83378761D01*
X120554233Y-83378761D02*
X120506614Y-83283523D01*
X120506614Y-83283523D02*
X120458995Y-83093047D01*
X120458995Y-83093047D02*
X120458995Y-82950190D01*
X120458995Y-82950190D02*
X120506614Y-82759714D01*
X120506614Y-82759714D02*
X120554233Y-82664476D01*
X120554233Y-82664476D02*
X120649471Y-82569238D01*
X120649471Y-82569238D02*
X120792328Y-82521619D01*
X120792328Y-82521619D02*
X120887566Y-82521619D01*
X120887566Y-82521619D02*
X121030423Y-82569238D01*
X121030423Y-82569238D02*
X121078042Y-82616857D01*
X121458995Y-82616857D02*
X121506614Y-82569238D01*
X121506614Y-82569238D02*
X121601852Y-82521619D01*
X121601852Y-82521619D02*
X121839947Y-82521619D01*
X121839947Y-82521619D02*
X121935185Y-82569238D01*
X121935185Y-82569238D02*
X121982804Y-82616857D01*
X121982804Y-82616857D02*
X122030423Y-82712095D01*
X122030423Y-82712095D02*
X122030423Y-82807333D01*
X122030423Y-82807333D02*
X121982804Y-82950190D01*
X121982804Y-82950190D02*
X121411376Y-83521619D01*
X121411376Y-83521619D02*
X122030423Y-83521619D01*
X122935185Y-82521619D02*
X122458995Y-82521619D01*
X122458995Y-82521619D02*
X122411376Y-82997809D01*
X122411376Y-82997809D02*
X122458995Y-82950190D01*
X122458995Y-82950190D02*
X122554233Y-82902571D01*
X122554233Y-82902571D02*
X122792328Y-82902571D01*
X122792328Y-82902571D02*
X122887566Y-82950190D01*
X122887566Y-82950190D02*
X122935185Y-82997809D01*
X122935185Y-82997809D02*
X122982804Y-83093047D01*
X122982804Y-83093047D02*
X122982804Y-83331142D01*
X122982804Y-83331142D02*
X122935185Y-83426380D01*
X122935185Y-83426380D02*
X122887566Y-83474000D01*
X122887566Y-83474000D02*
X122792328Y-83521619D01*
X122792328Y-83521619D02*
X122554233Y-83521619D01*
X122554233Y-83521619D02*
X122458995Y-83474000D01*
X122458995Y-83474000D02*
X122411376Y-83426380D01*
X143609280Y-59774057D02*
X143656900Y-59821676D01*
X143656900Y-59821676D02*
X143704519Y-59964533D01*
X143704519Y-59964533D02*
X143704519Y-60059771D01*
X143704519Y-60059771D02*
X143656900Y-60202628D01*
X143656900Y-60202628D02*
X143561661Y-60297866D01*
X143561661Y-60297866D02*
X143466423Y-60345485D01*
X143466423Y-60345485D02*
X143275947Y-60393104D01*
X143275947Y-60393104D02*
X143133090Y-60393104D01*
X143133090Y-60393104D02*
X142942614Y-60345485D01*
X142942614Y-60345485D02*
X142847376Y-60297866D01*
X142847376Y-60297866D02*
X142752138Y-60202628D01*
X142752138Y-60202628D02*
X142704519Y-60059771D01*
X142704519Y-60059771D02*
X142704519Y-59964533D01*
X142704519Y-59964533D02*
X142752138Y-59821676D01*
X142752138Y-59821676D02*
X142799757Y-59774057D01*
X143704519Y-58821676D02*
X143704519Y-59393104D01*
X143704519Y-59107390D02*
X142704519Y-59107390D01*
X142704519Y-59107390D02*
X142847376Y-59202628D01*
X142847376Y-59202628D02*
X142942614Y-59297866D01*
X142942614Y-59297866D02*
X142990233Y-59393104D01*
X142704519Y-58488342D02*
X142704519Y-57821676D01*
X142704519Y-57821676D02*
X143704519Y-58250247D01*
X163080480Y-66959657D02*
X163128100Y-67007276D01*
X163128100Y-67007276D02*
X163175719Y-67150133D01*
X163175719Y-67150133D02*
X163175719Y-67245371D01*
X163175719Y-67245371D02*
X163128100Y-67388228D01*
X163128100Y-67388228D02*
X163032861Y-67483466D01*
X163032861Y-67483466D02*
X162937623Y-67531085D01*
X162937623Y-67531085D02*
X162747147Y-67578704D01*
X162747147Y-67578704D02*
X162604290Y-67578704D01*
X162604290Y-67578704D02*
X162413814Y-67531085D01*
X162413814Y-67531085D02*
X162318576Y-67483466D01*
X162318576Y-67483466D02*
X162223338Y-67388228D01*
X162223338Y-67388228D02*
X162175719Y-67245371D01*
X162175719Y-67245371D02*
X162175719Y-67150133D01*
X162175719Y-67150133D02*
X162223338Y-67007276D01*
X162223338Y-67007276D02*
X162270957Y-66959657D01*
X162270957Y-66578704D02*
X162223338Y-66531085D01*
X162223338Y-66531085D02*
X162175719Y-66435847D01*
X162175719Y-66435847D02*
X162175719Y-66197752D01*
X162175719Y-66197752D02*
X162223338Y-66102514D01*
X162223338Y-66102514D02*
X162270957Y-66054895D01*
X162270957Y-66054895D02*
X162366195Y-66007276D01*
X162366195Y-66007276D02*
X162461433Y-66007276D01*
X162461433Y-66007276D02*
X162604290Y-66054895D01*
X162604290Y-66054895D02*
X163175719Y-66626323D01*
X163175719Y-66626323D02*
X163175719Y-66007276D01*
X162175719Y-65150133D02*
X162175719Y-65340609D01*
X162175719Y-65340609D02*
X162223338Y-65435847D01*
X162223338Y-65435847D02*
X162270957Y-65483466D01*
X162270957Y-65483466D02*
X162413814Y-65578704D01*
X162413814Y-65578704D02*
X162604290Y-65626323D01*
X162604290Y-65626323D02*
X162985242Y-65626323D01*
X162985242Y-65626323D02*
X163080480Y-65578704D01*
X163080480Y-65578704D02*
X163128100Y-65531085D01*
X163128100Y-65531085D02*
X163175719Y-65435847D01*
X163175719Y-65435847D02*
X163175719Y-65245371D01*
X163175719Y-65245371D02*
X163128100Y-65150133D01*
X163128100Y-65150133D02*
X163080480Y-65102514D01*
X163080480Y-65102514D02*
X162985242Y-65054895D01*
X162985242Y-65054895D02*
X162747147Y-65054895D01*
X162747147Y-65054895D02*
X162651909Y-65102514D01*
X162651909Y-65102514D02*
X162604290Y-65150133D01*
X162604290Y-65150133D02*
X162556671Y-65245371D01*
X162556671Y-65245371D02*
X162556671Y-65435847D01*
X162556671Y-65435847D02*
X162604290Y-65531085D01*
X162604290Y-65531085D02*
X162651909Y-65578704D01*
X162651909Y-65578704D02*
X162747147Y-65626323D01*
X148926166Y-58912419D02*
X148926166Y-59626704D01*
X148926166Y-59626704D02*
X148878547Y-59769561D01*
X148878547Y-59769561D02*
X148783309Y-59864800D01*
X148783309Y-59864800D02*
X148640452Y-59912419D01*
X148640452Y-59912419D02*
X148545214Y-59912419D01*
X149878547Y-58912419D02*
X149402357Y-58912419D01*
X149402357Y-58912419D02*
X149354738Y-59388609D01*
X149354738Y-59388609D02*
X149402357Y-59340990D01*
X149402357Y-59340990D02*
X149497595Y-59293371D01*
X149497595Y-59293371D02*
X149735690Y-59293371D01*
X149735690Y-59293371D02*
X149830928Y-59340990D01*
X149830928Y-59340990D02*
X149878547Y-59388609D01*
X149878547Y-59388609D02*
X149926166Y-59483847D01*
X149926166Y-59483847D02*
X149926166Y-59721942D01*
X149926166Y-59721942D02*
X149878547Y-59817180D01*
X149878547Y-59817180D02*
X149830928Y-59864800D01*
X149830928Y-59864800D02*
X149735690Y-59912419D01*
X149735690Y-59912419D02*
X149497595Y-59912419D01*
X149497595Y-59912419D02*
X149402357Y-59864800D01*
X149402357Y-59864800D02*
X149354738Y-59817180D01*
X135578042Y-57926380D02*
X135530423Y-57974000D01*
X135530423Y-57974000D02*
X135387566Y-58021619D01*
X135387566Y-58021619D02*
X135292328Y-58021619D01*
X135292328Y-58021619D02*
X135149471Y-57974000D01*
X135149471Y-57974000D02*
X135054233Y-57878761D01*
X135054233Y-57878761D02*
X135006614Y-57783523D01*
X135006614Y-57783523D02*
X134958995Y-57593047D01*
X134958995Y-57593047D02*
X134958995Y-57450190D01*
X134958995Y-57450190D02*
X135006614Y-57259714D01*
X135006614Y-57259714D02*
X135054233Y-57164476D01*
X135054233Y-57164476D02*
X135149471Y-57069238D01*
X135149471Y-57069238D02*
X135292328Y-57021619D01*
X135292328Y-57021619D02*
X135387566Y-57021619D01*
X135387566Y-57021619D02*
X135530423Y-57069238D01*
X135530423Y-57069238D02*
X135578042Y-57116857D01*
X136530423Y-58021619D02*
X135958995Y-58021619D01*
X136244709Y-58021619D02*
X136244709Y-57021619D01*
X136244709Y-57021619D02*
X136149471Y-57164476D01*
X136149471Y-57164476D02*
X136054233Y-57259714D01*
X136054233Y-57259714D02*
X135958995Y-57307333D01*
X137101852Y-57450190D02*
X137006614Y-57402571D01*
X137006614Y-57402571D02*
X136958995Y-57354952D01*
X136958995Y-57354952D02*
X136911376Y-57259714D01*
X136911376Y-57259714D02*
X136911376Y-57212095D01*
X136911376Y-57212095D02*
X136958995Y-57116857D01*
X136958995Y-57116857D02*
X137006614Y-57069238D01*
X137006614Y-57069238D02*
X137101852Y-57021619D01*
X137101852Y-57021619D02*
X137292328Y-57021619D01*
X137292328Y-57021619D02*
X137387566Y-57069238D01*
X137387566Y-57069238D02*
X137435185Y-57116857D01*
X137435185Y-57116857D02*
X137482804Y-57212095D01*
X137482804Y-57212095D02*
X137482804Y-57259714D01*
X137482804Y-57259714D02*
X137435185Y-57354952D01*
X137435185Y-57354952D02*
X137387566Y-57402571D01*
X137387566Y-57402571D02*
X137292328Y-57450190D01*
X137292328Y-57450190D02*
X137101852Y-57450190D01*
X137101852Y-57450190D02*
X137006614Y-57497809D01*
X137006614Y-57497809D02*
X136958995Y-57545428D01*
X136958995Y-57545428D02*
X136911376Y-57640666D01*
X136911376Y-57640666D02*
X136911376Y-57831142D01*
X136911376Y-57831142D02*
X136958995Y-57926380D01*
X136958995Y-57926380D02*
X137006614Y-57974000D01*
X137006614Y-57974000D02*
X137101852Y-58021619D01*
X137101852Y-58021619D02*
X137292328Y-58021619D01*
X137292328Y-58021619D02*
X137387566Y-57974000D01*
X137387566Y-57974000D02*
X137435185Y-57926380D01*
X137435185Y-57926380D02*
X137482804Y-57831142D01*
X137482804Y-57831142D02*
X137482804Y-57640666D01*
X137482804Y-57640666D02*
X137435185Y-57545428D01*
X137435185Y-57545428D02*
X137387566Y-57497809D01*
X137387566Y-57497809D02*
X137292328Y-57450190D01*
X142346042Y-86926080D02*
X142298423Y-86973700D01*
X142298423Y-86973700D02*
X142155566Y-87021319D01*
X142155566Y-87021319D02*
X142060328Y-87021319D01*
X142060328Y-87021319D02*
X141917471Y-86973700D01*
X141917471Y-86973700D02*
X141822233Y-86878461D01*
X141822233Y-86878461D02*
X141774614Y-86783223D01*
X141774614Y-86783223D02*
X141726995Y-86592747D01*
X141726995Y-86592747D02*
X141726995Y-86449890D01*
X141726995Y-86449890D02*
X141774614Y-86259414D01*
X141774614Y-86259414D02*
X141822233Y-86164176D01*
X141822233Y-86164176D02*
X141917471Y-86068938D01*
X141917471Y-86068938D02*
X142060328Y-86021319D01*
X142060328Y-86021319D02*
X142155566Y-86021319D01*
X142155566Y-86021319D02*
X142298423Y-86068938D01*
X142298423Y-86068938D02*
X142346042Y-86116557D01*
X142726995Y-86116557D02*
X142774614Y-86068938D01*
X142774614Y-86068938D02*
X142869852Y-86021319D01*
X142869852Y-86021319D02*
X143107947Y-86021319D01*
X143107947Y-86021319D02*
X143203185Y-86068938D01*
X143203185Y-86068938D02*
X143250804Y-86116557D01*
X143250804Y-86116557D02*
X143298423Y-86211795D01*
X143298423Y-86211795D02*
X143298423Y-86307033D01*
X143298423Y-86307033D02*
X143250804Y-86449890D01*
X143250804Y-86449890D02*
X142679376Y-87021319D01*
X142679376Y-87021319D02*
X143298423Y-87021319D01*
X143917471Y-86021319D02*
X144012709Y-86021319D01*
X144012709Y-86021319D02*
X144107947Y-86068938D01*
X144107947Y-86068938D02*
X144155566Y-86116557D01*
X144155566Y-86116557D02*
X144203185Y-86211795D01*
X144203185Y-86211795D02*
X144250804Y-86402271D01*
X144250804Y-86402271D02*
X144250804Y-86640366D01*
X144250804Y-86640366D02*
X144203185Y-86830842D01*
X144203185Y-86830842D02*
X144155566Y-86926080D01*
X144155566Y-86926080D02*
X144107947Y-86973700D01*
X144107947Y-86973700D02*
X144012709Y-87021319D01*
X144012709Y-87021319D02*
X143917471Y-87021319D01*
X143917471Y-87021319D02*
X143822233Y-86973700D01*
X143822233Y-86973700D02*
X143774614Y-86926080D01*
X143774614Y-86926080D02*
X143726995Y-86830842D01*
X143726995Y-86830842D02*
X143679376Y-86640366D01*
X143679376Y-86640366D02*
X143679376Y-86402271D01*
X143679376Y-86402271D02*
X143726995Y-86211795D01*
X143726995Y-86211795D02*
X143774614Y-86116557D01*
X143774614Y-86116557D02*
X143822233Y-86068938D01*
X143822233Y-86068938D02*
X143917471Y-86021319D01*
X145025033Y-85412680D02*
X144977414Y-85460300D01*
X144977414Y-85460300D02*
X144834557Y-85507919D01*
X144834557Y-85507919D02*
X144739319Y-85507919D01*
X144739319Y-85507919D02*
X144596462Y-85460300D01*
X144596462Y-85460300D02*
X144501224Y-85365061D01*
X144501224Y-85365061D02*
X144453605Y-85269823D01*
X144453605Y-85269823D02*
X144405986Y-85079347D01*
X144405986Y-85079347D02*
X144405986Y-84936490D01*
X144405986Y-84936490D02*
X144453605Y-84746014D01*
X144453605Y-84746014D02*
X144501224Y-84650776D01*
X144501224Y-84650776D02*
X144596462Y-84555538D01*
X144596462Y-84555538D02*
X144739319Y-84507919D01*
X144739319Y-84507919D02*
X144834557Y-84507919D01*
X144834557Y-84507919D02*
X144977414Y-84555538D01*
X144977414Y-84555538D02*
X145025033Y-84603157D01*
X145882176Y-84507919D02*
X145691700Y-84507919D01*
X145691700Y-84507919D02*
X145596462Y-84555538D01*
X145596462Y-84555538D02*
X145548843Y-84603157D01*
X145548843Y-84603157D02*
X145453605Y-84746014D01*
X145453605Y-84746014D02*
X145405986Y-84936490D01*
X145405986Y-84936490D02*
X145405986Y-85317442D01*
X145405986Y-85317442D02*
X145453605Y-85412680D01*
X145453605Y-85412680D02*
X145501224Y-85460300D01*
X145501224Y-85460300D02*
X145596462Y-85507919D01*
X145596462Y-85507919D02*
X145786938Y-85507919D01*
X145786938Y-85507919D02*
X145882176Y-85460300D01*
X145882176Y-85460300D02*
X145929795Y-85412680D01*
X145929795Y-85412680D02*
X145977414Y-85317442D01*
X145977414Y-85317442D02*
X145977414Y-85079347D01*
X145977414Y-85079347D02*
X145929795Y-84984109D01*
X145929795Y-84984109D02*
X145882176Y-84936490D01*
X145882176Y-84936490D02*
X145786938Y-84888871D01*
X145786938Y-84888871D02*
X145596462Y-84888871D01*
X145596462Y-84888871D02*
X145501224Y-84936490D01*
X145501224Y-84936490D02*
X145453605Y-84984109D01*
X145453605Y-84984109D02*
X145405986Y-85079347D01*
X160860719Y-79350133D02*
X161575004Y-79350133D01*
X161575004Y-79350133D02*
X161717861Y-79397752D01*
X161717861Y-79397752D02*
X161813100Y-79492990D01*
X161813100Y-79492990D02*
X161860719Y-79635847D01*
X161860719Y-79635847D02*
X161860719Y-79731085D01*
X160860719Y-78445371D02*
X160860719Y-78635847D01*
X160860719Y-78635847D02*
X160908338Y-78731085D01*
X160908338Y-78731085D02*
X160955957Y-78778704D01*
X160955957Y-78778704D02*
X161098814Y-78873942D01*
X161098814Y-78873942D02*
X161289290Y-78921561D01*
X161289290Y-78921561D02*
X161670242Y-78921561D01*
X161670242Y-78921561D02*
X161765480Y-78873942D01*
X161765480Y-78873942D02*
X161813100Y-78826323D01*
X161813100Y-78826323D02*
X161860719Y-78731085D01*
X161860719Y-78731085D02*
X161860719Y-78540609D01*
X161860719Y-78540609D02*
X161813100Y-78445371D01*
X161813100Y-78445371D02*
X161765480Y-78397752D01*
X161765480Y-78397752D02*
X161670242Y-78350133D01*
X161670242Y-78350133D02*
X161432147Y-78350133D01*
X161432147Y-78350133D02*
X161336909Y-78397752D01*
X161336909Y-78397752D02*
X161289290Y-78445371D01*
X161289290Y-78445371D02*
X161241671Y-78540609D01*
X161241671Y-78540609D02*
X161241671Y-78731085D01*
X161241671Y-78731085D02*
X161289290Y-78826323D01*
X161289290Y-78826323D02*
X161336909Y-78873942D01*
X161336909Y-78873942D02*
X161432147Y-78921561D01*
X138314242Y-62056180D02*
X138266623Y-62103800D01*
X138266623Y-62103800D02*
X138123766Y-62151419D01*
X138123766Y-62151419D02*
X138028528Y-62151419D01*
X138028528Y-62151419D02*
X137885671Y-62103800D01*
X137885671Y-62103800D02*
X137790433Y-62008561D01*
X137790433Y-62008561D02*
X137742814Y-61913323D01*
X137742814Y-61913323D02*
X137695195Y-61722847D01*
X137695195Y-61722847D02*
X137695195Y-61579990D01*
X137695195Y-61579990D02*
X137742814Y-61389514D01*
X137742814Y-61389514D02*
X137790433Y-61294276D01*
X137790433Y-61294276D02*
X137885671Y-61199038D01*
X137885671Y-61199038D02*
X138028528Y-61151419D01*
X138028528Y-61151419D02*
X138123766Y-61151419D01*
X138123766Y-61151419D02*
X138266623Y-61199038D01*
X138266623Y-61199038D02*
X138314242Y-61246657D01*
X138695195Y-61246657D02*
X138742814Y-61199038D01*
X138742814Y-61199038D02*
X138838052Y-61151419D01*
X138838052Y-61151419D02*
X139076147Y-61151419D01*
X139076147Y-61151419D02*
X139171385Y-61199038D01*
X139171385Y-61199038D02*
X139219004Y-61246657D01*
X139219004Y-61246657D02*
X139266623Y-61341895D01*
X139266623Y-61341895D02*
X139266623Y-61437133D01*
X139266623Y-61437133D02*
X139219004Y-61579990D01*
X139219004Y-61579990D02*
X138647576Y-62151419D01*
X138647576Y-62151419D02*
X139266623Y-62151419D01*
X139599957Y-61151419D02*
X140219004Y-61151419D01*
X140219004Y-61151419D02*
X139885671Y-61532371D01*
X139885671Y-61532371D02*
X140028528Y-61532371D01*
X140028528Y-61532371D02*
X140123766Y-61579990D01*
X140123766Y-61579990D02*
X140171385Y-61627609D01*
X140171385Y-61627609D02*
X140219004Y-61722847D01*
X140219004Y-61722847D02*
X140219004Y-61960942D01*
X140219004Y-61960942D02*
X140171385Y-62056180D01*
X140171385Y-62056180D02*
X140123766Y-62103800D01*
X140123766Y-62103800D02*
X140028528Y-62151419D01*
X140028528Y-62151419D02*
X139742814Y-62151419D01*
X139742814Y-62151419D02*
X139647576Y-62103800D01*
X139647576Y-62103800D02*
X139599957Y-62056180D01*
X118073709Y-66859901D02*
X118073709Y-67574186D01*
X118073709Y-67574186D02*
X118026090Y-67717043D01*
X118026090Y-67717043D02*
X117930852Y-67812282D01*
X117930852Y-67812282D02*
X117787995Y-67859901D01*
X117787995Y-67859901D02*
X117692757Y-67859901D01*
X118597519Y-67859901D02*
X118787995Y-67859901D01*
X118787995Y-67859901D02*
X118883233Y-67812282D01*
X118883233Y-67812282D02*
X118930852Y-67764662D01*
X118930852Y-67764662D02*
X119026090Y-67621805D01*
X119026090Y-67621805D02*
X119073709Y-67431329D01*
X119073709Y-67431329D02*
X119073709Y-67050377D01*
X119073709Y-67050377D02*
X119026090Y-66955139D01*
X119026090Y-66955139D02*
X118978471Y-66907520D01*
X118978471Y-66907520D02*
X118883233Y-66859901D01*
X118883233Y-66859901D02*
X118692757Y-66859901D01*
X118692757Y-66859901D02*
X118597519Y-66907520D01*
X118597519Y-66907520D02*
X118549900Y-66955139D01*
X118549900Y-66955139D02*
X118502281Y-67050377D01*
X118502281Y-67050377D02*
X118502281Y-67288472D01*
X118502281Y-67288472D02*
X118549900Y-67383710D01*
X118549900Y-67383710D02*
X118597519Y-67431329D01*
X118597519Y-67431329D02*
X118692757Y-67478948D01*
X118692757Y-67478948D02*
X118883233Y-67478948D01*
X118883233Y-67478948D02*
X118978471Y-67431329D01*
X118978471Y-67431329D02*
X119026090Y-67383710D01*
X119026090Y-67383710D02*
X119073709Y-67288472D01*
X103585719Y-90317733D02*
X104300004Y-90317733D01*
X104300004Y-90317733D02*
X104442861Y-90365352D01*
X104442861Y-90365352D02*
X104538100Y-90460590D01*
X104538100Y-90460590D02*
X104585719Y-90603447D01*
X104585719Y-90603447D02*
X104585719Y-90698685D01*
X103585719Y-89936780D02*
X103585719Y-89317733D01*
X103585719Y-89317733D02*
X103966671Y-89651066D01*
X103966671Y-89651066D02*
X103966671Y-89508209D01*
X103966671Y-89508209D02*
X104014290Y-89412971D01*
X104014290Y-89412971D02*
X104061909Y-89365352D01*
X104061909Y-89365352D02*
X104157147Y-89317733D01*
X104157147Y-89317733D02*
X104395242Y-89317733D01*
X104395242Y-89317733D02*
X104490480Y-89365352D01*
X104490480Y-89365352D02*
X104538100Y-89412971D01*
X104538100Y-89412971D02*
X104585719Y-89508209D01*
X104585719Y-89508209D02*
X104585719Y-89793923D01*
X104585719Y-89793923D02*
X104538100Y-89889161D01*
X104538100Y-89889161D02*
X104490480Y-89936780D01*
X142473042Y-93301480D02*
X142425423Y-93349100D01*
X142425423Y-93349100D02*
X142282566Y-93396719D01*
X142282566Y-93396719D02*
X142187328Y-93396719D01*
X142187328Y-93396719D02*
X142044471Y-93349100D01*
X142044471Y-93349100D02*
X141949233Y-93253861D01*
X141949233Y-93253861D02*
X141901614Y-93158623D01*
X141901614Y-93158623D02*
X141853995Y-92968147D01*
X141853995Y-92968147D02*
X141853995Y-92825290D01*
X141853995Y-92825290D02*
X141901614Y-92634814D01*
X141901614Y-92634814D02*
X141949233Y-92539576D01*
X141949233Y-92539576D02*
X142044471Y-92444338D01*
X142044471Y-92444338D02*
X142187328Y-92396719D01*
X142187328Y-92396719D02*
X142282566Y-92396719D01*
X142282566Y-92396719D02*
X142425423Y-92444338D01*
X142425423Y-92444338D02*
X142473042Y-92491957D01*
X143425423Y-93396719D02*
X142853995Y-93396719D01*
X143139709Y-93396719D02*
X143139709Y-92396719D01*
X143139709Y-92396719D02*
X143044471Y-92539576D01*
X143044471Y-92539576D02*
X142949233Y-92634814D01*
X142949233Y-92634814D02*
X142853995Y-92682433D01*
X143901614Y-93396719D02*
X144092090Y-93396719D01*
X144092090Y-93396719D02*
X144187328Y-93349100D01*
X144187328Y-93349100D02*
X144234947Y-93301480D01*
X144234947Y-93301480D02*
X144330185Y-93158623D01*
X144330185Y-93158623D02*
X144377804Y-92968147D01*
X144377804Y-92968147D02*
X144377804Y-92587195D01*
X144377804Y-92587195D02*
X144330185Y-92491957D01*
X144330185Y-92491957D02*
X144282566Y-92444338D01*
X144282566Y-92444338D02*
X144187328Y-92396719D01*
X144187328Y-92396719D02*
X143996852Y-92396719D01*
X143996852Y-92396719D02*
X143901614Y-92444338D01*
X143901614Y-92444338D02*
X143853995Y-92491957D01*
X143853995Y-92491957D02*
X143806376Y-92587195D01*
X143806376Y-92587195D02*
X143806376Y-92825290D01*
X143806376Y-92825290D02*
X143853995Y-92920528D01*
X143853995Y-92920528D02*
X143901614Y-92968147D01*
X143901614Y-92968147D02*
X143996852Y-93015766D01*
X143996852Y-93015766D02*
X144187328Y-93015766D01*
X144187328Y-93015766D02*
X144282566Y-92968147D01*
X144282566Y-92968147D02*
X144330185Y-92920528D01*
X144330185Y-92920528D02*
X144377804Y-92825290D01*
X154301866Y-106642819D02*
X154301866Y-107357104D01*
X154301866Y-107357104D02*
X154254247Y-107499961D01*
X154254247Y-107499961D02*
X154159009Y-107595200D01*
X154159009Y-107595200D02*
X154016152Y-107642819D01*
X154016152Y-107642819D02*
X153920914Y-107642819D01*
X154730438Y-106738057D02*
X154778057Y-106690438D01*
X154778057Y-106690438D02*
X154873295Y-106642819D01*
X154873295Y-106642819D02*
X155111390Y-106642819D01*
X155111390Y-106642819D02*
X155206628Y-106690438D01*
X155206628Y-106690438D02*
X155254247Y-106738057D01*
X155254247Y-106738057D02*
X155301866Y-106833295D01*
X155301866Y-106833295D02*
X155301866Y-106928533D01*
X155301866Y-106928533D02*
X155254247Y-107071390D01*
X155254247Y-107071390D02*
X154682819Y-107642819D01*
X154682819Y-107642819D02*
X155301866Y-107642819D01*
X135054233Y-97926380D02*
X135006614Y-97974000D01*
X135006614Y-97974000D02*
X134863757Y-98021619D01*
X134863757Y-98021619D02*
X134768519Y-98021619D01*
X134768519Y-98021619D02*
X134625662Y-97974000D01*
X134625662Y-97974000D02*
X134530424Y-97878761D01*
X134530424Y-97878761D02*
X134482805Y-97783523D01*
X134482805Y-97783523D02*
X134435186Y-97593047D01*
X134435186Y-97593047D02*
X134435186Y-97450190D01*
X134435186Y-97450190D02*
X134482805Y-97259714D01*
X134482805Y-97259714D02*
X134530424Y-97164476D01*
X134530424Y-97164476D02*
X134625662Y-97069238D01*
X134625662Y-97069238D02*
X134768519Y-97021619D01*
X134768519Y-97021619D02*
X134863757Y-97021619D01*
X134863757Y-97021619D02*
X135006614Y-97069238D01*
X135006614Y-97069238D02*
X135054233Y-97116857D01*
X135911376Y-97354952D02*
X135911376Y-98021619D01*
X135673281Y-96974000D02*
X135435186Y-97688285D01*
X135435186Y-97688285D02*
X136054233Y-97688285D01*
X118804233Y-94426380D02*
X118756614Y-94474000D01*
X118756614Y-94474000D02*
X118613757Y-94521619D01*
X118613757Y-94521619D02*
X118518519Y-94521619D01*
X118518519Y-94521619D02*
X118375662Y-94474000D01*
X118375662Y-94474000D02*
X118280424Y-94378761D01*
X118280424Y-94378761D02*
X118232805Y-94283523D01*
X118232805Y-94283523D02*
X118185186Y-94093047D01*
X118185186Y-94093047D02*
X118185186Y-93950190D01*
X118185186Y-93950190D02*
X118232805Y-93759714D01*
X118232805Y-93759714D02*
X118280424Y-93664476D01*
X118280424Y-93664476D02*
X118375662Y-93569238D01*
X118375662Y-93569238D02*
X118518519Y-93521619D01*
X118518519Y-93521619D02*
X118613757Y-93521619D01*
X118613757Y-93521619D02*
X118756614Y-93569238D01*
X118756614Y-93569238D02*
X118804233Y-93616857D01*
X119756614Y-94521619D02*
X119185186Y-94521619D01*
X119470900Y-94521619D02*
X119470900Y-93521619D01*
X119470900Y-93521619D02*
X119375662Y-93664476D01*
X119375662Y-93664476D02*
X119280424Y-93759714D01*
X119280424Y-93759714D02*
X119185186Y-93807333D01*
X150252233Y-88773580D02*
X150204614Y-88821200D01*
X150204614Y-88821200D02*
X150061757Y-88868819D01*
X150061757Y-88868819D02*
X149966519Y-88868819D01*
X149966519Y-88868819D02*
X149823662Y-88821200D01*
X149823662Y-88821200D02*
X149728424Y-88725961D01*
X149728424Y-88725961D02*
X149680805Y-88630723D01*
X149680805Y-88630723D02*
X149633186Y-88440247D01*
X149633186Y-88440247D02*
X149633186Y-88297390D01*
X149633186Y-88297390D02*
X149680805Y-88106914D01*
X149680805Y-88106914D02*
X149728424Y-88011676D01*
X149728424Y-88011676D02*
X149823662Y-87916438D01*
X149823662Y-87916438D02*
X149966519Y-87868819D01*
X149966519Y-87868819D02*
X150061757Y-87868819D01*
X150061757Y-87868819D02*
X150204614Y-87916438D01*
X150204614Y-87916438D02*
X150252233Y-87964057D01*
X150728424Y-88868819D02*
X150918900Y-88868819D01*
X150918900Y-88868819D02*
X151014138Y-88821200D01*
X151014138Y-88821200D02*
X151061757Y-88773580D01*
X151061757Y-88773580D02*
X151156995Y-88630723D01*
X151156995Y-88630723D02*
X151204614Y-88440247D01*
X151204614Y-88440247D02*
X151204614Y-88059295D01*
X151204614Y-88059295D02*
X151156995Y-87964057D01*
X151156995Y-87964057D02*
X151109376Y-87916438D01*
X151109376Y-87916438D02*
X151014138Y-87868819D01*
X151014138Y-87868819D02*
X150823662Y-87868819D01*
X150823662Y-87868819D02*
X150728424Y-87916438D01*
X150728424Y-87916438D02*
X150680805Y-87964057D01*
X150680805Y-87964057D02*
X150633186Y-88059295D01*
X150633186Y-88059295D02*
X150633186Y-88297390D01*
X150633186Y-88297390D02*
X150680805Y-88392628D01*
X150680805Y-88392628D02*
X150728424Y-88440247D01*
X150728424Y-88440247D02*
X150823662Y-88487866D01*
X150823662Y-88487866D02*
X151014138Y-88487866D01*
X151014138Y-88487866D02*
X151109376Y-88440247D01*
X151109376Y-88440247D02*
X151156995Y-88392628D01*
X151156995Y-88392628D02*
X151204614Y-88297390D01*
X116054233Y-91771619D02*
X115720900Y-91295428D01*
X115482805Y-91771619D02*
X115482805Y-90771619D01*
X115482805Y-90771619D02*
X115863757Y-90771619D01*
X115863757Y-90771619D02*
X115958995Y-90819238D01*
X115958995Y-90819238D02*
X116006614Y-90866857D01*
X116006614Y-90866857D02*
X116054233Y-90962095D01*
X116054233Y-90962095D02*
X116054233Y-91104952D01*
X116054233Y-91104952D02*
X116006614Y-91200190D01*
X116006614Y-91200190D02*
X115958995Y-91247809D01*
X115958995Y-91247809D02*
X115863757Y-91295428D01*
X115863757Y-91295428D02*
X115482805Y-91295428D01*
X116911376Y-91104952D02*
X116911376Y-91771619D01*
X116673281Y-90724000D02*
X116435186Y-91438285D01*
X116435186Y-91438285D02*
X117054233Y-91438285D01*
X137078042Y-84926380D02*
X137030423Y-84974000D01*
X137030423Y-84974000D02*
X136887566Y-85021619D01*
X136887566Y-85021619D02*
X136792328Y-85021619D01*
X136792328Y-85021619D02*
X136649471Y-84974000D01*
X136649471Y-84974000D02*
X136554233Y-84878761D01*
X136554233Y-84878761D02*
X136506614Y-84783523D01*
X136506614Y-84783523D02*
X136458995Y-84593047D01*
X136458995Y-84593047D02*
X136458995Y-84450190D01*
X136458995Y-84450190D02*
X136506614Y-84259714D01*
X136506614Y-84259714D02*
X136554233Y-84164476D01*
X136554233Y-84164476D02*
X136649471Y-84069238D01*
X136649471Y-84069238D02*
X136792328Y-84021619D01*
X136792328Y-84021619D02*
X136887566Y-84021619D01*
X136887566Y-84021619D02*
X137030423Y-84069238D01*
X137030423Y-84069238D02*
X137078042Y-84116857D01*
X137458995Y-84116857D02*
X137506614Y-84069238D01*
X137506614Y-84069238D02*
X137601852Y-84021619D01*
X137601852Y-84021619D02*
X137839947Y-84021619D01*
X137839947Y-84021619D02*
X137935185Y-84069238D01*
X137935185Y-84069238D02*
X137982804Y-84116857D01*
X137982804Y-84116857D02*
X138030423Y-84212095D01*
X138030423Y-84212095D02*
X138030423Y-84307333D01*
X138030423Y-84307333D02*
X137982804Y-84450190D01*
X137982804Y-84450190D02*
X137411376Y-85021619D01*
X137411376Y-85021619D02*
X138030423Y-85021619D01*
X138887566Y-84354952D02*
X138887566Y-85021619D01*
X138649471Y-83974000D02*
X138411376Y-84688285D01*
X138411376Y-84688285D02*
X139030423Y-84688285D01*
X110804233Y-86271619D02*
X110470900Y-85795428D01*
X110232805Y-86271619D02*
X110232805Y-85271619D01*
X110232805Y-85271619D02*
X110613757Y-85271619D01*
X110613757Y-85271619D02*
X110708995Y-85319238D01*
X110708995Y-85319238D02*
X110756614Y-85366857D01*
X110756614Y-85366857D02*
X110804233Y-85462095D01*
X110804233Y-85462095D02*
X110804233Y-85604952D01*
X110804233Y-85604952D02*
X110756614Y-85700190D01*
X110756614Y-85700190D02*
X110708995Y-85747809D01*
X110708995Y-85747809D02*
X110613757Y-85795428D01*
X110613757Y-85795428D02*
X110232805Y-85795428D01*
X111137567Y-85271619D02*
X111804233Y-85271619D01*
X111804233Y-85271619D02*
X111375662Y-86271619D01*
X143380680Y-68410057D02*
X143428300Y-68457676D01*
X143428300Y-68457676D02*
X143475919Y-68600533D01*
X143475919Y-68600533D02*
X143475919Y-68695771D01*
X143475919Y-68695771D02*
X143428300Y-68838628D01*
X143428300Y-68838628D02*
X143333061Y-68933866D01*
X143333061Y-68933866D02*
X143237823Y-68981485D01*
X143237823Y-68981485D02*
X143047347Y-69029104D01*
X143047347Y-69029104D02*
X142904490Y-69029104D01*
X142904490Y-69029104D02*
X142714014Y-68981485D01*
X142714014Y-68981485D02*
X142618776Y-68933866D01*
X142618776Y-68933866D02*
X142523538Y-68838628D01*
X142523538Y-68838628D02*
X142475919Y-68695771D01*
X142475919Y-68695771D02*
X142475919Y-68600533D01*
X142475919Y-68600533D02*
X142523538Y-68457676D01*
X142523538Y-68457676D02*
X142571157Y-68410057D01*
X143475919Y-67457676D02*
X143475919Y-68029104D01*
X143475919Y-67743390D02*
X142475919Y-67743390D01*
X142475919Y-67743390D02*
X142618776Y-67838628D01*
X142618776Y-67838628D02*
X142714014Y-67933866D01*
X142714014Y-67933866D02*
X142761633Y-68029104D01*
X142475919Y-66552914D02*
X142475919Y-67029104D01*
X142475919Y-67029104D02*
X142952109Y-67076723D01*
X142952109Y-67076723D02*
X142904490Y-67029104D01*
X142904490Y-67029104D02*
X142856871Y-66933866D01*
X142856871Y-66933866D02*
X142856871Y-66695771D01*
X142856871Y-66695771D02*
X142904490Y-66600533D01*
X142904490Y-66600533D02*
X142952109Y-66552914D01*
X142952109Y-66552914D02*
X143047347Y-66505295D01*
X143047347Y-66505295D02*
X143285442Y-66505295D01*
X143285442Y-66505295D02*
X143380680Y-66552914D01*
X143380680Y-66552914D02*
X143428300Y-66600533D01*
X143428300Y-66600533D02*
X143475919Y-66695771D01*
X143475919Y-66695771D02*
X143475919Y-66933866D01*
X143475919Y-66933866D02*
X143428300Y-67029104D01*
X143428300Y-67029104D02*
X143380680Y-67076723D01*
X112635766Y-100038819D02*
X112635766Y-100753104D01*
X112635766Y-100753104D02*
X112588147Y-100895961D01*
X112588147Y-100895961D02*
X112492909Y-100991200D01*
X112492909Y-100991200D02*
X112350052Y-101038819D01*
X112350052Y-101038819D02*
X112254814Y-101038819D01*
X113254814Y-100467390D02*
X113159576Y-100419771D01*
X113159576Y-100419771D02*
X113111957Y-100372152D01*
X113111957Y-100372152D02*
X113064338Y-100276914D01*
X113064338Y-100276914D02*
X113064338Y-100229295D01*
X113064338Y-100229295D02*
X113111957Y-100134057D01*
X113111957Y-100134057D02*
X113159576Y-100086438D01*
X113159576Y-100086438D02*
X113254814Y-100038819D01*
X113254814Y-100038819D02*
X113445290Y-100038819D01*
X113445290Y-100038819D02*
X113540528Y-100086438D01*
X113540528Y-100086438D02*
X113588147Y-100134057D01*
X113588147Y-100134057D02*
X113635766Y-100229295D01*
X113635766Y-100229295D02*
X113635766Y-100276914D01*
X113635766Y-100276914D02*
X113588147Y-100372152D01*
X113588147Y-100372152D02*
X113540528Y-100419771D01*
X113540528Y-100419771D02*
X113445290Y-100467390D01*
X113445290Y-100467390D02*
X113254814Y-100467390D01*
X113254814Y-100467390D02*
X113159576Y-100515009D01*
X113159576Y-100515009D02*
X113111957Y-100562628D01*
X113111957Y-100562628D02*
X113064338Y-100657866D01*
X113064338Y-100657866D02*
X113064338Y-100848342D01*
X113064338Y-100848342D02*
X113111957Y-100943580D01*
X113111957Y-100943580D02*
X113159576Y-100991200D01*
X113159576Y-100991200D02*
X113254814Y-101038819D01*
X113254814Y-101038819D02*
X113445290Y-101038819D01*
X113445290Y-101038819D02*
X113540528Y-100991200D01*
X113540528Y-100991200D02*
X113588147Y-100943580D01*
X113588147Y-100943580D02*
X113635766Y-100848342D01*
X113635766Y-100848342D02*
X113635766Y-100657866D01*
X113635766Y-100657866D02*
X113588147Y-100562628D01*
X113588147Y-100562628D02*
X113540528Y-100515009D01*
X113540528Y-100515009D02*
X113445290Y-100467390D01*
X143257280Y-73544757D02*
X143304900Y-73592376D01*
X143304900Y-73592376D02*
X143352519Y-73735233D01*
X143352519Y-73735233D02*
X143352519Y-73830471D01*
X143352519Y-73830471D02*
X143304900Y-73973328D01*
X143304900Y-73973328D02*
X143209661Y-74068566D01*
X143209661Y-74068566D02*
X143114423Y-74116185D01*
X143114423Y-74116185D02*
X142923947Y-74163804D01*
X142923947Y-74163804D02*
X142781090Y-74163804D01*
X142781090Y-74163804D02*
X142590614Y-74116185D01*
X142590614Y-74116185D02*
X142495376Y-74068566D01*
X142495376Y-74068566D02*
X142400138Y-73973328D01*
X142400138Y-73973328D02*
X142352519Y-73830471D01*
X142352519Y-73830471D02*
X142352519Y-73735233D01*
X142352519Y-73735233D02*
X142400138Y-73592376D01*
X142400138Y-73592376D02*
X142447757Y-73544757D01*
X143352519Y-72592376D02*
X143352519Y-73163804D01*
X143352519Y-72878090D02*
X142352519Y-72878090D01*
X142352519Y-72878090D02*
X142495376Y-72973328D01*
X142495376Y-72973328D02*
X142590614Y-73068566D01*
X142590614Y-73068566D02*
X142638233Y-73163804D01*
X142352519Y-71735233D02*
X142352519Y-71925709D01*
X142352519Y-71925709D02*
X142400138Y-72020947D01*
X142400138Y-72020947D02*
X142447757Y-72068566D01*
X142447757Y-72068566D02*
X142590614Y-72163804D01*
X142590614Y-72163804D02*
X142781090Y-72211423D01*
X142781090Y-72211423D02*
X143162042Y-72211423D01*
X143162042Y-72211423D02*
X143257280Y-72163804D01*
X143257280Y-72163804D02*
X143304900Y-72116185D01*
X143304900Y-72116185D02*
X143352519Y-72020947D01*
X143352519Y-72020947D02*
X143352519Y-71830471D01*
X143352519Y-71830471D02*
X143304900Y-71735233D01*
X143304900Y-71735233D02*
X143257280Y-71687614D01*
X143257280Y-71687614D02*
X143162042Y-71639995D01*
X143162042Y-71639995D02*
X142923947Y-71639995D01*
X142923947Y-71639995D02*
X142828709Y-71687614D01*
X142828709Y-71687614D02*
X142781090Y-71735233D01*
X142781090Y-71735233D02*
X142733471Y-71830471D01*
X142733471Y-71830471D02*
X142733471Y-72020947D01*
X142733471Y-72020947D02*
X142781090Y-72116185D01*
X142781090Y-72116185D02*
X142828709Y-72163804D01*
X142828709Y-72163804D02*
X142923947Y-72211423D01*
X106328042Y-64271619D02*
X105994709Y-63795428D01*
X105756614Y-64271619D02*
X105756614Y-63271619D01*
X105756614Y-63271619D02*
X106137566Y-63271619D01*
X106137566Y-63271619D02*
X106232804Y-63319238D01*
X106232804Y-63319238D02*
X106280423Y-63366857D01*
X106280423Y-63366857D02*
X106328042Y-63462095D01*
X106328042Y-63462095D02*
X106328042Y-63604952D01*
X106328042Y-63604952D02*
X106280423Y-63700190D01*
X106280423Y-63700190D02*
X106232804Y-63747809D01*
X106232804Y-63747809D02*
X106137566Y-63795428D01*
X106137566Y-63795428D02*
X105756614Y-63795428D01*
X107280423Y-64271619D02*
X106708995Y-64271619D01*
X106994709Y-64271619D02*
X106994709Y-63271619D01*
X106994709Y-63271619D02*
X106899471Y-63414476D01*
X106899471Y-63414476D02*
X106804233Y-63509714D01*
X106804233Y-63509714D02*
X106708995Y-63557333D01*
X107613757Y-63271619D02*
X108280423Y-63271619D01*
X108280423Y-63271619D02*
X107851852Y-64271619D01*
X145569942Y-102180380D02*
X145522323Y-102228000D01*
X145522323Y-102228000D02*
X145379466Y-102275619D01*
X145379466Y-102275619D02*
X145284228Y-102275619D01*
X145284228Y-102275619D02*
X145141371Y-102228000D01*
X145141371Y-102228000D02*
X145046133Y-102132761D01*
X145046133Y-102132761D02*
X144998514Y-102037523D01*
X144998514Y-102037523D02*
X144950895Y-101847047D01*
X144950895Y-101847047D02*
X144950895Y-101704190D01*
X144950895Y-101704190D02*
X144998514Y-101513714D01*
X144998514Y-101513714D02*
X145046133Y-101418476D01*
X145046133Y-101418476D02*
X145141371Y-101323238D01*
X145141371Y-101323238D02*
X145284228Y-101275619D01*
X145284228Y-101275619D02*
X145379466Y-101275619D01*
X145379466Y-101275619D02*
X145522323Y-101323238D01*
X145522323Y-101323238D02*
X145569942Y-101370857D01*
X145950895Y-101370857D02*
X145998514Y-101323238D01*
X145998514Y-101323238D02*
X146093752Y-101275619D01*
X146093752Y-101275619D02*
X146331847Y-101275619D01*
X146331847Y-101275619D02*
X146427085Y-101323238D01*
X146427085Y-101323238D02*
X146474704Y-101370857D01*
X146474704Y-101370857D02*
X146522323Y-101466095D01*
X146522323Y-101466095D02*
X146522323Y-101561333D01*
X146522323Y-101561333D02*
X146474704Y-101704190D01*
X146474704Y-101704190D02*
X145903276Y-102275619D01*
X145903276Y-102275619D02*
X146522323Y-102275619D01*
X147474704Y-102275619D02*
X146903276Y-102275619D01*
X147188990Y-102275619D02*
X147188990Y-101275619D01*
X147188990Y-101275619D02*
X147093752Y-101418476D01*
X147093752Y-101418476D02*
X146998514Y-101513714D01*
X146998514Y-101513714D02*
X146903276Y-101561333D01*
%TO.C,C7*%
D13*
X125985900Y-79026652D02*
X125985900Y-78504148D01*
X127455900Y-79026652D02*
X127455900Y-78504148D01*
%TO.C,C8*%
X152343348Y-84332500D02*
X152865852Y-84332500D01*
X152343348Y-85802500D02*
X152865852Y-85802500D01*
%TO.C,C2*%
X123013152Y-78182800D02*
X122490648Y-78182800D01*
X123013152Y-79652800D02*
X122490648Y-79652800D01*
%TO.C,F1*%
X105465248Y-80459000D02*
X108237752Y-80459000D01*
X105465248Y-83879000D02*
X108237752Y-83879000D01*
%TO.C,R1*%
X110383700Y-80925936D02*
X110383700Y-81380064D01*
X111853700Y-80925936D02*
X111853700Y-81380064D01*
%TO.C,U5*%
X111275500Y-88432200D02*
X113095500Y-88432200D01*
X111275500Y-88482200D02*
X111275500Y-88432200D01*
X111275500Y-91552200D02*
X111275500Y-91502200D01*
X113095500Y-88432200D02*
X113095500Y-88482200D01*
X113095500Y-91502200D02*
X113095500Y-91552200D01*
X113095500Y-91552200D02*
X111275500Y-91552200D01*
X110735500Y-88482200D02*
X110495500Y-88152200D01*
X110975500Y-88152200D01*
X110735500Y-88482200D01*
G36*
X110735500Y-88482200D02*
G01*
X110495500Y-88152200D01*
X110975500Y-88152200D01*
X110735500Y-88482200D01*
G37*
%TO.C,U3*%
X131103500Y-59505800D02*
X131103500Y-60765800D01*
X131103500Y-66325800D02*
X131103500Y-65065800D01*
X134863500Y-59505800D02*
X131103500Y-59505800D01*
X134863500Y-66325800D02*
X131103500Y-66325800D01*
X136383500Y-66555800D02*
X135903500Y-66555800D01*
X136143500Y-66225800D01*
X136383500Y-66555800D01*
G36*
X136383500Y-66555800D02*
G01*
X135903500Y-66555800D01*
X136143500Y-66225800D01*
X136383500Y-66555800D01*
G37*
%TO.C,S4*%
D14*
X122345900Y-102766800D02*
X122345900Y-103266800D01*
X122670900Y-104391800D02*
X128670900Y-104391800D01*
X124420900Y-101641800D02*
X125470900Y-101641800D01*
X128995900Y-102766800D02*
X128995900Y-103266800D01*
D15*
X123470900Y-99616800D02*
G75*
G02*
X123270900Y-99616800I-100000J0D01*
G01*
X123270900Y-99616800D02*
G75*
G02*
X123470900Y-99616800I100000J0D01*
G01*
%TO.C,U6*%
D13*
X131128900Y-68345000D02*
X131128900Y-69605000D01*
X131128900Y-75165000D02*
X131128900Y-73905000D01*
X134888900Y-68345000D02*
X131128900Y-68345000D01*
X134888900Y-75165000D02*
X131128900Y-75165000D01*
X136408900Y-75395000D02*
X135928900Y-75395000D01*
X136168900Y-75065000D01*
X136408900Y-75395000D01*
G36*
X136408900Y-75395000D02*
G01*
X135928900Y-75395000D01*
X136168900Y-75065000D01*
X136408900Y-75395000D01*
G37*
%TO.C,R9*%
X126182436Y-74474400D02*
X126636564Y-74474400D01*
X126182436Y-75944400D02*
X126636564Y-75944400D01*
%TO.C,J4*%
X104073700Y-75565000D02*
X104073700Y-67885000D01*
X104073700Y-78165000D02*
X104073700Y-76835000D01*
X105403700Y-78165000D02*
X104073700Y-78165000D01*
X106673700Y-75565000D02*
X104073700Y-75565000D01*
X106673700Y-78165000D02*
X106673700Y-75565000D01*
X109273700Y-67885000D02*
X104073700Y-67885000D01*
X109273700Y-78165000D02*
X106673700Y-78165000D01*
X109273700Y-78165000D02*
X109273700Y-67885000D01*
%TO.C,R8*%
X111524376Y-92492300D02*
X112033824Y-92492300D01*
X111524376Y-93537300D02*
X112033824Y-93537300D01*
%TO.C,U2*%
X146210900Y-74681800D02*
X151730900Y-74681800D01*
X146210900Y-74856800D02*
X146210900Y-74681800D01*
X146210900Y-83101800D02*
X146210900Y-82926800D01*
X151730900Y-74681800D02*
X151730900Y-74856800D01*
X151730900Y-82926800D02*
X151730900Y-83101800D01*
X151730900Y-83101800D02*
X146210900Y-83101800D01*
X152810900Y-83401800D02*
X152130900Y-83401800D01*
X152470900Y-82931800D01*
X152810900Y-83401800D01*
G36*
X152810900Y-83401800D02*
G01*
X152130900Y-83401800D01*
X152470900Y-82931800D01*
X152810900Y-83401800D01*
G37*
%TO.C,D1*%
X155020900Y-66866800D02*
X155020900Y-71916800D01*
X155470900Y-66416800D02*
X155020900Y-66866800D01*
X155820900Y-68266800D02*
X155820900Y-70066800D01*
X161220900Y-68266800D02*
X161220900Y-70066800D01*
X162020900Y-66416800D02*
X155470900Y-66416800D01*
X162020900Y-71916800D02*
X155020900Y-71916800D01*
X162020900Y-71916800D02*
X162020900Y-66416800D01*
%TO.C,C13*%
X138120500Y-68739652D02*
X138120500Y-68217148D01*
X139590500Y-68739652D02*
X139590500Y-68217148D01*
%TO.C,SW2*%
D16*
X142120900Y-95316800D02*
X142120900Y-96066800D01*
X142120900Y-98816800D02*
X142120900Y-98066800D01*
X148120900Y-95316800D02*
X142120900Y-95316800D01*
X148120900Y-96066800D02*
X148120900Y-95316800D01*
X148120900Y-98066800D02*
X148120900Y-98816800D01*
X148120900Y-98816800D02*
X142120900Y-98816800D01*
D15*
D17*
X150020900Y-96966800D02*
X150020899Y-96966800D01*
X150020899Y-96966800D01*
X150020899Y-96966800D01*
X150020899Y-96966800D01*
X150020899Y-96966800D01*
X150020899Y-96966800D01*
X150020899Y-96966800D01*
X150020899Y-96966799D01*
X150020899Y-96966799D01*
X150020899Y-96966799D01*
X150020899Y-96966799D01*
X150020899Y-96966799D01*
X150020900Y-96966799D01*
X150020900Y-96966799D01*
X150020900Y-96966799D01*
X150020900Y-96966799D01*
X150020900Y-96966799D01*
X150020900Y-96966799D01*
X150020900Y-96966799D01*
X150020900Y-96966799D01*
X150020900Y-96966799D01*
X150020900Y-96966799D01*
X150020900Y-96966799D01*
X150020900Y-96966799D01*
X150020901Y-96966799D01*
X150020901Y-96966799D01*
X150020901Y-96966799D01*
X150020901Y-96966799D01*
X150020901Y-96966799D01*
X150020901Y-96966799D01*
X150020901Y-96966800D01*
X150020901Y-96966800D01*
X150020901Y-96966800D01*
X150020901Y-96966800D01*
X150020901Y-96966800D01*
X150020901Y-96966800D01*
X150020901Y-96966800D01*
X150020900Y-96966800D01*
X150020900Y-96966800D02*
X150020901Y-96966800D01*
X150020901Y-96966800D01*
X150020901Y-96966800D01*
X150020901Y-96966800D01*
X150020901Y-96966800D01*
X150020901Y-96966800D01*
X150020901Y-96966801D01*
X150020901Y-96966801D01*
X150020901Y-96966801D01*
X150020901Y-96966801D01*
X150020901Y-96966801D01*
X150020901Y-96966801D01*
X150020901Y-96966801D01*
X150020900Y-96966801D01*
X150020900Y-96966801D01*
X150020900Y-96966801D01*
X150020900Y-96966801D01*
X150020900Y-96966801D01*
X150020900Y-96966801D01*
X150020900Y-96966801D01*
X150020900Y-96966801D01*
X150020900Y-96966801D01*
X150020900Y-96966801D01*
X150020900Y-96966801D01*
X150020900Y-96966801D01*
X150020899Y-96966801D01*
X150020899Y-96966801D01*
X150020899Y-96966801D01*
X150020899Y-96966801D01*
X150020899Y-96966801D01*
X150020899Y-96966801D01*
X150020899Y-96966800D01*
X150020899Y-96966800D01*
X150020899Y-96966800D01*
X150020899Y-96966800D01*
X150020899Y-96966800D01*
X150020899Y-96966800D01*
X150020900Y-96966800D01*
D15*
D17*
X150020900Y-97166800D02*
X150020899Y-97166800D01*
X150020899Y-97166800D01*
X150020899Y-97166800D01*
X150020899Y-97166800D01*
X150020899Y-97166800D01*
X150020899Y-97166800D01*
X150020899Y-97166800D01*
X150020899Y-97166799D01*
X150020899Y-97166799D01*
X150020899Y-97166799D01*
X150020899Y-97166799D01*
X150020899Y-97166799D01*
X150020900Y-97166799D01*
X150020900Y-97166799D01*
X150020900Y-97166799D01*
X150020900Y-97166799D01*
X150020900Y-97166799D01*
X150020900Y-97166799D01*
X150020900Y-97166799D01*
X150020900Y-97166799D01*
X150020900Y-97166799D01*
X150020900Y-97166799D01*
X150020900Y-97166799D01*
X150020900Y-97166799D01*
X150020901Y-97166799D01*
X150020901Y-97166799D01*
X150020901Y-97166799D01*
X150020901Y-97166799D01*
X150020901Y-97166799D01*
X150020901Y-97166799D01*
X150020901Y-97166800D01*
X150020901Y-97166800D01*
X150020901Y-97166800D01*
X150020901Y-97166800D01*
X150020901Y-97166800D01*
X150020901Y-97166800D01*
X150020901Y-97166800D01*
X150020900Y-97166800D01*
X150020900Y-97166800D02*
X150020901Y-97166800D01*
X150020901Y-97166800D01*
X150020901Y-97166800D01*
X150020901Y-97166800D01*
X150020901Y-97166800D01*
X150020901Y-97166800D01*
X150020901Y-97166801D01*
X150020901Y-97166801D01*
X150020901Y-97166801D01*
X150020901Y-97166801D01*
X150020901Y-97166801D01*
X150020901Y-97166801D01*
X150020901Y-97166801D01*
X150020900Y-97166801D01*
X150020900Y-97166801D01*
X150020900Y-97166801D01*
X150020900Y-97166801D01*
X150020900Y-97166801D01*
X150020900Y-97166801D01*
X150020900Y-97166801D01*
X150020900Y-97166801D01*
X150020900Y-97166801D01*
X150020900Y-97166801D01*
X150020900Y-97166801D01*
X150020900Y-97166801D01*
X150020899Y-97166801D01*
X150020899Y-97166801D01*
X150020899Y-97166801D01*
X150020899Y-97166801D01*
X150020899Y-97166801D01*
X150020899Y-97166801D01*
X150020899Y-97166800D01*
X150020899Y-97166800D01*
X150020899Y-97166800D01*
X150020899Y-97166800D01*
X150020899Y-97166800D01*
X150020899Y-97166800D01*
X150020900Y-97166800D01*
D15*
X150020900Y-96966800D02*
G75*
G02*
X150020900Y-97166800I0J-100000D01*
G01*
X150020900Y-97166800D02*
G75*
G02*
X150020900Y-96966800I0J100000D01*
G01*
%TO.C,U1*%
D13*
X124311300Y-82724400D02*
X125261300Y-82724400D01*
X124311300Y-83674400D02*
X124311300Y-82724400D01*
X124311300Y-92944400D02*
X124311300Y-91994400D01*
X125261300Y-92944400D02*
X124311300Y-92944400D01*
X133581300Y-82724400D02*
X134531300Y-82724400D01*
X134531300Y-82724400D02*
X134531300Y-83674400D01*
X134531300Y-91994400D02*
X134531300Y-92944400D01*
X134531300Y-92944400D02*
X133581300Y-92944400D01*
X135511300Y-92464400D02*
X134831300Y-92464400D01*
X135171300Y-91994400D01*
X135511300Y-92464400D01*
G36*
X135511300Y-92464400D02*
G01*
X134831300Y-92464400D01*
X135171300Y-91994400D01*
X135511300Y-92464400D01*
G37*
%TO.C,C3*%
X135497148Y-78331800D02*
X136019652Y-78331800D01*
X135497148Y-79801800D02*
X136019652Y-79801800D01*
%TO.C,D3*%
X124154100Y-70653400D02*
X124154100Y-73513400D01*
X124154100Y-73513400D02*
X126074100Y-73513400D01*
X126074100Y-73513400D02*
X126074100Y-70653400D01*
%TO.C,Y3*%
X141933400Y-91799500D02*
X145353400Y-91799500D01*
X145353400Y-91799500D02*
X145353400Y-87679500D01*
%TO.C,C22*%
X140482700Y-63979248D02*
X140482700Y-64501752D01*
X141952700Y-63979248D02*
X141952700Y-64501752D01*
%TO.C,J7*%
X155944500Y-57981400D02*
X155944500Y-59231400D01*
X156244500Y-60531400D02*
X156994500Y-60531400D01*
X156994500Y-60531400D02*
X156994500Y-63481400D01*
X156994500Y-63481400D02*
X160044500Y-63481400D01*
X157194500Y-57981400D02*
X155944500Y-57981400D01*
X163094500Y-60531400D02*
X163094500Y-63481400D01*
X163094500Y-63481400D02*
X160044500Y-63481400D01*
X163844500Y-60531400D02*
X163094500Y-60531400D01*
X156234500Y-58271400D02*
X163854500Y-58271400D01*
X163854500Y-64241400D01*
X156234500Y-64241400D01*
X156234500Y-58271400D01*
X156244500Y-58281400D02*
X158044500Y-58281400D01*
X158044500Y-59031400D01*
X156244500Y-59031400D01*
X156244500Y-58281400D01*
X159544500Y-58281400D02*
X160544500Y-58281400D01*
X160544500Y-59031400D01*
X159544500Y-59031400D01*
X159544500Y-58281400D01*
X162044500Y-58281400D02*
X163844500Y-58281400D01*
X163844500Y-59031400D01*
X162044500Y-59031400D01*
X162044500Y-58281400D01*
%TO.C,D5*%
X124701900Y-59009400D02*
X124701900Y-60929400D01*
X124701900Y-60929400D02*
X127561900Y-60929400D01*
X127561900Y-59009400D02*
X124701900Y-59009400D01*
%TO.C,R2*%
X126993836Y-97831800D02*
X127447964Y-97831800D01*
X126993836Y-99301800D02*
X127447964Y-99301800D01*
%TO.C,J1*%
X102017100Y-105130600D02*
X102017100Y-97400600D01*
X104777100Y-97400600D02*
X102017100Y-97400600D01*
X104777100Y-105130600D02*
X102017100Y-105130600D01*
X104777100Y-105130600D02*
X104777100Y-97400600D01*
X104777100Y-106400600D02*
X104777100Y-107780600D01*
X104777100Y-107780600D02*
X103397100Y-107780600D01*
%TO.C,R10*%
X126715900Y-62968136D02*
X126715900Y-63422264D01*
X128185900Y-62968136D02*
X128185900Y-63422264D01*
%TO.C,R6*%
X126639700Y-71400936D02*
X126639700Y-71855064D01*
X128109700Y-71400936D02*
X128109700Y-71855064D01*
%TO.C,D4*%
X120561700Y-74224000D02*
X120561700Y-76144000D01*
X120561700Y-76144000D02*
X123421700Y-76144000D01*
X123421700Y-74224000D02*
X120561700Y-74224000D01*
%TO.C,S3*%
D14*
X146061034Y-68566800D02*
X146061034Y-69066800D01*
X146386034Y-70191800D02*
X152386034Y-70191800D01*
X148136034Y-67441800D02*
X149186034Y-67441800D01*
X152711034Y-68566800D02*
X152711034Y-69066800D01*
D15*
X147186034Y-65416800D02*
G75*
G02*
X146986034Y-65416800I-100000J0D01*
G01*
X146986034Y-65416800D02*
G75*
G02*
X147186034Y-65416800I100000J0D01*
G01*
%TO.C,D2*%
D13*
X112368500Y-80153000D02*
X112368500Y-83013000D01*
X112368500Y-83013000D02*
X114288500Y-83013000D01*
X114288500Y-83013000D02*
X114288500Y-80153000D01*
%TO.C,C14*%
X138171300Y-72662148D02*
X138171300Y-73184652D01*
X139641300Y-72662148D02*
X139641300Y-73184652D01*
%TO.C,R3*%
X118791036Y-88241200D02*
X119245164Y-88241200D01*
X118791036Y-89711200D02*
X119245164Y-89711200D01*
%TO.C,C25*%
X123013152Y-80392600D02*
X122490648Y-80392600D01*
X123013152Y-81862600D02*
X122490648Y-81862600D01*
%TO.C,C17*%
X140508100Y-59290852D02*
X140508100Y-58768348D01*
X141978100Y-59290852D02*
X141978100Y-58768348D01*
%TO.C,C26*%
X162485900Y-69305548D02*
X162485900Y-69828052D01*
X163955900Y-69305548D02*
X163955900Y-69828052D01*
%TO.C,J5*%
X145449500Y-61642600D02*
X146199500Y-61642600D01*
X146199500Y-58692600D02*
X149249500Y-58692600D01*
X146199500Y-61642600D02*
X146199500Y-58692600D01*
X152099500Y-64192600D02*
X153349500Y-64192600D01*
X152299500Y-58692600D02*
X149249500Y-58692600D01*
X152299500Y-61642600D02*
X152299500Y-58692600D01*
X153049500Y-61642600D02*
X152299500Y-61642600D01*
X153349500Y-64192600D02*
X153349500Y-62942600D01*
X145449500Y-63142600D02*
X147249500Y-63142600D01*
X147249500Y-63892600D01*
X145449500Y-63892600D01*
X145449500Y-63142600D01*
X148749500Y-63142600D02*
X149749500Y-63142600D01*
X149749500Y-63892600D01*
X148749500Y-63892600D01*
X148749500Y-63142600D01*
X151249500Y-63142600D02*
X153049500Y-63142600D01*
X153049500Y-63892600D01*
X151249500Y-63892600D01*
X151249500Y-63142600D01*
X145439500Y-57932600D02*
X153059500Y-57932600D01*
X153059500Y-63902600D01*
X145439500Y-63902600D01*
X145439500Y-57932600D01*
%TO.C,C18*%
X138069700Y-59265452D02*
X138069700Y-58742948D01*
X139539700Y-59265452D02*
X139539700Y-58742948D01*
%TO.C,C20*%
X139637700Y-87168848D02*
X139637700Y-87691352D01*
X141107700Y-87168848D02*
X141107700Y-87691352D01*
%TO.C,C6*%
X148105448Y-84318100D02*
X148627952Y-84318100D01*
X148105448Y-85788100D02*
X148627952Y-85788100D01*
%TO.C,J6*%
X156720900Y-81916800D02*
X156720900Y-83166800D01*
X156720900Y-83166800D02*
X157970900Y-83166800D01*
X159270900Y-75266800D02*
X159270900Y-76016800D01*
X159270900Y-76016800D02*
X162220900Y-76016800D01*
X159270900Y-82116800D02*
X162220900Y-82116800D01*
X159270900Y-82866800D02*
X159270900Y-82116800D01*
X162220900Y-76016800D02*
X162220900Y-79066800D01*
X162220900Y-82116800D02*
X162220900Y-79066800D01*
X157010900Y-75256800D02*
X162980900Y-75256800D01*
X162980900Y-82876800D01*
X157010900Y-82876800D01*
X157010900Y-75256800D01*
X157020900Y-75266800D02*
X157770900Y-75266800D01*
X157770900Y-77066800D01*
X157020900Y-77066800D01*
X157020900Y-75266800D01*
X157020900Y-78566800D02*
X157770900Y-78566800D01*
X157770900Y-79566800D01*
X157020900Y-79566800D01*
X157020900Y-78566800D01*
X157020900Y-81066800D02*
X157770900Y-81066800D01*
X157770900Y-82866800D01*
X157020900Y-82866800D01*
X157020900Y-81066800D01*
%TO.C,C23*%
X138120500Y-64051548D02*
X138120500Y-64574052D01*
X139590500Y-64051548D02*
X139590500Y-64574052D01*
%TO.C,J9*%
X110487043Y-62675082D02*
X110487043Y-63925082D01*
X110787043Y-65225082D02*
X111537043Y-65225082D01*
X111537043Y-65225082D02*
X111537043Y-68175082D01*
X111537043Y-68175082D02*
X118337043Y-68175082D01*
X111737043Y-62675082D02*
X110487043Y-62675082D01*
X125137043Y-65225082D02*
X125137043Y-68175082D01*
X125137043Y-68175082D02*
X118337043Y-68175082D01*
X125887043Y-65225082D02*
X125137043Y-65225082D01*
X110777043Y-62965082D02*
X125897043Y-62965082D01*
X125897043Y-68935082D01*
X110777043Y-68935082D01*
X110777043Y-62965082D01*
X110787043Y-62975082D02*
X112587043Y-62975082D01*
X112587043Y-63725082D01*
X110787043Y-63725082D01*
X110787043Y-62975082D01*
X114087043Y-62975082D02*
X122587043Y-62975082D01*
X122587043Y-63725082D01*
X114087043Y-63725082D01*
X114087043Y-62975082D01*
X124087043Y-62975082D02*
X125887043Y-62975082D01*
X125887043Y-63725082D01*
X124087043Y-63725082D01*
X124087043Y-62975082D01*
%TO.C,J3*%
X105550900Y-85284400D02*
X103770900Y-85284400D01*
X105550900Y-94684400D02*
X103770900Y-94684400D01*
X108470900Y-87184400D02*
X108470900Y-86384400D01*
%TO.C,C19*%
X139637700Y-91628352D02*
X139637700Y-91105848D01*
X141107700Y-91628352D02*
X141107700Y-91105848D01*
%TO.C,J2*%
X133182100Y-106035800D02*
X134512100Y-106035800D01*
X133182100Y-107365800D02*
X133182100Y-106035800D01*
X135782100Y-106035800D02*
X153622100Y-106035800D01*
X135782100Y-108695800D02*
X135782100Y-106035800D01*
X135782100Y-108695800D02*
X153622100Y-108695800D01*
X153622100Y-108695800D02*
X153622100Y-106035800D01*
%TO.C,C4*%
X134174648Y-95150000D02*
X134697152Y-95150000D01*
X134174648Y-96620000D02*
X134697152Y-96620000D01*
%TO.C,C1*%
X122444652Y-93081800D02*
X121922148Y-93081800D01*
X122444652Y-94551800D02*
X121922148Y-94551800D01*
%TO.C,C9*%
X146478900Y-86704000D02*
X146478900Y-90124000D01*
X146478900Y-90124000D02*
X153418900Y-90124000D01*
X153418900Y-86704000D02*
X146478900Y-86704000D01*
%TO.C,R4*%
X118791036Y-90298600D02*
X119245164Y-90298600D01*
X118791036Y-91768600D02*
X119245164Y-91768600D01*
%TO.C,C24*%
X136748900Y-86708348D02*
X136748900Y-87230852D01*
X138218900Y-86708348D02*
X138218900Y-87230852D01*
%TO.C,R7*%
X112033824Y-86523300D02*
X111524376Y-86523300D01*
X112033824Y-87568300D02*
X111524376Y-87568300D01*
%TO.C,C15*%
X140381100Y-68714252D02*
X140381100Y-68191748D01*
X141851100Y-68714252D02*
X141851100Y-68191748D01*
%TO.C,J8*%
X106703700Y-102612800D02*
X107453700Y-102612800D01*
X107453700Y-99662800D02*
X113003700Y-99662800D01*
X107453700Y-102612800D02*
X107453700Y-99662800D01*
X118353700Y-105162800D02*
X119603700Y-105162800D01*
X118553700Y-99662800D02*
X113003700Y-99662800D01*
X118553700Y-102612800D02*
X118553700Y-99662800D01*
X119303700Y-102612800D02*
X118553700Y-102612800D01*
X119603700Y-105162800D02*
X119603700Y-103912800D01*
X106703700Y-104112800D02*
X108503700Y-104112800D01*
X108503700Y-104862800D01*
X106703700Y-104862800D01*
X106703700Y-104112800D01*
X110003700Y-104112800D02*
X116003700Y-104112800D01*
X116003700Y-104862800D01*
X110003700Y-104862800D01*
X110003700Y-104112800D01*
X117503700Y-104112800D02*
X119303700Y-104112800D01*
X119303700Y-104862800D01*
X117503700Y-104862800D01*
X117503700Y-104112800D01*
X106693700Y-98902800D02*
X119313700Y-98902800D01*
X119313700Y-104872800D01*
X106693700Y-104872800D01*
X106693700Y-98902800D01*
%TO.C,C16*%
X140482700Y-72640648D02*
X140482700Y-73163152D01*
X141952700Y-72640648D02*
X141952700Y-73163152D01*
%TO.C,R17*%
X105732364Y-64924000D02*
X105278236Y-64924000D01*
X105732364Y-66394000D02*
X105278236Y-66394000D01*
%TO.C,C21*%
X142497148Y-100831800D02*
X143019652Y-100831800D01*
X142497148Y-102301800D02*
X143019652Y-102301800D01*
%TD*%
M02*
