%TF.GenerationSoftware,KiCad,Pcbnew,9.0.7*%
%TF.CreationDate,2026-04-28T21:19:14-06:00*%
%TF.ProjectId,4_27_STM_embedded,345f3237-5f53-4544-9d5f-656d62656464,rev?*%
%TF.SameCoordinates,Original*%
%TF.FileFunction,Legend,Top*%
%TF.FilePolarity,Positive*%
%FSLAX46Y46*%
G04 Gerber Fmt 4.6, Leading zero omitted, Abs format (unit mm)*
G04 Created by KiCad (PCBNEW 9.0.7) date 2026-04-28 21:19:14*
%MOMM*%
%LPD*%
G01*
G04 APERTURE LIST*
%ADD10C,0.100000*%
%ADD11C,0.150000*%
%ADD12C,0.120000*%
G04 APERTURE END LIST*
D10*
X128494360Y-78122419D02*
X128684836Y-78122419D01*
X128684836Y-78122419D02*
X128780074Y-78170038D01*
X128780074Y-78170038D02*
X128875312Y-78265276D01*
X128875312Y-78265276D02*
X128922931Y-78455752D01*
X128922931Y-78455752D02*
X128922931Y-78789085D01*
X128922931Y-78789085D02*
X128875312Y-78979561D01*
X128875312Y-78979561D02*
X128780074Y-79074800D01*
X128780074Y-79074800D02*
X128684836Y-79122419D01*
X128684836Y-79122419D02*
X128494360Y-79122419D01*
X128494360Y-79122419D02*
X128399122Y-79074800D01*
X128399122Y-79074800D02*
X128303884Y-78979561D01*
X128303884Y-78979561D02*
X128256265Y-78789085D01*
X128256265Y-78789085D02*
X128256265Y-78455752D01*
X128256265Y-78455752D02*
X128303884Y-78265276D01*
X128303884Y-78265276D02*
X128399122Y-78170038D01*
X128399122Y-78170038D02*
X128494360Y-78122419D01*
X129351503Y-79122419D02*
X129351503Y-78122419D01*
X129351503Y-78122419D02*
X129922931Y-79122419D01*
X129922931Y-79122419D02*
X129922931Y-78122419D01*
X131053884Y-58372419D02*
X131053884Y-59181942D01*
X131053884Y-59181942D02*
X131101503Y-59277180D01*
X131101503Y-59277180D02*
X131149122Y-59324800D01*
X131149122Y-59324800D02*
X131244360Y-59372419D01*
X131244360Y-59372419D02*
X131434836Y-59372419D01*
X131434836Y-59372419D02*
X131530074Y-59324800D01*
X131530074Y-59324800D02*
X131577693Y-59277180D01*
X131577693Y-59277180D02*
X131625312Y-59181942D01*
X131625312Y-59181942D02*
X131625312Y-58372419D01*
X132053884Y-59324800D02*
X132196741Y-59372419D01*
X132196741Y-59372419D02*
X132434836Y-59372419D01*
X132434836Y-59372419D02*
X132530074Y-59324800D01*
X132530074Y-59324800D02*
X132577693Y-59277180D01*
X132577693Y-59277180D02*
X132625312Y-59181942D01*
X132625312Y-59181942D02*
X132625312Y-59086704D01*
X132625312Y-59086704D02*
X132577693Y-58991466D01*
X132577693Y-58991466D02*
X132530074Y-58943847D01*
X132530074Y-58943847D02*
X132434836Y-58896228D01*
X132434836Y-58896228D02*
X132244360Y-58848609D01*
X132244360Y-58848609D02*
X132149122Y-58800990D01*
X132149122Y-58800990D02*
X132101503Y-58753371D01*
X132101503Y-58753371D02*
X132053884Y-58658133D01*
X132053884Y-58658133D02*
X132053884Y-58562895D01*
X132053884Y-58562895D02*
X132101503Y-58467657D01*
X132101503Y-58467657D02*
X132149122Y-58420038D01*
X132149122Y-58420038D02*
X132244360Y-58372419D01*
X132244360Y-58372419D02*
X132482455Y-58372419D01*
X132482455Y-58372419D02*
X132625312Y-58420038D01*
X133387217Y-58848609D02*
X133530074Y-58896228D01*
X133530074Y-58896228D02*
X133577693Y-58943847D01*
X133577693Y-58943847D02*
X133625312Y-59039085D01*
X133625312Y-59039085D02*
X133625312Y-59181942D01*
X133625312Y-59181942D02*
X133577693Y-59277180D01*
X133577693Y-59277180D02*
X133530074Y-59324800D01*
X133530074Y-59324800D02*
X133434836Y-59372419D01*
X133434836Y-59372419D02*
X133053884Y-59372419D01*
X133053884Y-59372419D02*
X133053884Y-58372419D01*
X133053884Y-58372419D02*
X133387217Y-58372419D01*
X133387217Y-58372419D02*
X133482455Y-58420038D01*
X133482455Y-58420038D02*
X133530074Y-58467657D01*
X133530074Y-58467657D02*
X133577693Y-58562895D01*
X133577693Y-58562895D02*
X133577693Y-58658133D01*
X133577693Y-58658133D02*
X133530074Y-58753371D01*
X133530074Y-58753371D02*
X133482455Y-58800990D01*
X133482455Y-58800990D02*
X133387217Y-58848609D01*
X133387217Y-58848609D02*
X133053884Y-58848609D01*
X96053884Y-83622419D02*
X96053884Y-82622419D01*
X96482455Y-82717657D02*
X96530074Y-82670038D01*
X96530074Y-82670038D02*
X96625312Y-82622419D01*
X96625312Y-82622419D02*
X96863407Y-82622419D01*
X96863407Y-82622419D02*
X96958645Y-82670038D01*
X96958645Y-82670038D02*
X97006264Y-82717657D01*
X97006264Y-82717657D02*
X97053883Y-82812895D01*
X97053883Y-82812895D02*
X97053883Y-82908133D01*
X97053883Y-82908133D02*
X97006264Y-83050990D01*
X97006264Y-83050990D02*
X96434836Y-83622419D01*
X96434836Y-83622419D02*
X97053883Y-83622419D01*
X98053883Y-83527180D02*
X98006264Y-83574800D01*
X98006264Y-83574800D02*
X97863407Y-83622419D01*
X97863407Y-83622419D02*
X97768169Y-83622419D01*
X97768169Y-83622419D02*
X97625312Y-83574800D01*
X97625312Y-83574800D02*
X97530074Y-83479561D01*
X97530074Y-83479561D02*
X97482455Y-83384323D01*
X97482455Y-83384323D02*
X97434836Y-83193847D01*
X97434836Y-83193847D02*
X97434836Y-83050990D01*
X97434836Y-83050990D02*
X97482455Y-82860514D01*
X97482455Y-82860514D02*
X97530074Y-82765276D01*
X97530074Y-82765276D02*
X97625312Y-82670038D01*
X97625312Y-82670038D02*
X97768169Y-82622419D01*
X97768169Y-82622419D02*
X97863407Y-82622419D01*
X97863407Y-82622419D02*
X98006264Y-82670038D01*
X98006264Y-82670038D02*
X98053883Y-82717657D01*
X88887217Y-69098609D02*
X89030074Y-69146228D01*
X89030074Y-69146228D02*
X89077693Y-69193847D01*
X89077693Y-69193847D02*
X89125312Y-69289085D01*
X89125312Y-69289085D02*
X89125312Y-69431942D01*
X89125312Y-69431942D02*
X89077693Y-69527180D01*
X89077693Y-69527180D02*
X89030074Y-69574800D01*
X89030074Y-69574800D02*
X88934836Y-69622419D01*
X88934836Y-69622419D02*
X88553884Y-69622419D01*
X88553884Y-69622419D02*
X88553884Y-68622419D01*
X88553884Y-68622419D02*
X88887217Y-68622419D01*
X88887217Y-68622419D02*
X88982455Y-68670038D01*
X88982455Y-68670038D02*
X89030074Y-68717657D01*
X89030074Y-68717657D02*
X89077693Y-68812895D01*
X89077693Y-68812895D02*
X89077693Y-68908133D01*
X89077693Y-68908133D02*
X89030074Y-69003371D01*
X89030074Y-69003371D02*
X88982455Y-69050990D01*
X88982455Y-69050990D02*
X88887217Y-69098609D01*
X88887217Y-69098609D02*
X88553884Y-69098609D01*
X89744360Y-68622419D02*
X89934836Y-68622419D01*
X89934836Y-68622419D02*
X90030074Y-68670038D01*
X90030074Y-68670038D02*
X90125312Y-68765276D01*
X90125312Y-68765276D02*
X90172931Y-68955752D01*
X90172931Y-68955752D02*
X90172931Y-69289085D01*
X90172931Y-69289085D02*
X90125312Y-69479561D01*
X90125312Y-69479561D02*
X90030074Y-69574800D01*
X90030074Y-69574800D02*
X89934836Y-69622419D01*
X89934836Y-69622419D02*
X89744360Y-69622419D01*
X89744360Y-69622419D02*
X89649122Y-69574800D01*
X89649122Y-69574800D02*
X89553884Y-69479561D01*
X89553884Y-69479561D02*
X89506265Y-69289085D01*
X89506265Y-69289085D02*
X89506265Y-68955752D01*
X89506265Y-68955752D02*
X89553884Y-68765276D01*
X89553884Y-68765276D02*
X89649122Y-68670038D01*
X89649122Y-68670038D02*
X89744360Y-68622419D01*
X90791979Y-68622419D02*
X90982455Y-68622419D01*
X90982455Y-68622419D02*
X91077693Y-68670038D01*
X91077693Y-68670038D02*
X91172931Y-68765276D01*
X91172931Y-68765276D02*
X91220550Y-68955752D01*
X91220550Y-68955752D02*
X91220550Y-69289085D01*
X91220550Y-69289085D02*
X91172931Y-69479561D01*
X91172931Y-69479561D02*
X91077693Y-69574800D01*
X91077693Y-69574800D02*
X90982455Y-69622419D01*
X90982455Y-69622419D02*
X90791979Y-69622419D01*
X90791979Y-69622419D02*
X90696741Y-69574800D01*
X90696741Y-69574800D02*
X90601503Y-69479561D01*
X90601503Y-69479561D02*
X90553884Y-69289085D01*
X90553884Y-69289085D02*
X90553884Y-68955752D01*
X90553884Y-68955752D02*
X90601503Y-68765276D01*
X90601503Y-68765276D02*
X90696741Y-68670038D01*
X90696741Y-68670038D02*
X90791979Y-68622419D01*
X91506265Y-68622419D02*
X92077693Y-68622419D01*
X91791979Y-69622419D02*
X91791979Y-68622419D01*
X117756265Y-58324800D02*
X117899122Y-58372419D01*
X117899122Y-58372419D02*
X118137217Y-58372419D01*
X118137217Y-58372419D02*
X118232455Y-58324800D01*
X118232455Y-58324800D02*
X118280074Y-58277180D01*
X118280074Y-58277180D02*
X118327693Y-58181942D01*
X118327693Y-58181942D02*
X118327693Y-58086704D01*
X118327693Y-58086704D02*
X118280074Y-57991466D01*
X118280074Y-57991466D02*
X118232455Y-57943847D01*
X118232455Y-57943847D02*
X118137217Y-57896228D01*
X118137217Y-57896228D02*
X117946741Y-57848609D01*
X117946741Y-57848609D02*
X117851503Y-57800990D01*
X117851503Y-57800990D02*
X117803884Y-57753371D01*
X117803884Y-57753371D02*
X117756265Y-57658133D01*
X117756265Y-57658133D02*
X117756265Y-57562895D01*
X117756265Y-57562895D02*
X117803884Y-57467657D01*
X117803884Y-57467657D02*
X117851503Y-57420038D01*
X117851503Y-57420038D02*
X117946741Y-57372419D01*
X117946741Y-57372419D02*
X118184836Y-57372419D01*
X118184836Y-57372419D02*
X118327693Y-57420038D01*
X118661027Y-57372419D02*
X118899122Y-58372419D01*
X118899122Y-58372419D02*
X119089598Y-57658133D01*
X119089598Y-57658133D02*
X119280074Y-58372419D01*
X119280074Y-58372419D02*
X119518170Y-57372419D01*
X119899122Y-58372419D02*
X119899122Y-57372419D01*
X119899122Y-57372419D02*
X120137217Y-57372419D01*
X120137217Y-57372419D02*
X120280074Y-57420038D01*
X120280074Y-57420038D02*
X120375312Y-57515276D01*
X120375312Y-57515276D02*
X120422931Y-57610514D01*
X120422931Y-57610514D02*
X120470550Y-57800990D01*
X120470550Y-57800990D02*
X120470550Y-57943847D01*
X120470550Y-57943847D02*
X120422931Y-58134323D01*
X120422931Y-58134323D02*
X120375312Y-58229561D01*
X120375312Y-58229561D02*
X120280074Y-58324800D01*
X120280074Y-58324800D02*
X120137217Y-58372419D01*
X120137217Y-58372419D02*
X119899122Y-58372419D01*
X103553884Y-57122419D02*
X103553884Y-57931942D01*
X103553884Y-57931942D02*
X103601503Y-58027180D01*
X103601503Y-58027180D02*
X103649122Y-58074800D01*
X103649122Y-58074800D02*
X103744360Y-58122419D01*
X103744360Y-58122419D02*
X103934836Y-58122419D01*
X103934836Y-58122419D02*
X104030074Y-58074800D01*
X104030074Y-58074800D02*
X104077693Y-58027180D01*
X104077693Y-58027180D02*
X104125312Y-57931942D01*
X104125312Y-57931942D02*
X104125312Y-57122419D01*
X104553884Y-57836704D02*
X105030074Y-57836704D01*
X104458646Y-58122419D02*
X104791979Y-57122419D01*
X104791979Y-57122419D02*
X105125312Y-58122419D01*
X106030074Y-58122419D02*
X105696741Y-57646228D01*
X105458646Y-58122419D02*
X105458646Y-57122419D01*
X105458646Y-57122419D02*
X105839598Y-57122419D01*
X105839598Y-57122419D02*
X105934836Y-57170038D01*
X105934836Y-57170038D02*
X105982455Y-57217657D01*
X105982455Y-57217657D02*
X106030074Y-57312895D01*
X106030074Y-57312895D02*
X106030074Y-57455752D01*
X106030074Y-57455752D02*
X105982455Y-57550990D01*
X105982455Y-57550990D02*
X105934836Y-57598609D01*
X105934836Y-57598609D02*
X105839598Y-57646228D01*
X105839598Y-57646228D02*
X105458646Y-57646228D01*
X106315789Y-57122419D02*
X106887217Y-57122419D01*
X106601503Y-58122419D02*
X106601503Y-57122419D01*
X122553884Y-86872419D02*
X122553884Y-85872419D01*
X122553884Y-85872419D02*
X123125312Y-86872419D01*
X123125312Y-86872419D02*
X123125312Y-85872419D01*
X123601503Y-86872419D02*
X123601503Y-85872419D01*
X124649121Y-86777180D02*
X124601502Y-86824800D01*
X124601502Y-86824800D02*
X124458645Y-86872419D01*
X124458645Y-86872419D02*
X124363407Y-86872419D01*
X124363407Y-86872419D02*
X124220550Y-86824800D01*
X124220550Y-86824800D02*
X124125312Y-86729561D01*
X124125312Y-86729561D02*
X124077693Y-86634323D01*
X124077693Y-86634323D02*
X124030074Y-86443847D01*
X124030074Y-86443847D02*
X124030074Y-86300990D01*
X124030074Y-86300990D02*
X124077693Y-86110514D01*
X124077693Y-86110514D02*
X124125312Y-86015276D01*
X124125312Y-86015276D02*
X124220550Y-85920038D01*
X124220550Y-85920038D02*
X124363407Y-85872419D01*
X124363407Y-85872419D02*
X124458645Y-85872419D01*
X124458645Y-85872419D02*
X124601502Y-85920038D01*
X124601502Y-85920038D02*
X124649121Y-85967657D01*
X124839598Y-86967657D02*
X125601502Y-86967657D01*
X126411026Y-86872419D02*
X126077693Y-86396228D01*
X125839598Y-86872419D02*
X125839598Y-85872419D01*
X125839598Y-85872419D02*
X126220550Y-85872419D01*
X126220550Y-85872419D02*
X126315788Y-85920038D01*
X126315788Y-85920038D02*
X126363407Y-85967657D01*
X126363407Y-85967657D02*
X126411026Y-86062895D01*
X126411026Y-86062895D02*
X126411026Y-86205752D01*
X126411026Y-86205752D02*
X126363407Y-86300990D01*
X126363407Y-86300990D02*
X126315788Y-86348609D01*
X126315788Y-86348609D02*
X126220550Y-86396228D01*
X126220550Y-86396228D02*
X125839598Y-86396228D01*
X126839598Y-85872419D02*
X126839598Y-86681942D01*
X126839598Y-86681942D02*
X126887217Y-86777180D01*
X126887217Y-86777180D02*
X126934836Y-86824800D01*
X126934836Y-86824800D02*
X127030074Y-86872419D01*
X127030074Y-86872419D02*
X127220550Y-86872419D01*
X127220550Y-86872419D02*
X127315788Y-86824800D01*
X127315788Y-86824800D02*
X127363407Y-86777180D01*
X127363407Y-86777180D02*
X127411026Y-86681942D01*
X127411026Y-86681942D02*
X127411026Y-85872419D01*
X127744360Y-85872419D02*
X128315788Y-85872419D01*
X128030074Y-86872419D02*
X128030074Y-85872419D01*
X128649122Y-86872419D02*
X128649122Y-85872419D01*
X128649122Y-86348609D02*
X129220550Y-86348609D01*
X129220550Y-86872419D02*
X129220550Y-85872419D01*
D11*
X88721667Y-58407200D02*
X88864524Y-58454819D01*
X88864524Y-58454819D02*
X89102619Y-58454819D01*
X89102619Y-58454819D02*
X89197857Y-58407200D01*
X89197857Y-58407200D02*
X89245476Y-58359580D01*
X89245476Y-58359580D02*
X89293095Y-58264342D01*
X89293095Y-58264342D02*
X89293095Y-58169104D01*
X89293095Y-58169104D02*
X89245476Y-58073866D01*
X89245476Y-58073866D02*
X89197857Y-58026247D01*
X89197857Y-58026247D02*
X89102619Y-57978628D01*
X89102619Y-57978628D02*
X88912143Y-57931009D01*
X88912143Y-57931009D02*
X88816905Y-57883390D01*
X88816905Y-57883390D02*
X88769286Y-57835771D01*
X88769286Y-57835771D02*
X88721667Y-57740533D01*
X88721667Y-57740533D02*
X88721667Y-57645295D01*
X88721667Y-57645295D02*
X88769286Y-57550057D01*
X88769286Y-57550057D02*
X88816905Y-57502438D01*
X88816905Y-57502438D02*
X88912143Y-57454819D01*
X88912143Y-57454819D02*
X89150238Y-57454819D01*
X89150238Y-57454819D02*
X89293095Y-57502438D01*
X89626429Y-57454819D02*
X89864524Y-58454819D01*
X89864524Y-58454819D02*
X90055000Y-57740533D01*
X90055000Y-57740533D02*
X90245476Y-58454819D01*
X90245476Y-58454819D02*
X90483572Y-57454819D01*
X91388333Y-58454819D02*
X90816905Y-58454819D01*
X91102619Y-58454819D02*
X91102619Y-57454819D01*
X91102619Y-57454819D02*
X91007381Y-57597676D01*
X91007381Y-57597676D02*
X90912143Y-57692914D01*
X90912143Y-57692914D02*
X90816905Y-57740533D01*
X127554819Y-65308333D02*
X128269104Y-65308333D01*
X128269104Y-65308333D02*
X128411961Y-65355952D01*
X128411961Y-65355952D02*
X128507200Y-65451190D01*
X128507200Y-65451190D02*
X128554819Y-65594047D01*
X128554819Y-65594047D02*
X128554819Y-65689285D01*
X128554819Y-64308333D02*
X128554819Y-64879761D01*
X128554819Y-64594047D02*
X127554819Y-64594047D01*
X127554819Y-64594047D02*
X127697676Y-64689285D01*
X127697676Y-64689285D02*
X127792914Y-64784523D01*
X127792914Y-64784523D02*
X127840533Y-64879761D01*
X109333333Y-75019580D02*
X109285714Y-75067200D01*
X109285714Y-75067200D02*
X109142857Y-75114819D01*
X109142857Y-75114819D02*
X109047619Y-75114819D01*
X109047619Y-75114819D02*
X108904762Y-75067200D01*
X108904762Y-75067200D02*
X108809524Y-74971961D01*
X108809524Y-74971961D02*
X108761905Y-74876723D01*
X108761905Y-74876723D02*
X108714286Y-74686247D01*
X108714286Y-74686247D02*
X108714286Y-74543390D01*
X108714286Y-74543390D02*
X108761905Y-74352914D01*
X108761905Y-74352914D02*
X108809524Y-74257676D01*
X108809524Y-74257676D02*
X108904762Y-74162438D01*
X108904762Y-74162438D02*
X109047619Y-74114819D01*
X109047619Y-74114819D02*
X109142857Y-74114819D01*
X109142857Y-74114819D02*
X109285714Y-74162438D01*
X109285714Y-74162438D02*
X109333333Y-74210057D01*
X109666667Y-74114819D02*
X110285714Y-74114819D01*
X110285714Y-74114819D02*
X109952381Y-74495771D01*
X109952381Y-74495771D02*
X110095238Y-74495771D01*
X110095238Y-74495771D02*
X110190476Y-74543390D01*
X110190476Y-74543390D02*
X110238095Y-74591009D01*
X110238095Y-74591009D02*
X110285714Y-74686247D01*
X110285714Y-74686247D02*
X110285714Y-74924342D01*
X110285714Y-74924342D02*
X110238095Y-75019580D01*
X110238095Y-75019580D02*
X110190476Y-75067200D01*
X110190476Y-75067200D02*
X110095238Y-75114819D01*
X110095238Y-75114819D02*
X109809524Y-75114819D01*
X109809524Y-75114819D02*
X109714286Y-75067200D01*
X109714286Y-75067200D02*
X109666667Y-75019580D01*
X95204819Y-61916666D02*
X94728628Y-62249999D01*
X95204819Y-62488094D02*
X94204819Y-62488094D01*
X94204819Y-62488094D02*
X94204819Y-62107142D01*
X94204819Y-62107142D02*
X94252438Y-62011904D01*
X94252438Y-62011904D02*
X94300057Y-61964285D01*
X94300057Y-61964285D02*
X94395295Y-61916666D01*
X94395295Y-61916666D02*
X94538152Y-61916666D01*
X94538152Y-61916666D02*
X94633390Y-61964285D01*
X94633390Y-61964285D02*
X94681009Y-62011904D01*
X94681009Y-62011904D02*
X94728628Y-62107142D01*
X94728628Y-62107142D02*
X94728628Y-62488094D01*
X95204819Y-60964285D02*
X95204819Y-61535713D01*
X95204819Y-61249999D02*
X94204819Y-61249999D01*
X94204819Y-61249999D02*
X94347676Y-61345237D01*
X94347676Y-61345237D02*
X94442914Y-61440475D01*
X94442914Y-61440475D02*
X94490533Y-61535713D01*
X104333333Y-74859580D02*
X104285714Y-74907200D01*
X104285714Y-74907200D02*
X104142857Y-74954819D01*
X104142857Y-74954819D02*
X104047619Y-74954819D01*
X104047619Y-74954819D02*
X103904762Y-74907200D01*
X103904762Y-74907200D02*
X103809524Y-74811961D01*
X103809524Y-74811961D02*
X103761905Y-74716723D01*
X103761905Y-74716723D02*
X103714286Y-74526247D01*
X103714286Y-74526247D02*
X103714286Y-74383390D01*
X103714286Y-74383390D02*
X103761905Y-74192914D01*
X103761905Y-74192914D02*
X103809524Y-74097676D01*
X103809524Y-74097676D02*
X103904762Y-74002438D01*
X103904762Y-74002438D02*
X104047619Y-73954819D01*
X104047619Y-73954819D02*
X104142857Y-73954819D01*
X104142857Y-73954819D02*
X104285714Y-74002438D01*
X104285714Y-74002438D02*
X104333333Y-74050057D01*
X104809524Y-74954819D02*
X105000000Y-74954819D01*
X105000000Y-74954819D02*
X105095238Y-74907200D01*
X105095238Y-74907200D02*
X105142857Y-74859580D01*
X105142857Y-74859580D02*
X105238095Y-74716723D01*
X105238095Y-74716723D02*
X105285714Y-74526247D01*
X105285714Y-74526247D02*
X105285714Y-74145295D01*
X105285714Y-74145295D02*
X105238095Y-74050057D01*
X105238095Y-74050057D02*
X105190476Y-74002438D01*
X105190476Y-74002438D02*
X105095238Y-73954819D01*
X105095238Y-73954819D02*
X104904762Y-73954819D01*
X104904762Y-73954819D02*
X104809524Y-74002438D01*
X104809524Y-74002438D02*
X104761905Y-74050057D01*
X104761905Y-74050057D02*
X104714286Y-74145295D01*
X104714286Y-74145295D02*
X104714286Y-74383390D01*
X104714286Y-74383390D02*
X104761905Y-74478628D01*
X104761905Y-74478628D02*
X104809524Y-74526247D01*
X104809524Y-74526247D02*
X104904762Y-74573866D01*
X104904762Y-74573866D02*
X105095238Y-74573866D01*
X105095238Y-74573866D02*
X105190476Y-74526247D01*
X105190476Y-74526247D02*
X105238095Y-74478628D01*
X105238095Y-74478628D02*
X105285714Y-74383390D01*
X100833333Y-61609580D02*
X100785714Y-61657200D01*
X100785714Y-61657200D02*
X100642857Y-61704819D01*
X100642857Y-61704819D02*
X100547619Y-61704819D01*
X100547619Y-61704819D02*
X100404762Y-61657200D01*
X100404762Y-61657200D02*
X100309524Y-61561961D01*
X100309524Y-61561961D02*
X100261905Y-61466723D01*
X100261905Y-61466723D02*
X100214286Y-61276247D01*
X100214286Y-61276247D02*
X100214286Y-61133390D01*
X100214286Y-61133390D02*
X100261905Y-60942914D01*
X100261905Y-60942914D02*
X100309524Y-60847676D01*
X100309524Y-60847676D02*
X100404762Y-60752438D01*
X100404762Y-60752438D02*
X100547619Y-60704819D01*
X100547619Y-60704819D02*
X100642857Y-60704819D01*
X100642857Y-60704819D02*
X100785714Y-60752438D01*
X100785714Y-60752438D02*
X100833333Y-60800057D01*
X101785714Y-61704819D02*
X101214286Y-61704819D01*
X101500000Y-61704819D02*
X101500000Y-60704819D01*
X101500000Y-60704819D02*
X101404762Y-60847676D01*
X101404762Y-60847676D02*
X101309524Y-60942914D01*
X101309524Y-60942914D02*
X101214286Y-60990533D01*
X117854819Y-85261904D02*
X118664342Y-85261904D01*
X118664342Y-85261904D02*
X118759580Y-85214285D01*
X118759580Y-85214285D02*
X118807200Y-85166666D01*
X118807200Y-85166666D02*
X118854819Y-85071428D01*
X118854819Y-85071428D02*
X118854819Y-84880952D01*
X118854819Y-84880952D02*
X118807200Y-84785714D01*
X118807200Y-84785714D02*
X118759580Y-84738095D01*
X118759580Y-84738095D02*
X118664342Y-84690476D01*
X118664342Y-84690476D02*
X117854819Y-84690476D01*
X117950057Y-84261904D02*
X117902438Y-84214285D01*
X117902438Y-84214285D02*
X117854819Y-84119047D01*
X117854819Y-84119047D02*
X117854819Y-83880952D01*
X117854819Y-83880952D02*
X117902438Y-83785714D01*
X117902438Y-83785714D02*
X117950057Y-83738095D01*
X117950057Y-83738095D02*
X118045295Y-83690476D01*
X118045295Y-83690476D02*
X118140533Y-83690476D01*
X118140533Y-83690476D02*
X118283390Y-83738095D01*
X118283390Y-83738095D02*
X118854819Y-84309523D01*
X118854819Y-84309523D02*
X118854819Y-83690476D01*
X103954819Y-77666666D02*
X103478628Y-77999999D01*
X103954819Y-78238094D02*
X102954819Y-78238094D01*
X102954819Y-78238094D02*
X102954819Y-77857142D01*
X102954819Y-77857142D02*
X103002438Y-77761904D01*
X103002438Y-77761904D02*
X103050057Y-77714285D01*
X103050057Y-77714285D02*
X103145295Y-77666666D01*
X103145295Y-77666666D02*
X103288152Y-77666666D01*
X103288152Y-77666666D02*
X103383390Y-77714285D01*
X103383390Y-77714285D02*
X103431009Y-77761904D01*
X103431009Y-77761904D02*
X103478628Y-77857142D01*
X103478628Y-77857142D02*
X103478628Y-78238094D01*
X103288152Y-76809523D02*
X103954819Y-76809523D01*
X102907200Y-77047618D02*
X103621485Y-77285713D01*
X103621485Y-77285713D02*
X103621485Y-76666666D01*
X101833333Y-71359580D02*
X101785714Y-71407200D01*
X101785714Y-71407200D02*
X101642857Y-71454819D01*
X101642857Y-71454819D02*
X101547619Y-71454819D01*
X101547619Y-71454819D02*
X101404762Y-71407200D01*
X101404762Y-71407200D02*
X101309524Y-71311961D01*
X101309524Y-71311961D02*
X101261905Y-71216723D01*
X101261905Y-71216723D02*
X101214286Y-71026247D01*
X101214286Y-71026247D02*
X101214286Y-70883390D01*
X101214286Y-70883390D02*
X101261905Y-70692914D01*
X101261905Y-70692914D02*
X101309524Y-70597676D01*
X101309524Y-70597676D02*
X101404762Y-70502438D01*
X101404762Y-70502438D02*
X101547619Y-70454819D01*
X101547619Y-70454819D02*
X101642857Y-70454819D01*
X101642857Y-70454819D02*
X101785714Y-70502438D01*
X101785714Y-70502438D02*
X101833333Y-70550057D01*
X102690476Y-70454819D02*
X102500000Y-70454819D01*
X102500000Y-70454819D02*
X102404762Y-70502438D01*
X102404762Y-70502438D02*
X102357143Y-70550057D01*
X102357143Y-70550057D02*
X102261905Y-70692914D01*
X102261905Y-70692914D02*
X102214286Y-70883390D01*
X102214286Y-70883390D02*
X102214286Y-71264342D01*
X102214286Y-71264342D02*
X102261905Y-71359580D01*
X102261905Y-71359580D02*
X102309524Y-71407200D01*
X102309524Y-71407200D02*
X102404762Y-71454819D01*
X102404762Y-71454819D02*
X102595238Y-71454819D01*
X102595238Y-71454819D02*
X102690476Y-71407200D01*
X102690476Y-71407200D02*
X102738095Y-71359580D01*
X102738095Y-71359580D02*
X102785714Y-71264342D01*
X102785714Y-71264342D02*
X102785714Y-71026247D01*
X102785714Y-71026247D02*
X102738095Y-70931009D01*
X102738095Y-70931009D02*
X102690476Y-70883390D01*
X102690476Y-70883390D02*
X102595238Y-70835771D01*
X102595238Y-70835771D02*
X102404762Y-70835771D01*
X102404762Y-70835771D02*
X102309524Y-70883390D01*
X102309524Y-70883390D02*
X102261905Y-70931009D01*
X102261905Y-70931009D02*
X102214286Y-71026247D01*
X98357142Y-64609580D02*
X98309523Y-64657200D01*
X98309523Y-64657200D02*
X98166666Y-64704819D01*
X98166666Y-64704819D02*
X98071428Y-64704819D01*
X98071428Y-64704819D02*
X97928571Y-64657200D01*
X97928571Y-64657200D02*
X97833333Y-64561961D01*
X97833333Y-64561961D02*
X97785714Y-64466723D01*
X97785714Y-64466723D02*
X97738095Y-64276247D01*
X97738095Y-64276247D02*
X97738095Y-64133390D01*
X97738095Y-64133390D02*
X97785714Y-63942914D01*
X97785714Y-63942914D02*
X97833333Y-63847676D01*
X97833333Y-63847676D02*
X97928571Y-63752438D01*
X97928571Y-63752438D02*
X98071428Y-63704819D01*
X98071428Y-63704819D02*
X98166666Y-63704819D01*
X98166666Y-63704819D02*
X98309523Y-63752438D01*
X98309523Y-63752438D02*
X98357142Y-63800057D01*
X99309523Y-64704819D02*
X98738095Y-64704819D01*
X99023809Y-64704819D02*
X99023809Y-63704819D01*
X99023809Y-63704819D02*
X98928571Y-63847676D01*
X98928571Y-63847676D02*
X98833333Y-63942914D01*
X98833333Y-63942914D02*
X98738095Y-63990533D01*
X99928571Y-63704819D02*
X100023809Y-63704819D01*
X100023809Y-63704819D02*
X100119047Y-63752438D01*
X100119047Y-63752438D02*
X100166666Y-63800057D01*
X100166666Y-63800057D02*
X100214285Y-63895295D01*
X100214285Y-63895295D02*
X100261904Y-64085771D01*
X100261904Y-64085771D02*
X100261904Y-64323866D01*
X100261904Y-64323866D02*
X100214285Y-64514342D01*
X100214285Y-64514342D02*
X100166666Y-64609580D01*
X100166666Y-64609580D02*
X100119047Y-64657200D01*
X100119047Y-64657200D02*
X100023809Y-64704819D01*
X100023809Y-64704819D02*
X99928571Y-64704819D01*
X99928571Y-64704819D02*
X99833333Y-64657200D01*
X99833333Y-64657200D02*
X99785714Y-64609580D01*
X99785714Y-64609580D02*
X99738095Y-64514342D01*
X99738095Y-64514342D02*
X99690476Y-64323866D01*
X99690476Y-64323866D02*
X99690476Y-64085771D01*
X99690476Y-64085771D02*
X99738095Y-63895295D01*
X99738095Y-63895295D02*
X99785714Y-63800057D01*
X99785714Y-63800057D02*
X99833333Y-63752438D01*
X99833333Y-63752438D02*
X99928571Y-63704819D01*
X100833333Y-60109580D02*
X100785714Y-60157200D01*
X100785714Y-60157200D02*
X100642857Y-60204819D01*
X100642857Y-60204819D02*
X100547619Y-60204819D01*
X100547619Y-60204819D02*
X100404762Y-60157200D01*
X100404762Y-60157200D02*
X100309524Y-60061961D01*
X100309524Y-60061961D02*
X100261905Y-59966723D01*
X100261905Y-59966723D02*
X100214286Y-59776247D01*
X100214286Y-59776247D02*
X100214286Y-59633390D01*
X100214286Y-59633390D02*
X100261905Y-59442914D01*
X100261905Y-59442914D02*
X100309524Y-59347676D01*
X100309524Y-59347676D02*
X100404762Y-59252438D01*
X100404762Y-59252438D02*
X100547619Y-59204819D01*
X100547619Y-59204819D02*
X100642857Y-59204819D01*
X100642857Y-59204819D02*
X100785714Y-59252438D01*
X100785714Y-59252438D02*
X100833333Y-59300057D01*
X101690476Y-59538152D02*
X101690476Y-60204819D01*
X101452381Y-59157200D02*
X101214286Y-59871485D01*
X101214286Y-59871485D02*
X101833333Y-59871485D01*
X97357142Y-70359580D02*
X97309523Y-70407200D01*
X97309523Y-70407200D02*
X97166666Y-70454819D01*
X97166666Y-70454819D02*
X97071428Y-70454819D01*
X97071428Y-70454819D02*
X96928571Y-70407200D01*
X96928571Y-70407200D02*
X96833333Y-70311961D01*
X96833333Y-70311961D02*
X96785714Y-70216723D01*
X96785714Y-70216723D02*
X96738095Y-70026247D01*
X96738095Y-70026247D02*
X96738095Y-69883390D01*
X96738095Y-69883390D02*
X96785714Y-69692914D01*
X96785714Y-69692914D02*
X96833333Y-69597676D01*
X96833333Y-69597676D02*
X96928571Y-69502438D01*
X96928571Y-69502438D02*
X97071428Y-69454819D01*
X97071428Y-69454819D02*
X97166666Y-69454819D01*
X97166666Y-69454819D02*
X97309523Y-69502438D01*
X97309523Y-69502438D02*
X97357142Y-69550057D01*
X98309523Y-70454819D02*
X97738095Y-70454819D01*
X98023809Y-70454819D02*
X98023809Y-69454819D01*
X98023809Y-69454819D02*
X97928571Y-69597676D01*
X97928571Y-69597676D02*
X97833333Y-69692914D01*
X97833333Y-69692914D02*
X97738095Y-69740533D01*
X99261904Y-70454819D02*
X98690476Y-70454819D01*
X98976190Y-70454819D02*
X98976190Y-69454819D01*
X98976190Y-69454819D02*
X98880952Y-69597676D01*
X98880952Y-69597676D02*
X98785714Y-69692914D01*
X98785714Y-69692914D02*
X98690476Y-69740533D01*
X124833333Y-74784819D02*
X124500000Y-74308628D01*
X124261905Y-74784819D02*
X124261905Y-73784819D01*
X124261905Y-73784819D02*
X124642857Y-73784819D01*
X124642857Y-73784819D02*
X124738095Y-73832438D01*
X124738095Y-73832438D02*
X124785714Y-73880057D01*
X124785714Y-73880057D02*
X124833333Y-73975295D01*
X124833333Y-73975295D02*
X124833333Y-74118152D01*
X124833333Y-74118152D02*
X124785714Y-74213390D01*
X124785714Y-74213390D02*
X124738095Y-74261009D01*
X124738095Y-74261009D02*
X124642857Y-74308628D01*
X124642857Y-74308628D02*
X124261905Y-74308628D01*
X125166667Y-73784819D02*
X125785714Y-73784819D01*
X125785714Y-73784819D02*
X125452381Y-74165771D01*
X125452381Y-74165771D02*
X125595238Y-74165771D01*
X125595238Y-74165771D02*
X125690476Y-74213390D01*
X125690476Y-74213390D02*
X125738095Y-74261009D01*
X125738095Y-74261009D02*
X125785714Y-74356247D01*
X125785714Y-74356247D02*
X125785714Y-74594342D01*
X125785714Y-74594342D02*
X125738095Y-74689580D01*
X125738095Y-74689580D02*
X125690476Y-74737200D01*
X125690476Y-74737200D02*
X125595238Y-74784819D01*
X125595238Y-74784819D02*
X125309524Y-74784819D01*
X125309524Y-74784819D02*
X125214286Y-74737200D01*
X125214286Y-74737200D02*
X125166667Y-74689580D01*
X108333333Y-79454819D02*
X108000000Y-78978628D01*
X107761905Y-79454819D02*
X107761905Y-78454819D01*
X107761905Y-78454819D02*
X108142857Y-78454819D01*
X108142857Y-78454819D02*
X108238095Y-78502438D01*
X108238095Y-78502438D02*
X108285714Y-78550057D01*
X108285714Y-78550057D02*
X108333333Y-78645295D01*
X108333333Y-78645295D02*
X108333333Y-78788152D01*
X108333333Y-78788152D02*
X108285714Y-78883390D01*
X108285714Y-78883390D02*
X108238095Y-78931009D01*
X108238095Y-78931009D02*
X108142857Y-78978628D01*
X108142857Y-78978628D02*
X107761905Y-78978628D01*
X109238095Y-78454819D02*
X108761905Y-78454819D01*
X108761905Y-78454819D02*
X108714286Y-78931009D01*
X108714286Y-78931009D02*
X108761905Y-78883390D01*
X108761905Y-78883390D02*
X108857143Y-78835771D01*
X108857143Y-78835771D02*
X109095238Y-78835771D01*
X109095238Y-78835771D02*
X109190476Y-78883390D01*
X109190476Y-78883390D02*
X109238095Y-78931009D01*
X109238095Y-78931009D02*
X109285714Y-79026247D01*
X109285714Y-79026247D02*
X109285714Y-79264342D01*
X109285714Y-79264342D02*
X109238095Y-79359580D01*
X109238095Y-79359580D02*
X109190476Y-79407200D01*
X109190476Y-79407200D02*
X109095238Y-79454819D01*
X109095238Y-79454819D02*
X108857143Y-79454819D01*
X108857143Y-79454819D02*
X108761905Y-79407200D01*
X108761905Y-79407200D02*
X108714286Y-79359580D01*
X122609580Y-75642857D02*
X122657200Y-75690476D01*
X122657200Y-75690476D02*
X122704819Y-75833333D01*
X122704819Y-75833333D02*
X122704819Y-75928571D01*
X122704819Y-75928571D02*
X122657200Y-76071428D01*
X122657200Y-76071428D02*
X122561961Y-76166666D01*
X122561961Y-76166666D02*
X122466723Y-76214285D01*
X122466723Y-76214285D02*
X122276247Y-76261904D01*
X122276247Y-76261904D02*
X122133390Y-76261904D01*
X122133390Y-76261904D02*
X121942914Y-76214285D01*
X121942914Y-76214285D02*
X121847676Y-76166666D01*
X121847676Y-76166666D02*
X121752438Y-76071428D01*
X121752438Y-76071428D02*
X121704819Y-75928571D01*
X121704819Y-75928571D02*
X121704819Y-75833333D01*
X121704819Y-75833333D02*
X121752438Y-75690476D01*
X121752438Y-75690476D02*
X121800057Y-75642857D01*
X122704819Y-74690476D02*
X122704819Y-75261904D01*
X122704819Y-74976190D02*
X121704819Y-74976190D01*
X121704819Y-74976190D02*
X121847676Y-75071428D01*
X121847676Y-75071428D02*
X121942914Y-75166666D01*
X121942914Y-75166666D02*
X121990533Y-75261904D01*
X121704819Y-74357142D02*
X121704819Y-73738095D01*
X121704819Y-73738095D02*
X122085771Y-74071428D01*
X122085771Y-74071428D02*
X122085771Y-73928571D01*
X122085771Y-73928571D02*
X122133390Y-73833333D01*
X122133390Y-73833333D02*
X122181009Y-73785714D01*
X122181009Y-73785714D02*
X122276247Y-73738095D01*
X122276247Y-73738095D02*
X122514342Y-73738095D01*
X122514342Y-73738095D02*
X122609580Y-73785714D01*
X122609580Y-73785714D02*
X122657200Y-73833333D01*
X122657200Y-73833333D02*
X122704819Y-73928571D01*
X122704819Y-73928571D02*
X122704819Y-74214285D01*
X122704819Y-74214285D02*
X122657200Y-74309523D01*
X122657200Y-74309523D02*
X122609580Y-74357142D01*
X97833333Y-72859580D02*
X97785714Y-72907200D01*
X97785714Y-72907200D02*
X97642857Y-72954819D01*
X97642857Y-72954819D02*
X97547619Y-72954819D01*
X97547619Y-72954819D02*
X97404762Y-72907200D01*
X97404762Y-72907200D02*
X97309524Y-72811961D01*
X97309524Y-72811961D02*
X97261905Y-72716723D01*
X97261905Y-72716723D02*
X97214286Y-72526247D01*
X97214286Y-72526247D02*
X97214286Y-72383390D01*
X97214286Y-72383390D02*
X97261905Y-72192914D01*
X97261905Y-72192914D02*
X97309524Y-72097676D01*
X97309524Y-72097676D02*
X97404762Y-72002438D01*
X97404762Y-72002438D02*
X97547619Y-71954819D01*
X97547619Y-71954819D02*
X97642857Y-71954819D01*
X97642857Y-71954819D02*
X97785714Y-72002438D01*
X97785714Y-72002438D02*
X97833333Y-72050057D01*
X98166667Y-71954819D02*
X98833333Y-71954819D01*
X98833333Y-71954819D02*
X98404762Y-72954819D01*
X100931009Y-77083333D02*
X100931009Y-77416666D01*
X101454819Y-77416666D02*
X100454819Y-77416666D01*
X100454819Y-77416666D02*
X100454819Y-76940476D01*
X100931009Y-76226190D02*
X100978628Y-76083333D01*
X100978628Y-76083333D02*
X101026247Y-76035714D01*
X101026247Y-76035714D02*
X101121485Y-75988095D01*
X101121485Y-75988095D02*
X101264342Y-75988095D01*
X101264342Y-75988095D02*
X101359580Y-76035714D01*
X101359580Y-76035714D02*
X101407200Y-76083333D01*
X101407200Y-76083333D02*
X101454819Y-76178571D01*
X101454819Y-76178571D02*
X101454819Y-76559523D01*
X101454819Y-76559523D02*
X100454819Y-76559523D01*
X100454819Y-76559523D02*
X100454819Y-76226190D01*
X100454819Y-76226190D02*
X100502438Y-76130952D01*
X100502438Y-76130952D02*
X100550057Y-76083333D01*
X100550057Y-76083333D02*
X100645295Y-76035714D01*
X100645295Y-76035714D02*
X100740533Y-76035714D01*
X100740533Y-76035714D02*
X100835771Y-76083333D01*
X100835771Y-76083333D02*
X100883390Y-76130952D01*
X100883390Y-76130952D02*
X100931009Y-76226190D01*
X100931009Y-76226190D02*
X100931009Y-76559523D01*
X101454819Y-75035714D02*
X101454819Y-75607142D01*
X101454819Y-75321428D02*
X100454819Y-75321428D01*
X100454819Y-75321428D02*
X100597676Y-75416666D01*
X100597676Y-75416666D02*
X100692914Y-75511904D01*
X100692914Y-75511904D02*
X100740533Y-75607142D01*
X118374819Y-65416666D02*
X117898628Y-65749999D01*
X118374819Y-65988094D02*
X117374819Y-65988094D01*
X117374819Y-65988094D02*
X117374819Y-65607142D01*
X117374819Y-65607142D02*
X117422438Y-65511904D01*
X117422438Y-65511904D02*
X117470057Y-65464285D01*
X117470057Y-65464285D02*
X117565295Y-65416666D01*
X117565295Y-65416666D02*
X117708152Y-65416666D01*
X117708152Y-65416666D02*
X117803390Y-65464285D01*
X117803390Y-65464285D02*
X117851009Y-65511904D01*
X117851009Y-65511904D02*
X117898628Y-65607142D01*
X117898628Y-65607142D02*
X117898628Y-65988094D01*
X117470057Y-65035713D02*
X117422438Y-64988094D01*
X117422438Y-64988094D02*
X117374819Y-64892856D01*
X117374819Y-64892856D02*
X117374819Y-64654761D01*
X117374819Y-64654761D02*
X117422438Y-64559523D01*
X117422438Y-64559523D02*
X117470057Y-64511904D01*
X117470057Y-64511904D02*
X117565295Y-64464285D01*
X117565295Y-64464285D02*
X117660533Y-64464285D01*
X117660533Y-64464285D02*
X117803390Y-64511904D01*
X117803390Y-64511904D02*
X118374819Y-65083332D01*
X118374819Y-65083332D02*
X118374819Y-64464285D01*
X112789580Y-78691666D02*
X112837200Y-78739285D01*
X112837200Y-78739285D02*
X112884819Y-78882142D01*
X112884819Y-78882142D02*
X112884819Y-78977380D01*
X112884819Y-78977380D02*
X112837200Y-79120237D01*
X112837200Y-79120237D02*
X112741961Y-79215475D01*
X112741961Y-79215475D02*
X112646723Y-79263094D01*
X112646723Y-79263094D02*
X112456247Y-79310713D01*
X112456247Y-79310713D02*
X112313390Y-79310713D01*
X112313390Y-79310713D02*
X112122914Y-79263094D01*
X112122914Y-79263094D02*
X112027676Y-79215475D01*
X112027676Y-79215475D02*
X111932438Y-79120237D01*
X111932438Y-79120237D02*
X111884819Y-78977380D01*
X111884819Y-78977380D02*
X111884819Y-78882142D01*
X111884819Y-78882142D02*
X111932438Y-78739285D01*
X111932438Y-78739285D02*
X111980057Y-78691666D01*
X111884819Y-77786904D02*
X111884819Y-78263094D01*
X111884819Y-78263094D02*
X112361009Y-78310713D01*
X112361009Y-78310713D02*
X112313390Y-78263094D01*
X112313390Y-78263094D02*
X112265771Y-78167856D01*
X112265771Y-78167856D02*
X112265771Y-77929761D01*
X112265771Y-77929761D02*
X112313390Y-77834523D01*
X112313390Y-77834523D02*
X112361009Y-77786904D01*
X112361009Y-77786904D02*
X112456247Y-77739285D01*
X112456247Y-77739285D02*
X112694342Y-77739285D01*
X112694342Y-77739285D02*
X112789580Y-77786904D01*
X112789580Y-77786904D02*
X112837200Y-77834523D01*
X112837200Y-77834523D02*
X112884819Y-77929761D01*
X112884819Y-77929761D02*
X112884819Y-78167856D01*
X112884819Y-78167856D02*
X112837200Y-78263094D01*
X112837200Y-78263094D02*
X112789580Y-78310713D01*
X114519580Y-64646666D02*
X114567200Y-64694285D01*
X114567200Y-64694285D02*
X114614819Y-64837142D01*
X114614819Y-64837142D02*
X114614819Y-64932380D01*
X114614819Y-64932380D02*
X114567200Y-65075237D01*
X114567200Y-65075237D02*
X114471961Y-65170475D01*
X114471961Y-65170475D02*
X114376723Y-65218094D01*
X114376723Y-65218094D02*
X114186247Y-65265713D01*
X114186247Y-65265713D02*
X114043390Y-65265713D01*
X114043390Y-65265713D02*
X113852914Y-65218094D01*
X113852914Y-65218094D02*
X113757676Y-65170475D01*
X113757676Y-65170475D02*
X113662438Y-65075237D01*
X113662438Y-65075237D02*
X113614819Y-64932380D01*
X113614819Y-64932380D02*
X113614819Y-64837142D01*
X113614819Y-64837142D02*
X113662438Y-64694285D01*
X113662438Y-64694285D02*
X113710057Y-64646666D01*
X113710057Y-64265713D02*
X113662438Y-64218094D01*
X113662438Y-64218094D02*
X113614819Y-64122856D01*
X113614819Y-64122856D02*
X113614819Y-63884761D01*
X113614819Y-63884761D02*
X113662438Y-63789523D01*
X113662438Y-63789523D02*
X113710057Y-63741904D01*
X113710057Y-63741904D02*
X113805295Y-63694285D01*
X113805295Y-63694285D02*
X113900533Y-63694285D01*
X113900533Y-63694285D02*
X114043390Y-63741904D01*
X114043390Y-63741904D02*
X114614819Y-64313332D01*
X114614819Y-64313332D02*
X114614819Y-63694285D01*
X126634819Y-79275594D02*
X125634819Y-79275594D01*
X125634819Y-79275594D02*
X125634819Y-79037499D01*
X125634819Y-79037499D02*
X125682438Y-78894642D01*
X125682438Y-78894642D02*
X125777676Y-78799404D01*
X125777676Y-78799404D02*
X125872914Y-78751785D01*
X125872914Y-78751785D02*
X126063390Y-78704166D01*
X126063390Y-78704166D02*
X126206247Y-78704166D01*
X126206247Y-78704166D02*
X126396723Y-78751785D01*
X126396723Y-78751785D02*
X126491961Y-78799404D01*
X126491961Y-78799404D02*
X126587200Y-78894642D01*
X126587200Y-78894642D02*
X126634819Y-79037499D01*
X126634819Y-79037499D02*
X126634819Y-79275594D01*
X126634819Y-77751785D02*
X126634819Y-78323213D01*
X126634819Y-78037499D02*
X125634819Y-78037499D01*
X125634819Y-78037499D02*
X125777676Y-78132737D01*
X125777676Y-78132737D02*
X125872914Y-78227975D01*
X125872914Y-78227975D02*
X125920533Y-78323213D01*
X97833333Y-74359580D02*
X97785714Y-74407200D01*
X97785714Y-74407200D02*
X97642857Y-74454819D01*
X97642857Y-74454819D02*
X97547619Y-74454819D01*
X97547619Y-74454819D02*
X97404762Y-74407200D01*
X97404762Y-74407200D02*
X97309524Y-74311961D01*
X97309524Y-74311961D02*
X97261905Y-74216723D01*
X97261905Y-74216723D02*
X97214286Y-74026247D01*
X97214286Y-74026247D02*
X97214286Y-73883390D01*
X97214286Y-73883390D02*
X97261905Y-73692914D01*
X97261905Y-73692914D02*
X97309524Y-73597676D01*
X97309524Y-73597676D02*
X97404762Y-73502438D01*
X97404762Y-73502438D02*
X97547619Y-73454819D01*
X97547619Y-73454819D02*
X97642857Y-73454819D01*
X97642857Y-73454819D02*
X97785714Y-73502438D01*
X97785714Y-73502438D02*
X97833333Y-73550057D01*
X98404762Y-73883390D02*
X98309524Y-73835771D01*
X98309524Y-73835771D02*
X98261905Y-73788152D01*
X98261905Y-73788152D02*
X98214286Y-73692914D01*
X98214286Y-73692914D02*
X98214286Y-73645295D01*
X98214286Y-73645295D02*
X98261905Y-73550057D01*
X98261905Y-73550057D02*
X98309524Y-73502438D01*
X98309524Y-73502438D02*
X98404762Y-73454819D01*
X98404762Y-73454819D02*
X98595238Y-73454819D01*
X98595238Y-73454819D02*
X98690476Y-73502438D01*
X98690476Y-73502438D02*
X98738095Y-73550057D01*
X98738095Y-73550057D02*
X98785714Y-73645295D01*
X98785714Y-73645295D02*
X98785714Y-73692914D01*
X98785714Y-73692914D02*
X98738095Y-73788152D01*
X98738095Y-73788152D02*
X98690476Y-73835771D01*
X98690476Y-73835771D02*
X98595238Y-73883390D01*
X98595238Y-73883390D02*
X98404762Y-73883390D01*
X98404762Y-73883390D02*
X98309524Y-73931009D01*
X98309524Y-73931009D02*
X98261905Y-73978628D01*
X98261905Y-73978628D02*
X98214286Y-74073866D01*
X98214286Y-74073866D02*
X98214286Y-74264342D01*
X98214286Y-74264342D02*
X98261905Y-74359580D01*
X98261905Y-74359580D02*
X98309524Y-74407200D01*
X98309524Y-74407200D02*
X98404762Y-74454819D01*
X98404762Y-74454819D02*
X98595238Y-74454819D01*
X98595238Y-74454819D02*
X98690476Y-74407200D01*
X98690476Y-74407200D02*
X98738095Y-74359580D01*
X98738095Y-74359580D02*
X98785714Y-74264342D01*
X98785714Y-74264342D02*
X98785714Y-74073866D01*
X98785714Y-74073866D02*
X98738095Y-73978628D01*
X98738095Y-73978628D02*
X98690476Y-73931009D01*
X98690476Y-73931009D02*
X98595238Y-73883390D01*
X105988095Y-64704819D02*
X105988095Y-65514342D01*
X105988095Y-65514342D02*
X106035714Y-65609580D01*
X106035714Y-65609580D02*
X106083333Y-65657200D01*
X106083333Y-65657200D02*
X106178571Y-65704819D01*
X106178571Y-65704819D02*
X106369047Y-65704819D01*
X106369047Y-65704819D02*
X106464285Y-65657200D01*
X106464285Y-65657200D02*
X106511904Y-65609580D01*
X106511904Y-65609580D02*
X106559523Y-65514342D01*
X106559523Y-65514342D02*
X106559523Y-64704819D01*
X107559523Y-65704819D02*
X106988095Y-65704819D01*
X107273809Y-65704819D02*
X107273809Y-64704819D01*
X107273809Y-64704819D02*
X107178571Y-64847676D01*
X107178571Y-64847676D02*
X107083333Y-64942914D01*
X107083333Y-64942914D02*
X106988095Y-64990533D01*
X116307142Y-71179580D02*
X116259523Y-71227200D01*
X116259523Y-71227200D02*
X116116666Y-71274819D01*
X116116666Y-71274819D02*
X116021428Y-71274819D01*
X116021428Y-71274819D02*
X115878571Y-71227200D01*
X115878571Y-71227200D02*
X115783333Y-71131961D01*
X115783333Y-71131961D02*
X115735714Y-71036723D01*
X115735714Y-71036723D02*
X115688095Y-70846247D01*
X115688095Y-70846247D02*
X115688095Y-70703390D01*
X115688095Y-70703390D02*
X115735714Y-70512914D01*
X115735714Y-70512914D02*
X115783333Y-70417676D01*
X115783333Y-70417676D02*
X115878571Y-70322438D01*
X115878571Y-70322438D02*
X116021428Y-70274819D01*
X116021428Y-70274819D02*
X116116666Y-70274819D01*
X116116666Y-70274819D02*
X116259523Y-70322438D01*
X116259523Y-70322438D02*
X116307142Y-70370057D01*
X117259523Y-71274819D02*
X116688095Y-71274819D01*
X116973809Y-71274819D02*
X116973809Y-70274819D01*
X116973809Y-70274819D02*
X116878571Y-70417676D01*
X116878571Y-70417676D02*
X116783333Y-70512914D01*
X116783333Y-70512914D02*
X116688095Y-70560533D01*
X117640476Y-70370057D02*
X117688095Y-70322438D01*
X117688095Y-70322438D02*
X117783333Y-70274819D01*
X117783333Y-70274819D02*
X118021428Y-70274819D01*
X118021428Y-70274819D02*
X118116666Y-70322438D01*
X118116666Y-70322438D02*
X118164285Y-70370057D01*
X118164285Y-70370057D02*
X118211904Y-70465295D01*
X118211904Y-70465295D02*
X118211904Y-70560533D01*
X118211904Y-70560533D02*
X118164285Y-70703390D01*
X118164285Y-70703390D02*
X117592857Y-71274819D01*
X117592857Y-71274819D02*
X118211904Y-71274819D01*
D12*
%TO.C,J3*%
X109230000Y-56880000D02*
X101500000Y-56880000D01*
X101500000Y-54120000D02*
X101500000Y-56880000D01*
X109230000Y-54120000D02*
X109230000Y-56880000D01*
X109230000Y-54120000D02*
X101500000Y-54120000D01*
X110500000Y-54120000D02*
X111880000Y-54120000D01*
X111880000Y-54120000D02*
X111880000Y-55500000D01*
%TO.C,SW1*%
X90295000Y-60050000D02*
X89505000Y-60050000D01*
X88495000Y-60650000D02*
X88495000Y-66350000D01*
X91345000Y-61900000D02*
X91345000Y-63600000D01*
X91345000Y-64900000D02*
X91345000Y-65100000D01*
X89505000Y-66950000D02*
X90295000Y-66950000D01*
D11*
%TO.C,J1*%
X134900000Y-60825000D02*
X134750000Y-60825000D01*
X132350000Y-60825000D02*
X130950000Y-60825000D01*
X135350000Y-61125000D02*
X134900000Y-61125000D01*
X134900000Y-61125000D02*
X134900000Y-60825000D01*
X129200000Y-63175000D02*
X129200000Y-62175000D01*
X128775000Y-66050000D02*
X128775000Y-66775000D01*
X129200000Y-66775000D02*
X129200000Y-67775000D01*
X128775000Y-66775000D02*
X129200000Y-66775000D01*
X134900000Y-68825000D02*
X135350000Y-68825000D01*
X134900000Y-69125000D02*
X134900000Y-68825000D01*
X134750000Y-69125000D02*
X134900000Y-69125000D01*
X130950000Y-69125000D02*
X132350000Y-69125000D01*
D12*
%TO.C,C3*%
X109607836Y-73860000D02*
X109392164Y-73860000D01*
X109607836Y-73140000D02*
X109392164Y-73140000D01*
%TO.C,R1*%
X93370000Y-63913641D02*
X93370000Y-63606359D01*
X94130000Y-63913641D02*
X94130000Y-63606359D01*
%TO.C,C9*%
X103872164Y-72890000D02*
X104087836Y-72890000D01*
X103872164Y-73610000D02*
X104087836Y-73610000D01*
%TO.C,J2*%
X123210000Y-54120000D02*
X123210000Y-55500000D01*
X121830000Y-54120000D02*
X123210000Y-54120000D01*
X120560000Y-54120000D02*
X112830000Y-54120000D01*
X120560000Y-54120000D02*
X120560000Y-56880000D01*
X112830000Y-54120000D02*
X112830000Y-56880000D01*
X120560000Y-56880000D02*
X112830000Y-56880000D01*
%TO.C,C1*%
X104392164Y-60640000D02*
X104607836Y-60640000D01*
X104392164Y-61360000D02*
X104607836Y-61360000D01*
%TO.C,U2*%
X120610000Y-76800000D02*
X120610000Y-80560000D01*
X113790000Y-76800000D02*
X113790000Y-80560000D01*
X120610000Y-80560000D02*
X119350000Y-80560000D01*
X113790000Y-80560000D02*
X115050000Y-80560000D01*
X120840000Y-75760000D02*
X120510000Y-75520000D01*
X120840000Y-75280000D01*
X120840000Y-75760000D01*
G36*
X120840000Y-75760000D02*
G01*
X120510000Y-75520000D01*
X120840000Y-75280000D01*
X120840000Y-75760000D01*
G37*
%TO.C,R4*%
X105393641Y-77630000D02*
X105086359Y-77630000D01*
X105393641Y-76870000D02*
X105086359Y-76870000D01*
%TO.C,C6*%
X100140000Y-70357836D02*
X100140000Y-70142164D01*
X100860000Y-70357836D02*
X100860000Y-70142164D01*
%TO.C,C10*%
X98640000Y-66087836D02*
X98640000Y-65872164D01*
X99360000Y-66087836D02*
X99360000Y-65872164D01*
%TO.C,J4*%
X99330000Y-84130000D02*
X99330000Y-82750000D01*
X100710000Y-84130000D02*
X99330000Y-84130000D01*
X101980000Y-84130000D02*
X109710000Y-84130000D01*
X101980000Y-84130000D02*
X101980000Y-81370000D01*
X109710000Y-84130000D02*
X109710000Y-81370000D01*
X101980000Y-81370000D02*
X109710000Y-81370000D01*
%TO.C,C4*%
X104392164Y-59390000D02*
X104607836Y-59390000D01*
X104392164Y-60110000D02*
X104607836Y-60110000D01*
%TO.C,Y1*%
X98210000Y-65290000D02*
X94790000Y-65290000D01*
X94790000Y-65290000D02*
X94790000Y-69410000D01*
%TO.C,C11*%
X98640000Y-68627836D02*
X98640000Y-68412164D01*
X99360000Y-68627836D02*
X99360000Y-68412164D01*
%TO.C,R3*%
X124846359Y-75120000D02*
X125153641Y-75120000D01*
X124846359Y-75880000D02*
X125153641Y-75880000D01*
%TO.C,R5*%
X107586359Y-76870000D02*
X107893641Y-76870000D01*
X107586359Y-77630000D02*
X107893641Y-77630000D01*
%TO.C,C13*%
X121515000Y-78461252D02*
X121515000Y-77938748D01*
X122985000Y-78461252D02*
X122985000Y-77938748D01*
%TO.C,C7*%
X100087836Y-72860000D02*
X99872164Y-72860000D01*
X100087836Y-72140000D02*
X99872164Y-72140000D01*
%TO.C,FB1*%
X102510000Y-73124721D02*
X102510000Y-73450279D01*
X101490000Y-73124721D02*
X101490000Y-73450279D01*
%TO.C,R2*%
X117130000Y-65096359D02*
X117130000Y-65403641D01*
X116370000Y-65096359D02*
X116370000Y-65403641D01*
%TO.C,C5*%
X111510000Y-78384420D02*
X111510000Y-78665580D01*
X110490000Y-78384420D02*
X110490000Y-78665580D01*
%TO.C,C2*%
X113360000Y-64372164D02*
X113360000Y-64587836D01*
X112640000Y-64372164D02*
X112640000Y-64587836D01*
%TO.C,D1*%
X125485000Y-77052500D02*
X124015000Y-77052500D01*
X124015000Y-77052500D02*
X124015000Y-79337500D01*
X125485000Y-79337500D02*
X125485000Y-77052500D01*
%TO.C,C8*%
X100107836Y-74360000D02*
X99892164Y-74360000D01*
X100107836Y-73640000D02*
X99892164Y-73640000D01*
%TO.C,U1*%
X103140000Y-63552500D02*
X103590000Y-63552500D01*
X103140000Y-64002500D02*
X103140000Y-63552500D01*
X103140000Y-70772500D02*
X103140000Y-70322500D01*
X103590000Y-70772500D02*
X103140000Y-70772500D01*
X109910000Y-63552500D02*
X110360000Y-63552500D01*
X110360000Y-63552500D02*
X110360000Y-64002500D01*
X110360000Y-70322500D02*
X110360000Y-70772500D01*
X110360000Y-70772500D02*
X109910000Y-70772500D01*
X102500000Y-64002500D02*
X102160000Y-63532500D01*
X102840000Y-63532500D01*
X102500000Y-64002500D01*
G36*
X102500000Y-64002500D02*
G01*
X102160000Y-63532500D01*
X102840000Y-63532500D01*
X102500000Y-64002500D01*
G37*
%TO.C,C12*%
X116688748Y-71765000D02*
X117211252Y-71765000D01*
X116688748Y-73235000D02*
X117211252Y-73235000D01*
%TD*%
M02*
