%TF.GenerationSoftware,KiCad,Pcbnew,9.0.7*%
%TF.CreationDate,2026-04-28T21:19:14-06:00*%
%TF.ProjectId,4_27_STM_embedded,345f3237-5f53-4544-9d5f-656d62656464,rev?*%
%TF.SameCoordinates,Original*%
%TF.FileFunction,Soldermask,Top*%
%TF.FilePolarity,Negative*%
%FSLAX46Y46*%
G04 Gerber Fmt 4.6, Leading zero omitted, Abs format (unit mm)*
G04 Created by KiCad (PCBNEW 9.0.7) date 2026-04-28 21:19:14*
%MOMM*%
%LPD*%
G01*
G04 APERTURE LIST*
G04 Aperture macros list*
%AMRoundRect*
0 Rectangle with rounded corners*
0 $1 Rounding radius*
0 $2 $3 $4 $5 $6 $7 $8 $9 X,Y pos of 4 corners*
0 Add a 4 corners polygon primitive as box body*
4,1,4,$2,$3,$4,$5,$6,$7,$8,$9,$2,$3,0*
0 Add four circle primitives for the rounded corners*
1,1,$1+$1,$2,$3*
1,1,$1+$1,$4,$5*
1,1,$1+$1,$6,$7*
1,1,$1+$1,$8,$9*
0 Add four rect primitives between the rounded corners*
20,1,$1+$1,$2,$3,$4,$5,0*
20,1,$1+$1,$4,$5,$6,$7,0*
20,1,$1+$1,$6,$7,$8,$9,0*
20,1,$1+$1,$8,$9,$2,$3,0*%
G04 Aperture macros list end*
%ADD10C,1.700000*%
%ADD11R,1.700000X1.700000*%
%ADD12R,0.800000X1.000000*%
%ADD13C,0.900000*%
%ADD14R,1.500000X0.700000*%
%ADD15O,1.800000X1.150000*%
%ADD16O,2.000000X1.450000*%
%ADD17R,1.300000X0.450000*%
%ADD18O,0.800000X0.800000*%
%ADD19C,2.200000*%
%ADD20RoundRect,0.140000X0.140000X0.170000X-0.140000X0.170000X-0.140000X-0.170000X0.140000X-0.170000X0*%
%ADD21RoundRect,0.135000X0.185000X-0.135000X0.185000X0.135000X-0.185000X0.135000X-0.185000X-0.135000X0*%
%ADD22RoundRect,0.140000X-0.140000X-0.170000X0.140000X-0.170000X0.140000X0.170000X-0.140000X0.170000X0*%
%ADD23RoundRect,0.375000X-0.375000X0.625000X-0.375000X-0.625000X0.375000X-0.625000X0.375000X0.625000X0*%
%ADD24RoundRect,0.500000X-1.400000X0.500000X-1.400000X-0.500000X1.400000X-0.500000X1.400000X0.500000X0*%
%ADD25RoundRect,0.135000X0.135000X0.185000X-0.135000X0.185000X-0.135000X-0.185000X0.135000X-0.185000X0*%
%ADD26RoundRect,0.140000X0.170000X-0.140000X0.170000X0.140000X-0.170000X0.140000X-0.170000X-0.140000X0*%
%ADD27RoundRect,0.250000X-0.350000X0.450000X-0.350000X-0.450000X0.350000X-0.450000X0.350000X0.450000X0*%
%ADD28RoundRect,0.135000X-0.135000X-0.185000X0.135000X-0.185000X0.135000X0.185000X-0.135000X0.185000X0*%
%ADD29RoundRect,0.250000X0.475000X-0.250000X0.475000X0.250000X-0.475000X0.250000X-0.475000X-0.250000X0*%
%ADD30RoundRect,0.218750X-0.256250X0.218750X-0.256250X-0.218750X0.256250X-0.218750X0.256250X0.218750X0*%
%ADD31RoundRect,0.135000X-0.185000X0.135000X-0.185000X-0.135000X0.185000X-0.135000X0.185000X0.135000X0*%
%ADD32RoundRect,0.225000X-0.250000X0.225000X-0.250000X-0.225000X0.250000X-0.225000X0.250000X0.225000X0*%
%ADD33RoundRect,0.140000X-0.170000X0.140000X-0.170000X-0.140000X0.170000X-0.140000X0.170000X0.140000X0*%
%ADD34RoundRect,0.075000X-0.662500X-0.075000X0.662500X-0.075000X0.662500X0.075000X-0.662500X0.075000X0*%
%ADD35RoundRect,0.075000X-0.075000X-0.662500X0.075000X-0.662500X0.075000X0.662500X-0.075000X0.662500X0*%
%ADD36RoundRect,0.250000X-0.250000X-0.475000X0.250000X-0.475000X0.250000X0.475000X-0.250000X0.475000X0*%
G04 APERTURE END LIST*
D10*
%TO.C,J3*%
X102880000Y-55500000D03*
X105420000Y-55500000D03*
X107960000Y-55500000D03*
D11*
X110500000Y-55500000D03*
%TD*%
D12*
%TO.C,SW1*%
X91005000Y-59850000D03*
X88795000Y-59850000D03*
D13*
X89895000Y-62000000D03*
X89895000Y-65000000D03*
D12*
X91005000Y-67150000D03*
X88795000Y-67150000D03*
D14*
X91655000Y-61250000D03*
X91655000Y-64250000D03*
X91655000Y-65750000D03*
%TD*%
D15*
%TO.C,J1*%
X133550000Y-61100000D03*
D16*
X129750000Y-61250000D03*
X129750000Y-68700000D03*
D15*
X133550000Y-68850000D03*
D17*
X129700000Y-63675000D03*
X129700000Y-64325000D03*
X129700000Y-64975000D03*
X129700000Y-65625000D03*
X129700000Y-66275000D03*
D18*
X130800000Y-62475000D03*
X130800000Y-67475000D03*
%TD*%
D19*
%TO.C,H4*%
X132750000Y-54750000D03*
%TD*%
%TO.C,H3*%
X90750000Y-54750000D03*
%TD*%
%TO.C,H2*%
X132750000Y-84750000D03*
%TD*%
%TO.C,H1*%
X90750000Y-84750000D03*
%TD*%
D20*
%TO.C,C3*%
X109980000Y-73500000D03*
X109020000Y-73500000D03*
%TD*%
D21*
%TO.C,R1*%
X93750000Y-64270000D03*
X93750000Y-63250000D03*
%TD*%
D22*
%TO.C,C9*%
X103500000Y-73250000D03*
X104460000Y-73250000D03*
%TD*%
D11*
%TO.C,J2*%
X121830000Y-55500000D03*
D10*
X119290000Y-55500000D03*
X116750000Y-55500000D03*
X114210000Y-55500000D03*
%TD*%
D22*
%TO.C,C1*%
X104020000Y-61000000D03*
X104980000Y-61000000D03*
%TD*%
D23*
%TO.C,U2*%
X119500000Y-75500000D03*
X117200000Y-75500000D03*
D24*
X117200000Y-81800000D03*
D23*
X114900000Y-75500000D03*
%TD*%
D25*
%TO.C,R4*%
X105750000Y-77250000D03*
X104730000Y-77250000D03*
%TD*%
D26*
%TO.C,C6*%
X100500000Y-70730000D03*
X100500000Y-69770000D03*
%TD*%
%TO.C,C10*%
X99000000Y-66460000D03*
X99000000Y-65500000D03*
%TD*%
D11*
%TO.C,J4*%
X100710000Y-82750000D03*
D10*
X103250000Y-82750000D03*
X105790000Y-82750000D03*
X108330000Y-82750000D03*
%TD*%
D22*
%TO.C,C4*%
X104020000Y-59750000D03*
X104980000Y-59750000D03*
%TD*%
D27*
%TO.C,Y1*%
X95650000Y-66250000D03*
X95650000Y-68450000D03*
X97350000Y-68450000D03*
X97350000Y-66250000D03*
%TD*%
D26*
%TO.C,C11*%
X99000000Y-69000000D03*
X99000000Y-68040000D03*
%TD*%
D28*
%TO.C,R3*%
X124490000Y-75500000D03*
X125510000Y-75500000D03*
%TD*%
%TO.C,R5*%
X107230000Y-77250000D03*
X108250000Y-77250000D03*
%TD*%
D29*
%TO.C,C13*%
X122250000Y-79150000D03*
X122250000Y-77250000D03*
%TD*%
D20*
%TO.C,C7*%
X100460000Y-72500000D03*
X99500000Y-72500000D03*
%TD*%
D30*
%TO.C,FB1*%
X102000000Y-72500000D03*
X102000000Y-74075000D03*
%TD*%
D31*
%TO.C,R2*%
X116750000Y-64740000D03*
X116750000Y-65760000D03*
%TD*%
D32*
%TO.C,C5*%
X111000000Y-77750000D03*
X111000000Y-79300000D03*
%TD*%
D33*
%TO.C,C2*%
X113000000Y-64000000D03*
X113000000Y-64960000D03*
%TD*%
D30*
%TO.C,D1*%
X124750000Y-77750000D03*
X124750000Y-79325000D03*
%TD*%
D20*
%TO.C,C8*%
X100480000Y-74000000D03*
X99520000Y-74000000D03*
%TD*%
D34*
%TO.C,U1*%
X102587500Y-64412500D03*
X102587500Y-64912500D03*
X102587500Y-65412500D03*
X102587500Y-65912500D03*
X102587500Y-66412500D03*
X102587500Y-66912500D03*
X102587500Y-67412500D03*
X102587500Y-67912500D03*
X102587500Y-68412500D03*
X102587500Y-68912500D03*
X102587500Y-69412500D03*
X102587500Y-69912500D03*
D35*
X104000000Y-71325000D03*
X104500000Y-71325000D03*
X105000000Y-71325000D03*
X105500000Y-71325000D03*
X106000000Y-71325000D03*
X106500000Y-71325000D03*
X107000000Y-71325000D03*
X107500000Y-71325000D03*
X108000000Y-71325000D03*
X108500000Y-71325000D03*
X109000000Y-71325000D03*
X109500000Y-71325000D03*
D34*
X110912500Y-69912500D03*
X110912500Y-69412500D03*
X110912500Y-68912500D03*
X110912500Y-68412500D03*
X110912500Y-67912500D03*
X110912500Y-67412500D03*
X110912500Y-66912500D03*
X110912500Y-66412500D03*
X110912500Y-65912500D03*
X110912500Y-65412500D03*
X110912500Y-64912500D03*
X110912500Y-64412500D03*
D35*
X109500000Y-63000000D03*
X109000000Y-63000000D03*
X108500000Y-63000000D03*
X108000000Y-63000000D03*
X107500000Y-63000000D03*
X107000000Y-63000000D03*
X106500000Y-63000000D03*
X106000000Y-63000000D03*
X105500000Y-63000000D03*
X105000000Y-63000000D03*
X104500000Y-63000000D03*
X104000000Y-63000000D03*
%TD*%
D36*
%TO.C,C12*%
X116000000Y-72500000D03*
X117900000Y-72500000D03*
%TD*%
M02*
