%TF.GenerationSoftware,KiCad,Pcbnew,9.0.7*%
%TF.CreationDate,2026-04-28T21:19:10-06:00*%
%TF.ProjectId,4_27_STM_embedded,345f3237-5f53-4544-9d5f-656d62656464,rev?*%
%TF.SameCoordinates,Original*%
%TF.FileFunction,Plated,1,2,PTH,Mixed*%
%TF.FilePolarity,Positive*%
%FSLAX46Y46*%
G04 Gerber Fmt 4.6, Leading zero omitted, Abs format (unit mm)*
G04 Created by KiCad (PCBNEW 9.0.7) date 2026-04-28 21:19:10*
%MOMM*%
%LPD*%
G01*
G04 APERTURE LIST*
%TA.AperFunction,ViaDrill*%
%ADD10C,0.300000*%
%TD*%
G04 aperture for slot hole*
%TA.AperFunction,ComponentDrill*%
%ADD11C,0.550000*%
%TD*%
G04 aperture for slot hole*
%TA.AperFunction,ComponentDrill*%
%ADD12C,0.850000*%
%TD*%
%TA.AperFunction,ComponentDrill*%
%ADD13C,1.000000*%
%TD*%
G04 APERTURE END LIST*
D10*
X92250000Y-60250000D03*
X95750000Y-70000000D03*
X99000000Y-64500000D03*
X99500000Y-70000000D03*
X99500000Y-71750000D03*
X99500000Y-74750000D03*
X99750000Y-55500000D03*
X99750000Y-67500000D03*
X102500000Y-59250000D03*
X103250000Y-75250000D03*
X104000000Y-68250000D03*
X105250000Y-73250000D03*
X105750000Y-76000000D03*
X107250000Y-75250000D03*
X109000000Y-69750000D03*
X109500000Y-75250000D03*
X114000000Y-65000000D03*
X119000000Y-72000000D03*
X119500000Y-74000000D03*
X120750000Y-77250000D03*
X126250000Y-75500000D03*
X128250000Y-63750000D03*
D11*
%TO.C,J1*%
X133875000Y-61100000D02*
X133225000Y-61100000D01*
X133875000Y-68850000D02*
X133225000Y-68850000D01*
D12*
X130025000Y-61250000D02*
X129475000Y-61250000D01*
X130025000Y-68700000D02*
X129475000Y-68700000D01*
D13*
%TO.C,J4*%
X100710000Y-82750000D03*
%TO.C,J3*%
X102880000Y-55500000D03*
%TO.C,J4*%
X103250000Y-82750000D03*
%TO.C,J3*%
X105420000Y-55500000D03*
%TO.C,J4*%
X105790000Y-82750000D03*
%TO.C,J3*%
X107960000Y-55500000D03*
%TO.C,J4*%
X108330000Y-82750000D03*
%TO.C,J3*%
X110500000Y-55500000D03*
%TO.C,J2*%
X114210000Y-55500000D03*
X116750000Y-55500000D03*
X119290000Y-55500000D03*
X121830000Y-55500000D03*
M02*
