%TF.GenerationSoftware,KiCad,Pcbnew,9.0.7*%
%TF.CreationDate,2026-04-28T21:19:14-06:00*%
%TF.ProjectId,4_27_STM_embedded,345f3237-5f53-4544-9d5f-656d62656464,rev?*%
%TF.SameCoordinates,Original*%
%TF.FileFunction,Copper,L2,Bot*%
%TF.FilePolarity,Positive*%
%FSLAX46Y46*%
G04 Gerber Fmt 4.6, Leading zero omitted, Abs format (unit mm)*
G04 Created by KiCad (PCBNEW 9.0.7) date 2026-04-28 21:19:14*
%MOMM*%
%LPD*%
G01*
G04 APERTURE LIST*
%TA.AperFunction,ComponentPad*%
%ADD10C,1.700000*%
%TD*%
%TA.AperFunction,ComponentPad*%
%ADD11R,1.700000X1.700000*%
%TD*%
%TA.AperFunction,HeatsinkPad*%
%ADD12O,1.800000X1.150000*%
%TD*%
%TA.AperFunction,HeatsinkPad*%
%ADD13O,2.000000X1.450000*%
%TD*%
%TA.AperFunction,ViaPad*%
%ADD14C,0.600000*%
%TD*%
%TA.AperFunction,Conductor*%
%ADD15C,0.300000*%
%TD*%
G04 APERTURE END LIST*
D10*
%TO.P,J3,4,Pin_4*%
%TO.N,GND*%
X102880000Y-55500000D03*
%TO.P,J3,3,Pin_3*%
%TO.N,/USART1_RX*%
X105420000Y-55500000D03*
%TO.P,J3,2,Pin_2*%
%TO.N,/USART1_TX*%
X107960000Y-55500000D03*
D11*
%TO.P,J3,1,Pin_1*%
%TO.N,+3.3V*%
X110500000Y-55500000D03*
%TD*%
D12*
%TO.P,J1,6,Shield*%
%TO.N,unconnected-(J1-Shield-Pad6)_1*%
X133550000Y-61100000D03*
D13*
%TO.N,unconnected-(J1-Shield-Pad6)*%
X129750000Y-61250000D03*
%TO.N,unconnected-(J1-Shield-Pad6)_2*%
X129750000Y-68700000D03*
D12*
%TO.N,unconnected-(J1-Shield-Pad6)_3*%
X133550000Y-68850000D03*
%TD*%
D11*
%TO.P,J2,1,Pin_1*%
%TO.N,+3.3V*%
X121830000Y-55500000D03*
D10*
%TO.P,J2,2,Pin_2*%
%TO.N,/SWDIO*%
X119290000Y-55500000D03*
%TO.P,J2,3,Pin_3*%
%TO.N,/SWCLK*%
X116750000Y-55500000D03*
%TO.P,J2,4,Pin_4*%
%TO.N,GND*%
X114210000Y-55500000D03*
%TD*%
D11*
%TO.P,J4,1,Pin_1*%
%TO.N,+3.3V*%
X100710000Y-82750000D03*
D10*
%TO.P,J4,2,Pin_2*%
%TO.N,/I2C2_SCl*%
X103250000Y-82750000D03*
%TO.P,J4,3,Pin_3*%
%TO.N,/I2C2_SDA*%
X105790000Y-82750000D03*
%TO.P,J4,4,Pin_4*%
%TO.N,GND*%
X108330000Y-82750000D03*
%TD*%
D14*
%TO.N,GND*%
X95750000Y-70000000D03*
X99500000Y-70000000D03*
X99750000Y-55500000D03*
%TO.N,+3.3V*%
X105750000Y-76000000D03*
X103250000Y-75250000D03*
X109500000Y-75250000D03*
X107250000Y-75250000D03*
%TO.N,GND*%
X126250000Y-75500000D03*
X120750000Y-77250000D03*
X119500000Y-74000000D03*
X119000000Y-72000000D03*
X128250000Y-63750000D03*
X114000000Y-65000000D03*
X92250000Y-60250000D03*
X102500000Y-59250000D03*
X99750000Y-67500000D03*
X99500000Y-74750000D03*
X99500000Y-71750000D03*
X105250000Y-73250000D03*
X104000000Y-68250000D03*
X109000000Y-69750000D03*
X99000000Y-64500000D03*
%TD*%
D15*
%TO.N,+3.3V*%
X105750000Y-76000000D02*
X104000000Y-76000000D01*
X104000000Y-76000000D02*
X103250000Y-75250000D01*
X107250000Y-75250000D02*
X109500000Y-75250000D01*
%TO.N,GND*%
X97750000Y-72500000D02*
X97750000Y-72250000D01*
X97750000Y-72250000D02*
X96750000Y-71250000D01*
%TD*%
%TA.AperFunction,Conductor*%
%TO.N,GND*%
G36*
X132753736Y-52250726D02*
G01*
X133043796Y-52268271D01*
X133058659Y-52270076D01*
X133340798Y-52321780D01*
X133355335Y-52325363D01*
X133629172Y-52410695D01*
X133643163Y-52416000D01*
X133904743Y-52533727D01*
X133917989Y-52540680D01*
X134163465Y-52689075D01*
X134175776Y-52697573D01*
X134401573Y-52874473D01*
X134412781Y-52884403D01*
X134615596Y-53087218D01*
X134625526Y-53098426D01*
X134745481Y-53251538D01*
X134802422Y-53324217D01*
X134810926Y-53336537D01*
X134869091Y-53432753D01*
X134959316Y-53582004D01*
X134966275Y-53595263D01*
X135083997Y-53856831D01*
X135089306Y-53870832D01*
X135174635Y-54144663D01*
X135178219Y-54159201D01*
X135229923Y-54441340D01*
X135231728Y-54456205D01*
X135249274Y-54746263D01*
X135249500Y-54753750D01*
X135249500Y-84746249D01*
X135249274Y-84753736D01*
X135231728Y-85043794D01*
X135229923Y-85058659D01*
X135178219Y-85340798D01*
X135174635Y-85355336D01*
X135089306Y-85629167D01*
X135083997Y-85643168D01*
X134966275Y-85904736D01*
X134959316Y-85917995D01*
X134810928Y-86163459D01*
X134802422Y-86175782D01*
X134625526Y-86401573D01*
X134615596Y-86412781D01*
X134412781Y-86615596D01*
X134401573Y-86625526D01*
X134175782Y-86802422D01*
X134163459Y-86810928D01*
X133917995Y-86959316D01*
X133904736Y-86966275D01*
X133643168Y-87083997D01*
X133629167Y-87089306D01*
X133355336Y-87174635D01*
X133340798Y-87178219D01*
X133058659Y-87229923D01*
X133043794Y-87231728D01*
X132753736Y-87249274D01*
X132746249Y-87249500D01*
X90753751Y-87249500D01*
X90746264Y-87249274D01*
X90456205Y-87231728D01*
X90441340Y-87229923D01*
X90159201Y-87178219D01*
X90144663Y-87174635D01*
X89870832Y-87089306D01*
X89856831Y-87083997D01*
X89595263Y-86966275D01*
X89582004Y-86959316D01*
X89336540Y-86810928D01*
X89324217Y-86802422D01*
X89098426Y-86625526D01*
X89087218Y-86615596D01*
X88884403Y-86412781D01*
X88874473Y-86401573D01*
X88697573Y-86175776D01*
X88689075Y-86163465D01*
X88540680Y-85917989D01*
X88533727Y-85904743D01*
X88416000Y-85643163D01*
X88410693Y-85629167D01*
X88325364Y-85355336D01*
X88321780Y-85340798D01*
X88270076Y-85058659D01*
X88268271Y-85043794D01*
X88250726Y-84753736D01*
X88250500Y-84746249D01*
X88250500Y-84643713D01*
X89399500Y-84643713D01*
X89399500Y-84856286D01*
X89432753Y-85066239D01*
X89498444Y-85268414D01*
X89594951Y-85457820D01*
X89719890Y-85629786D01*
X89870213Y-85780109D01*
X90042179Y-85905048D01*
X90042181Y-85905049D01*
X90042184Y-85905051D01*
X90231588Y-86001557D01*
X90433757Y-86067246D01*
X90643713Y-86100500D01*
X90643714Y-86100500D01*
X90856286Y-86100500D01*
X90856287Y-86100500D01*
X91066243Y-86067246D01*
X91268412Y-86001557D01*
X91457816Y-85905051D01*
X91479789Y-85889086D01*
X91629786Y-85780109D01*
X91629788Y-85780106D01*
X91629792Y-85780104D01*
X91780104Y-85629792D01*
X91780106Y-85629788D01*
X91780109Y-85629786D01*
X91905048Y-85457820D01*
X91905047Y-85457820D01*
X91905051Y-85457816D01*
X92001557Y-85268412D01*
X92067246Y-85066243D01*
X92100500Y-84856287D01*
X92100500Y-84643713D01*
X131399500Y-84643713D01*
X131399500Y-84856286D01*
X131432753Y-85066239D01*
X131498444Y-85268414D01*
X131594951Y-85457820D01*
X131719890Y-85629786D01*
X131870213Y-85780109D01*
X132042179Y-85905048D01*
X132042181Y-85905049D01*
X132042184Y-85905051D01*
X132231588Y-86001557D01*
X132433757Y-86067246D01*
X132643713Y-86100500D01*
X132643714Y-86100500D01*
X132856286Y-86100500D01*
X132856287Y-86100500D01*
X133066243Y-86067246D01*
X133268412Y-86001557D01*
X133457816Y-85905051D01*
X133479789Y-85889086D01*
X133629786Y-85780109D01*
X133629788Y-85780106D01*
X133629792Y-85780104D01*
X133780104Y-85629792D01*
X133780106Y-85629788D01*
X133780109Y-85629786D01*
X133905048Y-85457820D01*
X133905047Y-85457820D01*
X133905051Y-85457816D01*
X134001557Y-85268412D01*
X134067246Y-85066243D01*
X134100500Y-84856287D01*
X134100500Y-84643713D01*
X134067246Y-84433757D01*
X134001557Y-84231588D01*
X133905051Y-84042184D01*
X133905049Y-84042181D01*
X133905048Y-84042179D01*
X133780109Y-83870213D01*
X133629786Y-83719890D01*
X133457820Y-83594951D01*
X133268414Y-83498444D01*
X133268413Y-83498443D01*
X133268412Y-83498443D01*
X133066243Y-83432754D01*
X133066241Y-83432753D01*
X133066240Y-83432753D01*
X132904957Y-83407208D01*
X132856287Y-83399500D01*
X132643713Y-83399500D01*
X132595042Y-83407208D01*
X132433760Y-83432753D01*
X132231585Y-83498444D01*
X132042179Y-83594951D01*
X131870213Y-83719890D01*
X131719890Y-83870213D01*
X131594951Y-84042179D01*
X131498444Y-84231585D01*
X131432753Y-84433760D01*
X131399500Y-84643713D01*
X92100500Y-84643713D01*
X92067246Y-84433757D01*
X92001557Y-84231588D01*
X91905051Y-84042184D01*
X91905049Y-84042181D01*
X91905048Y-84042179D01*
X91780109Y-83870213D01*
X91629786Y-83719890D01*
X91457820Y-83594951D01*
X91268414Y-83498444D01*
X91268413Y-83498443D01*
X91268412Y-83498443D01*
X91066243Y-83432754D01*
X91066241Y-83432753D01*
X91066240Y-83432753D01*
X90904957Y-83407208D01*
X90856287Y-83399500D01*
X90643713Y-83399500D01*
X90595042Y-83407208D01*
X90433760Y-83432753D01*
X90231585Y-83498444D01*
X90042179Y-83594951D01*
X89870213Y-83719890D01*
X89719890Y-83870213D01*
X89594951Y-84042179D01*
X89498444Y-84231585D01*
X89432753Y-84433760D01*
X89399500Y-84643713D01*
X88250500Y-84643713D01*
X88250500Y-81855131D01*
X99559500Y-81855131D01*
X99559500Y-83644856D01*
X99559502Y-83644882D01*
X99562413Y-83669987D01*
X99562415Y-83669991D01*
X99607793Y-83772764D01*
X99607794Y-83772765D01*
X99687235Y-83852206D01*
X99790009Y-83897585D01*
X99815135Y-83900500D01*
X101604864Y-83900499D01*
X101604879Y-83900497D01*
X101604882Y-83900497D01*
X101629987Y-83897586D01*
X101629988Y-83897585D01*
X101629991Y-83897585D01*
X101732765Y-83852206D01*
X101812206Y-83772765D01*
X101857585Y-83669991D01*
X101860500Y-83644865D01*
X101860499Y-82907125D01*
X101880183Y-82840089D01*
X101932987Y-82794334D01*
X102002146Y-82784390D01*
X102065702Y-82813415D01*
X102103476Y-82872193D01*
X102106972Y-82887729D01*
X102127829Y-83019410D01*
X102183787Y-83191636D01*
X102183788Y-83191639D01*
X102266006Y-83352997D01*
X102372441Y-83499494D01*
X102372445Y-83499499D01*
X102500500Y-83627554D01*
X102500505Y-83627558D01*
X102624565Y-83717692D01*
X102647006Y-83733996D01*
X102723094Y-83772765D01*
X102808360Y-83816211D01*
X102808363Y-83816212D01*
X102894476Y-83844191D01*
X102980591Y-83872171D01*
X103063429Y-83885291D01*
X103159449Y-83900500D01*
X103159454Y-83900500D01*
X103340551Y-83900500D01*
X103427259Y-83886765D01*
X103519409Y-83872171D01*
X103691639Y-83816211D01*
X103852994Y-83733996D01*
X103999501Y-83627553D01*
X104127553Y-83499501D01*
X104233996Y-83352994D01*
X104316211Y-83191639D01*
X104372171Y-83019409D01*
X104386422Y-82929425D01*
X104397527Y-82859321D01*
X104427456Y-82796186D01*
X104486768Y-82759255D01*
X104556630Y-82760253D01*
X104614863Y-82798863D01*
X104642473Y-82859321D01*
X104667829Y-83019410D01*
X104723787Y-83191636D01*
X104723788Y-83191639D01*
X104806006Y-83352997D01*
X104912441Y-83499494D01*
X104912445Y-83499499D01*
X105040500Y-83627554D01*
X105040505Y-83627558D01*
X105164565Y-83717692D01*
X105187006Y-83733996D01*
X105263094Y-83772765D01*
X105348360Y-83816211D01*
X105348363Y-83816212D01*
X105434476Y-83844191D01*
X105520591Y-83872171D01*
X105603429Y-83885291D01*
X105699449Y-83900500D01*
X105699454Y-83900500D01*
X105880551Y-83900500D01*
X105967259Y-83886765D01*
X106059409Y-83872171D01*
X106231639Y-83816211D01*
X106392994Y-83733996D01*
X106515669Y-83644868D01*
X106539495Y-83627558D01*
X106539497Y-83627555D01*
X106539501Y-83627553D01*
X106667553Y-83499501D01*
X106773996Y-83352994D01*
X106841090Y-83221314D01*
X106889065Y-83170519D01*
X106956886Y-83153724D01*
X107023021Y-83176262D01*
X107066472Y-83230977D01*
X107069506Y-83239292D01*
X107078904Y-83268217D01*
X107175375Y-83457550D01*
X107214728Y-83511716D01*
X107847037Y-82879408D01*
X107864075Y-82942993D01*
X107929901Y-83057007D01*
X108022993Y-83150099D01*
X108137007Y-83215925D01*
X108200590Y-83232962D01*
X107568282Y-83865269D01*
X107568282Y-83865270D01*
X107622449Y-83904624D01*
X107811782Y-84001095D01*
X108013870Y-84066757D01*
X108223754Y-84100000D01*
X108436246Y-84100000D01*
X108646127Y-84066757D01*
X108646130Y-84066757D01*
X108848217Y-84001095D01*
X109037554Y-83904622D01*
X109091716Y-83865270D01*
X109091717Y-83865270D01*
X108459408Y-83232962D01*
X108522993Y-83215925D01*
X108637007Y-83150099D01*
X108730099Y-83057007D01*
X108795925Y-82942993D01*
X108812962Y-82879409D01*
X109445270Y-83511717D01*
X109445270Y-83511716D01*
X109484622Y-83457554D01*
X109581095Y-83268217D01*
X109646757Y-83066130D01*
X109646757Y-83066127D01*
X109680000Y-82856246D01*
X109680000Y-82643753D01*
X109646757Y-82433872D01*
X109646757Y-82433869D01*
X109581095Y-82231782D01*
X109484624Y-82042449D01*
X109445270Y-81988282D01*
X109445269Y-81988282D01*
X108812962Y-82620590D01*
X108795925Y-82557007D01*
X108730099Y-82442993D01*
X108637007Y-82349901D01*
X108522993Y-82284075D01*
X108459409Y-82267037D01*
X109091716Y-81634728D01*
X109037550Y-81595375D01*
X108848217Y-81498904D01*
X108646129Y-81433242D01*
X108436246Y-81400000D01*
X108223754Y-81400000D01*
X108013872Y-81433242D01*
X108013869Y-81433242D01*
X107811782Y-81498904D01*
X107622439Y-81595380D01*
X107568282Y-81634727D01*
X107568282Y-81634728D01*
X108200591Y-82267037D01*
X108137007Y-82284075D01*
X108022993Y-82349901D01*
X107929901Y-82442993D01*
X107864075Y-82557007D01*
X107847037Y-82620591D01*
X107214728Y-81988282D01*
X107214727Y-81988282D01*
X107175380Y-82042439D01*
X107078905Y-82231781D01*
X107069506Y-82260708D01*
X107030068Y-82318383D01*
X106965709Y-82345581D01*
X106896862Y-82333666D01*
X106845387Y-82286421D01*
X106841090Y-82278684D01*
X106817191Y-82231781D01*
X106773996Y-82147006D01*
X106760396Y-82128287D01*
X106667558Y-82000505D01*
X106667554Y-82000500D01*
X106539499Y-81872445D01*
X106539494Y-81872441D01*
X106415432Y-81782305D01*
X106392996Y-81766005D01*
X106231639Y-81683788D01*
X106231636Y-81683787D01*
X106059410Y-81627829D01*
X105880551Y-81599500D01*
X105880546Y-81599500D01*
X105699454Y-81599500D01*
X105699449Y-81599500D01*
X105520589Y-81627829D01*
X105348363Y-81683787D01*
X105348360Y-81683788D01*
X105187002Y-81766006D01*
X105040505Y-81872441D01*
X105040500Y-81872445D01*
X104912445Y-82000500D01*
X104912441Y-82000505D01*
X104806006Y-82147002D01*
X104723788Y-82308360D01*
X104723787Y-82308363D01*
X104667829Y-82480589D01*
X104642473Y-82640678D01*
X104612544Y-82703813D01*
X104553232Y-82740744D01*
X104483369Y-82739746D01*
X104425137Y-82701136D01*
X104397527Y-82640678D01*
X104383740Y-82553639D01*
X104372171Y-82480591D01*
X104329708Y-82349901D01*
X104316212Y-82308363D01*
X104316211Y-82308360D01*
X104277191Y-82231781D01*
X104233996Y-82147006D01*
X104220396Y-82128287D01*
X104127558Y-82000505D01*
X104127554Y-82000500D01*
X103999499Y-81872445D01*
X103999494Y-81872441D01*
X103852997Y-81766006D01*
X103852996Y-81766005D01*
X103852994Y-81766004D01*
X103776906Y-81727235D01*
X103691639Y-81683788D01*
X103691636Y-81683787D01*
X103519410Y-81627829D01*
X103340551Y-81599500D01*
X103340546Y-81599500D01*
X103159454Y-81599500D01*
X103159449Y-81599500D01*
X102980589Y-81627829D01*
X102808363Y-81683787D01*
X102808360Y-81683788D01*
X102647002Y-81766006D01*
X102500505Y-81872441D01*
X102500500Y-81872445D01*
X102372445Y-82000500D01*
X102372441Y-82000505D01*
X102266006Y-82147002D01*
X102183788Y-82308360D01*
X102183787Y-82308363D01*
X102127829Y-82480589D01*
X102106972Y-82612271D01*
X102077042Y-82675405D01*
X102017731Y-82712336D01*
X101947868Y-82711338D01*
X101889636Y-82672728D01*
X101861522Y-82608764D01*
X101860499Y-82592872D01*
X101860499Y-81855143D01*
X101860499Y-81855136D01*
X101860497Y-81855117D01*
X101857586Y-81830012D01*
X101857585Y-81830010D01*
X101857585Y-81830009D01*
X101812206Y-81727235D01*
X101732765Y-81647794D01*
X101732763Y-81647793D01*
X101629992Y-81602415D01*
X101604865Y-81599500D01*
X99815143Y-81599500D01*
X99815117Y-81599502D01*
X99790012Y-81602413D01*
X99790008Y-81602415D01*
X99687235Y-81647793D01*
X99607794Y-81727234D01*
X99562415Y-81830006D01*
X99562415Y-81830008D01*
X99559500Y-81855131D01*
X88250500Y-81855131D01*
X88250500Y-75170943D01*
X102649500Y-75170943D01*
X102649500Y-75329057D01*
X102679341Y-75440423D01*
X102690423Y-75481783D01*
X102690426Y-75481790D01*
X102769475Y-75618709D01*
X102769479Y-75618714D01*
X102769480Y-75618716D01*
X102881284Y-75730520D01*
X102881286Y-75730521D01*
X102881290Y-75730524D01*
X103018209Y-75809573D01*
X103018216Y-75809577D01*
X103170943Y-75850500D01*
X103170945Y-75850500D01*
X103178099Y-75851442D01*
X103241996Y-75879707D01*
X103249597Y-75886700D01*
X103723386Y-76360489D01*
X103826113Y-76419799D01*
X103850321Y-76426284D01*
X103850324Y-76426286D01*
X103850325Y-76426286D01*
X103880447Y-76434357D01*
X103940691Y-76450500D01*
X105300069Y-76450500D01*
X105367108Y-76470185D01*
X105375557Y-76476125D01*
X105381281Y-76480517D01*
X105381284Y-76480520D01*
X105381287Y-76480521D01*
X105381290Y-76480524D01*
X105518209Y-76559573D01*
X105518216Y-76559577D01*
X105670943Y-76600500D01*
X105670945Y-76600500D01*
X105829055Y-76600500D01*
X105829057Y-76600500D01*
X105981784Y-76559577D01*
X106118716Y-76480520D01*
X106230520Y-76368716D01*
X106309577Y-76231784D01*
X106350500Y-76079057D01*
X106350500Y-75920943D01*
X106309577Y-75768216D01*
X106287816Y-75730524D01*
X106230524Y-75631290D01*
X106230518Y-75631282D01*
X106118717Y-75519481D01*
X106118709Y-75519475D01*
X105981790Y-75440426D01*
X105981786Y-75440424D01*
X105981784Y-75440423D01*
X105829057Y-75399500D01*
X105670943Y-75399500D01*
X105518216Y-75440423D01*
X105518209Y-75440426D01*
X105381290Y-75519475D01*
X105375557Y-75523875D01*
X105310388Y-75549070D01*
X105300069Y-75549500D01*
X104237965Y-75549500D01*
X104170926Y-75529815D01*
X104150284Y-75513181D01*
X103886700Y-75249597D01*
X103853215Y-75188274D01*
X103851442Y-75178099D01*
X103850500Y-75170945D01*
X103850500Y-75170943D01*
X106649500Y-75170943D01*
X106649500Y-75329057D01*
X106679341Y-75440423D01*
X106690423Y-75481783D01*
X106690426Y-75481790D01*
X106769475Y-75618709D01*
X106769479Y-75618714D01*
X106769480Y-75618716D01*
X106881284Y-75730520D01*
X106881286Y-75730521D01*
X106881290Y-75730524D01*
X107018209Y-75809573D01*
X107018216Y-75809577D01*
X107170943Y-75850500D01*
X107170945Y-75850500D01*
X107329055Y-75850500D01*
X107329057Y-75850500D01*
X107481784Y-75809577D01*
X107618716Y-75730520D01*
X107618721Y-75730514D01*
X107624443Y-75726125D01*
X107689612Y-75700930D01*
X107699931Y-75700500D01*
X109050069Y-75700500D01*
X109117108Y-75720185D01*
X109125557Y-75726125D01*
X109131281Y-75730517D01*
X109131284Y-75730520D01*
X109131287Y-75730521D01*
X109131290Y-75730524D01*
X109268209Y-75809573D01*
X109268216Y-75809577D01*
X109420943Y-75850500D01*
X109420945Y-75850500D01*
X109579055Y-75850500D01*
X109579057Y-75850500D01*
X109731784Y-75809577D01*
X109868716Y-75730520D01*
X109980520Y-75618716D01*
X110059577Y-75481784D01*
X110100500Y-75329057D01*
X110100500Y-75170943D01*
X110059577Y-75018216D01*
X110059573Y-75018209D01*
X109980524Y-74881290D01*
X109980518Y-74881282D01*
X109868717Y-74769481D01*
X109868709Y-74769475D01*
X109731790Y-74690426D01*
X109731786Y-74690424D01*
X109731784Y-74690423D01*
X109579057Y-74649500D01*
X109420943Y-74649500D01*
X109268216Y-74690423D01*
X109268209Y-74690426D01*
X109131290Y-74769475D01*
X109125557Y-74773875D01*
X109060388Y-74799070D01*
X109050069Y-74799500D01*
X107699931Y-74799500D01*
X107632892Y-74779815D01*
X107624443Y-74773875D01*
X107618709Y-74769475D01*
X107481790Y-74690426D01*
X107481786Y-74690424D01*
X107481784Y-74690423D01*
X107329057Y-74649500D01*
X107170943Y-74649500D01*
X107018216Y-74690423D01*
X107018209Y-74690426D01*
X106881290Y-74769475D01*
X106881282Y-74769481D01*
X106769481Y-74881282D01*
X106769475Y-74881290D01*
X106690426Y-75018209D01*
X106690423Y-75018216D01*
X106649500Y-75170943D01*
X103850500Y-75170943D01*
X103809577Y-75018216D01*
X103809573Y-75018209D01*
X103730524Y-74881290D01*
X103730518Y-74881282D01*
X103618717Y-74769481D01*
X103618709Y-74769475D01*
X103481790Y-74690426D01*
X103481786Y-74690424D01*
X103481784Y-74690423D01*
X103329057Y-74649500D01*
X103170943Y-74649500D01*
X103018216Y-74690423D01*
X103018209Y-74690426D01*
X102881290Y-74769475D01*
X102881282Y-74769481D01*
X102769481Y-74881282D01*
X102769475Y-74881290D01*
X102690426Y-75018209D01*
X102690423Y-75018216D01*
X102649500Y-75170943D01*
X88250500Y-75170943D01*
X88250500Y-68598992D01*
X128449500Y-68598992D01*
X128449500Y-68801007D01*
X128488907Y-68999119D01*
X128488909Y-68999127D01*
X128566212Y-69185752D01*
X128566217Y-69185762D01*
X128678441Y-69353718D01*
X128821281Y-69496558D01*
X128989237Y-69608782D01*
X128989241Y-69608784D01*
X128989244Y-69608786D01*
X129175873Y-69686091D01*
X129373992Y-69725499D01*
X129373996Y-69725500D01*
X129373997Y-69725500D01*
X130126004Y-69725500D01*
X130126005Y-69725499D01*
X130324127Y-69686091D01*
X130510756Y-69608786D01*
X130678718Y-69496558D01*
X130821558Y-69353718D01*
X130933786Y-69185756D01*
X131011091Y-68999127D01*
X131050500Y-68801003D01*
X131050500Y-68763766D01*
X132349500Y-68763766D01*
X132349500Y-68936233D01*
X132383143Y-69105366D01*
X132383146Y-69105378D01*
X132449138Y-69264698D01*
X132449145Y-69264711D01*
X132544954Y-69408098D01*
X132544957Y-69408102D01*
X132666897Y-69530042D01*
X132666901Y-69530045D01*
X132810288Y-69625854D01*
X132810301Y-69625861D01*
X132955708Y-69686090D01*
X132969626Y-69691855D01*
X133138766Y-69725499D01*
X133138769Y-69725500D01*
X133138771Y-69725500D01*
X133961231Y-69725500D01*
X133961232Y-69725499D01*
X134130374Y-69691855D01*
X134289705Y-69625858D01*
X134433099Y-69530045D01*
X134555045Y-69408099D01*
X134650858Y-69264705D01*
X134716855Y-69105374D01*
X134750500Y-68936229D01*
X134750500Y-68763771D01*
X134750500Y-68763768D01*
X134750499Y-68763766D01*
X134716856Y-68594633D01*
X134716855Y-68594626D01*
X134716853Y-68594621D01*
X134650861Y-68435301D01*
X134650854Y-68435288D01*
X134555045Y-68291901D01*
X134555042Y-68291897D01*
X134433102Y-68169957D01*
X134433098Y-68169954D01*
X134289711Y-68074145D01*
X134289698Y-68074138D01*
X134130378Y-68008146D01*
X134130366Y-68008143D01*
X133961232Y-67974500D01*
X133961229Y-67974500D01*
X133138771Y-67974500D01*
X133138768Y-67974500D01*
X132969633Y-68008143D01*
X132969621Y-68008146D01*
X132810301Y-68074138D01*
X132810288Y-68074145D01*
X132666901Y-68169954D01*
X132666897Y-68169957D01*
X132544957Y-68291897D01*
X132544954Y-68291901D01*
X132449145Y-68435288D01*
X132449138Y-68435301D01*
X132383146Y-68594621D01*
X132383143Y-68594633D01*
X132349500Y-68763766D01*
X131050500Y-68763766D01*
X131050500Y-68598997D01*
X131011091Y-68400873D01*
X130968354Y-68297697D01*
X130960885Y-68228227D01*
X130992160Y-68165748D01*
X131035457Y-68135685D01*
X131131811Y-68095775D01*
X131246542Y-68019114D01*
X131344114Y-67921542D01*
X131420775Y-67806811D01*
X131427236Y-67791214D01*
X131473578Y-67679332D01*
X131473580Y-67679328D01*
X131487975Y-67606959D01*
X131500500Y-67543995D01*
X131500500Y-67406004D01*
X131473581Y-67270677D01*
X131473580Y-67270676D01*
X131473580Y-67270672D01*
X131473578Y-67270667D01*
X131420778Y-67143195D01*
X131420771Y-67143182D01*
X131344114Y-67028458D01*
X131344111Y-67028454D01*
X131246545Y-66930888D01*
X131246541Y-66930885D01*
X131131817Y-66854228D01*
X131131804Y-66854221D01*
X131004332Y-66801421D01*
X131004322Y-66801418D01*
X130868995Y-66774500D01*
X130868993Y-66774500D01*
X130731007Y-66774500D01*
X130731005Y-66774500D01*
X130595677Y-66801418D01*
X130595667Y-66801421D01*
X130468195Y-66854221D01*
X130468182Y-66854228D01*
X130353458Y-66930885D01*
X130353454Y-66930888D01*
X130255888Y-67028454D01*
X130255885Y-67028458D01*
X130179228Y-67143182D01*
X130179221Y-67143195D01*
X130126421Y-67270667D01*
X130126418Y-67270677D01*
X130099500Y-67406004D01*
X130099500Y-67550085D01*
X130096710Y-67550085D01*
X130085942Y-67606959D01*
X130037892Y-67657683D01*
X129975541Y-67674500D01*
X129373992Y-67674500D01*
X129175880Y-67713907D01*
X129175872Y-67713909D01*
X128989247Y-67791212D01*
X128989237Y-67791217D01*
X128821281Y-67903441D01*
X128678441Y-68046281D01*
X128566217Y-68214237D01*
X128566212Y-68214247D01*
X128488909Y-68400872D01*
X128488907Y-68400880D01*
X128449500Y-68598992D01*
X88250500Y-68598992D01*
X88250500Y-65068995D01*
X89194499Y-65068995D01*
X89221418Y-65204322D01*
X89221421Y-65204332D01*
X89274221Y-65331804D01*
X89274228Y-65331817D01*
X89350885Y-65446541D01*
X89350888Y-65446545D01*
X89448454Y-65544111D01*
X89448458Y-65544114D01*
X89563182Y-65620771D01*
X89563195Y-65620778D01*
X89690667Y-65673578D01*
X89690672Y-65673580D01*
X89690676Y-65673580D01*
X89690677Y-65673581D01*
X89826004Y-65700500D01*
X89826007Y-65700500D01*
X89963995Y-65700500D01*
X90055041Y-65682389D01*
X90099328Y-65673580D01*
X90226811Y-65620775D01*
X90341542Y-65544114D01*
X90439114Y-65446542D01*
X90515775Y-65331811D01*
X90568580Y-65204328D01*
X90595500Y-65068993D01*
X90595500Y-64931007D01*
X90595500Y-64931004D01*
X90568581Y-64795677D01*
X90568580Y-64795676D01*
X90568580Y-64795672D01*
X90568578Y-64795667D01*
X90515778Y-64668195D01*
X90515771Y-64668182D01*
X90439114Y-64553458D01*
X90439111Y-64553454D01*
X90341545Y-64455888D01*
X90341541Y-64455885D01*
X90226817Y-64379228D01*
X90226804Y-64379221D01*
X90099332Y-64326421D01*
X90099322Y-64326418D01*
X89963995Y-64299500D01*
X89963993Y-64299500D01*
X89826007Y-64299500D01*
X89826005Y-64299500D01*
X89690677Y-64326418D01*
X89690667Y-64326421D01*
X89563195Y-64379221D01*
X89563182Y-64379228D01*
X89448458Y-64455885D01*
X89448454Y-64455888D01*
X89350888Y-64553454D01*
X89350885Y-64553458D01*
X89274228Y-64668182D01*
X89274221Y-64668195D01*
X89221421Y-64795667D01*
X89221418Y-64795677D01*
X89194500Y-64931004D01*
X89194500Y-64931007D01*
X89194500Y-65068993D01*
X89194500Y-65068995D01*
X89194499Y-65068995D01*
X88250500Y-65068995D01*
X88250500Y-62068995D01*
X89194499Y-62068995D01*
X89221418Y-62204322D01*
X89221421Y-62204332D01*
X89274221Y-62331804D01*
X89274228Y-62331817D01*
X89350885Y-62446541D01*
X89350888Y-62446545D01*
X89448454Y-62544111D01*
X89448458Y-62544114D01*
X89563182Y-62620771D01*
X89563195Y-62620778D01*
X89690667Y-62673578D01*
X89690672Y-62673580D01*
X89690676Y-62673580D01*
X89690677Y-62673581D01*
X89826004Y-62700500D01*
X89826007Y-62700500D01*
X89963995Y-62700500D01*
X90070461Y-62679322D01*
X90099328Y-62673580D01*
X90226811Y-62620775D01*
X90341542Y-62544114D01*
X90439114Y-62446542D01*
X90515775Y-62331811D01*
X90568580Y-62204328D01*
X90595500Y-62068993D01*
X90595500Y-61931007D01*
X90595500Y-61931004D01*
X90568581Y-61795677D01*
X90568580Y-61795676D01*
X90568580Y-61795672D01*
X90543762Y-61735756D01*
X90515778Y-61668195D01*
X90515771Y-61668182D01*
X90439114Y-61553458D01*
X90439111Y-61553454D01*
X90341545Y-61455888D01*
X90341541Y-61455885D01*
X90226817Y-61379228D01*
X90226804Y-61379221D01*
X90099332Y-61326421D01*
X90099322Y-61326418D01*
X89963995Y-61299500D01*
X89963993Y-61299500D01*
X89826007Y-61299500D01*
X89826005Y-61299500D01*
X89690677Y-61326418D01*
X89690667Y-61326421D01*
X89563195Y-61379221D01*
X89563182Y-61379228D01*
X89448458Y-61455885D01*
X89448454Y-61455888D01*
X89350888Y-61553454D01*
X89350885Y-61553458D01*
X89274228Y-61668182D01*
X89274221Y-61668195D01*
X89221421Y-61795667D01*
X89221418Y-61795677D01*
X89194500Y-61931004D01*
X89194500Y-61931007D01*
X89194500Y-62068993D01*
X89194500Y-62068995D01*
X89194499Y-62068995D01*
X88250500Y-62068995D01*
X88250500Y-61148992D01*
X128449500Y-61148992D01*
X128449500Y-61351007D01*
X128488907Y-61549119D01*
X128488909Y-61549127D01*
X128566212Y-61735752D01*
X128566217Y-61735762D01*
X128678441Y-61903718D01*
X128821281Y-62046558D01*
X128989237Y-62158782D01*
X128989241Y-62158784D01*
X128989244Y-62158786D01*
X129175873Y-62236091D01*
X129349700Y-62270667D01*
X129373992Y-62275499D01*
X129373996Y-62275500D01*
X129373997Y-62275500D01*
X129975541Y-62275500D01*
X130042580Y-62295185D01*
X130088335Y-62347989D01*
X130096980Y-62399915D01*
X130099500Y-62399915D01*
X130099500Y-62406007D01*
X130099500Y-62543993D01*
X130099500Y-62543995D01*
X130099499Y-62543995D01*
X130126418Y-62679322D01*
X130126421Y-62679332D01*
X130179221Y-62806804D01*
X130179228Y-62806817D01*
X130255885Y-62921541D01*
X130255888Y-62921545D01*
X130353454Y-63019111D01*
X130353458Y-63019114D01*
X130468182Y-63095771D01*
X130468195Y-63095778D01*
X130595667Y-63148578D01*
X130595672Y-63148580D01*
X130595676Y-63148580D01*
X130595677Y-63148581D01*
X130731004Y-63175500D01*
X130731007Y-63175500D01*
X130868995Y-63175500D01*
X130960041Y-63157389D01*
X131004328Y-63148580D01*
X131131811Y-63095775D01*
X131246542Y-63019114D01*
X131344114Y-62921542D01*
X131420775Y-62806811D01*
X131473580Y-62679328D01*
X131500500Y-62543993D01*
X131500500Y-62406007D01*
X131500500Y-62406004D01*
X131473581Y-62270677D01*
X131473580Y-62270676D01*
X131473580Y-62270672D01*
X131427236Y-62158787D01*
X131420778Y-62143195D01*
X131420771Y-62143182D01*
X131344114Y-62028458D01*
X131344111Y-62028454D01*
X131246545Y-61930888D01*
X131246541Y-61930885D01*
X131131817Y-61854228D01*
X131131804Y-61854221D01*
X131035462Y-61814316D01*
X130981058Y-61770476D01*
X130958993Y-61704182D01*
X130968351Y-61652307D01*
X131011091Y-61549127D01*
X131050500Y-61351003D01*
X131050500Y-61148997D01*
X131050345Y-61148222D01*
X131027203Y-61031870D01*
X131023602Y-61013766D01*
X132349500Y-61013766D01*
X132349500Y-61186233D01*
X132383143Y-61355366D01*
X132383146Y-61355378D01*
X132449138Y-61514698D01*
X132449145Y-61514711D01*
X132544954Y-61658098D01*
X132544957Y-61658102D01*
X132666897Y-61780042D01*
X132666901Y-61780045D01*
X132810288Y-61875854D01*
X132810301Y-61875861D01*
X132969621Y-61941853D01*
X132969626Y-61941855D01*
X133138766Y-61975499D01*
X133138769Y-61975500D01*
X133138771Y-61975500D01*
X133961231Y-61975500D01*
X133961232Y-61975499D01*
X134130374Y-61941855D01*
X134289705Y-61875858D01*
X134433099Y-61780045D01*
X134555045Y-61658099D01*
X134650858Y-61514705D01*
X134716855Y-61355374D01*
X134750500Y-61186229D01*
X134750500Y-61013771D01*
X134750500Y-61013768D01*
X134750499Y-61013766D01*
X134737989Y-60950873D01*
X134716855Y-60844626D01*
X134683557Y-60764237D01*
X134650861Y-60685301D01*
X134650854Y-60685288D01*
X134555045Y-60541901D01*
X134555042Y-60541897D01*
X134433102Y-60419957D01*
X134433098Y-60419954D01*
X134289711Y-60324145D01*
X134289698Y-60324138D01*
X134130378Y-60258146D01*
X134130366Y-60258143D01*
X133961232Y-60224500D01*
X133961229Y-60224500D01*
X133138771Y-60224500D01*
X133138768Y-60224500D01*
X132969633Y-60258143D01*
X132969621Y-60258146D01*
X132810301Y-60324138D01*
X132810288Y-60324145D01*
X132666901Y-60419954D01*
X132666897Y-60419957D01*
X132544957Y-60541897D01*
X132544954Y-60541901D01*
X132449145Y-60685288D01*
X132449138Y-60685301D01*
X132383146Y-60844621D01*
X132383143Y-60844633D01*
X132349500Y-61013766D01*
X131023602Y-61013766D01*
X131011092Y-60950880D01*
X131011091Y-60950873D01*
X130933786Y-60764244D01*
X130933784Y-60764241D01*
X130933782Y-60764237D01*
X130821558Y-60596281D01*
X130678718Y-60453441D01*
X130510762Y-60341217D01*
X130510752Y-60341212D01*
X130324127Y-60263909D01*
X130324119Y-60263907D01*
X130126007Y-60224500D01*
X130126003Y-60224500D01*
X129373997Y-60224500D01*
X129373992Y-60224500D01*
X129175880Y-60263907D01*
X129175872Y-60263909D01*
X128989247Y-60341212D01*
X128989237Y-60341217D01*
X128821281Y-60453441D01*
X128678441Y-60596281D01*
X128566217Y-60764237D01*
X128566212Y-60764247D01*
X128488909Y-60950872D01*
X128488907Y-60950880D01*
X128449500Y-61148992D01*
X88250500Y-61148992D01*
X88250500Y-54753750D01*
X88250726Y-54746263D01*
X88256929Y-54643713D01*
X89399500Y-54643713D01*
X89399500Y-54856286D01*
X89431505Y-55058361D01*
X89432754Y-55066243D01*
X89470973Y-55183869D01*
X89498444Y-55268414D01*
X89594951Y-55457820D01*
X89719890Y-55629786D01*
X89870213Y-55780109D01*
X90042179Y-55905048D01*
X90042181Y-55905049D01*
X90042184Y-55905051D01*
X90231588Y-56001557D01*
X90433757Y-56067246D01*
X90643713Y-56100500D01*
X90643714Y-56100500D01*
X90856286Y-56100500D01*
X90856287Y-56100500D01*
X91066243Y-56067246D01*
X91268412Y-56001557D01*
X91457816Y-55905051D01*
X91528696Y-55853554D01*
X91629786Y-55780109D01*
X91629788Y-55780106D01*
X91629792Y-55780104D01*
X91780104Y-55629792D01*
X91780106Y-55629788D01*
X91780109Y-55629786D01*
X91847039Y-55537663D01*
X91905051Y-55457816D01*
X91937693Y-55393753D01*
X101530000Y-55393753D01*
X101530000Y-55606246D01*
X101563242Y-55816127D01*
X101563242Y-55816130D01*
X101628904Y-56018217D01*
X101725375Y-56207550D01*
X101764728Y-56261716D01*
X102397037Y-55629408D01*
X102414075Y-55692993D01*
X102479901Y-55807007D01*
X102572993Y-55900099D01*
X102687007Y-55965925D01*
X102750590Y-55982962D01*
X102118282Y-56615269D01*
X102118282Y-56615270D01*
X102172449Y-56654624D01*
X102361782Y-56751095D01*
X102563870Y-56816757D01*
X102773754Y-56850000D01*
X102986246Y-56850000D01*
X103196127Y-56816757D01*
X103196130Y-56816757D01*
X103398217Y-56751095D01*
X103587554Y-56654622D01*
X103641716Y-56615270D01*
X103641717Y-56615270D01*
X103009408Y-55982962D01*
X103072993Y-55965925D01*
X103187007Y-55900099D01*
X103280099Y-55807007D01*
X103345925Y-55692993D01*
X103362962Y-55629408D01*
X103995270Y-56261717D01*
X103995270Y-56261716D01*
X104034622Y-56207554D01*
X104131095Y-56018217D01*
X104140492Y-55989295D01*
X104179928Y-55931618D01*
X104244286Y-55904419D01*
X104313133Y-55916331D01*
X104364610Y-55963574D01*
X104368908Y-55971314D01*
X104436004Y-56102995D01*
X104542441Y-56249494D01*
X104542445Y-56249499D01*
X104670500Y-56377554D01*
X104670505Y-56377558D01*
X104798287Y-56470396D01*
X104817006Y-56483996D01*
X104893094Y-56522765D01*
X104978360Y-56566211D01*
X104978363Y-56566212D01*
X105064476Y-56594191D01*
X105150591Y-56622171D01*
X105233429Y-56635291D01*
X105329449Y-56650500D01*
X105329454Y-56650500D01*
X105510551Y-56650500D01*
X105597259Y-56636765D01*
X105689409Y-56622171D01*
X105861639Y-56566211D01*
X106022994Y-56483996D01*
X106169501Y-56377553D01*
X106297553Y-56249501D01*
X106403996Y-56102994D01*
X106486211Y-55941639D01*
X106542171Y-55769409D01*
X106563027Y-55637729D01*
X106567527Y-55609321D01*
X106597456Y-55546186D01*
X106656768Y-55509255D01*
X106726630Y-55510253D01*
X106784863Y-55548863D01*
X106812473Y-55609321D01*
X106837829Y-55769410D01*
X106893787Y-55941636D01*
X106893788Y-55941639D01*
X106949664Y-56051300D01*
X106974733Y-56100500D01*
X106976006Y-56102997D01*
X107082441Y-56249494D01*
X107082445Y-56249499D01*
X107210500Y-56377554D01*
X107210505Y-56377558D01*
X107338287Y-56470396D01*
X107357006Y-56483996D01*
X107433094Y-56522765D01*
X107518360Y-56566211D01*
X107518363Y-56566212D01*
X107604476Y-56594191D01*
X107690591Y-56622171D01*
X107773429Y-56635291D01*
X107869449Y-56650500D01*
X107869454Y-56650500D01*
X108050551Y-56650500D01*
X108137259Y-56636765D01*
X108229409Y-56622171D01*
X108401639Y-56566211D01*
X108562994Y-56483996D01*
X108709501Y-56377553D01*
X108837553Y-56249501D01*
X108943996Y-56102994D01*
X109026211Y-55941639D01*
X109082171Y-55769409D01*
X109103027Y-55637729D01*
X109132956Y-55574595D01*
X109192267Y-55537663D01*
X109262130Y-55538661D01*
X109320363Y-55577271D01*
X109348477Y-55641234D01*
X109349500Y-55657127D01*
X109349500Y-56394856D01*
X109349502Y-56394882D01*
X109352413Y-56419987D01*
X109352415Y-56419991D01*
X109397793Y-56522764D01*
X109397794Y-56522765D01*
X109477235Y-56602206D01*
X109580009Y-56647585D01*
X109605135Y-56650500D01*
X111394864Y-56650499D01*
X111394879Y-56650497D01*
X111394882Y-56650497D01*
X111419987Y-56647586D01*
X111419988Y-56647585D01*
X111419991Y-56647585D01*
X111522765Y-56602206D01*
X111602206Y-56522765D01*
X111647585Y-56419991D01*
X111650500Y-56394865D01*
X111650499Y-55393753D01*
X112860000Y-55393753D01*
X112860000Y-55606246D01*
X112893242Y-55816127D01*
X112893242Y-55816130D01*
X112958904Y-56018217D01*
X113055375Y-56207550D01*
X113094728Y-56261716D01*
X113727037Y-55629408D01*
X113744075Y-55692993D01*
X113809901Y-55807007D01*
X113902993Y-55900099D01*
X114017007Y-55965925D01*
X114080590Y-55982962D01*
X113448282Y-56615269D01*
X113448282Y-56615270D01*
X113502449Y-56654624D01*
X113691782Y-56751095D01*
X113893870Y-56816757D01*
X114103754Y-56850000D01*
X114316246Y-56850000D01*
X114526127Y-56816757D01*
X114526130Y-56816757D01*
X114728217Y-56751095D01*
X114917554Y-56654622D01*
X114971716Y-56615270D01*
X114971717Y-56615270D01*
X114339408Y-55982962D01*
X114402993Y-55965925D01*
X114517007Y-55900099D01*
X114610099Y-55807007D01*
X114675925Y-55692993D01*
X114692962Y-55629408D01*
X115325270Y-56261717D01*
X115325270Y-56261716D01*
X115364622Y-56207554D01*
X115461095Y-56018217D01*
X115470492Y-55989295D01*
X115509928Y-55931618D01*
X115574286Y-55904419D01*
X115643133Y-55916331D01*
X115694610Y-55963574D01*
X115698908Y-55971314D01*
X115766004Y-56102995D01*
X115872441Y-56249494D01*
X115872445Y-56249499D01*
X116000500Y-56377554D01*
X116000505Y-56377558D01*
X116128287Y-56470396D01*
X116147006Y-56483996D01*
X116223094Y-56522765D01*
X116308360Y-56566211D01*
X116308363Y-56566212D01*
X116394476Y-56594191D01*
X116480591Y-56622171D01*
X116563429Y-56635291D01*
X116659449Y-56650500D01*
X116659454Y-56650500D01*
X116840551Y-56650500D01*
X116927259Y-56636765D01*
X117019409Y-56622171D01*
X117191639Y-56566211D01*
X117352994Y-56483996D01*
X117499501Y-56377553D01*
X117627553Y-56249501D01*
X117733996Y-56102994D01*
X117816211Y-55941639D01*
X117872171Y-55769409D01*
X117893027Y-55637729D01*
X117897527Y-55609321D01*
X117927456Y-55546186D01*
X117986768Y-55509255D01*
X118056630Y-55510253D01*
X118114863Y-55548863D01*
X118142473Y-55609321D01*
X118167829Y-55769410D01*
X118223787Y-55941636D01*
X118223788Y-55941639D01*
X118279664Y-56051300D01*
X118304733Y-56100500D01*
X118306006Y-56102997D01*
X118412441Y-56249494D01*
X118412445Y-56249499D01*
X118540500Y-56377554D01*
X118540505Y-56377558D01*
X118668287Y-56470396D01*
X118687006Y-56483996D01*
X118763094Y-56522765D01*
X118848360Y-56566211D01*
X118848363Y-56566212D01*
X118934476Y-56594191D01*
X119020591Y-56622171D01*
X119103429Y-56635291D01*
X119199449Y-56650500D01*
X119199454Y-56650500D01*
X119380551Y-56650500D01*
X119467259Y-56636765D01*
X119559409Y-56622171D01*
X119731639Y-56566211D01*
X119892994Y-56483996D01*
X120039501Y-56377553D01*
X120167553Y-56249501D01*
X120273996Y-56102994D01*
X120356211Y-55941639D01*
X120412171Y-55769409D01*
X120433027Y-55637729D01*
X120462956Y-55574595D01*
X120522267Y-55537663D01*
X120592130Y-55538661D01*
X120650363Y-55577271D01*
X120678477Y-55641234D01*
X120679500Y-55657127D01*
X120679500Y-56394856D01*
X120679502Y-56394882D01*
X120682413Y-56419987D01*
X120682415Y-56419991D01*
X120727793Y-56522764D01*
X120727794Y-56522765D01*
X120807235Y-56602206D01*
X120910009Y-56647585D01*
X120935135Y-56650500D01*
X122724864Y-56650499D01*
X122724879Y-56650497D01*
X122724882Y-56650497D01*
X122749987Y-56647586D01*
X122749988Y-56647585D01*
X122749991Y-56647585D01*
X122852765Y-56602206D01*
X122932206Y-56522765D01*
X122977585Y-56419991D01*
X122980500Y-56394865D01*
X122980499Y-54643713D01*
X131399500Y-54643713D01*
X131399500Y-54856286D01*
X131431505Y-55058361D01*
X131432754Y-55066243D01*
X131470973Y-55183869D01*
X131498444Y-55268414D01*
X131594951Y-55457820D01*
X131719890Y-55629786D01*
X131870213Y-55780109D01*
X132042179Y-55905048D01*
X132042181Y-55905049D01*
X132042184Y-55905051D01*
X132231588Y-56001557D01*
X132433757Y-56067246D01*
X132643713Y-56100500D01*
X132643714Y-56100500D01*
X132856286Y-56100500D01*
X132856287Y-56100500D01*
X133066243Y-56067246D01*
X133268412Y-56001557D01*
X133457816Y-55905051D01*
X133528696Y-55853554D01*
X133629786Y-55780109D01*
X133629788Y-55780106D01*
X133629792Y-55780104D01*
X133780104Y-55629792D01*
X133780106Y-55629788D01*
X133780109Y-55629786D01*
X133905048Y-55457820D01*
X133905049Y-55457819D01*
X133905051Y-55457816D01*
X134001557Y-55268412D01*
X134067246Y-55066243D01*
X134100500Y-54856287D01*
X134100500Y-54643713D01*
X134067246Y-54433757D01*
X134001557Y-54231588D01*
X133905051Y-54042184D01*
X133905049Y-54042181D01*
X133905048Y-54042179D01*
X133780109Y-53870213D01*
X133629786Y-53719890D01*
X133457820Y-53594951D01*
X133268414Y-53498444D01*
X133268413Y-53498443D01*
X133268412Y-53498443D01*
X133066243Y-53432754D01*
X133066241Y-53432753D01*
X133066240Y-53432753D01*
X132904957Y-53407208D01*
X132856287Y-53399500D01*
X132643713Y-53399500D01*
X132595042Y-53407208D01*
X132433760Y-53432753D01*
X132231585Y-53498444D01*
X132042179Y-53594951D01*
X131870213Y-53719890D01*
X131719890Y-53870213D01*
X131594951Y-54042179D01*
X131498444Y-54231585D01*
X131432753Y-54433760D01*
X131399500Y-54643713D01*
X122980499Y-54643713D01*
X122980499Y-54605136D01*
X122980497Y-54605117D01*
X122977586Y-54580012D01*
X122977585Y-54580010D01*
X122977585Y-54580009D01*
X122932206Y-54477235D01*
X122852765Y-54397794D01*
X122852763Y-54397793D01*
X122749992Y-54352415D01*
X122724865Y-54349500D01*
X120935143Y-54349500D01*
X120935117Y-54349502D01*
X120910012Y-54352413D01*
X120910008Y-54352415D01*
X120807235Y-54397793D01*
X120727794Y-54477234D01*
X120682415Y-54580006D01*
X120682415Y-54580008D01*
X120679500Y-54605131D01*
X120679500Y-55342871D01*
X120659815Y-55409910D01*
X120607011Y-55455665D01*
X120537853Y-55465609D01*
X120474297Y-55436584D01*
X120436523Y-55377806D01*
X120433027Y-55362269D01*
X120424274Y-55307007D01*
X120412171Y-55230591D01*
X120356211Y-55058361D01*
X120356211Y-55058360D01*
X120317191Y-54981780D01*
X120273996Y-54897006D01*
X120244411Y-54856286D01*
X120167558Y-54750505D01*
X120167554Y-54750500D01*
X120039499Y-54622445D01*
X120039494Y-54622441D01*
X119892997Y-54516006D01*
X119892996Y-54516005D01*
X119892994Y-54516004D01*
X119816906Y-54477235D01*
X119731639Y-54433788D01*
X119731636Y-54433787D01*
X119559410Y-54377829D01*
X119380551Y-54349500D01*
X119380546Y-54349500D01*
X119199454Y-54349500D01*
X119199449Y-54349500D01*
X119020589Y-54377829D01*
X118848363Y-54433787D01*
X118848360Y-54433788D01*
X118687002Y-54516006D01*
X118540505Y-54622441D01*
X118540500Y-54622445D01*
X118412445Y-54750500D01*
X118412441Y-54750505D01*
X118306006Y-54897002D01*
X118223788Y-55058360D01*
X118223787Y-55058363D01*
X118167829Y-55230589D01*
X118142473Y-55390678D01*
X118112544Y-55453813D01*
X118053232Y-55490744D01*
X117983369Y-55489746D01*
X117925137Y-55451136D01*
X117897527Y-55390678D01*
X117883740Y-55303639D01*
X117872171Y-55230591D01*
X117816211Y-55058361D01*
X117816211Y-55058360D01*
X117777191Y-54981780D01*
X117733996Y-54897006D01*
X117704411Y-54856286D01*
X117627558Y-54750505D01*
X117627554Y-54750500D01*
X117499499Y-54622445D01*
X117499494Y-54622441D01*
X117352997Y-54516006D01*
X117352996Y-54516005D01*
X117352994Y-54516004D01*
X117276906Y-54477235D01*
X117191639Y-54433788D01*
X117191636Y-54433787D01*
X117019410Y-54377829D01*
X116840551Y-54349500D01*
X116840546Y-54349500D01*
X116659454Y-54349500D01*
X116659449Y-54349500D01*
X116480589Y-54377829D01*
X116308363Y-54433787D01*
X116308360Y-54433788D01*
X116147002Y-54516006D01*
X116000505Y-54622441D01*
X116000500Y-54622445D01*
X115872445Y-54750500D01*
X115872441Y-54750505D01*
X115766004Y-54897004D01*
X115698908Y-55028685D01*
X115650933Y-55079480D01*
X115583112Y-55096275D01*
X115516977Y-55073737D01*
X115473527Y-55019021D01*
X115470492Y-55010705D01*
X115461094Y-54981780D01*
X115364624Y-54792449D01*
X115325270Y-54738282D01*
X115325269Y-54738282D01*
X114692962Y-55370590D01*
X114675925Y-55307007D01*
X114610099Y-55192993D01*
X114517007Y-55099901D01*
X114402993Y-55034075D01*
X114339409Y-55017037D01*
X114971716Y-54384728D01*
X114917550Y-54345375D01*
X114728217Y-54248904D01*
X114526129Y-54183242D01*
X114316246Y-54150000D01*
X114103754Y-54150000D01*
X113893872Y-54183242D01*
X113893869Y-54183242D01*
X113691782Y-54248904D01*
X113502439Y-54345380D01*
X113448282Y-54384727D01*
X113448282Y-54384728D01*
X114080591Y-55017037D01*
X114017007Y-55034075D01*
X113902993Y-55099901D01*
X113809901Y-55192993D01*
X113744075Y-55307007D01*
X113727037Y-55370591D01*
X113094728Y-54738282D01*
X113094727Y-54738282D01*
X113055380Y-54792439D01*
X112958904Y-54981782D01*
X112893242Y-55183869D01*
X112893242Y-55183872D01*
X112860000Y-55393753D01*
X111650499Y-55393753D01*
X111650499Y-54605136D01*
X111650497Y-54605117D01*
X111647586Y-54580012D01*
X111647585Y-54580011D01*
X111647585Y-54580009D01*
X111602206Y-54477235D01*
X111522765Y-54397794D01*
X111522763Y-54397793D01*
X111419992Y-54352415D01*
X111394865Y-54349500D01*
X109605143Y-54349500D01*
X109605117Y-54349502D01*
X109580012Y-54352413D01*
X109580008Y-54352415D01*
X109477235Y-54397793D01*
X109397794Y-54477234D01*
X109352415Y-54580006D01*
X109352415Y-54580008D01*
X109349500Y-54605131D01*
X109349500Y-55342871D01*
X109329815Y-55409910D01*
X109277011Y-55455665D01*
X109207853Y-55465609D01*
X109144297Y-55436584D01*
X109106523Y-55377806D01*
X109103027Y-55362269D01*
X109094274Y-55307007D01*
X109082171Y-55230591D01*
X109026211Y-55058361D01*
X109026211Y-55058360D01*
X108987191Y-54981780D01*
X108943996Y-54897006D01*
X108914411Y-54856286D01*
X108837558Y-54750505D01*
X108837554Y-54750500D01*
X108709499Y-54622445D01*
X108709494Y-54622441D01*
X108562997Y-54516006D01*
X108562996Y-54516005D01*
X108562994Y-54516004D01*
X108486906Y-54477235D01*
X108401639Y-54433788D01*
X108401636Y-54433787D01*
X108229410Y-54377829D01*
X108050551Y-54349500D01*
X108050546Y-54349500D01*
X107869454Y-54349500D01*
X107869449Y-54349500D01*
X107690589Y-54377829D01*
X107518363Y-54433787D01*
X107518360Y-54433788D01*
X107357002Y-54516006D01*
X107210505Y-54622441D01*
X107210500Y-54622445D01*
X107082445Y-54750500D01*
X107082441Y-54750505D01*
X106976006Y-54897002D01*
X106893788Y-55058360D01*
X106893787Y-55058363D01*
X106837829Y-55230589D01*
X106812473Y-55390678D01*
X106782544Y-55453813D01*
X106723232Y-55490744D01*
X106653369Y-55489746D01*
X106595137Y-55451136D01*
X106567527Y-55390678D01*
X106553740Y-55303639D01*
X106542171Y-55230591D01*
X106486211Y-55058361D01*
X106486211Y-55058360D01*
X106447191Y-54981780D01*
X106403996Y-54897006D01*
X106374411Y-54856286D01*
X106297558Y-54750505D01*
X106297554Y-54750500D01*
X106169499Y-54622445D01*
X106169494Y-54622441D01*
X106022997Y-54516006D01*
X106022996Y-54516005D01*
X106022994Y-54516004D01*
X105946906Y-54477235D01*
X105861639Y-54433788D01*
X105861636Y-54433787D01*
X105689410Y-54377829D01*
X105510551Y-54349500D01*
X105510546Y-54349500D01*
X105329454Y-54349500D01*
X105329449Y-54349500D01*
X105150589Y-54377829D01*
X104978363Y-54433787D01*
X104978360Y-54433788D01*
X104817002Y-54516006D01*
X104670505Y-54622441D01*
X104670500Y-54622445D01*
X104542445Y-54750500D01*
X104542441Y-54750505D01*
X104436004Y-54897004D01*
X104368908Y-55028685D01*
X104320933Y-55079480D01*
X104253112Y-55096275D01*
X104186977Y-55073737D01*
X104143527Y-55019021D01*
X104140492Y-55010705D01*
X104131094Y-54981780D01*
X104034624Y-54792449D01*
X103995270Y-54738282D01*
X103995269Y-54738282D01*
X103362962Y-55370590D01*
X103345925Y-55307007D01*
X103280099Y-55192993D01*
X103187007Y-55099901D01*
X103072993Y-55034075D01*
X103009409Y-55017037D01*
X103641716Y-54384728D01*
X103587550Y-54345375D01*
X103398217Y-54248904D01*
X103196129Y-54183242D01*
X102986246Y-54150000D01*
X102773754Y-54150000D01*
X102563872Y-54183242D01*
X102563869Y-54183242D01*
X102361782Y-54248904D01*
X102172439Y-54345380D01*
X102118282Y-54384727D01*
X102118282Y-54384728D01*
X102750591Y-55017037D01*
X102687007Y-55034075D01*
X102572993Y-55099901D01*
X102479901Y-55192993D01*
X102414075Y-55307007D01*
X102397037Y-55370591D01*
X101764728Y-54738282D01*
X101764727Y-54738282D01*
X101725380Y-54792439D01*
X101628904Y-54981782D01*
X101563242Y-55183869D01*
X101563242Y-55183872D01*
X101530000Y-55393753D01*
X91937693Y-55393753D01*
X92001557Y-55268412D01*
X92067246Y-55066243D01*
X92100500Y-54856287D01*
X92100500Y-54643713D01*
X92067246Y-54433757D01*
X92001557Y-54231588D01*
X91905051Y-54042184D01*
X91905049Y-54042181D01*
X91905048Y-54042179D01*
X91780109Y-53870213D01*
X91629786Y-53719890D01*
X91457820Y-53594951D01*
X91268414Y-53498444D01*
X91268413Y-53498443D01*
X91268412Y-53498443D01*
X91066243Y-53432754D01*
X91066241Y-53432753D01*
X91066240Y-53432753D01*
X90904957Y-53407208D01*
X90856287Y-53399500D01*
X90643713Y-53399500D01*
X90595042Y-53407208D01*
X90433760Y-53432753D01*
X90231585Y-53498444D01*
X90042179Y-53594951D01*
X89870213Y-53719890D01*
X89719890Y-53870213D01*
X89594951Y-54042179D01*
X89498444Y-54231585D01*
X89432753Y-54433760D01*
X89399500Y-54643713D01*
X88256929Y-54643713D01*
X88257677Y-54631354D01*
X88266706Y-54482074D01*
X88268271Y-54456201D01*
X88270076Y-54441340D01*
X88278057Y-54397793D01*
X88321780Y-54159197D01*
X88325364Y-54144663D01*
X88357298Y-54042184D01*
X88410696Y-53870822D01*
X88415998Y-53856841D01*
X88533731Y-53595249D01*
X88540676Y-53582016D01*
X88689080Y-53336526D01*
X88697567Y-53324230D01*
X88874480Y-53098417D01*
X88884395Y-53087226D01*
X89087226Y-52884395D01*
X89098417Y-52874480D01*
X89324230Y-52697567D01*
X89336526Y-52689080D01*
X89582016Y-52540676D01*
X89595249Y-52533731D01*
X89856841Y-52415998D01*
X89870822Y-52410696D01*
X90144668Y-52325362D01*
X90159197Y-52321780D01*
X90441344Y-52270075D01*
X90456201Y-52268271D01*
X90746264Y-52250726D01*
X90753751Y-52250500D01*
X90815892Y-52250500D01*
X132684108Y-52250500D01*
X132746249Y-52250500D01*
X132753736Y-52250726D01*
G37*
%TD.AperFunction*%
%TD*%
M02*
